G04 #@! TF.GenerationSoftware,KiCad,Pcbnew,(5.1.9)-1*
G04 #@! TF.CreationDate,2021-04-10T17:26:08+02:00*
G04 #@! TF.ProjectId,LEDbarPCB,4c454462-6172-4504-9342-2e6b69636164,rev?*
G04 #@! TF.SameCoordinates,Original*
G04 #@! TF.FileFunction,Copper,L1,Top*
G04 #@! TF.FilePolarity,Positive*
%FSLAX46Y46*%
G04 Gerber Fmt 4.6, Leading zero omitted, Abs format (unit mm)*
G04 Created by KiCad (PCBNEW (5.1.9)-1) date 2021-04-10 17:26:08*
%MOMM*%
%LPD*%
G01*
G04 APERTURE LIST*
G04 #@! TA.AperFunction,SMDPad,CuDef*
%ADD10R,2.000000X0.900000*%
G04 #@! TD*
G04 #@! TA.AperFunction,SMDPad,CuDef*
%ADD11R,0.900000X2.000000*%
G04 #@! TD*
G04 #@! TA.AperFunction,SMDPad,CuDef*
%ADD12R,1.330000X1.330000*%
G04 #@! TD*
G04 #@! TA.AperFunction,ComponentPad*
%ADD13C,0.400000*%
G04 #@! TD*
G04 #@! TA.AperFunction,ComponentPad*
%ADD14O,1.700000X1.700000*%
G04 #@! TD*
G04 #@! TA.AperFunction,ComponentPad*
%ADD15R,1.700000X1.700000*%
G04 #@! TD*
G04 #@! TA.AperFunction,SMDPad,CuDef*
%ADD16R,2.300000X1.500000*%
G04 #@! TD*
G04 #@! TA.AperFunction,SMDPad,CuDef*
%ADD17R,3.800000X2.000000*%
G04 #@! TD*
G04 #@! TA.AperFunction,SMDPad,CuDef*
%ADD18R,1.500000X2.000000*%
G04 #@! TD*
G04 #@! TA.AperFunction,ComponentPad*
%ADD19O,1.506220X3.014980*%
G04 #@! TD*
G04 #@! TA.AperFunction,ViaPad*
%ADD20C,0.800000*%
G04 #@! TD*
G04 #@! TA.AperFunction,Conductor*
%ADD21C,0.762000*%
G04 #@! TD*
G04 #@! TA.AperFunction,Conductor*
%ADD22C,1.016000*%
G04 #@! TD*
G04 #@! TA.AperFunction,Conductor*
%ADD23C,0.900000*%
G04 #@! TD*
G04 #@! TA.AperFunction,Conductor*
%ADD24C,0.254000*%
G04 #@! TD*
G04 #@! TA.AperFunction,Conductor*
%ADD25C,0.100000*%
G04 #@! TD*
G04 APERTURE END LIST*
D10*
X136702000Y-41160000D03*
X136702000Y-42430000D03*
X136702000Y-43700000D03*
X136702000Y-44970000D03*
X136702000Y-46240000D03*
X136702000Y-47510000D03*
X136702000Y-48780000D03*
X136702000Y-50050000D03*
X136702000Y-51320000D03*
X136702000Y-52590000D03*
X136702000Y-53860000D03*
X136702000Y-55130000D03*
X136702000Y-56400000D03*
X136702000Y-57670000D03*
D11*
X139487000Y-58670000D03*
X140757000Y-58670000D03*
X142027000Y-58670000D03*
X143297000Y-58670000D03*
X144567000Y-58670000D03*
X145837000Y-58670000D03*
X147107000Y-58670000D03*
X148377000Y-58670000D03*
X149647000Y-58670000D03*
X150917000Y-58670000D03*
D10*
X153702000Y-57670000D03*
X153702000Y-56400000D03*
X153702000Y-55130000D03*
X153702000Y-53860000D03*
X153702000Y-52590000D03*
X153702000Y-51320000D03*
X153702000Y-50050000D03*
X153702000Y-48780000D03*
X153702000Y-47510000D03*
X153702000Y-46240000D03*
X153702000Y-44970000D03*
X153702000Y-43700000D03*
X153702000Y-42430000D03*
X153702000Y-41160000D03*
D12*
X142367000Y-46825000D03*
X144202000Y-46825000D03*
X146037000Y-46825000D03*
X142367000Y-48660000D03*
X144202000Y-48660000D03*
X146037000Y-48660000D03*
X142367000Y-50495000D03*
X144202000Y-50495000D03*
X146037000Y-50495000D03*
D13*
X143284500Y-50495000D03*
X145113300Y-50495000D03*
X146027700Y-49580600D03*
X144173500Y-49580600D03*
X142370100Y-49580600D03*
X142344700Y-47751800D03*
X144224300Y-47751800D03*
X146053100Y-47751800D03*
X145113300Y-48590000D03*
X143309900Y-48640800D03*
X143284500Y-46837400D03*
X145113300Y-46837400D03*
G04 #@! TA.AperFunction,SMDPad,CuDef*
G36*
G01*
X160633500Y-62847725D02*
X160633500Y-61898275D01*
G75*
G02*
X160883775Y-61648000I250275J0D01*
G01*
X161558225Y-61648000D01*
G75*
G02*
X161808500Y-61898275I0J-250275D01*
G01*
X161808500Y-62847725D01*
G75*
G02*
X161558225Y-63098000I-250275J0D01*
G01*
X160883775Y-63098000D01*
G75*
G02*
X160633500Y-62847725I0J250275D01*
G01*
G37*
G04 #@! TD.AperFunction*
G04 #@! TA.AperFunction,SMDPad,CuDef*
G36*
G01*
X158558500Y-62848000D02*
X158558500Y-61898000D01*
G75*
G02*
X158808500Y-61648000I250000J0D01*
G01*
X159483500Y-61648000D01*
G75*
G02*
X159733500Y-61898000I0J-250000D01*
G01*
X159733500Y-62848000D01*
G75*
G02*
X159483500Y-63098000I-250000J0D01*
G01*
X158808500Y-63098000D01*
G75*
G02*
X158558500Y-62848000I0J250000D01*
G01*
G37*
G04 #@! TD.AperFunction*
G04 #@! TA.AperFunction,SMDPad,CuDef*
G36*
G01*
X132759000Y-43681000D02*
X131809000Y-43681000D01*
G75*
G02*
X131559000Y-43431000I0J250000D01*
G01*
X131559000Y-42756000D01*
G75*
G02*
X131809000Y-42506000I250000J0D01*
G01*
X132759000Y-42506000D01*
G75*
G02*
X133009000Y-42756000I0J-250000D01*
G01*
X133009000Y-43431000D01*
G75*
G02*
X132759000Y-43681000I-250000J0D01*
G01*
G37*
G04 #@! TD.AperFunction*
G04 #@! TA.AperFunction,SMDPad,CuDef*
G36*
G01*
X132758725Y-41606000D02*
X131809275Y-41606000D01*
G75*
G02*
X131559000Y-41355725I0J250275D01*
G01*
X131559000Y-40681275D01*
G75*
G02*
X131809275Y-40431000I250275J0D01*
G01*
X132758725Y-40431000D01*
G75*
G02*
X133009000Y-40681275I0J-250275D01*
G01*
X133009000Y-41355725D01*
G75*
G02*
X132758725Y-41606000I-250275J0D01*
G01*
G37*
G04 #@! TD.AperFunction*
G04 #@! TA.AperFunction,SMDPad,CuDef*
G36*
G01*
X165759725Y-68294500D02*
X164810275Y-68294500D01*
G75*
G02*
X164560000Y-68044225I0J250275D01*
G01*
X164560000Y-67369775D01*
G75*
G02*
X164810275Y-67119500I250275J0D01*
G01*
X165759725Y-67119500D01*
G75*
G02*
X166010000Y-67369775I0J-250275D01*
G01*
X166010000Y-68044225D01*
G75*
G02*
X165759725Y-68294500I-250275J0D01*
G01*
G37*
G04 #@! TD.AperFunction*
G04 #@! TA.AperFunction,SMDPad,CuDef*
G36*
G01*
X165760000Y-70369500D02*
X164810000Y-70369500D01*
G75*
G02*
X164560000Y-70119500I0J250000D01*
G01*
X164560000Y-69444500D01*
G75*
G02*
X164810000Y-69194500I250000J0D01*
G01*
X165760000Y-69194500D01*
G75*
G02*
X166010000Y-69444500I0J-250000D01*
G01*
X166010000Y-70119500D01*
G75*
G02*
X165760000Y-70369500I-250000J0D01*
G01*
G37*
G04 #@! TD.AperFunction*
G04 #@! TA.AperFunction,SMDPad,CuDef*
G36*
G01*
X129711000Y-43702500D02*
X128761000Y-43702500D01*
G75*
G02*
X128511000Y-43452500I0J250000D01*
G01*
X128511000Y-42777500D01*
G75*
G02*
X128761000Y-42527500I250000J0D01*
G01*
X129711000Y-42527500D01*
G75*
G02*
X129961000Y-42777500I0J-250000D01*
G01*
X129961000Y-43452500D01*
G75*
G02*
X129711000Y-43702500I-250000J0D01*
G01*
G37*
G04 #@! TD.AperFunction*
G04 #@! TA.AperFunction,SMDPad,CuDef*
G36*
G01*
X129710725Y-41627500D02*
X128761275Y-41627500D01*
G75*
G02*
X128511000Y-41377225I0J250275D01*
G01*
X128511000Y-40702775D01*
G75*
G02*
X128761275Y-40452500I250275J0D01*
G01*
X129710725Y-40452500D01*
G75*
G02*
X129961000Y-40702775I0J-250275D01*
G01*
X129961000Y-41377225D01*
G75*
G02*
X129710725Y-41627500I-250275J0D01*
G01*
G37*
G04 #@! TD.AperFunction*
G04 #@! TA.AperFunction,SMDPad,CuDef*
G36*
G01*
X153022550Y-61792000D02*
X153923450Y-61792000D01*
G75*
G02*
X154173000Y-62041550I0J-249550D01*
G01*
X154173000Y-62692450D01*
G75*
G02*
X153923450Y-62942000I-249550J0D01*
G01*
X153022550Y-62942000D01*
G75*
G02*
X152773000Y-62692450I0J249550D01*
G01*
X152773000Y-62041550D01*
G75*
G02*
X153022550Y-61792000I249550J0D01*
G01*
G37*
G04 #@! TD.AperFunction*
G04 #@! TA.AperFunction,SMDPad,CuDef*
G36*
G01*
X153022999Y-63842000D02*
X153923001Y-63842000D01*
G75*
G02*
X154173000Y-64091999I0J-249999D01*
G01*
X154173000Y-64742001D01*
G75*
G02*
X153923001Y-64992000I-249999J0D01*
G01*
X153022999Y-64992000D01*
G75*
G02*
X152773000Y-64742001I0J249999D01*
G01*
X152773000Y-64091999D01*
G75*
G02*
X153022999Y-63842000I249999J0D01*
G01*
G37*
G04 #@! TD.AperFunction*
D14*
X163530000Y-42310000D03*
X163530000Y-44850000D03*
X163530000Y-47390000D03*
D15*
X163530000Y-49930000D03*
G04 #@! TA.AperFunction,SMDPad,CuDef*
G36*
G01*
X160025000Y-45725000D02*
X158775000Y-45725000D01*
G75*
G02*
X158525000Y-45475000I0J250000D01*
G01*
X158525000Y-44550000D01*
G75*
G02*
X158775000Y-44300000I250000J0D01*
G01*
X160025000Y-44300000D01*
G75*
G02*
X160275000Y-44550000I0J-250000D01*
G01*
X160275000Y-45475000D01*
G75*
G02*
X160025000Y-45725000I-250000J0D01*
G01*
G37*
G04 #@! TD.AperFunction*
G04 #@! TA.AperFunction,SMDPad,CuDef*
G36*
G01*
X160025000Y-48700000D02*
X158775000Y-48700000D01*
G75*
G02*
X158525000Y-48450000I0J250000D01*
G01*
X158525000Y-47525000D01*
G75*
G02*
X158775000Y-47275000I250000J0D01*
G01*
X160025000Y-47275000D01*
G75*
G02*
X160275000Y-47525000I0J-250000D01*
G01*
X160275000Y-48450000D01*
G75*
G02*
X160025000Y-48700000I-250000J0D01*
G01*
G37*
G04 #@! TD.AperFunction*
G04 #@! TA.AperFunction,SMDPad,CuDef*
G36*
G01*
X131625000Y-44550000D02*
X132875000Y-44550000D01*
G75*
G02*
X133125000Y-44800000I0J-250000D01*
G01*
X133125000Y-45725000D01*
G75*
G02*
X132875000Y-45975000I-250000J0D01*
G01*
X131625000Y-45975000D01*
G75*
G02*
X131375000Y-45725000I0J250000D01*
G01*
X131375000Y-44800000D01*
G75*
G02*
X131625000Y-44550000I250000J0D01*
G01*
G37*
G04 #@! TD.AperFunction*
G04 #@! TA.AperFunction,SMDPad,CuDef*
G36*
G01*
X131625000Y-47525000D02*
X132875000Y-47525000D01*
G75*
G02*
X133125000Y-47775000I0J-250000D01*
G01*
X133125000Y-48700000D01*
G75*
G02*
X132875000Y-48950000I-250000J0D01*
G01*
X131625000Y-48950000D01*
G75*
G02*
X131375000Y-48700000I0J250000D01*
G01*
X131375000Y-47775000D01*
G75*
G02*
X131625000Y-47525000I250000J0D01*
G01*
G37*
G04 #@! TD.AperFunction*
G04 #@! TA.AperFunction,SMDPad,CuDef*
G36*
G01*
X151558000Y-65301500D02*
X150308000Y-65301500D01*
G75*
G02*
X150058000Y-65051500I0J250000D01*
G01*
X150058000Y-64126500D01*
G75*
G02*
X150308000Y-63876500I250000J0D01*
G01*
X151558000Y-63876500D01*
G75*
G02*
X151808000Y-64126500I0J-250000D01*
G01*
X151808000Y-65051500D01*
G75*
G02*
X151558000Y-65301500I-250000J0D01*
G01*
G37*
G04 #@! TD.AperFunction*
G04 #@! TA.AperFunction,SMDPad,CuDef*
G36*
G01*
X151558000Y-62326500D02*
X150308000Y-62326500D01*
G75*
G02*
X150058000Y-62076500I0J250000D01*
G01*
X150058000Y-61151500D01*
G75*
G02*
X150308000Y-60901500I250000J0D01*
G01*
X151558000Y-60901500D01*
G75*
G02*
X151808000Y-61151500I0J-250000D01*
G01*
X151808000Y-62076500D01*
G75*
G02*
X151558000Y-62326500I-250000J0D01*
G01*
G37*
G04 #@! TD.AperFunction*
G04 #@! TA.AperFunction,SMDPad,CuDef*
G36*
G01*
X159491500Y-53603000D02*
X159491500Y-52353000D01*
G75*
G02*
X159741500Y-52103000I250000J0D01*
G01*
X160666500Y-52103000D01*
G75*
G02*
X160916500Y-52353000I0J-250000D01*
G01*
X160916500Y-53603000D01*
G75*
G02*
X160666500Y-53853000I-250000J0D01*
G01*
X159741500Y-53853000D01*
G75*
G02*
X159491500Y-53603000I0J250000D01*
G01*
G37*
G04 #@! TD.AperFunction*
G04 #@! TA.AperFunction,SMDPad,CuDef*
G36*
G01*
X156516500Y-53603000D02*
X156516500Y-52353000D01*
G75*
G02*
X156766500Y-52103000I250000J0D01*
G01*
X157691500Y-52103000D01*
G75*
G02*
X157941500Y-52353000I0J-250000D01*
G01*
X157941500Y-53603000D01*
G75*
G02*
X157691500Y-53853000I-250000J0D01*
G01*
X156766500Y-53853000D01*
G75*
G02*
X156516500Y-53603000I0J250000D01*
G01*
G37*
G04 #@! TD.AperFunction*
G04 #@! TA.AperFunction,SMDPad,CuDef*
G36*
G01*
X157937500Y-55575000D02*
X157937500Y-56825000D01*
G75*
G02*
X157687500Y-57075000I-250000J0D01*
G01*
X156762500Y-57075000D01*
G75*
G02*
X156512500Y-56825000I0J250000D01*
G01*
X156512500Y-55575000D01*
G75*
G02*
X156762500Y-55325000I250000J0D01*
G01*
X157687500Y-55325000D01*
G75*
G02*
X157937500Y-55575000I0J-250000D01*
G01*
G37*
G04 #@! TD.AperFunction*
G04 #@! TA.AperFunction,SMDPad,CuDef*
G36*
G01*
X160912500Y-55575000D02*
X160912500Y-56825000D01*
G75*
G02*
X160662500Y-57075000I-250000J0D01*
G01*
X159737500Y-57075000D01*
G75*
G02*
X159487500Y-56825000I0J250000D01*
G01*
X159487500Y-55575000D01*
G75*
G02*
X159737500Y-55325000I250000J0D01*
G01*
X160662500Y-55325000D01*
G75*
G02*
X160912500Y-55575000I0J-250000D01*
G01*
G37*
G04 #@! TD.AperFunction*
D16*
X127100000Y-45250000D03*
X120400000Y-45250000D03*
X163850000Y-56400000D03*
X170550000Y-56400000D03*
D17*
X160205000Y-71771000D03*
D18*
X160205000Y-65471000D03*
X157905000Y-65471000D03*
X162505000Y-65471000D03*
D19*
X146252480Y-70000000D03*
X149747520Y-70000000D03*
D15*
X122750000Y-50260000D03*
D14*
X122750000Y-52800000D03*
X122750000Y-55340000D03*
X122750000Y-57880000D03*
X122750000Y-60420000D03*
X122750000Y-62960000D03*
X122750000Y-65500000D03*
X122750000Y-68040000D03*
D20*
X152250000Y-66750000D03*
X127000000Y-41750000D03*
X156000000Y-71750000D03*
X128750000Y-47500000D03*
X161270000Y-49930000D03*
X161230000Y-44970000D03*
X156740000Y-46240000D03*
X124900000Y-50100000D03*
X124900000Y-52800000D03*
X124900000Y-55300000D03*
X124900000Y-57900000D03*
X124900000Y-60400000D03*
X124900000Y-62900000D03*
X124900000Y-65500000D03*
X124900000Y-68000000D03*
D21*
X153301000Y-64589000D02*
X153473000Y-64417000D01*
X150933000Y-64589000D02*
X153301000Y-64589000D01*
D22*
X142367000Y-46825000D02*
X144202000Y-46825000D01*
X144202000Y-46825000D02*
X146037000Y-46825000D01*
X142367000Y-46825000D02*
X142367000Y-48660000D01*
X142367000Y-48660000D02*
X142367000Y-50495000D01*
X142367000Y-50495000D02*
X144202000Y-50495000D01*
X144202000Y-50495000D02*
X144202000Y-48660000D01*
X144202000Y-48660000D02*
X142367000Y-48660000D01*
X144202000Y-48660000D02*
X144202000Y-46825000D01*
X144202000Y-48660000D02*
X146037000Y-48660000D01*
X144202000Y-50495000D02*
X146037000Y-50495000D01*
X146037000Y-50495000D02*
X146037000Y-48660000D01*
X157905000Y-63614000D02*
X159146000Y-62373000D01*
X157905000Y-65471000D02*
X157905000Y-63614000D01*
X157905000Y-65471000D02*
X156626000Y-66750000D01*
X156626000Y-66750000D02*
X152250000Y-66750000D01*
X129236000Y-43115000D02*
X132262500Y-43115000D01*
X165285000Y-69782000D02*
X165285000Y-70501000D01*
X164015000Y-71771000D02*
X160205000Y-71771000D01*
X160205000Y-71771000D02*
X160205000Y-65471000D01*
X160205000Y-71771000D02*
X160205000Y-71705000D01*
X164015000Y-71771000D02*
X165285000Y-70501000D01*
D21*
X128365000Y-43115000D02*
X127000000Y-41750000D01*
X129236000Y-43115000D02*
X128365000Y-43115000D01*
D22*
X129487500Y-48237500D02*
X128750000Y-47500000D01*
X132250000Y-48237500D02*
X129487500Y-48237500D01*
D23*
X134320000Y-42430000D02*
X133656500Y-43093500D01*
X133656500Y-43093500D02*
X132284000Y-43093500D01*
X136702000Y-42430000D02*
X134320000Y-42430000D01*
X159400000Y-47987500D02*
X159400000Y-50100000D01*
X159400000Y-50100000D02*
X160204000Y-50904000D01*
X160204000Y-50904000D02*
X160204000Y-50896000D01*
X160204000Y-50896000D02*
X161170000Y-49930000D01*
D22*
X160184000Y-71750000D02*
X160205000Y-71771000D01*
X156000000Y-71750000D02*
X160184000Y-71750000D01*
D23*
X166418000Y-69782000D02*
X165285000Y-69782000D01*
X167900000Y-68300000D02*
X166418000Y-69782000D01*
X167900000Y-56000000D02*
X167900000Y-68300000D01*
X163530000Y-51630000D02*
X167900000Y-56000000D01*
X163530000Y-49930000D02*
X163530000Y-51630000D01*
X160204000Y-56196000D02*
X160200000Y-56200000D01*
X160204000Y-52978000D02*
X160204000Y-56196000D01*
X160204000Y-50896000D02*
X160204000Y-52978000D01*
D21*
X156841000Y-52590000D02*
X157229000Y-52978000D01*
D23*
X153702000Y-52590000D02*
X156841000Y-52590000D01*
X159357500Y-44970000D02*
X159400000Y-45012500D01*
X153702000Y-44970000D02*
X159357500Y-44970000D01*
X159442500Y-44970000D02*
X159400000Y-45012500D01*
X161230000Y-44970000D02*
X159442500Y-44970000D01*
X153702000Y-46240000D02*
X156740000Y-46240000D01*
D21*
X150933000Y-58686000D02*
X150917000Y-58670000D01*
D23*
X150917000Y-61598000D02*
X150933000Y-61614000D01*
X150917000Y-58670000D02*
X150917000Y-61598000D01*
X124950000Y-50050000D02*
X124900000Y-50100000D01*
X136702000Y-50050000D02*
X124950000Y-50050000D01*
X126380000Y-51320000D02*
X124900000Y-52800000D01*
X136702000Y-51320000D02*
X126380000Y-51320000D01*
X127610000Y-52590000D02*
X124900000Y-55300000D01*
X136702000Y-52590000D02*
X127610000Y-52590000D01*
X128940000Y-53860000D02*
X124900000Y-57900000D01*
X136702000Y-53860000D02*
X128940000Y-53860000D01*
X130170000Y-55130000D02*
X124900000Y-60400000D01*
X136702000Y-55130000D02*
X130170000Y-55130000D01*
X131400000Y-56400000D02*
X124900000Y-62900000D01*
X136702000Y-56400000D02*
X131400000Y-56400000D01*
X132730000Y-57670000D02*
X124900000Y-65500000D01*
X136702000Y-57670000D02*
X132730000Y-57670000D01*
D21*
X140757000Y-59493000D02*
X140750000Y-59500000D01*
X140757000Y-58670000D02*
X140757000Y-59493000D01*
D23*
X140757000Y-62443000D02*
X135200000Y-68000000D01*
X135200000Y-68000000D02*
X124900000Y-68000000D01*
X140757000Y-58670000D02*
X140757000Y-62443000D01*
D22*
X129750000Y-45250000D02*
X132237500Y-45250000D01*
X127100000Y-45250000D02*
X129750000Y-45250000D01*
D23*
X133487500Y-45262500D02*
X132250000Y-45262500D01*
X135050000Y-43700000D02*
X133487500Y-45262500D01*
X136702000Y-43700000D02*
X135050000Y-43700000D01*
X155755000Y-57670000D02*
X157225000Y-56200000D01*
X153702000Y-57670000D02*
X155755000Y-57670000D01*
X155755000Y-57670000D02*
X155770000Y-57670000D01*
X155770000Y-57670000D02*
X156800000Y-58700000D01*
X156800000Y-58700000D02*
X162900000Y-58700000D01*
X163850000Y-57750000D02*
X163850000Y-56400000D01*
X162900000Y-58700000D02*
X163850000Y-57750000D01*
D24*
X176065001Y-77565000D02*
X113435000Y-77565000D01*
X113435000Y-74490475D01*
X113615000Y-74490475D01*
X113615000Y-75009525D01*
X113716261Y-75518601D01*
X113914893Y-75998141D01*
X114203262Y-76429715D01*
X114570285Y-76796738D01*
X115001859Y-77085107D01*
X115481399Y-77283739D01*
X115990475Y-77385000D01*
X116509525Y-77385000D01*
X117018601Y-77283739D01*
X117498141Y-77085107D01*
X117929715Y-76796738D01*
X118296738Y-76429715D01*
X118585107Y-75998141D01*
X118783739Y-75518601D01*
X118885000Y-75009525D01*
X118885000Y-74490475D01*
X170615000Y-74490475D01*
X170615000Y-75009525D01*
X170716261Y-75518601D01*
X170914893Y-75998141D01*
X171203262Y-76429715D01*
X171570285Y-76796738D01*
X172001859Y-77085107D01*
X172481399Y-77283739D01*
X172990475Y-77385000D01*
X173509525Y-77385000D01*
X174018601Y-77283739D01*
X174498141Y-77085107D01*
X174929715Y-76796738D01*
X175296738Y-76429715D01*
X175585107Y-75998141D01*
X175783739Y-75518601D01*
X175885000Y-75009525D01*
X175885000Y-74490475D01*
X175783739Y-73981399D01*
X175585107Y-73501859D01*
X175296738Y-73070285D01*
X174929715Y-72703262D01*
X174498141Y-72414893D01*
X174018601Y-72216261D01*
X173509525Y-72115000D01*
X172990475Y-72115000D01*
X172481399Y-72216261D01*
X172001859Y-72414893D01*
X171570285Y-72703262D01*
X171203262Y-73070285D01*
X170914893Y-73501859D01*
X170716261Y-73981399D01*
X170615000Y-74490475D01*
X118885000Y-74490475D01*
X118783739Y-73981399D01*
X118585107Y-73501859D01*
X118296738Y-73070285D01*
X117929715Y-72703262D01*
X117498141Y-72414893D01*
X117018601Y-72216261D01*
X116509525Y-72115000D01*
X115990475Y-72115000D01*
X115481399Y-72216261D01*
X115001859Y-72414893D01*
X114570285Y-72703262D01*
X114203262Y-73070285D01*
X113914893Y-73501859D01*
X113716261Y-73981399D01*
X113615000Y-74490475D01*
X113435000Y-74490475D01*
X113435000Y-49410000D01*
X121261928Y-49410000D01*
X121261928Y-51110000D01*
X121274188Y-51234482D01*
X121310498Y-51354180D01*
X121369463Y-51464494D01*
X121448815Y-51561185D01*
X121545506Y-51640537D01*
X121655820Y-51699502D01*
X121728380Y-51721513D01*
X121596525Y-51853368D01*
X121434010Y-52096589D01*
X121322068Y-52366842D01*
X121265000Y-52653740D01*
X121265000Y-52946260D01*
X121322068Y-53233158D01*
X121434010Y-53503411D01*
X121596525Y-53746632D01*
X121803368Y-53953475D01*
X121977760Y-54070000D01*
X121803368Y-54186525D01*
X121596525Y-54393368D01*
X121434010Y-54636589D01*
X121322068Y-54906842D01*
X121265000Y-55193740D01*
X121265000Y-55486260D01*
X121322068Y-55773158D01*
X121434010Y-56043411D01*
X121596525Y-56286632D01*
X121803368Y-56493475D01*
X121977760Y-56610000D01*
X121803368Y-56726525D01*
X121596525Y-56933368D01*
X121434010Y-57176589D01*
X121322068Y-57446842D01*
X121265000Y-57733740D01*
X121265000Y-58026260D01*
X121322068Y-58313158D01*
X121434010Y-58583411D01*
X121596525Y-58826632D01*
X121803368Y-59033475D01*
X121977760Y-59150000D01*
X121803368Y-59266525D01*
X121596525Y-59473368D01*
X121434010Y-59716589D01*
X121322068Y-59986842D01*
X121265000Y-60273740D01*
X121265000Y-60566260D01*
X121322068Y-60853158D01*
X121434010Y-61123411D01*
X121596525Y-61366632D01*
X121803368Y-61573475D01*
X121977760Y-61690000D01*
X121803368Y-61806525D01*
X121596525Y-62013368D01*
X121434010Y-62256589D01*
X121322068Y-62526842D01*
X121265000Y-62813740D01*
X121265000Y-63106260D01*
X121322068Y-63393158D01*
X121434010Y-63663411D01*
X121596525Y-63906632D01*
X121803368Y-64113475D01*
X121977760Y-64230000D01*
X121803368Y-64346525D01*
X121596525Y-64553368D01*
X121434010Y-64796589D01*
X121322068Y-65066842D01*
X121265000Y-65353740D01*
X121265000Y-65646260D01*
X121322068Y-65933158D01*
X121434010Y-66203411D01*
X121596525Y-66446632D01*
X121803368Y-66653475D01*
X121977760Y-66770000D01*
X121803368Y-66886525D01*
X121596525Y-67093368D01*
X121434010Y-67336589D01*
X121322068Y-67606842D01*
X121265000Y-67893740D01*
X121265000Y-68186260D01*
X121322068Y-68473158D01*
X121434010Y-68743411D01*
X121596525Y-68986632D01*
X121803368Y-69193475D01*
X122046589Y-69355990D01*
X122316842Y-69467932D01*
X122603740Y-69525000D01*
X122896260Y-69525000D01*
X123183158Y-69467932D01*
X123453411Y-69355990D01*
X123696632Y-69193475D01*
X123712676Y-69177431D01*
X144864370Y-69177431D01*
X144864370Y-70822568D01*
X144884455Y-71026496D01*
X144963829Y-71288156D01*
X145092725Y-71529303D01*
X145266189Y-71740670D01*
X145477556Y-71914135D01*
X145718703Y-72043031D01*
X145980363Y-72122405D01*
X146252480Y-72149206D01*
X146524596Y-72122405D01*
X146786256Y-72043031D01*
X147027403Y-71914135D01*
X147238770Y-71740671D01*
X147412235Y-71529304D01*
X147541131Y-71288157D01*
X147620505Y-71026497D01*
X147640590Y-70822569D01*
X147640590Y-69177431D01*
X147620505Y-68973503D01*
X147541131Y-68711843D01*
X147412235Y-68470696D01*
X147238771Y-68259329D01*
X147027404Y-68085865D01*
X146786257Y-67956969D01*
X146524597Y-67877595D01*
X146252480Y-67850794D01*
X145980364Y-67877595D01*
X145718704Y-67956969D01*
X145477557Y-68085865D01*
X145266190Y-68259329D01*
X145092726Y-68470696D01*
X144963830Y-68711843D01*
X144884455Y-68973503D01*
X144864370Y-69177431D01*
X123712676Y-69177431D01*
X123903475Y-68986632D01*
X124065990Y-68743411D01*
X124079578Y-68710607D01*
X124129078Y-68770922D01*
X124294290Y-68906509D01*
X124482780Y-69007259D01*
X124687303Y-69069300D01*
X124846706Y-69085000D01*
X135146714Y-69085000D01*
X135200000Y-69090248D01*
X135253286Y-69085000D01*
X135253294Y-69085000D01*
X135412697Y-69069300D01*
X135617220Y-69007259D01*
X135805710Y-68906509D01*
X135970922Y-68770922D01*
X136004895Y-68729526D01*
X140607921Y-64126500D01*
X149419928Y-64126500D01*
X149419928Y-65051500D01*
X149436992Y-65224754D01*
X149487528Y-65391350D01*
X149569595Y-65544886D01*
X149680038Y-65679462D01*
X149814614Y-65789905D01*
X149968150Y-65871972D01*
X150134746Y-65922508D01*
X150308000Y-65939572D01*
X151436468Y-65939572D01*
X151295032Y-66111911D01*
X151188897Y-66310477D01*
X151123539Y-66525933D01*
X151101470Y-66750000D01*
X151123539Y-66974067D01*
X151188897Y-67189523D01*
X151295032Y-67388089D01*
X151437867Y-67562133D01*
X151611911Y-67704968D01*
X151810477Y-67811103D01*
X152025933Y-67876461D01*
X152193854Y-67893000D01*
X156569861Y-67893000D01*
X156626000Y-67898529D01*
X156682139Y-67893000D01*
X156682146Y-67893000D01*
X156850067Y-67876461D01*
X157065523Y-67811103D01*
X157264089Y-67704968D01*
X157438133Y-67562133D01*
X157473927Y-67518518D01*
X157883373Y-67109072D01*
X158655000Y-67109072D01*
X158779482Y-67096812D01*
X158899180Y-67060502D01*
X159009494Y-67001537D01*
X159055000Y-66964191D01*
X159062001Y-66969937D01*
X159062000Y-70132928D01*
X158305000Y-70132928D01*
X158180518Y-70145188D01*
X158060820Y-70181498D01*
X157950506Y-70240463D01*
X157853815Y-70319815D01*
X157774463Y-70416506D01*
X157715498Y-70526820D01*
X157691176Y-70607000D01*
X155943854Y-70607000D01*
X155775933Y-70623539D01*
X155560477Y-70688897D01*
X155361911Y-70795032D01*
X155187867Y-70937867D01*
X155045032Y-71111911D01*
X154938897Y-71310477D01*
X154873539Y-71525933D01*
X154851470Y-71750000D01*
X154873539Y-71974067D01*
X154938897Y-72189523D01*
X155045032Y-72388089D01*
X155187867Y-72562133D01*
X155361911Y-72704968D01*
X155560477Y-72811103D01*
X155775933Y-72876461D01*
X155943854Y-72893000D01*
X157678944Y-72893000D01*
X157679188Y-72895482D01*
X157715498Y-73015180D01*
X157774463Y-73125494D01*
X157853815Y-73222185D01*
X157950506Y-73301537D01*
X158060820Y-73360502D01*
X158180518Y-73396812D01*
X158305000Y-73409072D01*
X162105000Y-73409072D01*
X162229482Y-73396812D01*
X162349180Y-73360502D01*
X162459494Y-73301537D01*
X162556185Y-73222185D01*
X162635537Y-73125494D01*
X162694502Y-73015180D01*
X162725195Y-72914000D01*
X163958861Y-72914000D01*
X164015000Y-72919529D01*
X164071139Y-72914000D01*
X164071146Y-72914000D01*
X164239067Y-72897461D01*
X164454523Y-72832103D01*
X164653089Y-72725968D01*
X164827133Y-72583133D01*
X164862927Y-72539518D01*
X166053523Y-71348923D01*
X166097133Y-71313133D01*
X166136244Y-71265477D01*
X166239967Y-71139090D01*
X166239968Y-71139089D01*
X166346103Y-70940523D01*
X166368299Y-70867353D01*
X166418000Y-70872248D01*
X166471286Y-70867000D01*
X166471294Y-70867000D01*
X166630697Y-70851300D01*
X166835220Y-70789259D01*
X167023710Y-70688509D01*
X167188922Y-70552922D01*
X167222895Y-70511526D01*
X168629531Y-69104891D01*
X168670922Y-69070922D01*
X168704891Y-69029531D01*
X168704895Y-69029527D01*
X168806508Y-68905711D01*
X168854172Y-68816538D01*
X168907259Y-68717220D01*
X168969300Y-68512697D01*
X168985000Y-68353294D01*
X168985000Y-68353277D01*
X168990247Y-68300001D01*
X168985000Y-68246725D01*
X168985000Y-56053285D01*
X168990248Y-55999999D01*
X168985000Y-55946713D01*
X168985000Y-55946706D01*
X168969300Y-55787303D01*
X168907259Y-55582780D01*
X168806509Y-55394290D01*
X168729127Y-55300000D01*
X168704895Y-55270473D01*
X168704891Y-55270469D01*
X168670922Y-55229078D01*
X168629531Y-55195109D01*
X164740241Y-51305820D01*
X164831185Y-51231185D01*
X164910537Y-51134494D01*
X164969502Y-51024180D01*
X165005812Y-50904482D01*
X165018072Y-50780000D01*
X165018072Y-49080000D01*
X165005812Y-48955518D01*
X164969502Y-48835820D01*
X164910537Y-48725506D01*
X164831185Y-48628815D01*
X164734494Y-48549463D01*
X164624180Y-48490498D01*
X164551620Y-48468487D01*
X164683475Y-48336632D01*
X164845990Y-48093411D01*
X164957932Y-47823158D01*
X165015000Y-47536260D01*
X165015000Y-47243740D01*
X164957932Y-46956842D01*
X164845990Y-46686589D01*
X164683475Y-46443368D01*
X164476632Y-46236525D01*
X164302240Y-46120000D01*
X164476632Y-46003475D01*
X164683475Y-45796632D01*
X164845990Y-45553411D01*
X164957932Y-45283158D01*
X165015000Y-44996260D01*
X165015000Y-44703740D01*
X164957932Y-44416842D01*
X164845990Y-44146589D01*
X164683475Y-43903368D01*
X164476632Y-43696525D01*
X164233411Y-43534010D01*
X163963158Y-43422068D01*
X163676260Y-43365000D01*
X163383740Y-43365000D01*
X163096842Y-43422068D01*
X162826589Y-43534010D01*
X162583368Y-43696525D01*
X162376525Y-43903368D01*
X162214010Y-44146589D01*
X162128087Y-44354027D01*
X162000922Y-44199078D01*
X161835710Y-44063491D01*
X161647220Y-43962741D01*
X161442697Y-43900700D01*
X161283294Y-43885000D01*
X160607831Y-43885000D01*
X160518386Y-43811595D01*
X160364850Y-43729528D01*
X160198254Y-43678992D01*
X160025000Y-43661928D01*
X158775000Y-43661928D01*
X158601746Y-43678992D01*
X158435150Y-43729528D01*
X158281614Y-43811595D01*
X158192169Y-43885000D01*
X155340072Y-43885000D01*
X155340072Y-43250000D01*
X155327812Y-43125518D01*
X155309454Y-43065000D01*
X155327812Y-43004482D01*
X155329191Y-42990475D01*
X170615000Y-42990475D01*
X170615000Y-43509525D01*
X170716261Y-44018601D01*
X170914893Y-44498141D01*
X171203262Y-44929715D01*
X171570285Y-45296738D01*
X172001859Y-45585107D01*
X172481399Y-45783739D01*
X172990475Y-45885000D01*
X173509525Y-45885000D01*
X174018601Y-45783739D01*
X174498141Y-45585107D01*
X174929715Y-45296738D01*
X175296738Y-44929715D01*
X175585107Y-44498141D01*
X175783739Y-44018601D01*
X175885000Y-43509525D01*
X175885000Y-42990475D01*
X175783739Y-42481399D01*
X175585107Y-42001859D01*
X175296738Y-41570285D01*
X174929715Y-41203262D01*
X174498141Y-40914893D01*
X174018601Y-40716261D01*
X173509525Y-40615000D01*
X172990475Y-40615000D01*
X172481399Y-40716261D01*
X172001859Y-40914893D01*
X171570285Y-41203262D01*
X171203262Y-41570285D01*
X170914893Y-42001859D01*
X170716261Y-42481399D01*
X170615000Y-42990475D01*
X155329191Y-42990475D01*
X155340072Y-42880000D01*
X155340072Y-41980000D01*
X155327812Y-41855518D01*
X155291502Y-41735820D01*
X155232537Y-41625506D01*
X155153185Y-41528815D01*
X155056494Y-41449463D01*
X154946180Y-41390498D01*
X154826482Y-41354188D01*
X154702000Y-41341928D01*
X152702000Y-41341928D01*
X152577518Y-41354188D01*
X152457820Y-41390498D01*
X152347506Y-41449463D01*
X152250815Y-41528815D01*
X152171463Y-41625506D01*
X152112498Y-41735820D01*
X152076188Y-41855518D01*
X152063928Y-41980000D01*
X152063928Y-42880000D01*
X152076188Y-43004482D01*
X152094546Y-43065000D01*
X152076188Y-43125518D01*
X152063928Y-43250000D01*
X152063928Y-44150000D01*
X152076188Y-44274482D01*
X152094546Y-44335000D01*
X152076188Y-44395518D01*
X152063928Y-44520000D01*
X152063928Y-45420000D01*
X152076188Y-45544482D01*
X152094546Y-45605000D01*
X152076188Y-45665518D01*
X152063928Y-45790000D01*
X152063928Y-46690000D01*
X152076188Y-46814482D01*
X152094546Y-46875000D01*
X152076188Y-46935518D01*
X152063928Y-47060000D01*
X152063928Y-47960000D01*
X152076188Y-48084482D01*
X152094546Y-48145000D01*
X152076188Y-48205518D01*
X152063928Y-48330000D01*
X152063928Y-49230000D01*
X152076188Y-49354482D01*
X152094546Y-49415000D01*
X152076188Y-49475518D01*
X152063928Y-49600000D01*
X152063928Y-50500000D01*
X152076188Y-50624482D01*
X152094546Y-50685000D01*
X152076188Y-50745518D01*
X152063928Y-50870000D01*
X152063928Y-51770000D01*
X152076188Y-51894482D01*
X152094546Y-51955000D01*
X152076188Y-52015518D01*
X152063928Y-52140000D01*
X152063928Y-53040000D01*
X152076188Y-53164482D01*
X152094546Y-53225000D01*
X152076188Y-53285518D01*
X152063928Y-53410000D01*
X152063928Y-54310000D01*
X152076188Y-54434482D01*
X152094546Y-54495000D01*
X152076188Y-54555518D01*
X152063928Y-54680000D01*
X152063928Y-55580000D01*
X152076188Y-55704482D01*
X152094546Y-55765000D01*
X152076188Y-55825518D01*
X152063928Y-55950000D01*
X152063928Y-56850000D01*
X152076188Y-56974482D01*
X152094546Y-57035000D01*
X152076188Y-57095518D01*
X152063928Y-57220000D01*
X152063928Y-58120000D01*
X152076188Y-58244482D01*
X152112498Y-58364180D01*
X152171463Y-58474494D01*
X152250815Y-58571185D01*
X152347506Y-58650537D01*
X152457820Y-58709502D01*
X152577518Y-58745812D01*
X152702000Y-58758072D01*
X154702000Y-58758072D01*
X154733192Y-58755000D01*
X155320579Y-58755000D01*
X155995109Y-59429531D01*
X156029078Y-59470922D01*
X156070469Y-59504891D01*
X156070473Y-59504895D01*
X156106985Y-59534859D01*
X156194290Y-59606509D01*
X156382780Y-59707259D01*
X156587303Y-59769300D01*
X156746706Y-59785000D01*
X156746714Y-59785000D01*
X156800000Y-59790248D01*
X156853286Y-59785000D01*
X162846714Y-59785000D01*
X162900000Y-59790248D01*
X162953286Y-59785000D01*
X162953294Y-59785000D01*
X163112697Y-59769300D01*
X163317220Y-59707259D01*
X163505710Y-59606509D01*
X163670922Y-59470922D01*
X163704895Y-59429526D01*
X164579531Y-58554891D01*
X164620922Y-58520922D01*
X164654891Y-58479531D01*
X164654895Y-58479527D01*
X164720549Y-58399527D01*
X164756509Y-58355710D01*
X164857259Y-58167220D01*
X164919300Y-57962697D01*
X164935000Y-57803294D01*
X164935000Y-57803286D01*
X164936498Y-57788072D01*
X165000000Y-57788072D01*
X165124482Y-57775812D01*
X165244180Y-57739502D01*
X165354494Y-57680537D01*
X165451185Y-57601185D01*
X165530537Y-57504494D01*
X165589502Y-57394180D01*
X165625812Y-57274482D01*
X165638072Y-57150000D01*
X165638072Y-55650000D01*
X165625812Y-55525518D01*
X165589502Y-55405820D01*
X165530537Y-55295506D01*
X165451185Y-55198815D01*
X165354494Y-55119463D01*
X165244180Y-55060498D01*
X165124482Y-55024188D01*
X165000000Y-55011928D01*
X162700000Y-55011928D01*
X162575518Y-55024188D01*
X162455820Y-55060498D01*
X162345506Y-55119463D01*
X162248815Y-55198815D01*
X162169463Y-55295506D01*
X162110498Y-55405820D01*
X162074188Y-55525518D01*
X162061928Y-55650000D01*
X162061928Y-57150000D01*
X162074188Y-57274482D01*
X162110498Y-57394180D01*
X162169463Y-57504494D01*
X162248815Y-57601185D01*
X162265649Y-57615000D01*
X161059359Y-57615000D01*
X161155886Y-57563405D01*
X161290462Y-57452962D01*
X161400905Y-57318386D01*
X161482972Y-57164850D01*
X161533508Y-56998254D01*
X161550572Y-56825000D01*
X161550572Y-55575000D01*
X161533508Y-55401746D01*
X161482972Y-55235150D01*
X161400905Y-55081614D01*
X161290462Y-54947038D01*
X161289000Y-54945838D01*
X161289000Y-54235445D01*
X161294462Y-54230962D01*
X161404905Y-54096386D01*
X161486972Y-53942850D01*
X161537508Y-53776254D01*
X161554572Y-53603000D01*
X161554572Y-52353000D01*
X161537508Y-52179746D01*
X161486972Y-52013150D01*
X161404905Y-51859614D01*
X161294462Y-51725038D01*
X161289000Y-51720555D01*
X161289000Y-51345421D01*
X161841507Y-50792915D01*
X161929774Y-50733937D01*
X162041928Y-50621783D01*
X162041928Y-50780000D01*
X162054188Y-50904482D01*
X162090498Y-51024180D01*
X162149463Y-51134494D01*
X162228815Y-51231185D01*
X162325506Y-51310537D01*
X162435820Y-51369502D01*
X162445000Y-51372287D01*
X162445000Y-51576714D01*
X162439752Y-51630000D01*
X162445000Y-51683286D01*
X162445000Y-51683294D01*
X162446734Y-51700895D01*
X162460700Y-51842697D01*
X162507224Y-51996063D01*
X162522742Y-52047220D01*
X162623492Y-52235710D01*
X162671227Y-52293875D01*
X162725105Y-52359526D01*
X162725110Y-52359531D01*
X162759079Y-52400922D01*
X162800470Y-52434891D01*
X166815000Y-56449422D01*
X166815001Y-67850577D01*
X166055119Y-68610459D01*
X165933254Y-68573492D01*
X165760000Y-68556428D01*
X164810000Y-68556428D01*
X164636746Y-68573492D01*
X164470150Y-68624028D01*
X164316614Y-68706095D01*
X164182038Y-68816538D01*
X164071595Y-68951114D01*
X163989528Y-69104650D01*
X163938992Y-69271246D01*
X163921928Y-69444500D01*
X163921928Y-70119500D01*
X163933416Y-70236139D01*
X163541555Y-70628000D01*
X162725195Y-70628000D01*
X162694502Y-70526820D01*
X162635537Y-70416506D01*
X162556185Y-70319815D01*
X162459494Y-70240463D01*
X162349180Y-70181498D01*
X162229482Y-70145188D01*
X162105000Y-70132928D01*
X161348000Y-70132928D01*
X161348000Y-66969936D01*
X161406185Y-66922185D01*
X161485537Y-66825494D01*
X161544502Y-66715180D01*
X161580812Y-66595482D01*
X161593072Y-66471000D01*
X161593072Y-64471000D01*
X161580812Y-64346518D01*
X161544502Y-64226820D01*
X161485537Y-64116506D01*
X161406185Y-64019815D01*
X161309494Y-63940463D01*
X161199180Y-63881498D01*
X161079482Y-63845188D01*
X160955000Y-63832928D01*
X159455000Y-63832928D01*
X159330518Y-63845188D01*
X159272727Y-63862719D01*
X159399374Y-63736072D01*
X159483500Y-63736072D01*
X159656754Y-63719008D01*
X159823350Y-63668472D01*
X159976886Y-63586405D01*
X160111462Y-63475962D01*
X160221905Y-63341386D01*
X160303972Y-63187850D01*
X160354508Y-63021254D01*
X160371572Y-62848000D01*
X160371572Y-61898000D01*
X160354508Y-61724746D01*
X160303972Y-61558150D01*
X160221905Y-61404614D01*
X160111462Y-61270038D01*
X159976886Y-61159595D01*
X159823350Y-61077528D01*
X159656754Y-61026992D01*
X159483500Y-61009928D01*
X158808500Y-61009928D01*
X158635246Y-61026992D01*
X158468650Y-61077528D01*
X158315114Y-61159595D01*
X158180538Y-61270038D01*
X158070095Y-61404614D01*
X157988028Y-61558150D01*
X157937492Y-61724746D01*
X157920428Y-61898000D01*
X157920428Y-61982126D01*
X157136478Y-62766077D01*
X157092868Y-62801867D01*
X157057078Y-62845477D01*
X157057076Y-62845479D01*
X157044978Y-62860221D01*
X156950033Y-62975911D01*
X156876920Y-63112697D01*
X156843898Y-63174477D01*
X156778539Y-63389933D01*
X156756471Y-63614000D01*
X156762001Y-63670148D01*
X156762001Y-63972063D01*
X156703815Y-64019815D01*
X156624463Y-64116506D01*
X156565498Y-64226820D01*
X156529188Y-64346518D01*
X156516928Y-64471000D01*
X156516928Y-65242626D01*
X156152555Y-65607000D01*
X154116061Y-65607000D01*
X154262851Y-65562472D01*
X154416387Y-65480405D01*
X154550962Y-65369962D01*
X154661405Y-65235387D01*
X154743472Y-65081851D01*
X154794008Y-64915255D01*
X154811072Y-64742001D01*
X154811072Y-64091999D01*
X154794008Y-63918745D01*
X154743472Y-63752149D01*
X154661405Y-63598613D01*
X154550962Y-63464038D01*
X154416387Y-63353595D01*
X154262851Y-63271528D01*
X154096255Y-63220992D01*
X153923001Y-63203928D01*
X153022999Y-63203928D01*
X152849745Y-63220992D01*
X152683149Y-63271528D01*
X152529613Y-63353595D01*
X152395038Y-63464038D01*
X152305615Y-63573000D01*
X152247071Y-63573000D01*
X152185962Y-63498538D01*
X152051386Y-63388095D01*
X151897850Y-63306028D01*
X151731254Y-63255492D01*
X151558000Y-63238428D01*
X150308000Y-63238428D01*
X150134746Y-63255492D01*
X149968150Y-63306028D01*
X149814614Y-63388095D01*
X149680038Y-63498538D01*
X149569595Y-63633114D01*
X149487528Y-63786650D01*
X149436992Y-63953246D01*
X149419928Y-64126500D01*
X140607921Y-64126500D01*
X141486531Y-63247891D01*
X141527922Y-63213922D01*
X141561891Y-63172531D01*
X141561895Y-63172527D01*
X141610996Y-63112697D01*
X141663509Y-63048710D01*
X141764259Y-62860220D01*
X141826300Y-62655697D01*
X141842000Y-62496294D01*
X141842000Y-62496286D01*
X141847248Y-62443000D01*
X141842000Y-62389714D01*
X141842000Y-60308072D01*
X142477000Y-60308072D01*
X142601482Y-60295812D01*
X142662000Y-60277454D01*
X142722518Y-60295812D01*
X142847000Y-60308072D01*
X143747000Y-60308072D01*
X143871482Y-60295812D01*
X143932000Y-60277454D01*
X143992518Y-60295812D01*
X144117000Y-60308072D01*
X145017000Y-60308072D01*
X145141482Y-60295812D01*
X145202000Y-60277454D01*
X145262518Y-60295812D01*
X145387000Y-60308072D01*
X146287000Y-60308072D01*
X146411482Y-60295812D01*
X146472000Y-60277454D01*
X146532518Y-60295812D01*
X146657000Y-60308072D01*
X147557000Y-60308072D01*
X147681482Y-60295812D01*
X147742000Y-60277454D01*
X147802518Y-60295812D01*
X147927000Y-60308072D01*
X148827000Y-60308072D01*
X148951482Y-60295812D01*
X149012000Y-60277454D01*
X149072518Y-60295812D01*
X149197000Y-60308072D01*
X149832001Y-60308072D01*
X149832001Y-60403802D01*
X149814614Y-60413095D01*
X149680038Y-60523538D01*
X149569595Y-60658114D01*
X149487528Y-60811650D01*
X149436992Y-60978246D01*
X149419928Y-61151500D01*
X149419928Y-62076500D01*
X149436992Y-62249754D01*
X149487528Y-62416350D01*
X149569595Y-62569886D01*
X149680038Y-62704462D01*
X149814614Y-62814905D01*
X149968150Y-62896972D01*
X150134746Y-62947508D01*
X150308000Y-62964572D01*
X151558000Y-62964572D01*
X151731254Y-62947508D01*
X151897850Y-62896972D01*
X152051386Y-62814905D01*
X152185962Y-62704462D01*
X152296405Y-62569886D01*
X152378472Y-62416350D01*
X152429008Y-62249754D01*
X152446072Y-62076500D01*
X152446072Y-61151500D01*
X152429008Y-60978246D01*
X152378472Y-60811650D01*
X152296405Y-60658114D01*
X152185962Y-60523538D01*
X152051386Y-60413095D01*
X152002000Y-60386698D01*
X152002000Y-59701192D01*
X152005072Y-59670000D01*
X152005072Y-57670000D01*
X151992812Y-57545518D01*
X151956502Y-57425820D01*
X151897537Y-57315506D01*
X151818185Y-57218815D01*
X151721494Y-57139463D01*
X151611180Y-57080498D01*
X151491482Y-57044188D01*
X151367000Y-57031928D01*
X150467000Y-57031928D01*
X150342518Y-57044188D01*
X150282000Y-57062546D01*
X150221482Y-57044188D01*
X150097000Y-57031928D01*
X149197000Y-57031928D01*
X149072518Y-57044188D01*
X149012000Y-57062546D01*
X148951482Y-57044188D01*
X148827000Y-57031928D01*
X147927000Y-57031928D01*
X147802518Y-57044188D01*
X147742000Y-57062546D01*
X147681482Y-57044188D01*
X147557000Y-57031928D01*
X146657000Y-57031928D01*
X146532518Y-57044188D01*
X146472000Y-57062546D01*
X146411482Y-57044188D01*
X146287000Y-57031928D01*
X145387000Y-57031928D01*
X145262518Y-57044188D01*
X145202000Y-57062546D01*
X145141482Y-57044188D01*
X145017000Y-57031928D01*
X144117000Y-57031928D01*
X143992518Y-57044188D01*
X143932000Y-57062546D01*
X143871482Y-57044188D01*
X143747000Y-57031928D01*
X142847000Y-57031928D01*
X142722518Y-57044188D01*
X142662000Y-57062546D01*
X142601482Y-57044188D01*
X142477000Y-57031928D01*
X141577000Y-57031928D01*
X141452518Y-57044188D01*
X141392000Y-57062546D01*
X141331482Y-57044188D01*
X141207000Y-57031928D01*
X140307000Y-57031928D01*
X140182518Y-57044188D01*
X140062820Y-57080498D01*
X139952506Y-57139463D01*
X139855815Y-57218815D01*
X139776463Y-57315506D01*
X139717498Y-57425820D01*
X139681188Y-57545518D01*
X139668928Y-57670000D01*
X139668928Y-59670000D01*
X139672000Y-59701194D01*
X139672001Y-61993577D01*
X134750579Y-66915000D01*
X124846706Y-66915000D01*
X124687303Y-66930700D01*
X124482780Y-66992741D01*
X124294290Y-67093491D01*
X124129078Y-67229078D01*
X124054705Y-67319701D01*
X123903475Y-67093368D01*
X123696632Y-66886525D01*
X123522240Y-66770000D01*
X123696632Y-66653475D01*
X123903475Y-66446632D01*
X124065990Y-66203411D01*
X124068567Y-66197189D01*
X124129078Y-66270922D01*
X124294291Y-66406508D01*
X124482780Y-66507258D01*
X124687303Y-66569300D01*
X124900000Y-66590248D01*
X125112697Y-66569300D01*
X125317220Y-66507258D01*
X125505709Y-66406508D01*
X125629526Y-66304895D01*
X133179422Y-58755000D01*
X135670808Y-58755000D01*
X135702000Y-58758072D01*
X137702000Y-58758072D01*
X137826482Y-58745812D01*
X137946180Y-58709502D01*
X138056494Y-58650537D01*
X138153185Y-58571185D01*
X138232537Y-58474494D01*
X138291502Y-58364180D01*
X138327812Y-58244482D01*
X138340072Y-58120000D01*
X138340072Y-57220000D01*
X138327812Y-57095518D01*
X138309454Y-57035000D01*
X138327812Y-56974482D01*
X138340072Y-56850000D01*
X138340072Y-55950000D01*
X138327812Y-55825518D01*
X138309454Y-55765000D01*
X138327812Y-55704482D01*
X138340072Y-55580000D01*
X138340072Y-54680000D01*
X138327812Y-54555518D01*
X138309454Y-54495000D01*
X138327812Y-54434482D01*
X138340072Y-54310000D01*
X138340072Y-53410000D01*
X138327812Y-53285518D01*
X138309454Y-53225000D01*
X138327812Y-53164482D01*
X138340072Y-53040000D01*
X138340072Y-52140000D01*
X138327812Y-52015518D01*
X138309454Y-51955000D01*
X138327812Y-51894482D01*
X138340072Y-51770000D01*
X138340072Y-50870000D01*
X138327812Y-50745518D01*
X138309454Y-50685000D01*
X138327812Y-50624482D01*
X138340072Y-50500000D01*
X138340072Y-49600000D01*
X138327812Y-49475518D01*
X138309454Y-49415000D01*
X138327812Y-49354482D01*
X138340072Y-49230000D01*
X138340072Y-48330000D01*
X138327812Y-48205518D01*
X138309454Y-48145000D01*
X138327812Y-48084482D01*
X138340072Y-47960000D01*
X138340072Y-47060000D01*
X138327812Y-46935518D01*
X138309454Y-46875000D01*
X138327812Y-46814482D01*
X138340072Y-46690000D01*
X138340072Y-45790000D01*
X138327812Y-45665518D01*
X138309454Y-45605000D01*
X138327812Y-45544482D01*
X138340072Y-45420000D01*
X138340072Y-44520000D01*
X138327812Y-44395518D01*
X138309454Y-44335000D01*
X138327812Y-44274482D01*
X138340072Y-44150000D01*
X138340072Y-43250000D01*
X138327812Y-43125518D01*
X138309454Y-43065000D01*
X138327812Y-43004482D01*
X138340072Y-42880000D01*
X138340072Y-41980000D01*
X138327812Y-41855518D01*
X138291502Y-41735820D01*
X138232537Y-41625506D01*
X138153185Y-41528815D01*
X138056494Y-41449463D01*
X137946180Y-41390498D01*
X137826482Y-41354188D01*
X137702000Y-41341928D01*
X135702000Y-41341928D01*
X135670808Y-41345000D01*
X134373286Y-41345000D01*
X134320000Y-41339752D01*
X134266714Y-41345000D01*
X134266706Y-41345000D01*
X134107303Y-41360700D01*
X133902780Y-41422741D01*
X133714290Y-41523491D01*
X133549078Y-41659078D01*
X133515105Y-41700474D01*
X133216934Y-41998645D01*
X133098850Y-41935528D01*
X132932254Y-41884992D01*
X132759000Y-41867928D01*
X131809000Y-41867928D01*
X131635746Y-41884992D01*
X131469150Y-41935528D01*
X131400916Y-41972000D01*
X130078861Y-41972000D01*
X130050850Y-41957028D01*
X129884254Y-41906492D01*
X129711000Y-41889428D01*
X128761000Y-41889428D01*
X128592832Y-41905991D01*
X127858046Y-41171206D01*
X127803937Y-41090226D01*
X127659774Y-40946063D01*
X127490256Y-40832795D01*
X127301898Y-40754774D01*
X127101939Y-40715000D01*
X126898061Y-40715000D01*
X126698102Y-40754774D01*
X126509744Y-40832795D01*
X126340226Y-40946063D01*
X126196063Y-41090226D01*
X126082795Y-41259744D01*
X126004774Y-41448102D01*
X125965000Y-41648061D01*
X125965000Y-41851939D01*
X126004774Y-42051898D01*
X126082795Y-42240256D01*
X126196063Y-42409774D01*
X126340226Y-42553937D01*
X126421206Y-42608046D01*
X127611292Y-43798133D01*
X127643104Y-43836896D01*
X127673606Y-43861928D01*
X125950000Y-43861928D01*
X125825518Y-43874188D01*
X125705820Y-43910498D01*
X125595506Y-43969463D01*
X125498815Y-44048815D01*
X125419463Y-44145506D01*
X125360498Y-44255820D01*
X125324188Y-44375518D01*
X125311928Y-44500000D01*
X125311928Y-46000000D01*
X125324188Y-46124482D01*
X125360498Y-46244180D01*
X125419463Y-46354494D01*
X125498815Y-46451185D01*
X125595506Y-46530537D01*
X125705820Y-46589502D01*
X125825518Y-46625812D01*
X125950000Y-46638072D01*
X127998543Y-46638072D01*
X127937867Y-46687867D01*
X127795033Y-46861912D01*
X127688898Y-47060477D01*
X127623539Y-47275933D01*
X127601471Y-47500000D01*
X127623539Y-47724067D01*
X127688898Y-47939523D01*
X127795033Y-48138088D01*
X127902076Y-48268521D01*
X128598555Y-48965000D01*
X125003286Y-48965000D01*
X124950000Y-48959752D01*
X124896714Y-48965000D01*
X124896706Y-48965000D01*
X124737303Y-48980700D01*
X124532780Y-49042741D01*
X124344290Y-49143491D01*
X124214932Y-49249653D01*
X124189502Y-49165820D01*
X124130537Y-49055506D01*
X124051185Y-48958815D01*
X123954494Y-48879463D01*
X123844180Y-48820498D01*
X123724482Y-48784188D01*
X123600000Y-48771928D01*
X121900000Y-48771928D01*
X121775518Y-48784188D01*
X121655820Y-48820498D01*
X121545506Y-48879463D01*
X121448815Y-48958815D01*
X121369463Y-49055506D01*
X121310498Y-49165820D01*
X121274188Y-49285518D01*
X121261928Y-49410000D01*
X113435000Y-49410000D01*
X113435000Y-42990475D01*
X113615000Y-42990475D01*
X113615000Y-43509525D01*
X113716261Y-44018601D01*
X113914893Y-44498141D01*
X114203262Y-44929715D01*
X114570285Y-45296738D01*
X115001859Y-45585107D01*
X115481399Y-45783739D01*
X115990475Y-45885000D01*
X116509525Y-45885000D01*
X117018601Y-45783739D01*
X117498141Y-45585107D01*
X117929715Y-45296738D01*
X118296738Y-44929715D01*
X118585107Y-44498141D01*
X118783739Y-44018601D01*
X118885000Y-43509525D01*
X118885000Y-42990475D01*
X118783739Y-42481399D01*
X118585107Y-42001859D01*
X118296738Y-41570285D01*
X117929715Y-41203262D01*
X117498141Y-40914893D01*
X117018601Y-40716261D01*
X116509525Y-40615000D01*
X115990475Y-40615000D01*
X115481399Y-40716261D01*
X115001859Y-40914893D01*
X114570285Y-41203262D01*
X114203262Y-41570285D01*
X113914893Y-42001859D01*
X113716261Y-42481399D01*
X113615000Y-42990475D01*
X113435000Y-42990475D01*
X113435000Y-40435000D01*
X176065000Y-40435000D01*
X176065001Y-77565000D01*
G04 #@! TA.AperFunction,Conductor*
D25*
G36*
X176065001Y-77565000D02*
G01*
X113435000Y-77565000D01*
X113435000Y-74490475D01*
X113615000Y-74490475D01*
X113615000Y-75009525D01*
X113716261Y-75518601D01*
X113914893Y-75998141D01*
X114203262Y-76429715D01*
X114570285Y-76796738D01*
X115001859Y-77085107D01*
X115481399Y-77283739D01*
X115990475Y-77385000D01*
X116509525Y-77385000D01*
X117018601Y-77283739D01*
X117498141Y-77085107D01*
X117929715Y-76796738D01*
X118296738Y-76429715D01*
X118585107Y-75998141D01*
X118783739Y-75518601D01*
X118885000Y-75009525D01*
X118885000Y-74490475D01*
X170615000Y-74490475D01*
X170615000Y-75009525D01*
X170716261Y-75518601D01*
X170914893Y-75998141D01*
X171203262Y-76429715D01*
X171570285Y-76796738D01*
X172001859Y-77085107D01*
X172481399Y-77283739D01*
X172990475Y-77385000D01*
X173509525Y-77385000D01*
X174018601Y-77283739D01*
X174498141Y-77085107D01*
X174929715Y-76796738D01*
X175296738Y-76429715D01*
X175585107Y-75998141D01*
X175783739Y-75518601D01*
X175885000Y-75009525D01*
X175885000Y-74490475D01*
X175783739Y-73981399D01*
X175585107Y-73501859D01*
X175296738Y-73070285D01*
X174929715Y-72703262D01*
X174498141Y-72414893D01*
X174018601Y-72216261D01*
X173509525Y-72115000D01*
X172990475Y-72115000D01*
X172481399Y-72216261D01*
X172001859Y-72414893D01*
X171570285Y-72703262D01*
X171203262Y-73070285D01*
X170914893Y-73501859D01*
X170716261Y-73981399D01*
X170615000Y-74490475D01*
X118885000Y-74490475D01*
X118783739Y-73981399D01*
X118585107Y-73501859D01*
X118296738Y-73070285D01*
X117929715Y-72703262D01*
X117498141Y-72414893D01*
X117018601Y-72216261D01*
X116509525Y-72115000D01*
X115990475Y-72115000D01*
X115481399Y-72216261D01*
X115001859Y-72414893D01*
X114570285Y-72703262D01*
X114203262Y-73070285D01*
X113914893Y-73501859D01*
X113716261Y-73981399D01*
X113615000Y-74490475D01*
X113435000Y-74490475D01*
X113435000Y-49410000D01*
X121261928Y-49410000D01*
X121261928Y-51110000D01*
X121274188Y-51234482D01*
X121310498Y-51354180D01*
X121369463Y-51464494D01*
X121448815Y-51561185D01*
X121545506Y-51640537D01*
X121655820Y-51699502D01*
X121728380Y-51721513D01*
X121596525Y-51853368D01*
X121434010Y-52096589D01*
X121322068Y-52366842D01*
X121265000Y-52653740D01*
X121265000Y-52946260D01*
X121322068Y-53233158D01*
X121434010Y-53503411D01*
X121596525Y-53746632D01*
X121803368Y-53953475D01*
X121977760Y-54070000D01*
X121803368Y-54186525D01*
X121596525Y-54393368D01*
X121434010Y-54636589D01*
X121322068Y-54906842D01*
X121265000Y-55193740D01*
X121265000Y-55486260D01*
X121322068Y-55773158D01*
X121434010Y-56043411D01*
X121596525Y-56286632D01*
X121803368Y-56493475D01*
X121977760Y-56610000D01*
X121803368Y-56726525D01*
X121596525Y-56933368D01*
X121434010Y-57176589D01*
X121322068Y-57446842D01*
X121265000Y-57733740D01*
X121265000Y-58026260D01*
X121322068Y-58313158D01*
X121434010Y-58583411D01*
X121596525Y-58826632D01*
X121803368Y-59033475D01*
X121977760Y-59150000D01*
X121803368Y-59266525D01*
X121596525Y-59473368D01*
X121434010Y-59716589D01*
X121322068Y-59986842D01*
X121265000Y-60273740D01*
X121265000Y-60566260D01*
X121322068Y-60853158D01*
X121434010Y-61123411D01*
X121596525Y-61366632D01*
X121803368Y-61573475D01*
X121977760Y-61690000D01*
X121803368Y-61806525D01*
X121596525Y-62013368D01*
X121434010Y-62256589D01*
X121322068Y-62526842D01*
X121265000Y-62813740D01*
X121265000Y-63106260D01*
X121322068Y-63393158D01*
X121434010Y-63663411D01*
X121596525Y-63906632D01*
X121803368Y-64113475D01*
X121977760Y-64230000D01*
X121803368Y-64346525D01*
X121596525Y-64553368D01*
X121434010Y-64796589D01*
X121322068Y-65066842D01*
X121265000Y-65353740D01*
X121265000Y-65646260D01*
X121322068Y-65933158D01*
X121434010Y-66203411D01*
X121596525Y-66446632D01*
X121803368Y-66653475D01*
X121977760Y-66770000D01*
X121803368Y-66886525D01*
X121596525Y-67093368D01*
X121434010Y-67336589D01*
X121322068Y-67606842D01*
X121265000Y-67893740D01*
X121265000Y-68186260D01*
X121322068Y-68473158D01*
X121434010Y-68743411D01*
X121596525Y-68986632D01*
X121803368Y-69193475D01*
X122046589Y-69355990D01*
X122316842Y-69467932D01*
X122603740Y-69525000D01*
X122896260Y-69525000D01*
X123183158Y-69467932D01*
X123453411Y-69355990D01*
X123696632Y-69193475D01*
X123712676Y-69177431D01*
X144864370Y-69177431D01*
X144864370Y-70822568D01*
X144884455Y-71026496D01*
X144963829Y-71288156D01*
X145092725Y-71529303D01*
X145266189Y-71740670D01*
X145477556Y-71914135D01*
X145718703Y-72043031D01*
X145980363Y-72122405D01*
X146252480Y-72149206D01*
X146524596Y-72122405D01*
X146786256Y-72043031D01*
X147027403Y-71914135D01*
X147238770Y-71740671D01*
X147412235Y-71529304D01*
X147541131Y-71288157D01*
X147620505Y-71026497D01*
X147640590Y-70822569D01*
X147640590Y-69177431D01*
X147620505Y-68973503D01*
X147541131Y-68711843D01*
X147412235Y-68470696D01*
X147238771Y-68259329D01*
X147027404Y-68085865D01*
X146786257Y-67956969D01*
X146524597Y-67877595D01*
X146252480Y-67850794D01*
X145980364Y-67877595D01*
X145718704Y-67956969D01*
X145477557Y-68085865D01*
X145266190Y-68259329D01*
X145092726Y-68470696D01*
X144963830Y-68711843D01*
X144884455Y-68973503D01*
X144864370Y-69177431D01*
X123712676Y-69177431D01*
X123903475Y-68986632D01*
X124065990Y-68743411D01*
X124079578Y-68710607D01*
X124129078Y-68770922D01*
X124294290Y-68906509D01*
X124482780Y-69007259D01*
X124687303Y-69069300D01*
X124846706Y-69085000D01*
X135146714Y-69085000D01*
X135200000Y-69090248D01*
X135253286Y-69085000D01*
X135253294Y-69085000D01*
X135412697Y-69069300D01*
X135617220Y-69007259D01*
X135805710Y-68906509D01*
X135970922Y-68770922D01*
X136004895Y-68729526D01*
X140607921Y-64126500D01*
X149419928Y-64126500D01*
X149419928Y-65051500D01*
X149436992Y-65224754D01*
X149487528Y-65391350D01*
X149569595Y-65544886D01*
X149680038Y-65679462D01*
X149814614Y-65789905D01*
X149968150Y-65871972D01*
X150134746Y-65922508D01*
X150308000Y-65939572D01*
X151436468Y-65939572D01*
X151295032Y-66111911D01*
X151188897Y-66310477D01*
X151123539Y-66525933D01*
X151101470Y-66750000D01*
X151123539Y-66974067D01*
X151188897Y-67189523D01*
X151295032Y-67388089D01*
X151437867Y-67562133D01*
X151611911Y-67704968D01*
X151810477Y-67811103D01*
X152025933Y-67876461D01*
X152193854Y-67893000D01*
X156569861Y-67893000D01*
X156626000Y-67898529D01*
X156682139Y-67893000D01*
X156682146Y-67893000D01*
X156850067Y-67876461D01*
X157065523Y-67811103D01*
X157264089Y-67704968D01*
X157438133Y-67562133D01*
X157473927Y-67518518D01*
X157883373Y-67109072D01*
X158655000Y-67109072D01*
X158779482Y-67096812D01*
X158899180Y-67060502D01*
X159009494Y-67001537D01*
X159055000Y-66964191D01*
X159062001Y-66969937D01*
X159062000Y-70132928D01*
X158305000Y-70132928D01*
X158180518Y-70145188D01*
X158060820Y-70181498D01*
X157950506Y-70240463D01*
X157853815Y-70319815D01*
X157774463Y-70416506D01*
X157715498Y-70526820D01*
X157691176Y-70607000D01*
X155943854Y-70607000D01*
X155775933Y-70623539D01*
X155560477Y-70688897D01*
X155361911Y-70795032D01*
X155187867Y-70937867D01*
X155045032Y-71111911D01*
X154938897Y-71310477D01*
X154873539Y-71525933D01*
X154851470Y-71750000D01*
X154873539Y-71974067D01*
X154938897Y-72189523D01*
X155045032Y-72388089D01*
X155187867Y-72562133D01*
X155361911Y-72704968D01*
X155560477Y-72811103D01*
X155775933Y-72876461D01*
X155943854Y-72893000D01*
X157678944Y-72893000D01*
X157679188Y-72895482D01*
X157715498Y-73015180D01*
X157774463Y-73125494D01*
X157853815Y-73222185D01*
X157950506Y-73301537D01*
X158060820Y-73360502D01*
X158180518Y-73396812D01*
X158305000Y-73409072D01*
X162105000Y-73409072D01*
X162229482Y-73396812D01*
X162349180Y-73360502D01*
X162459494Y-73301537D01*
X162556185Y-73222185D01*
X162635537Y-73125494D01*
X162694502Y-73015180D01*
X162725195Y-72914000D01*
X163958861Y-72914000D01*
X164015000Y-72919529D01*
X164071139Y-72914000D01*
X164071146Y-72914000D01*
X164239067Y-72897461D01*
X164454523Y-72832103D01*
X164653089Y-72725968D01*
X164827133Y-72583133D01*
X164862927Y-72539518D01*
X166053523Y-71348923D01*
X166097133Y-71313133D01*
X166136244Y-71265477D01*
X166239967Y-71139090D01*
X166239968Y-71139089D01*
X166346103Y-70940523D01*
X166368299Y-70867353D01*
X166418000Y-70872248D01*
X166471286Y-70867000D01*
X166471294Y-70867000D01*
X166630697Y-70851300D01*
X166835220Y-70789259D01*
X167023710Y-70688509D01*
X167188922Y-70552922D01*
X167222895Y-70511526D01*
X168629531Y-69104891D01*
X168670922Y-69070922D01*
X168704891Y-69029531D01*
X168704895Y-69029527D01*
X168806508Y-68905711D01*
X168854172Y-68816538D01*
X168907259Y-68717220D01*
X168969300Y-68512697D01*
X168985000Y-68353294D01*
X168985000Y-68353277D01*
X168990247Y-68300001D01*
X168985000Y-68246725D01*
X168985000Y-56053285D01*
X168990248Y-55999999D01*
X168985000Y-55946713D01*
X168985000Y-55946706D01*
X168969300Y-55787303D01*
X168907259Y-55582780D01*
X168806509Y-55394290D01*
X168729127Y-55300000D01*
X168704895Y-55270473D01*
X168704891Y-55270469D01*
X168670922Y-55229078D01*
X168629531Y-55195109D01*
X164740241Y-51305820D01*
X164831185Y-51231185D01*
X164910537Y-51134494D01*
X164969502Y-51024180D01*
X165005812Y-50904482D01*
X165018072Y-50780000D01*
X165018072Y-49080000D01*
X165005812Y-48955518D01*
X164969502Y-48835820D01*
X164910537Y-48725506D01*
X164831185Y-48628815D01*
X164734494Y-48549463D01*
X164624180Y-48490498D01*
X164551620Y-48468487D01*
X164683475Y-48336632D01*
X164845990Y-48093411D01*
X164957932Y-47823158D01*
X165015000Y-47536260D01*
X165015000Y-47243740D01*
X164957932Y-46956842D01*
X164845990Y-46686589D01*
X164683475Y-46443368D01*
X164476632Y-46236525D01*
X164302240Y-46120000D01*
X164476632Y-46003475D01*
X164683475Y-45796632D01*
X164845990Y-45553411D01*
X164957932Y-45283158D01*
X165015000Y-44996260D01*
X165015000Y-44703740D01*
X164957932Y-44416842D01*
X164845990Y-44146589D01*
X164683475Y-43903368D01*
X164476632Y-43696525D01*
X164233411Y-43534010D01*
X163963158Y-43422068D01*
X163676260Y-43365000D01*
X163383740Y-43365000D01*
X163096842Y-43422068D01*
X162826589Y-43534010D01*
X162583368Y-43696525D01*
X162376525Y-43903368D01*
X162214010Y-44146589D01*
X162128087Y-44354027D01*
X162000922Y-44199078D01*
X161835710Y-44063491D01*
X161647220Y-43962741D01*
X161442697Y-43900700D01*
X161283294Y-43885000D01*
X160607831Y-43885000D01*
X160518386Y-43811595D01*
X160364850Y-43729528D01*
X160198254Y-43678992D01*
X160025000Y-43661928D01*
X158775000Y-43661928D01*
X158601746Y-43678992D01*
X158435150Y-43729528D01*
X158281614Y-43811595D01*
X158192169Y-43885000D01*
X155340072Y-43885000D01*
X155340072Y-43250000D01*
X155327812Y-43125518D01*
X155309454Y-43065000D01*
X155327812Y-43004482D01*
X155329191Y-42990475D01*
X170615000Y-42990475D01*
X170615000Y-43509525D01*
X170716261Y-44018601D01*
X170914893Y-44498141D01*
X171203262Y-44929715D01*
X171570285Y-45296738D01*
X172001859Y-45585107D01*
X172481399Y-45783739D01*
X172990475Y-45885000D01*
X173509525Y-45885000D01*
X174018601Y-45783739D01*
X174498141Y-45585107D01*
X174929715Y-45296738D01*
X175296738Y-44929715D01*
X175585107Y-44498141D01*
X175783739Y-44018601D01*
X175885000Y-43509525D01*
X175885000Y-42990475D01*
X175783739Y-42481399D01*
X175585107Y-42001859D01*
X175296738Y-41570285D01*
X174929715Y-41203262D01*
X174498141Y-40914893D01*
X174018601Y-40716261D01*
X173509525Y-40615000D01*
X172990475Y-40615000D01*
X172481399Y-40716261D01*
X172001859Y-40914893D01*
X171570285Y-41203262D01*
X171203262Y-41570285D01*
X170914893Y-42001859D01*
X170716261Y-42481399D01*
X170615000Y-42990475D01*
X155329191Y-42990475D01*
X155340072Y-42880000D01*
X155340072Y-41980000D01*
X155327812Y-41855518D01*
X155291502Y-41735820D01*
X155232537Y-41625506D01*
X155153185Y-41528815D01*
X155056494Y-41449463D01*
X154946180Y-41390498D01*
X154826482Y-41354188D01*
X154702000Y-41341928D01*
X152702000Y-41341928D01*
X152577518Y-41354188D01*
X152457820Y-41390498D01*
X152347506Y-41449463D01*
X152250815Y-41528815D01*
X152171463Y-41625506D01*
X152112498Y-41735820D01*
X152076188Y-41855518D01*
X152063928Y-41980000D01*
X152063928Y-42880000D01*
X152076188Y-43004482D01*
X152094546Y-43065000D01*
X152076188Y-43125518D01*
X152063928Y-43250000D01*
X152063928Y-44150000D01*
X152076188Y-44274482D01*
X152094546Y-44335000D01*
X152076188Y-44395518D01*
X152063928Y-44520000D01*
X152063928Y-45420000D01*
X152076188Y-45544482D01*
X152094546Y-45605000D01*
X152076188Y-45665518D01*
X152063928Y-45790000D01*
X152063928Y-46690000D01*
X152076188Y-46814482D01*
X152094546Y-46875000D01*
X152076188Y-46935518D01*
X152063928Y-47060000D01*
X152063928Y-47960000D01*
X152076188Y-48084482D01*
X152094546Y-48145000D01*
X152076188Y-48205518D01*
X152063928Y-48330000D01*
X152063928Y-49230000D01*
X152076188Y-49354482D01*
X152094546Y-49415000D01*
X152076188Y-49475518D01*
X152063928Y-49600000D01*
X152063928Y-50500000D01*
X152076188Y-50624482D01*
X152094546Y-50685000D01*
X152076188Y-50745518D01*
X152063928Y-50870000D01*
X152063928Y-51770000D01*
X152076188Y-51894482D01*
X152094546Y-51955000D01*
X152076188Y-52015518D01*
X152063928Y-52140000D01*
X152063928Y-53040000D01*
X152076188Y-53164482D01*
X152094546Y-53225000D01*
X152076188Y-53285518D01*
X152063928Y-53410000D01*
X152063928Y-54310000D01*
X152076188Y-54434482D01*
X152094546Y-54495000D01*
X152076188Y-54555518D01*
X152063928Y-54680000D01*
X152063928Y-55580000D01*
X152076188Y-55704482D01*
X152094546Y-55765000D01*
X152076188Y-55825518D01*
X152063928Y-55950000D01*
X152063928Y-56850000D01*
X152076188Y-56974482D01*
X152094546Y-57035000D01*
X152076188Y-57095518D01*
X152063928Y-57220000D01*
X152063928Y-58120000D01*
X152076188Y-58244482D01*
X152112498Y-58364180D01*
X152171463Y-58474494D01*
X152250815Y-58571185D01*
X152347506Y-58650537D01*
X152457820Y-58709502D01*
X152577518Y-58745812D01*
X152702000Y-58758072D01*
X154702000Y-58758072D01*
X154733192Y-58755000D01*
X155320579Y-58755000D01*
X155995109Y-59429531D01*
X156029078Y-59470922D01*
X156070469Y-59504891D01*
X156070473Y-59504895D01*
X156106985Y-59534859D01*
X156194290Y-59606509D01*
X156382780Y-59707259D01*
X156587303Y-59769300D01*
X156746706Y-59785000D01*
X156746714Y-59785000D01*
X156800000Y-59790248D01*
X156853286Y-59785000D01*
X162846714Y-59785000D01*
X162900000Y-59790248D01*
X162953286Y-59785000D01*
X162953294Y-59785000D01*
X163112697Y-59769300D01*
X163317220Y-59707259D01*
X163505710Y-59606509D01*
X163670922Y-59470922D01*
X163704895Y-59429526D01*
X164579531Y-58554891D01*
X164620922Y-58520922D01*
X164654891Y-58479531D01*
X164654895Y-58479527D01*
X164720549Y-58399527D01*
X164756509Y-58355710D01*
X164857259Y-58167220D01*
X164919300Y-57962697D01*
X164935000Y-57803294D01*
X164935000Y-57803286D01*
X164936498Y-57788072D01*
X165000000Y-57788072D01*
X165124482Y-57775812D01*
X165244180Y-57739502D01*
X165354494Y-57680537D01*
X165451185Y-57601185D01*
X165530537Y-57504494D01*
X165589502Y-57394180D01*
X165625812Y-57274482D01*
X165638072Y-57150000D01*
X165638072Y-55650000D01*
X165625812Y-55525518D01*
X165589502Y-55405820D01*
X165530537Y-55295506D01*
X165451185Y-55198815D01*
X165354494Y-55119463D01*
X165244180Y-55060498D01*
X165124482Y-55024188D01*
X165000000Y-55011928D01*
X162700000Y-55011928D01*
X162575518Y-55024188D01*
X162455820Y-55060498D01*
X162345506Y-55119463D01*
X162248815Y-55198815D01*
X162169463Y-55295506D01*
X162110498Y-55405820D01*
X162074188Y-55525518D01*
X162061928Y-55650000D01*
X162061928Y-57150000D01*
X162074188Y-57274482D01*
X162110498Y-57394180D01*
X162169463Y-57504494D01*
X162248815Y-57601185D01*
X162265649Y-57615000D01*
X161059359Y-57615000D01*
X161155886Y-57563405D01*
X161290462Y-57452962D01*
X161400905Y-57318386D01*
X161482972Y-57164850D01*
X161533508Y-56998254D01*
X161550572Y-56825000D01*
X161550572Y-55575000D01*
X161533508Y-55401746D01*
X161482972Y-55235150D01*
X161400905Y-55081614D01*
X161290462Y-54947038D01*
X161289000Y-54945838D01*
X161289000Y-54235445D01*
X161294462Y-54230962D01*
X161404905Y-54096386D01*
X161486972Y-53942850D01*
X161537508Y-53776254D01*
X161554572Y-53603000D01*
X161554572Y-52353000D01*
X161537508Y-52179746D01*
X161486972Y-52013150D01*
X161404905Y-51859614D01*
X161294462Y-51725038D01*
X161289000Y-51720555D01*
X161289000Y-51345421D01*
X161841507Y-50792915D01*
X161929774Y-50733937D01*
X162041928Y-50621783D01*
X162041928Y-50780000D01*
X162054188Y-50904482D01*
X162090498Y-51024180D01*
X162149463Y-51134494D01*
X162228815Y-51231185D01*
X162325506Y-51310537D01*
X162435820Y-51369502D01*
X162445000Y-51372287D01*
X162445000Y-51576714D01*
X162439752Y-51630000D01*
X162445000Y-51683286D01*
X162445000Y-51683294D01*
X162446734Y-51700895D01*
X162460700Y-51842697D01*
X162507224Y-51996063D01*
X162522742Y-52047220D01*
X162623492Y-52235710D01*
X162671227Y-52293875D01*
X162725105Y-52359526D01*
X162725110Y-52359531D01*
X162759079Y-52400922D01*
X162800470Y-52434891D01*
X166815000Y-56449422D01*
X166815001Y-67850577D01*
X166055119Y-68610459D01*
X165933254Y-68573492D01*
X165760000Y-68556428D01*
X164810000Y-68556428D01*
X164636746Y-68573492D01*
X164470150Y-68624028D01*
X164316614Y-68706095D01*
X164182038Y-68816538D01*
X164071595Y-68951114D01*
X163989528Y-69104650D01*
X163938992Y-69271246D01*
X163921928Y-69444500D01*
X163921928Y-70119500D01*
X163933416Y-70236139D01*
X163541555Y-70628000D01*
X162725195Y-70628000D01*
X162694502Y-70526820D01*
X162635537Y-70416506D01*
X162556185Y-70319815D01*
X162459494Y-70240463D01*
X162349180Y-70181498D01*
X162229482Y-70145188D01*
X162105000Y-70132928D01*
X161348000Y-70132928D01*
X161348000Y-66969936D01*
X161406185Y-66922185D01*
X161485537Y-66825494D01*
X161544502Y-66715180D01*
X161580812Y-66595482D01*
X161593072Y-66471000D01*
X161593072Y-64471000D01*
X161580812Y-64346518D01*
X161544502Y-64226820D01*
X161485537Y-64116506D01*
X161406185Y-64019815D01*
X161309494Y-63940463D01*
X161199180Y-63881498D01*
X161079482Y-63845188D01*
X160955000Y-63832928D01*
X159455000Y-63832928D01*
X159330518Y-63845188D01*
X159272727Y-63862719D01*
X159399374Y-63736072D01*
X159483500Y-63736072D01*
X159656754Y-63719008D01*
X159823350Y-63668472D01*
X159976886Y-63586405D01*
X160111462Y-63475962D01*
X160221905Y-63341386D01*
X160303972Y-63187850D01*
X160354508Y-63021254D01*
X160371572Y-62848000D01*
X160371572Y-61898000D01*
X160354508Y-61724746D01*
X160303972Y-61558150D01*
X160221905Y-61404614D01*
X160111462Y-61270038D01*
X159976886Y-61159595D01*
X159823350Y-61077528D01*
X159656754Y-61026992D01*
X159483500Y-61009928D01*
X158808500Y-61009928D01*
X158635246Y-61026992D01*
X158468650Y-61077528D01*
X158315114Y-61159595D01*
X158180538Y-61270038D01*
X158070095Y-61404614D01*
X157988028Y-61558150D01*
X157937492Y-61724746D01*
X157920428Y-61898000D01*
X157920428Y-61982126D01*
X157136478Y-62766077D01*
X157092868Y-62801867D01*
X157057078Y-62845477D01*
X157057076Y-62845479D01*
X157044978Y-62860221D01*
X156950033Y-62975911D01*
X156876920Y-63112697D01*
X156843898Y-63174477D01*
X156778539Y-63389933D01*
X156756471Y-63614000D01*
X156762001Y-63670148D01*
X156762001Y-63972063D01*
X156703815Y-64019815D01*
X156624463Y-64116506D01*
X156565498Y-64226820D01*
X156529188Y-64346518D01*
X156516928Y-64471000D01*
X156516928Y-65242626D01*
X156152555Y-65607000D01*
X154116061Y-65607000D01*
X154262851Y-65562472D01*
X154416387Y-65480405D01*
X154550962Y-65369962D01*
X154661405Y-65235387D01*
X154743472Y-65081851D01*
X154794008Y-64915255D01*
X154811072Y-64742001D01*
X154811072Y-64091999D01*
X154794008Y-63918745D01*
X154743472Y-63752149D01*
X154661405Y-63598613D01*
X154550962Y-63464038D01*
X154416387Y-63353595D01*
X154262851Y-63271528D01*
X154096255Y-63220992D01*
X153923001Y-63203928D01*
X153022999Y-63203928D01*
X152849745Y-63220992D01*
X152683149Y-63271528D01*
X152529613Y-63353595D01*
X152395038Y-63464038D01*
X152305615Y-63573000D01*
X152247071Y-63573000D01*
X152185962Y-63498538D01*
X152051386Y-63388095D01*
X151897850Y-63306028D01*
X151731254Y-63255492D01*
X151558000Y-63238428D01*
X150308000Y-63238428D01*
X150134746Y-63255492D01*
X149968150Y-63306028D01*
X149814614Y-63388095D01*
X149680038Y-63498538D01*
X149569595Y-63633114D01*
X149487528Y-63786650D01*
X149436992Y-63953246D01*
X149419928Y-64126500D01*
X140607921Y-64126500D01*
X141486531Y-63247891D01*
X141527922Y-63213922D01*
X141561891Y-63172531D01*
X141561895Y-63172527D01*
X141610996Y-63112697D01*
X141663509Y-63048710D01*
X141764259Y-62860220D01*
X141826300Y-62655697D01*
X141842000Y-62496294D01*
X141842000Y-62496286D01*
X141847248Y-62443000D01*
X141842000Y-62389714D01*
X141842000Y-60308072D01*
X142477000Y-60308072D01*
X142601482Y-60295812D01*
X142662000Y-60277454D01*
X142722518Y-60295812D01*
X142847000Y-60308072D01*
X143747000Y-60308072D01*
X143871482Y-60295812D01*
X143932000Y-60277454D01*
X143992518Y-60295812D01*
X144117000Y-60308072D01*
X145017000Y-60308072D01*
X145141482Y-60295812D01*
X145202000Y-60277454D01*
X145262518Y-60295812D01*
X145387000Y-60308072D01*
X146287000Y-60308072D01*
X146411482Y-60295812D01*
X146472000Y-60277454D01*
X146532518Y-60295812D01*
X146657000Y-60308072D01*
X147557000Y-60308072D01*
X147681482Y-60295812D01*
X147742000Y-60277454D01*
X147802518Y-60295812D01*
X147927000Y-60308072D01*
X148827000Y-60308072D01*
X148951482Y-60295812D01*
X149012000Y-60277454D01*
X149072518Y-60295812D01*
X149197000Y-60308072D01*
X149832001Y-60308072D01*
X149832001Y-60403802D01*
X149814614Y-60413095D01*
X149680038Y-60523538D01*
X149569595Y-60658114D01*
X149487528Y-60811650D01*
X149436992Y-60978246D01*
X149419928Y-61151500D01*
X149419928Y-62076500D01*
X149436992Y-62249754D01*
X149487528Y-62416350D01*
X149569595Y-62569886D01*
X149680038Y-62704462D01*
X149814614Y-62814905D01*
X149968150Y-62896972D01*
X150134746Y-62947508D01*
X150308000Y-62964572D01*
X151558000Y-62964572D01*
X151731254Y-62947508D01*
X151897850Y-62896972D01*
X152051386Y-62814905D01*
X152185962Y-62704462D01*
X152296405Y-62569886D01*
X152378472Y-62416350D01*
X152429008Y-62249754D01*
X152446072Y-62076500D01*
X152446072Y-61151500D01*
X152429008Y-60978246D01*
X152378472Y-60811650D01*
X152296405Y-60658114D01*
X152185962Y-60523538D01*
X152051386Y-60413095D01*
X152002000Y-60386698D01*
X152002000Y-59701192D01*
X152005072Y-59670000D01*
X152005072Y-57670000D01*
X151992812Y-57545518D01*
X151956502Y-57425820D01*
X151897537Y-57315506D01*
X151818185Y-57218815D01*
X151721494Y-57139463D01*
X151611180Y-57080498D01*
X151491482Y-57044188D01*
X151367000Y-57031928D01*
X150467000Y-57031928D01*
X150342518Y-57044188D01*
X150282000Y-57062546D01*
X150221482Y-57044188D01*
X150097000Y-57031928D01*
X149197000Y-57031928D01*
X149072518Y-57044188D01*
X149012000Y-57062546D01*
X148951482Y-57044188D01*
X148827000Y-57031928D01*
X147927000Y-57031928D01*
X147802518Y-57044188D01*
X147742000Y-57062546D01*
X147681482Y-57044188D01*
X147557000Y-57031928D01*
X146657000Y-57031928D01*
X146532518Y-57044188D01*
X146472000Y-57062546D01*
X146411482Y-57044188D01*
X146287000Y-57031928D01*
X145387000Y-57031928D01*
X145262518Y-57044188D01*
X145202000Y-57062546D01*
X145141482Y-57044188D01*
X145017000Y-57031928D01*
X144117000Y-57031928D01*
X143992518Y-57044188D01*
X143932000Y-57062546D01*
X143871482Y-57044188D01*
X143747000Y-57031928D01*
X142847000Y-57031928D01*
X142722518Y-57044188D01*
X142662000Y-57062546D01*
X142601482Y-57044188D01*
X142477000Y-57031928D01*
X141577000Y-57031928D01*
X141452518Y-57044188D01*
X141392000Y-57062546D01*
X141331482Y-57044188D01*
X141207000Y-57031928D01*
X140307000Y-57031928D01*
X140182518Y-57044188D01*
X140062820Y-57080498D01*
X139952506Y-57139463D01*
X139855815Y-57218815D01*
X139776463Y-57315506D01*
X139717498Y-57425820D01*
X139681188Y-57545518D01*
X139668928Y-57670000D01*
X139668928Y-59670000D01*
X139672000Y-59701194D01*
X139672001Y-61993577D01*
X134750579Y-66915000D01*
X124846706Y-66915000D01*
X124687303Y-66930700D01*
X124482780Y-66992741D01*
X124294290Y-67093491D01*
X124129078Y-67229078D01*
X124054705Y-67319701D01*
X123903475Y-67093368D01*
X123696632Y-66886525D01*
X123522240Y-66770000D01*
X123696632Y-66653475D01*
X123903475Y-66446632D01*
X124065990Y-66203411D01*
X124068567Y-66197189D01*
X124129078Y-66270922D01*
X124294291Y-66406508D01*
X124482780Y-66507258D01*
X124687303Y-66569300D01*
X124900000Y-66590248D01*
X125112697Y-66569300D01*
X125317220Y-66507258D01*
X125505709Y-66406508D01*
X125629526Y-66304895D01*
X133179422Y-58755000D01*
X135670808Y-58755000D01*
X135702000Y-58758072D01*
X137702000Y-58758072D01*
X137826482Y-58745812D01*
X137946180Y-58709502D01*
X138056494Y-58650537D01*
X138153185Y-58571185D01*
X138232537Y-58474494D01*
X138291502Y-58364180D01*
X138327812Y-58244482D01*
X138340072Y-58120000D01*
X138340072Y-57220000D01*
X138327812Y-57095518D01*
X138309454Y-57035000D01*
X138327812Y-56974482D01*
X138340072Y-56850000D01*
X138340072Y-55950000D01*
X138327812Y-55825518D01*
X138309454Y-55765000D01*
X138327812Y-55704482D01*
X138340072Y-55580000D01*
X138340072Y-54680000D01*
X138327812Y-54555518D01*
X138309454Y-54495000D01*
X138327812Y-54434482D01*
X138340072Y-54310000D01*
X138340072Y-53410000D01*
X138327812Y-53285518D01*
X138309454Y-53225000D01*
X138327812Y-53164482D01*
X138340072Y-53040000D01*
X138340072Y-52140000D01*
X138327812Y-52015518D01*
X138309454Y-51955000D01*
X138327812Y-51894482D01*
X138340072Y-51770000D01*
X138340072Y-50870000D01*
X138327812Y-50745518D01*
X138309454Y-50685000D01*
X138327812Y-50624482D01*
X138340072Y-50500000D01*
X138340072Y-49600000D01*
X138327812Y-49475518D01*
X138309454Y-49415000D01*
X138327812Y-49354482D01*
X138340072Y-49230000D01*
X138340072Y-48330000D01*
X138327812Y-48205518D01*
X138309454Y-48145000D01*
X138327812Y-48084482D01*
X138340072Y-47960000D01*
X138340072Y-47060000D01*
X138327812Y-46935518D01*
X138309454Y-46875000D01*
X138327812Y-46814482D01*
X138340072Y-46690000D01*
X138340072Y-45790000D01*
X138327812Y-45665518D01*
X138309454Y-45605000D01*
X138327812Y-45544482D01*
X138340072Y-45420000D01*
X138340072Y-44520000D01*
X138327812Y-44395518D01*
X138309454Y-44335000D01*
X138327812Y-44274482D01*
X138340072Y-44150000D01*
X138340072Y-43250000D01*
X138327812Y-43125518D01*
X138309454Y-43065000D01*
X138327812Y-43004482D01*
X138340072Y-42880000D01*
X138340072Y-41980000D01*
X138327812Y-41855518D01*
X138291502Y-41735820D01*
X138232537Y-41625506D01*
X138153185Y-41528815D01*
X138056494Y-41449463D01*
X137946180Y-41390498D01*
X137826482Y-41354188D01*
X137702000Y-41341928D01*
X135702000Y-41341928D01*
X135670808Y-41345000D01*
X134373286Y-41345000D01*
X134320000Y-41339752D01*
X134266714Y-41345000D01*
X134266706Y-41345000D01*
X134107303Y-41360700D01*
X133902780Y-41422741D01*
X133714290Y-41523491D01*
X133549078Y-41659078D01*
X133515105Y-41700474D01*
X133216934Y-41998645D01*
X133098850Y-41935528D01*
X132932254Y-41884992D01*
X132759000Y-41867928D01*
X131809000Y-41867928D01*
X131635746Y-41884992D01*
X131469150Y-41935528D01*
X131400916Y-41972000D01*
X130078861Y-41972000D01*
X130050850Y-41957028D01*
X129884254Y-41906492D01*
X129711000Y-41889428D01*
X128761000Y-41889428D01*
X128592832Y-41905991D01*
X127858046Y-41171206D01*
X127803937Y-41090226D01*
X127659774Y-40946063D01*
X127490256Y-40832795D01*
X127301898Y-40754774D01*
X127101939Y-40715000D01*
X126898061Y-40715000D01*
X126698102Y-40754774D01*
X126509744Y-40832795D01*
X126340226Y-40946063D01*
X126196063Y-41090226D01*
X126082795Y-41259744D01*
X126004774Y-41448102D01*
X125965000Y-41648061D01*
X125965000Y-41851939D01*
X126004774Y-42051898D01*
X126082795Y-42240256D01*
X126196063Y-42409774D01*
X126340226Y-42553937D01*
X126421206Y-42608046D01*
X127611292Y-43798133D01*
X127643104Y-43836896D01*
X127673606Y-43861928D01*
X125950000Y-43861928D01*
X125825518Y-43874188D01*
X125705820Y-43910498D01*
X125595506Y-43969463D01*
X125498815Y-44048815D01*
X125419463Y-44145506D01*
X125360498Y-44255820D01*
X125324188Y-44375518D01*
X125311928Y-44500000D01*
X125311928Y-46000000D01*
X125324188Y-46124482D01*
X125360498Y-46244180D01*
X125419463Y-46354494D01*
X125498815Y-46451185D01*
X125595506Y-46530537D01*
X125705820Y-46589502D01*
X125825518Y-46625812D01*
X125950000Y-46638072D01*
X127998543Y-46638072D01*
X127937867Y-46687867D01*
X127795033Y-46861912D01*
X127688898Y-47060477D01*
X127623539Y-47275933D01*
X127601471Y-47500000D01*
X127623539Y-47724067D01*
X127688898Y-47939523D01*
X127795033Y-48138088D01*
X127902076Y-48268521D01*
X128598555Y-48965000D01*
X125003286Y-48965000D01*
X124950000Y-48959752D01*
X124896714Y-48965000D01*
X124896706Y-48965000D01*
X124737303Y-48980700D01*
X124532780Y-49042741D01*
X124344290Y-49143491D01*
X124214932Y-49249653D01*
X124189502Y-49165820D01*
X124130537Y-49055506D01*
X124051185Y-48958815D01*
X123954494Y-48879463D01*
X123844180Y-48820498D01*
X123724482Y-48784188D01*
X123600000Y-48771928D01*
X121900000Y-48771928D01*
X121775518Y-48784188D01*
X121655820Y-48820498D01*
X121545506Y-48879463D01*
X121448815Y-48958815D01*
X121369463Y-49055506D01*
X121310498Y-49165820D01*
X121274188Y-49285518D01*
X121261928Y-49410000D01*
X113435000Y-49410000D01*
X113435000Y-42990475D01*
X113615000Y-42990475D01*
X113615000Y-43509525D01*
X113716261Y-44018601D01*
X113914893Y-44498141D01*
X114203262Y-44929715D01*
X114570285Y-45296738D01*
X115001859Y-45585107D01*
X115481399Y-45783739D01*
X115990475Y-45885000D01*
X116509525Y-45885000D01*
X117018601Y-45783739D01*
X117498141Y-45585107D01*
X117929715Y-45296738D01*
X118296738Y-44929715D01*
X118585107Y-44498141D01*
X118783739Y-44018601D01*
X118885000Y-43509525D01*
X118885000Y-42990475D01*
X118783739Y-42481399D01*
X118585107Y-42001859D01*
X118296738Y-41570285D01*
X117929715Y-41203262D01*
X117498141Y-40914893D01*
X117018601Y-40716261D01*
X116509525Y-40615000D01*
X115990475Y-40615000D01*
X115481399Y-40716261D01*
X115001859Y-40914893D01*
X114570285Y-41203262D01*
X114203262Y-41570285D01*
X113914893Y-42001859D01*
X113716261Y-42481399D01*
X113615000Y-42990475D01*
X113435000Y-42990475D01*
X113435000Y-40435000D01*
X176065000Y-40435000D01*
X176065001Y-77565000D01*
G37*
G04 #@! TD.AperFunction*
M02*
