M48
INCH,TZ
T1C0.0118
T2C0.0157
T3C0.0393
T4C0.0394
%
G90
G05
T1
X56041Y-18800
X56051Y-19520
X56411Y-18440
X56411Y-19880
X56421Y-19150
X56761Y-19520
X56781Y-18800
X57131Y-18440
X57131Y-19130
X57131Y-19880
X57491Y-19520
X57501Y-18800
T2
X49173Y-19724
X49173Y-20787
X49173Y-21772
X49173Y-22795
X49173Y-23780
X49173Y-24764
X49173Y-25787
X49173Y-26772
X50000Y-16437
X50689Y-18701
X59941Y-26280
X61417Y-28248
X61709Y-18205
X63476Y-17705
X63492Y-19657
T3
X57580Y-27559
X58956Y-27559
T4
X48327Y-19787
X48327Y-20787
X48327Y-21787
X48327Y-22787
X48327Y-23787
X48327Y-24787
X48327Y-25787
X48327Y-26787
X64382Y-16657
X64382Y-17657
X64382Y-18657
X64382Y-19657
T0
M30
