G04 #@! TF.GenerationSoftware,KiCad,Pcbnew,(5.1.9)-1*
G04 #@! TF.CreationDate,2021-04-10T17:26:08+02:00*
G04 #@! TF.ProjectId,LEDbarPCB,4c454462-6172-4504-9342-2e6b69636164,rev?*
G04 #@! TF.SameCoordinates,Original*
G04 #@! TF.FileFunction,Copper,L2,Bot*
G04 #@! TF.FilePolarity,Positive*
%FSLAX46Y46*%
G04 Gerber Fmt 4.6, Leading zero omitted, Abs format (unit mm)*
G04 Created by KiCad (PCBNEW (5.1.9)-1) date 2021-04-10 17:26:08*
%MOMM*%
%LPD*%
G01*
G04 APERTURE LIST*
G04 #@! TA.AperFunction,ComponentPad*
%ADD10C,0.400000*%
G04 #@! TD*
G04 #@! TA.AperFunction,ComponentPad*
%ADD11O,1.700000X1.700000*%
G04 #@! TD*
G04 #@! TA.AperFunction,ComponentPad*
%ADD12R,1.700000X1.700000*%
G04 #@! TD*
G04 #@! TA.AperFunction,ComponentPad*
%ADD13O,1.506220X3.014980*%
G04 #@! TD*
G04 #@! TA.AperFunction,ViaPad*
%ADD14C,0.800000*%
G04 #@! TD*
G04 #@! TA.AperFunction,Conductor*
%ADD15C,1.016000*%
G04 #@! TD*
G04 #@! TA.AperFunction,Conductor*
%ADD16C,0.900000*%
G04 #@! TD*
G04 #@! TA.AperFunction,Conductor*
%ADD17C,0.254000*%
G04 #@! TD*
G04 #@! TA.AperFunction,Conductor*
%ADD18C,0.100000*%
G04 #@! TD*
G04 APERTURE END LIST*
D10*
X143284500Y-50495000D03*
X145113300Y-50495000D03*
X146027700Y-49580600D03*
X144173500Y-49580600D03*
X142370100Y-49580600D03*
X142344700Y-47751800D03*
X144224300Y-47751800D03*
X146053100Y-47751800D03*
X145113300Y-48590000D03*
X143309900Y-48640800D03*
X143284500Y-46837400D03*
X145113300Y-46837400D03*
D11*
X163530000Y-42310000D03*
X163530000Y-44850000D03*
X163530000Y-47390000D03*
D12*
X163530000Y-49930000D03*
D13*
X146252480Y-70000000D03*
X149747520Y-70000000D03*
D12*
X122750000Y-50260000D03*
D11*
X122750000Y-52800000D03*
X122750000Y-55340000D03*
X122750000Y-57880000D03*
X122750000Y-60420000D03*
X122750000Y-62960000D03*
X122750000Y-65500000D03*
X122750000Y-68040000D03*
D14*
X152250000Y-66750000D03*
X127000000Y-41750000D03*
X156000000Y-71750000D03*
X128750000Y-47500000D03*
X161270000Y-49930000D03*
X161230000Y-44970000D03*
X156740000Y-46240000D03*
X124900000Y-50100000D03*
X124900000Y-52800000D03*
X124900000Y-55300000D03*
X124900000Y-57900000D03*
X124900000Y-60400000D03*
X124900000Y-62900000D03*
X124900000Y-65500000D03*
X124900000Y-68000000D03*
D15*
X152250000Y-66750000D02*
X147250000Y-66750000D01*
X146252480Y-67747520D02*
X146252480Y-70000000D01*
X147250000Y-66750000D02*
X146252480Y-67747520D01*
X125250000Y-48750000D02*
X123750000Y-47250000D01*
X123750000Y-47250000D02*
X123750000Y-45000000D01*
X123750000Y-45000000D02*
X125635000Y-43115000D01*
X125635000Y-43115000D02*
X127000000Y-41750000D01*
X128750000Y-47500000D02*
X127500000Y-48750000D01*
X127500000Y-48750000D02*
X125250000Y-48750000D01*
D16*
X161270000Y-49930000D02*
X163530000Y-49930000D01*
D15*
X128500000Y-50750000D02*
X126500000Y-48750000D01*
X128500000Y-58250000D02*
X128500000Y-50750000D01*
X133750000Y-63500000D02*
X128500000Y-58250000D01*
X151250000Y-63500000D02*
X133750000Y-63500000D01*
X156000000Y-68250000D02*
X151250000Y-63500000D01*
X156000000Y-71750000D02*
X156000000Y-68250000D01*
D16*
X163410000Y-44970000D02*
X163530000Y-44850000D01*
X161230000Y-44970000D02*
X163410000Y-44970000D01*
X157890000Y-47390000D02*
X156740000Y-46240000D01*
X163530000Y-47390000D02*
X157890000Y-47390000D01*
X122910000Y-50100000D02*
X122750000Y-50260000D01*
X124900000Y-50100000D02*
X122910000Y-50100000D01*
X124900000Y-52800000D02*
X122750000Y-52800000D01*
X122790000Y-55300000D02*
X122750000Y-55340000D01*
X124900000Y-55300000D02*
X122790000Y-55300000D01*
X122770000Y-57900000D02*
X122750000Y-57880000D01*
X124900000Y-57900000D02*
X122770000Y-57900000D01*
X122770000Y-60400000D02*
X122750000Y-60420000D01*
X124900000Y-60400000D02*
X122770000Y-60400000D01*
X122810000Y-62900000D02*
X122750000Y-62960000D01*
X124900000Y-62900000D02*
X122810000Y-62900000D01*
X124900000Y-65500000D02*
X122750000Y-65500000D01*
X122790000Y-68000000D02*
X122750000Y-68040000D01*
X124900000Y-68000000D02*
X122790000Y-68000000D01*
D17*
X176065001Y-77565000D02*
X113435000Y-77565000D01*
X113435000Y-74490475D01*
X113615000Y-74490475D01*
X113615000Y-75009525D01*
X113716261Y-75518601D01*
X113914893Y-75998141D01*
X114203262Y-76429715D01*
X114570285Y-76796738D01*
X115001859Y-77085107D01*
X115481399Y-77283739D01*
X115990475Y-77385000D01*
X116509525Y-77385000D01*
X117018601Y-77283739D01*
X117498141Y-77085107D01*
X117929715Y-76796738D01*
X118296738Y-76429715D01*
X118585107Y-75998141D01*
X118783739Y-75518601D01*
X118885000Y-75009525D01*
X118885000Y-74490475D01*
X170615000Y-74490475D01*
X170615000Y-75009525D01*
X170716261Y-75518601D01*
X170914893Y-75998141D01*
X171203262Y-76429715D01*
X171570285Y-76796738D01*
X172001859Y-77085107D01*
X172481399Y-77283739D01*
X172990475Y-77385000D01*
X173509525Y-77385000D01*
X174018601Y-77283739D01*
X174498141Y-77085107D01*
X174929715Y-76796738D01*
X175296738Y-76429715D01*
X175585107Y-75998141D01*
X175783739Y-75518601D01*
X175885000Y-75009525D01*
X175885000Y-74490475D01*
X175783739Y-73981399D01*
X175585107Y-73501859D01*
X175296738Y-73070285D01*
X174929715Y-72703262D01*
X174498141Y-72414893D01*
X174018601Y-72216261D01*
X173509525Y-72115000D01*
X172990475Y-72115000D01*
X172481399Y-72216261D01*
X172001859Y-72414893D01*
X171570285Y-72703262D01*
X171203262Y-73070285D01*
X170914893Y-73501859D01*
X170716261Y-73981399D01*
X170615000Y-74490475D01*
X118885000Y-74490475D01*
X118783739Y-73981399D01*
X118585107Y-73501859D01*
X118296738Y-73070285D01*
X117929715Y-72703262D01*
X117498141Y-72414893D01*
X117018601Y-72216261D01*
X116509525Y-72115000D01*
X115990475Y-72115000D01*
X115481399Y-72216261D01*
X115001859Y-72414893D01*
X114570285Y-72703262D01*
X114203262Y-73070285D01*
X113914893Y-73501859D01*
X113716261Y-73981399D01*
X113615000Y-74490475D01*
X113435000Y-74490475D01*
X113435000Y-49410000D01*
X121261928Y-49410000D01*
X121261928Y-51110000D01*
X121274188Y-51234482D01*
X121310498Y-51354180D01*
X121369463Y-51464494D01*
X121448815Y-51561185D01*
X121545506Y-51640537D01*
X121655820Y-51699502D01*
X121728380Y-51721513D01*
X121596525Y-51853368D01*
X121434010Y-52096589D01*
X121322068Y-52366842D01*
X121265000Y-52653740D01*
X121265000Y-52946260D01*
X121322068Y-53233158D01*
X121434010Y-53503411D01*
X121596525Y-53746632D01*
X121803368Y-53953475D01*
X121977760Y-54070000D01*
X121803368Y-54186525D01*
X121596525Y-54393368D01*
X121434010Y-54636589D01*
X121322068Y-54906842D01*
X121265000Y-55193740D01*
X121265000Y-55486260D01*
X121322068Y-55773158D01*
X121434010Y-56043411D01*
X121596525Y-56286632D01*
X121803368Y-56493475D01*
X121977760Y-56610000D01*
X121803368Y-56726525D01*
X121596525Y-56933368D01*
X121434010Y-57176589D01*
X121322068Y-57446842D01*
X121265000Y-57733740D01*
X121265000Y-58026260D01*
X121322068Y-58313158D01*
X121434010Y-58583411D01*
X121596525Y-58826632D01*
X121803368Y-59033475D01*
X121977760Y-59150000D01*
X121803368Y-59266525D01*
X121596525Y-59473368D01*
X121434010Y-59716589D01*
X121322068Y-59986842D01*
X121265000Y-60273740D01*
X121265000Y-60566260D01*
X121322068Y-60853158D01*
X121434010Y-61123411D01*
X121596525Y-61366632D01*
X121803368Y-61573475D01*
X121977760Y-61690000D01*
X121803368Y-61806525D01*
X121596525Y-62013368D01*
X121434010Y-62256589D01*
X121322068Y-62526842D01*
X121265000Y-62813740D01*
X121265000Y-63106260D01*
X121322068Y-63393158D01*
X121434010Y-63663411D01*
X121596525Y-63906632D01*
X121803368Y-64113475D01*
X121977760Y-64230000D01*
X121803368Y-64346525D01*
X121596525Y-64553368D01*
X121434010Y-64796589D01*
X121322068Y-65066842D01*
X121265000Y-65353740D01*
X121265000Y-65646260D01*
X121322068Y-65933158D01*
X121434010Y-66203411D01*
X121596525Y-66446632D01*
X121803368Y-66653475D01*
X121977760Y-66770000D01*
X121803368Y-66886525D01*
X121596525Y-67093368D01*
X121434010Y-67336589D01*
X121322068Y-67606842D01*
X121265000Y-67893740D01*
X121265000Y-68186260D01*
X121322068Y-68473158D01*
X121434010Y-68743411D01*
X121596525Y-68986632D01*
X121803368Y-69193475D01*
X122046589Y-69355990D01*
X122316842Y-69467932D01*
X122603740Y-69525000D01*
X122896260Y-69525000D01*
X123183158Y-69467932D01*
X123453411Y-69355990D01*
X123696632Y-69193475D01*
X123805107Y-69085000D01*
X124953294Y-69085000D01*
X125112697Y-69069300D01*
X125317220Y-69007259D01*
X125505710Y-68906509D01*
X125670922Y-68770922D01*
X125806509Y-68605710D01*
X125907259Y-68417220D01*
X125969300Y-68212697D01*
X125990249Y-68000000D01*
X125969300Y-67787303D01*
X125907259Y-67582780D01*
X125806509Y-67394290D01*
X125670922Y-67229078D01*
X125505710Y-67093491D01*
X125317220Y-66992741D01*
X125112697Y-66930700D01*
X124953294Y-66915000D01*
X123725107Y-66915000D01*
X123696632Y-66886525D01*
X123522240Y-66770000D01*
X123696632Y-66653475D01*
X123765107Y-66585000D01*
X124953294Y-66585000D01*
X125112697Y-66569300D01*
X125317220Y-66507259D01*
X125505710Y-66406509D01*
X125670922Y-66270922D01*
X125806509Y-66105710D01*
X125907259Y-65917220D01*
X125969300Y-65712697D01*
X125990249Y-65500000D01*
X125969300Y-65287303D01*
X125907259Y-65082780D01*
X125806509Y-64894290D01*
X125670922Y-64729078D01*
X125505710Y-64593491D01*
X125317220Y-64492741D01*
X125112697Y-64430700D01*
X124953294Y-64415000D01*
X123765107Y-64415000D01*
X123696632Y-64346525D01*
X123522240Y-64230000D01*
X123696632Y-64113475D01*
X123825107Y-63985000D01*
X124953294Y-63985000D01*
X125112697Y-63969300D01*
X125317220Y-63907259D01*
X125505710Y-63806509D01*
X125670922Y-63670922D01*
X125806509Y-63505710D01*
X125907259Y-63317220D01*
X125969300Y-63112697D01*
X125990249Y-62900000D01*
X125969300Y-62687303D01*
X125907259Y-62482780D01*
X125806509Y-62294290D01*
X125670922Y-62129078D01*
X125505710Y-61993491D01*
X125317220Y-61892741D01*
X125112697Y-61830700D01*
X124953294Y-61815000D01*
X123705107Y-61815000D01*
X123696632Y-61806525D01*
X123522240Y-61690000D01*
X123696632Y-61573475D01*
X123785107Y-61485000D01*
X124953294Y-61485000D01*
X125112697Y-61469300D01*
X125317220Y-61407259D01*
X125505710Y-61306509D01*
X125670922Y-61170922D01*
X125806509Y-61005710D01*
X125907259Y-60817220D01*
X125969300Y-60612697D01*
X125990249Y-60400000D01*
X125969300Y-60187303D01*
X125907259Y-59982780D01*
X125806509Y-59794290D01*
X125670922Y-59629078D01*
X125505710Y-59493491D01*
X125317220Y-59392741D01*
X125112697Y-59330700D01*
X124953294Y-59315000D01*
X123745107Y-59315000D01*
X123696632Y-59266525D01*
X123522240Y-59150000D01*
X123696632Y-59033475D01*
X123745107Y-58985000D01*
X124953294Y-58985000D01*
X125112697Y-58969300D01*
X125317220Y-58907259D01*
X125505710Y-58806509D01*
X125670922Y-58670922D01*
X125806509Y-58505710D01*
X125907259Y-58317220D01*
X125969300Y-58112697D01*
X125990249Y-57900000D01*
X125969300Y-57687303D01*
X125907259Y-57482780D01*
X125806509Y-57294290D01*
X125670922Y-57129078D01*
X125505710Y-56993491D01*
X125317220Y-56892741D01*
X125112697Y-56830700D01*
X124953294Y-56815000D01*
X123785107Y-56815000D01*
X123696632Y-56726525D01*
X123522240Y-56610000D01*
X123696632Y-56493475D01*
X123805107Y-56385000D01*
X124953294Y-56385000D01*
X125112697Y-56369300D01*
X125317220Y-56307259D01*
X125505710Y-56206509D01*
X125670922Y-56070922D01*
X125806509Y-55905710D01*
X125907259Y-55717220D01*
X125969300Y-55512697D01*
X125990249Y-55300000D01*
X125969300Y-55087303D01*
X125907259Y-54882780D01*
X125806509Y-54694290D01*
X125670922Y-54529078D01*
X125505710Y-54393491D01*
X125317220Y-54292741D01*
X125112697Y-54230700D01*
X124953294Y-54215000D01*
X123725107Y-54215000D01*
X123696632Y-54186525D01*
X123522240Y-54070000D01*
X123696632Y-53953475D01*
X123765107Y-53885000D01*
X124953294Y-53885000D01*
X125112697Y-53869300D01*
X125317220Y-53807259D01*
X125505710Y-53706509D01*
X125670922Y-53570922D01*
X125806509Y-53405710D01*
X125907259Y-53217220D01*
X125969300Y-53012697D01*
X125990249Y-52800000D01*
X125969300Y-52587303D01*
X125907259Y-52382780D01*
X125806509Y-52194290D01*
X125670922Y-52029078D01*
X125505710Y-51893491D01*
X125317220Y-51792741D01*
X125112697Y-51730700D01*
X124953294Y-51715000D01*
X123793090Y-51715000D01*
X123844180Y-51699502D01*
X123954494Y-51640537D01*
X124051185Y-51561185D01*
X124130537Y-51464494D01*
X124189502Y-51354180D01*
X124225812Y-51234482D01*
X124230685Y-51185000D01*
X124953294Y-51185000D01*
X125112697Y-51169300D01*
X125317220Y-51107259D01*
X125505710Y-51006509D01*
X125670922Y-50870922D01*
X125806509Y-50705710D01*
X125907259Y-50517220D01*
X125969300Y-50312697D01*
X125990249Y-50100000D01*
X125969861Y-49893000D01*
X126026555Y-49893000D01*
X127357001Y-51223447D01*
X127357000Y-58193861D01*
X127351471Y-58250000D01*
X127357000Y-58306139D01*
X127357000Y-58306145D01*
X127373539Y-58474066D01*
X127438897Y-58689522D01*
X127545032Y-58888088D01*
X127687867Y-59062133D01*
X127731482Y-59097927D01*
X132902075Y-64268521D01*
X132937867Y-64312133D01*
X133111911Y-64454968D01*
X133310477Y-64561103D01*
X133417246Y-64593491D01*
X133525932Y-64626461D01*
X133548600Y-64628694D01*
X133693854Y-64643000D01*
X133693860Y-64643000D01*
X133749999Y-64648529D01*
X133806138Y-64643000D01*
X150776555Y-64643000D01*
X151740555Y-65607000D01*
X147306138Y-65607000D01*
X147249999Y-65601471D01*
X147193860Y-65607000D01*
X147193854Y-65607000D01*
X147048600Y-65621306D01*
X147025932Y-65623539D01*
X146960574Y-65643365D01*
X146810477Y-65688897D01*
X146611911Y-65795032D01*
X146611909Y-65795033D01*
X146611910Y-65795033D01*
X146481477Y-65902076D01*
X146481471Y-65902082D01*
X146437867Y-65937867D01*
X146402081Y-65981472D01*
X145483962Y-66899593D01*
X145440347Y-66935387D01*
X145297512Y-67109432D01*
X145191377Y-67307998D01*
X145126019Y-67523454D01*
X145109480Y-67691375D01*
X145109480Y-67691381D01*
X145103951Y-67747520D01*
X145109480Y-67803659D01*
X145109480Y-68450281D01*
X145092726Y-68470696D01*
X144963830Y-68711843D01*
X144884455Y-68973503D01*
X144864370Y-69177431D01*
X144864370Y-70822568D01*
X144884455Y-71026496D01*
X144963829Y-71288156D01*
X145092725Y-71529303D01*
X145266189Y-71740670D01*
X145477556Y-71914135D01*
X145718703Y-72043031D01*
X145980363Y-72122405D01*
X146252480Y-72149206D01*
X146524596Y-72122405D01*
X146786256Y-72043031D01*
X147027403Y-71914135D01*
X147238770Y-71740671D01*
X147412235Y-71529304D01*
X147541131Y-71288157D01*
X147620505Y-71026497D01*
X147640590Y-70822569D01*
X147640590Y-69177431D01*
X147620505Y-68973503D01*
X147541131Y-68711843D01*
X147412235Y-68470696D01*
X147395480Y-68450280D01*
X147395480Y-68220966D01*
X147723446Y-67893000D01*
X152306146Y-67893000D01*
X152474067Y-67876461D01*
X152689523Y-67811103D01*
X152888089Y-67704968D01*
X153062133Y-67562133D01*
X153204968Y-67388089D01*
X153311103Y-67189523D01*
X153313890Y-67180336D01*
X154857001Y-68723447D01*
X154857000Y-71806145D01*
X154873539Y-71974066D01*
X154938897Y-72189522D01*
X155045032Y-72388088D01*
X155187867Y-72562133D01*
X155361911Y-72704968D01*
X155560477Y-72811103D01*
X155775933Y-72876461D01*
X156000000Y-72898530D01*
X156224066Y-72876461D01*
X156439522Y-72811103D01*
X156638088Y-72704968D01*
X156812133Y-72562133D01*
X156954968Y-72388089D01*
X157061103Y-72189523D01*
X157126461Y-71974067D01*
X157143000Y-71806146D01*
X157143000Y-68306138D01*
X157148529Y-68249999D01*
X157143000Y-68193860D01*
X157143000Y-68193854D01*
X157128694Y-68048600D01*
X157126461Y-68025932D01*
X157087671Y-67898061D01*
X157061103Y-67810477D01*
X156954968Y-67611911D01*
X156812133Y-67437867D01*
X156768523Y-67402077D01*
X152097927Y-62731482D01*
X152062133Y-62687867D01*
X151888089Y-62545032D01*
X151689523Y-62438897D01*
X151474067Y-62373539D01*
X151306146Y-62357000D01*
X151306139Y-62357000D01*
X151250000Y-62351471D01*
X151193861Y-62357000D01*
X134223446Y-62357000D01*
X129643000Y-57776555D01*
X129643000Y-50806138D01*
X129648529Y-50749999D01*
X129643000Y-50693860D01*
X129643000Y-50693854D01*
X129626461Y-50525933D01*
X129561103Y-50310477D01*
X129454968Y-50111911D01*
X129312133Y-49937867D01*
X129268523Y-49902077D01*
X128616445Y-49250000D01*
X129597924Y-48268522D01*
X129704967Y-48138089D01*
X129811102Y-47939524D01*
X129876461Y-47724068D01*
X129898529Y-47500000D01*
X129876461Y-47275933D01*
X129811102Y-47060477D01*
X129704967Y-46861912D01*
X129562133Y-46687867D01*
X129388088Y-46545033D01*
X129189523Y-46438898D01*
X128974067Y-46373539D01*
X128750000Y-46351471D01*
X128525932Y-46373539D01*
X128310476Y-46438898D01*
X128111911Y-46545033D01*
X127981478Y-46652076D01*
X127026555Y-47607000D01*
X126556139Y-47607000D01*
X126500000Y-47601471D01*
X126443861Y-47607000D01*
X125723447Y-47607000D01*
X124893000Y-46776555D01*
X124893000Y-46240000D01*
X155649752Y-46240000D01*
X155670700Y-46452697D01*
X155732742Y-46657220D01*
X155833492Y-46845709D01*
X155935105Y-46969526D01*
X157085109Y-48119531D01*
X157119078Y-48160922D01*
X157160469Y-48194891D01*
X157160473Y-48194895D01*
X157284290Y-48296509D01*
X157472779Y-48397259D01*
X157620035Y-48441928D01*
X157677303Y-48459300D01*
X157836706Y-48475000D01*
X157836714Y-48475000D01*
X157890000Y-48480248D01*
X157943286Y-48475000D01*
X162486910Y-48475000D01*
X162435820Y-48490498D01*
X162325506Y-48549463D01*
X162228815Y-48628815D01*
X162149463Y-48725506D01*
X162090498Y-48835820D01*
X162087713Y-48845000D01*
X161216706Y-48845000D01*
X161057303Y-48860700D01*
X160852780Y-48922741D01*
X160664290Y-49023491D01*
X160499078Y-49159078D01*
X160363491Y-49324290D01*
X160262741Y-49512780D01*
X160200700Y-49717303D01*
X160179751Y-49930000D01*
X160200700Y-50142697D01*
X160262741Y-50347220D01*
X160363491Y-50535710D01*
X160499078Y-50700922D01*
X160664290Y-50836509D01*
X160852780Y-50937259D01*
X161057303Y-50999300D01*
X161216706Y-51015000D01*
X162087713Y-51015000D01*
X162090498Y-51024180D01*
X162149463Y-51134494D01*
X162228815Y-51231185D01*
X162325506Y-51310537D01*
X162435820Y-51369502D01*
X162555518Y-51405812D01*
X162680000Y-51418072D01*
X164380000Y-51418072D01*
X164504482Y-51405812D01*
X164624180Y-51369502D01*
X164734494Y-51310537D01*
X164831185Y-51231185D01*
X164910537Y-51134494D01*
X164969502Y-51024180D01*
X165005812Y-50904482D01*
X165018072Y-50780000D01*
X165018072Y-49080000D01*
X165005812Y-48955518D01*
X164969502Y-48835820D01*
X164910537Y-48725506D01*
X164831185Y-48628815D01*
X164734494Y-48549463D01*
X164624180Y-48490498D01*
X164551620Y-48468487D01*
X164683475Y-48336632D01*
X164845990Y-48093411D01*
X164957932Y-47823158D01*
X165015000Y-47536260D01*
X165015000Y-47243740D01*
X164957932Y-46956842D01*
X164845990Y-46686589D01*
X164683475Y-46443368D01*
X164476632Y-46236525D01*
X164302240Y-46120000D01*
X164476632Y-46003475D01*
X164683475Y-45796632D01*
X164845990Y-45553411D01*
X164957932Y-45283158D01*
X165015000Y-44996260D01*
X165015000Y-44703740D01*
X164957932Y-44416842D01*
X164845990Y-44146589D01*
X164683475Y-43903368D01*
X164476632Y-43696525D01*
X164233411Y-43534010D01*
X163963158Y-43422068D01*
X163676260Y-43365000D01*
X163383740Y-43365000D01*
X163096842Y-43422068D01*
X162826589Y-43534010D01*
X162583368Y-43696525D01*
X162394893Y-43885000D01*
X161176706Y-43885000D01*
X161017303Y-43900700D01*
X160812780Y-43962741D01*
X160624290Y-44063491D01*
X160459078Y-44199078D01*
X160323491Y-44364290D01*
X160222741Y-44552780D01*
X160160700Y-44757303D01*
X160139751Y-44970000D01*
X160160700Y-45182697D01*
X160222741Y-45387220D01*
X160323491Y-45575710D01*
X160459078Y-45740922D01*
X160624290Y-45876509D01*
X160812780Y-45977259D01*
X161017303Y-46039300D01*
X161176706Y-46055000D01*
X162660481Y-46055000D01*
X162757760Y-46120000D01*
X162583368Y-46236525D01*
X162514893Y-46305000D01*
X158339422Y-46305000D01*
X157469526Y-45435105D01*
X157345709Y-45333492D01*
X157157220Y-45232742D01*
X156952697Y-45170700D01*
X156740000Y-45149752D01*
X156527303Y-45170700D01*
X156322780Y-45232742D01*
X156134291Y-45333492D01*
X155969078Y-45469078D01*
X155833492Y-45634291D01*
X155732742Y-45822780D01*
X155670700Y-46027303D01*
X155649752Y-46240000D01*
X124893000Y-46240000D01*
X124893000Y-45473445D01*
X126482924Y-43883522D01*
X126482928Y-43883517D01*
X127375970Y-42990475D01*
X170615000Y-42990475D01*
X170615000Y-43509525D01*
X170716261Y-44018601D01*
X170914893Y-44498141D01*
X171203262Y-44929715D01*
X171570285Y-45296738D01*
X172001859Y-45585107D01*
X172481399Y-45783739D01*
X172990475Y-45885000D01*
X173509525Y-45885000D01*
X174018601Y-45783739D01*
X174498141Y-45585107D01*
X174929715Y-45296738D01*
X175296738Y-44929715D01*
X175585107Y-44498141D01*
X175783739Y-44018601D01*
X175885000Y-43509525D01*
X175885000Y-42990475D01*
X175783739Y-42481399D01*
X175585107Y-42001859D01*
X175296738Y-41570285D01*
X174929715Y-41203262D01*
X174498141Y-40914893D01*
X174018601Y-40716261D01*
X173509525Y-40615000D01*
X172990475Y-40615000D01*
X172481399Y-40716261D01*
X172001859Y-40914893D01*
X171570285Y-41203262D01*
X171203262Y-41570285D01*
X170914893Y-42001859D01*
X170716261Y-42481399D01*
X170615000Y-42990475D01*
X127375970Y-42990475D01*
X127847924Y-42518522D01*
X127954967Y-42388089D01*
X128061103Y-42189524D01*
X128126461Y-41974067D01*
X128148529Y-41750000D01*
X128126461Y-41525933D01*
X128061103Y-41310477D01*
X127954967Y-41111911D01*
X127812133Y-40937867D01*
X127638089Y-40795033D01*
X127439523Y-40688897D01*
X127224067Y-40623539D01*
X127000000Y-40601471D01*
X126775933Y-40623539D01*
X126560476Y-40688897D01*
X126361911Y-40795033D01*
X126231478Y-40902076D01*
X124866483Y-42267072D01*
X124866478Y-42267076D01*
X122981478Y-44152077D01*
X122937868Y-44187867D01*
X122902078Y-44231477D01*
X122902076Y-44231479D01*
X122875773Y-44263529D01*
X122795033Y-44361911D01*
X122722217Y-44498141D01*
X122688898Y-44560477D01*
X122623539Y-44775933D01*
X122601471Y-45000000D01*
X122607001Y-45056148D01*
X122607000Y-47193861D01*
X122601471Y-47250000D01*
X122607000Y-47306139D01*
X122607000Y-47306145D01*
X122623539Y-47474066D01*
X122688897Y-47689522D01*
X122795032Y-47888088D01*
X122937867Y-48062133D01*
X122981482Y-48097927D01*
X123661543Y-48777989D01*
X123600000Y-48771928D01*
X121900000Y-48771928D01*
X121775518Y-48784188D01*
X121655820Y-48820498D01*
X121545506Y-48879463D01*
X121448815Y-48958815D01*
X121369463Y-49055506D01*
X121310498Y-49165820D01*
X121274188Y-49285518D01*
X121261928Y-49410000D01*
X113435000Y-49410000D01*
X113435000Y-42990475D01*
X113615000Y-42990475D01*
X113615000Y-43509525D01*
X113716261Y-44018601D01*
X113914893Y-44498141D01*
X114203262Y-44929715D01*
X114570285Y-45296738D01*
X115001859Y-45585107D01*
X115481399Y-45783739D01*
X115990475Y-45885000D01*
X116509525Y-45885000D01*
X117018601Y-45783739D01*
X117498141Y-45585107D01*
X117929715Y-45296738D01*
X118296738Y-44929715D01*
X118585107Y-44498141D01*
X118783739Y-44018601D01*
X118885000Y-43509525D01*
X118885000Y-42990475D01*
X118783739Y-42481399D01*
X118585107Y-42001859D01*
X118296738Y-41570285D01*
X117929715Y-41203262D01*
X117498141Y-40914893D01*
X117018601Y-40716261D01*
X116509525Y-40615000D01*
X115990475Y-40615000D01*
X115481399Y-40716261D01*
X115001859Y-40914893D01*
X114570285Y-41203262D01*
X114203262Y-41570285D01*
X113914893Y-42001859D01*
X113716261Y-42481399D01*
X113615000Y-42990475D01*
X113435000Y-42990475D01*
X113435000Y-40435000D01*
X176065000Y-40435000D01*
X176065001Y-77565000D01*
G04 #@! TA.AperFunction,Conductor*
D18*
G36*
X176065001Y-77565000D02*
G01*
X113435000Y-77565000D01*
X113435000Y-74490475D01*
X113615000Y-74490475D01*
X113615000Y-75009525D01*
X113716261Y-75518601D01*
X113914893Y-75998141D01*
X114203262Y-76429715D01*
X114570285Y-76796738D01*
X115001859Y-77085107D01*
X115481399Y-77283739D01*
X115990475Y-77385000D01*
X116509525Y-77385000D01*
X117018601Y-77283739D01*
X117498141Y-77085107D01*
X117929715Y-76796738D01*
X118296738Y-76429715D01*
X118585107Y-75998141D01*
X118783739Y-75518601D01*
X118885000Y-75009525D01*
X118885000Y-74490475D01*
X170615000Y-74490475D01*
X170615000Y-75009525D01*
X170716261Y-75518601D01*
X170914893Y-75998141D01*
X171203262Y-76429715D01*
X171570285Y-76796738D01*
X172001859Y-77085107D01*
X172481399Y-77283739D01*
X172990475Y-77385000D01*
X173509525Y-77385000D01*
X174018601Y-77283739D01*
X174498141Y-77085107D01*
X174929715Y-76796738D01*
X175296738Y-76429715D01*
X175585107Y-75998141D01*
X175783739Y-75518601D01*
X175885000Y-75009525D01*
X175885000Y-74490475D01*
X175783739Y-73981399D01*
X175585107Y-73501859D01*
X175296738Y-73070285D01*
X174929715Y-72703262D01*
X174498141Y-72414893D01*
X174018601Y-72216261D01*
X173509525Y-72115000D01*
X172990475Y-72115000D01*
X172481399Y-72216261D01*
X172001859Y-72414893D01*
X171570285Y-72703262D01*
X171203262Y-73070285D01*
X170914893Y-73501859D01*
X170716261Y-73981399D01*
X170615000Y-74490475D01*
X118885000Y-74490475D01*
X118783739Y-73981399D01*
X118585107Y-73501859D01*
X118296738Y-73070285D01*
X117929715Y-72703262D01*
X117498141Y-72414893D01*
X117018601Y-72216261D01*
X116509525Y-72115000D01*
X115990475Y-72115000D01*
X115481399Y-72216261D01*
X115001859Y-72414893D01*
X114570285Y-72703262D01*
X114203262Y-73070285D01*
X113914893Y-73501859D01*
X113716261Y-73981399D01*
X113615000Y-74490475D01*
X113435000Y-74490475D01*
X113435000Y-49410000D01*
X121261928Y-49410000D01*
X121261928Y-51110000D01*
X121274188Y-51234482D01*
X121310498Y-51354180D01*
X121369463Y-51464494D01*
X121448815Y-51561185D01*
X121545506Y-51640537D01*
X121655820Y-51699502D01*
X121728380Y-51721513D01*
X121596525Y-51853368D01*
X121434010Y-52096589D01*
X121322068Y-52366842D01*
X121265000Y-52653740D01*
X121265000Y-52946260D01*
X121322068Y-53233158D01*
X121434010Y-53503411D01*
X121596525Y-53746632D01*
X121803368Y-53953475D01*
X121977760Y-54070000D01*
X121803368Y-54186525D01*
X121596525Y-54393368D01*
X121434010Y-54636589D01*
X121322068Y-54906842D01*
X121265000Y-55193740D01*
X121265000Y-55486260D01*
X121322068Y-55773158D01*
X121434010Y-56043411D01*
X121596525Y-56286632D01*
X121803368Y-56493475D01*
X121977760Y-56610000D01*
X121803368Y-56726525D01*
X121596525Y-56933368D01*
X121434010Y-57176589D01*
X121322068Y-57446842D01*
X121265000Y-57733740D01*
X121265000Y-58026260D01*
X121322068Y-58313158D01*
X121434010Y-58583411D01*
X121596525Y-58826632D01*
X121803368Y-59033475D01*
X121977760Y-59150000D01*
X121803368Y-59266525D01*
X121596525Y-59473368D01*
X121434010Y-59716589D01*
X121322068Y-59986842D01*
X121265000Y-60273740D01*
X121265000Y-60566260D01*
X121322068Y-60853158D01*
X121434010Y-61123411D01*
X121596525Y-61366632D01*
X121803368Y-61573475D01*
X121977760Y-61690000D01*
X121803368Y-61806525D01*
X121596525Y-62013368D01*
X121434010Y-62256589D01*
X121322068Y-62526842D01*
X121265000Y-62813740D01*
X121265000Y-63106260D01*
X121322068Y-63393158D01*
X121434010Y-63663411D01*
X121596525Y-63906632D01*
X121803368Y-64113475D01*
X121977760Y-64230000D01*
X121803368Y-64346525D01*
X121596525Y-64553368D01*
X121434010Y-64796589D01*
X121322068Y-65066842D01*
X121265000Y-65353740D01*
X121265000Y-65646260D01*
X121322068Y-65933158D01*
X121434010Y-66203411D01*
X121596525Y-66446632D01*
X121803368Y-66653475D01*
X121977760Y-66770000D01*
X121803368Y-66886525D01*
X121596525Y-67093368D01*
X121434010Y-67336589D01*
X121322068Y-67606842D01*
X121265000Y-67893740D01*
X121265000Y-68186260D01*
X121322068Y-68473158D01*
X121434010Y-68743411D01*
X121596525Y-68986632D01*
X121803368Y-69193475D01*
X122046589Y-69355990D01*
X122316842Y-69467932D01*
X122603740Y-69525000D01*
X122896260Y-69525000D01*
X123183158Y-69467932D01*
X123453411Y-69355990D01*
X123696632Y-69193475D01*
X123805107Y-69085000D01*
X124953294Y-69085000D01*
X125112697Y-69069300D01*
X125317220Y-69007259D01*
X125505710Y-68906509D01*
X125670922Y-68770922D01*
X125806509Y-68605710D01*
X125907259Y-68417220D01*
X125969300Y-68212697D01*
X125990249Y-68000000D01*
X125969300Y-67787303D01*
X125907259Y-67582780D01*
X125806509Y-67394290D01*
X125670922Y-67229078D01*
X125505710Y-67093491D01*
X125317220Y-66992741D01*
X125112697Y-66930700D01*
X124953294Y-66915000D01*
X123725107Y-66915000D01*
X123696632Y-66886525D01*
X123522240Y-66770000D01*
X123696632Y-66653475D01*
X123765107Y-66585000D01*
X124953294Y-66585000D01*
X125112697Y-66569300D01*
X125317220Y-66507259D01*
X125505710Y-66406509D01*
X125670922Y-66270922D01*
X125806509Y-66105710D01*
X125907259Y-65917220D01*
X125969300Y-65712697D01*
X125990249Y-65500000D01*
X125969300Y-65287303D01*
X125907259Y-65082780D01*
X125806509Y-64894290D01*
X125670922Y-64729078D01*
X125505710Y-64593491D01*
X125317220Y-64492741D01*
X125112697Y-64430700D01*
X124953294Y-64415000D01*
X123765107Y-64415000D01*
X123696632Y-64346525D01*
X123522240Y-64230000D01*
X123696632Y-64113475D01*
X123825107Y-63985000D01*
X124953294Y-63985000D01*
X125112697Y-63969300D01*
X125317220Y-63907259D01*
X125505710Y-63806509D01*
X125670922Y-63670922D01*
X125806509Y-63505710D01*
X125907259Y-63317220D01*
X125969300Y-63112697D01*
X125990249Y-62900000D01*
X125969300Y-62687303D01*
X125907259Y-62482780D01*
X125806509Y-62294290D01*
X125670922Y-62129078D01*
X125505710Y-61993491D01*
X125317220Y-61892741D01*
X125112697Y-61830700D01*
X124953294Y-61815000D01*
X123705107Y-61815000D01*
X123696632Y-61806525D01*
X123522240Y-61690000D01*
X123696632Y-61573475D01*
X123785107Y-61485000D01*
X124953294Y-61485000D01*
X125112697Y-61469300D01*
X125317220Y-61407259D01*
X125505710Y-61306509D01*
X125670922Y-61170922D01*
X125806509Y-61005710D01*
X125907259Y-60817220D01*
X125969300Y-60612697D01*
X125990249Y-60400000D01*
X125969300Y-60187303D01*
X125907259Y-59982780D01*
X125806509Y-59794290D01*
X125670922Y-59629078D01*
X125505710Y-59493491D01*
X125317220Y-59392741D01*
X125112697Y-59330700D01*
X124953294Y-59315000D01*
X123745107Y-59315000D01*
X123696632Y-59266525D01*
X123522240Y-59150000D01*
X123696632Y-59033475D01*
X123745107Y-58985000D01*
X124953294Y-58985000D01*
X125112697Y-58969300D01*
X125317220Y-58907259D01*
X125505710Y-58806509D01*
X125670922Y-58670922D01*
X125806509Y-58505710D01*
X125907259Y-58317220D01*
X125969300Y-58112697D01*
X125990249Y-57900000D01*
X125969300Y-57687303D01*
X125907259Y-57482780D01*
X125806509Y-57294290D01*
X125670922Y-57129078D01*
X125505710Y-56993491D01*
X125317220Y-56892741D01*
X125112697Y-56830700D01*
X124953294Y-56815000D01*
X123785107Y-56815000D01*
X123696632Y-56726525D01*
X123522240Y-56610000D01*
X123696632Y-56493475D01*
X123805107Y-56385000D01*
X124953294Y-56385000D01*
X125112697Y-56369300D01*
X125317220Y-56307259D01*
X125505710Y-56206509D01*
X125670922Y-56070922D01*
X125806509Y-55905710D01*
X125907259Y-55717220D01*
X125969300Y-55512697D01*
X125990249Y-55300000D01*
X125969300Y-55087303D01*
X125907259Y-54882780D01*
X125806509Y-54694290D01*
X125670922Y-54529078D01*
X125505710Y-54393491D01*
X125317220Y-54292741D01*
X125112697Y-54230700D01*
X124953294Y-54215000D01*
X123725107Y-54215000D01*
X123696632Y-54186525D01*
X123522240Y-54070000D01*
X123696632Y-53953475D01*
X123765107Y-53885000D01*
X124953294Y-53885000D01*
X125112697Y-53869300D01*
X125317220Y-53807259D01*
X125505710Y-53706509D01*
X125670922Y-53570922D01*
X125806509Y-53405710D01*
X125907259Y-53217220D01*
X125969300Y-53012697D01*
X125990249Y-52800000D01*
X125969300Y-52587303D01*
X125907259Y-52382780D01*
X125806509Y-52194290D01*
X125670922Y-52029078D01*
X125505710Y-51893491D01*
X125317220Y-51792741D01*
X125112697Y-51730700D01*
X124953294Y-51715000D01*
X123793090Y-51715000D01*
X123844180Y-51699502D01*
X123954494Y-51640537D01*
X124051185Y-51561185D01*
X124130537Y-51464494D01*
X124189502Y-51354180D01*
X124225812Y-51234482D01*
X124230685Y-51185000D01*
X124953294Y-51185000D01*
X125112697Y-51169300D01*
X125317220Y-51107259D01*
X125505710Y-51006509D01*
X125670922Y-50870922D01*
X125806509Y-50705710D01*
X125907259Y-50517220D01*
X125969300Y-50312697D01*
X125990249Y-50100000D01*
X125969861Y-49893000D01*
X126026555Y-49893000D01*
X127357001Y-51223447D01*
X127357000Y-58193861D01*
X127351471Y-58250000D01*
X127357000Y-58306139D01*
X127357000Y-58306145D01*
X127373539Y-58474066D01*
X127438897Y-58689522D01*
X127545032Y-58888088D01*
X127687867Y-59062133D01*
X127731482Y-59097927D01*
X132902075Y-64268521D01*
X132937867Y-64312133D01*
X133111911Y-64454968D01*
X133310477Y-64561103D01*
X133417246Y-64593491D01*
X133525932Y-64626461D01*
X133548600Y-64628694D01*
X133693854Y-64643000D01*
X133693860Y-64643000D01*
X133749999Y-64648529D01*
X133806138Y-64643000D01*
X150776555Y-64643000D01*
X151740555Y-65607000D01*
X147306138Y-65607000D01*
X147249999Y-65601471D01*
X147193860Y-65607000D01*
X147193854Y-65607000D01*
X147048600Y-65621306D01*
X147025932Y-65623539D01*
X146960574Y-65643365D01*
X146810477Y-65688897D01*
X146611911Y-65795032D01*
X146611909Y-65795033D01*
X146611910Y-65795033D01*
X146481477Y-65902076D01*
X146481471Y-65902082D01*
X146437867Y-65937867D01*
X146402081Y-65981472D01*
X145483962Y-66899593D01*
X145440347Y-66935387D01*
X145297512Y-67109432D01*
X145191377Y-67307998D01*
X145126019Y-67523454D01*
X145109480Y-67691375D01*
X145109480Y-67691381D01*
X145103951Y-67747520D01*
X145109480Y-67803659D01*
X145109480Y-68450281D01*
X145092726Y-68470696D01*
X144963830Y-68711843D01*
X144884455Y-68973503D01*
X144864370Y-69177431D01*
X144864370Y-70822568D01*
X144884455Y-71026496D01*
X144963829Y-71288156D01*
X145092725Y-71529303D01*
X145266189Y-71740670D01*
X145477556Y-71914135D01*
X145718703Y-72043031D01*
X145980363Y-72122405D01*
X146252480Y-72149206D01*
X146524596Y-72122405D01*
X146786256Y-72043031D01*
X147027403Y-71914135D01*
X147238770Y-71740671D01*
X147412235Y-71529304D01*
X147541131Y-71288157D01*
X147620505Y-71026497D01*
X147640590Y-70822569D01*
X147640590Y-69177431D01*
X147620505Y-68973503D01*
X147541131Y-68711843D01*
X147412235Y-68470696D01*
X147395480Y-68450280D01*
X147395480Y-68220966D01*
X147723446Y-67893000D01*
X152306146Y-67893000D01*
X152474067Y-67876461D01*
X152689523Y-67811103D01*
X152888089Y-67704968D01*
X153062133Y-67562133D01*
X153204968Y-67388089D01*
X153311103Y-67189523D01*
X153313890Y-67180336D01*
X154857001Y-68723447D01*
X154857000Y-71806145D01*
X154873539Y-71974066D01*
X154938897Y-72189522D01*
X155045032Y-72388088D01*
X155187867Y-72562133D01*
X155361911Y-72704968D01*
X155560477Y-72811103D01*
X155775933Y-72876461D01*
X156000000Y-72898530D01*
X156224066Y-72876461D01*
X156439522Y-72811103D01*
X156638088Y-72704968D01*
X156812133Y-72562133D01*
X156954968Y-72388089D01*
X157061103Y-72189523D01*
X157126461Y-71974067D01*
X157143000Y-71806146D01*
X157143000Y-68306138D01*
X157148529Y-68249999D01*
X157143000Y-68193860D01*
X157143000Y-68193854D01*
X157128694Y-68048600D01*
X157126461Y-68025932D01*
X157087671Y-67898061D01*
X157061103Y-67810477D01*
X156954968Y-67611911D01*
X156812133Y-67437867D01*
X156768523Y-67402077D01*
X152097927Y-62731482D01*
X152062133Y-62687867D01*
X151888089Y-62545032D01*
X151689523Y-62438897D01*
X151474067Y-62373539D01*
X151306146Y-62357000D01*
X151306139Y-62357000D01*
X151250000Y-62351471D01*
X151193861Y-62357000D01*
X134223446Y-62357000D01*
X129643000Y-57776555D01*
X129643000Y-50806138D01*
X129648529Y-50749999D01*
X129643000Y-50693860D01*
X129643000Y-50693854D01*
X129626461Y-50525933D01*
X129561103Y-50310477D01*
X129454968Y-50111911D01*
X129312133Y-49937867D01*
X129268523Y-49902077D01*
X128616445Y-49250000D01*
X129597924Y-48268522D01*
X129704967Y-48138089D01*
X129811102Y-47939524D01*
X129876461Y-47724068D01*
X129898529Y-47500000D01*
X129876461Y-47275933D01*
X129811102Y-47060477D01*
X129704967Y-46861912D01*
X129562133Y-46687867D01*
X129388088Y-46545033D01*
X129189523Y-46438898D01*
X128974067Y-46373539D01*
X128750000Y-46351471D01*
X128525932Y-46373539D01*
X128310476Y-46438898D01*
X128111911Y-46545033D01*
X127981478Y-46652076D01*
X127026555Y-47607000D01*
X126556139Y-47607000D01*
X126500000Y-47601471D01*
X126443861Y-47607000D01*
X125723447Y-47607000D01*
X124893000Y-46776555D01*
X124893000Y-46240000D01*
X155649752Y-46240000D01*
X155670700Y-46452697D01*
X155732742Y-46657220D01*
X155833492Y-46845709D01*
X155935105Y-46969526D01*
X157085109Y-48119531D01*
X157119078Y-48160922D01*
X157160469Y-48194891D01*
X157160473Y-48194895D01*
X157284290Y-48296509D01*
X157472779Y-48397259D01*
X157620035Y-48441928D01*
X157677303Y-48459300D01*
X157836706Y-48475000D01*
X157836714Y-48475000D01*
X157890000Y-48480248D01*
X157943286Y-48475000D01*
X162486910Y-48475000D01*
X162435820Y-48490498D01*
X162325506Y-48549463D01*
X162228815Y-48628815D01*
X162149463Y-48725506D01*
X162090498Y-48835820D01*
X162087713Y-48845000D01*
X161216706Y-48845000D01*
X161057303Y-48860700D01*
X160852780Y-48922741D01*
X160664290Y-49023491D01*
X160499078Y-49159078D01*
X160363491Y-49324290D01*
X160262741Y-49512780D01*
X160200700Y-49717303D01*
X160179751Y-49930000D01*
X160200700Y-50142697D01*
X160262741Y-50347220D01*
X160363491Y-50535710D01*
X160499078Y-50700922D01*
X160664290Y-50836509D01*
X160852780Y-50937259D01*
X161057303Y-50999300D01*
X161216706Y-51015000D01*
X162087713Y-51015000D01*
X162090498Y-51024180D01*
X162149463Y-51134494D01*
X162228815Y-51231185D01*
X162325506Y-51310537D01*
X162435820Y-51369502D01*
X162555518Y-51405812D01*
X162680000Y-51418072D01*
X164380000Y-51418072D01*
X164504482Y-51405812D01*
X164624180Y-51369502D01*
X164734494Y-51310537D01*
X164831185Y-51231185D01*
X164910537Y-51134494D01*
X164969502Y-51024180D01*
X165005812Y-50904482D01*
X165018072Y-50780000D01*
X165018072Y-49080000D01*
X165005812Y-48955518D01*
X164969502Y-48835820D01*
X164910537Y-48725506D01*
X164831185Y-48628815D01*
X164734494Y-48549463D01*
X164624180Y-48490498D01*
X164551620Y-48468487D01*
X164683475Y-48336632D01*
X164845990Y-48093411D01*
X164957932Y-47823158D01*
X165015000Y-47536260D01*
X165015000Y-47243740D01*
X164957932Y-46956842D01*
X164845990Y-46686589D01*
X164683475Y-46443368D01*
X164476632Y-46236525D01*
X164302240Y-46120000D01*
X164476632Y-46003475D01*
X164683475Y-45796632D01*
X164845990Y-45553411D01*
X164957932Y-45283158D01*
X165015000Y-44996260D01*
X165015000Y-44703740D01*
X164957932Y-44416842D01*
X164845990Y-44146589D01*
X164683475Y-43903368D01*
X164476632Y-43696525D01*
X164233411Y-43534010D01*
X163963158Y-43422068D01*
X163676260Y-43365000D01*
X163383740Y-43365000D01*
X163096842Y-43422068D01*
X162826589Y-43534010D01*
X162583368Y-43696525D01*
X162394893Y-43885000D01*
X161176706Y-43885000D01*
X161017303Y-43900700D01*
X160812780Y-43962741D01*
X160624290Y-44063491D01*
X160459078Y-44199078D01*
X160323491Y-44364290D01*
X160222741Y-44552780D01*
X160160700Y-44757303D01*
X160139751Y-44970000D01*
X160160700Y-45182697D01*
X160222741Y-45387220D01*
X160323491Y-45575710D01*
X160459078Y-45740922D01*
X160624290Y-45876509D01*
X160812780Y-45977259D01*
X161017303Y-46039300D01*
X161176706Y-46055000D01*
X162660481Y-46055000D01*
X162757760Y-46120000D01*
X162583368Y-46236525D01*
X162514893Y-46305000D01*
X158339422Y-46305000D01*
X157469526Y-45435105D01*
X157345709Y-45333492D01*
X157157220Y-45232742D01*
X156952697Y-45170700D01*
X156740000Y-45149752D01*
X156527303Y-45170700D01*
X156322780Y-45232742D01*
X156134291Y-45333492D01*
X155969078Y-45469078D01*
X155833492Y-45634291D01*
X155732742Y-45822780D01*
X155670700Y-46027303D01*
X155649752Y-46240000D01*
X124893000Y-46240000D01*
X124893000Y-45473445D01*
X126482924Y-43883522D01*
X126482928Y-43883517D01*
X127375970Y-42990475D01*
X170615000Y-42990475D01*
X170615000Y-43509525D01*
X170716261Y-44018601D01*
X170914893Y-44498141D01*
X171203262Y-44929715D01*
X171570285Y-45296738D01*
X172001859Y-45585107D01*
X172481399Y-45783739D01*
X172990475Y-45885000D01*
X173509525Y-45885000D01*
X174018601Y-45783739D01*
X174498141Y-45585107D01*
X174929715Y-45296738D01*
X175296738Y-44929715D01*
X175585107Y-44498141D01*
X175783739Y-44018601D01*
X175885000Y-43509525D01*
X175885000Y-42990475D01*
X175783739Y-42481399D01*
X175585107Y-42001859D01*
X175296738Y-41570285D01*
X174929715Y-41203262D01*
X174498141Y-40914893D01*
X174018601Y-40716261D01*
X173509525Y-40615000D01*
X172990475Y-40615000D01*
X172481399Y-40716261D01*
X172001859Y-40914893D01*
X171570285Y-41203262D01*
X171203262Y-41570285D01*
X170914893Y-42001859D01*
X170716261Y-42481399D01*
X170615000Y-42990475D01*
X127375970Y-42990475D01*
X127847924Y-42518522D01*
X127954967Y-42388089D01*
X128061103Y-42189524D01*
X128126461Y-41974067D01*
X128148529Y-41750000D01*
X128126461Y-41525933D01*
X128061103Y-41310477D01*
X127954967Y-41111911D01*
X127812133Y-40937867D01*
X127638089Y-40795033D01*
X127439523Y-40688897D01*
X127224067Y-40623539D01*
X127000000Y-40601471D01*
X126775933Y-40623539D01*
X126560476Y-40688897D01*
X126361911Y-40795033D01*
X126231478Y-40902076D01*
X124866483Y-42267072D01*
X124866478Y-42267076D01*
X122981478Y-44152077D01*
X122937868Y-44187867D01*
X122902078Y-44231477D01*
X122902076Y-44231479D01*
X122875773Y-44263529D01*
X122795033Y-44361911D01*
X122722217Y-44498141D01*
X122688898Y-44560477D01*
X122623539Y-44775933D01*
X122601471Y-45000000D01*
X122607001Y-45056148D01*
X122607000Y-47193861D01*
X122601471Y-47250000D01*
X122607000Y-47306139D01*
X122607000Y-47306145D01*
X122623539Y-47474066D01*
X122688897Y-47689522D01*
X122795032Y-47888088D01*
X122937867Y-48062133D01*
X122981482Y-48097927D01*
X123661543Y-48777989D01*
X123600000Y-48771928D01*
X121900000Y-48771928D01*
X121775518Y-48784188D01*
X121655820Y-48820498D01*
X121545506Y-48879463D01*
X121448815Y-48958815D01*
X121369463Y-49055506D01*
X121310498Y-49165820D01*
X121274188Y-49285518D01*
X121261928Y-49410000D01*
X113435000Y-49410000D01*
X113435000Y-42990475D01*
X113615000Y-42990475D01*
X113615000Y-43509525D01*
X113716261Y-44018601D01*
X113914893Y-44498141D01*
X114203262Y-44929715D01*
X114570285Y-45296738D01*
X115001859Y-45585107D01*
X115481399Y-45783739D01*
X115990475Y-45885000D01*
X116509525Y-45885000D01*
X117018601Y-45783739D01*
X117498141Y-45585107D01*
X117929715Y-45296738D01*
X118296738Y-44929715D01*
X118585107Y-44498141D01*
X118783739Y-44018601D01*
X118885000Y-43509525D01*
X118885000Y-42990475D01*
X118783739Y-42481399D01*
X118585107Y-42001859D01*
X118296738Y-41570285D01*
X117929715Y-41203262D01*
X117498141Y-40914893D01*
X117018601Y-40716261D01*
X116509525Y-40615000D01*
X115990475Y-40615000D01*
X115481399Y-40716261D01*
X115001859Y-40914893D01*
X114570285Y-41203262D01*
X114203262Y-41570285D01*
X113914893Y-42001859D01*
X113716261Y-42481399D01*
X113615000Y-42990475D01*
X113435000Y-42990475D01*
X113435000Y-40435000D01*
X176065000Y-40435000D01*
X176065001Y-77565000D01*
G37*
G04 #@! TD.AperFunction*
M02*
