G04 #@! TF.GenerationSoftware,KiCad,Pcbnew,(5.1.9)-1*
G04 #@! TF.CreationDate,2021-04-10T17:26:08+02:00*
G04 #@! TF.ProjectId,LEDbarPCB,4c454462-6172-4504-9342-2e6b69636164,rev?*
G04 #@! TF.SameCoordinates,Original*
G04 #@! TF.FileFunction,Legend,Top*
G04 #@! TF.FilePolarity,Positive*
%FSLAX46Y46*%
G04 Gerber Fmt 4.6, Leading zero omitted, Abs format (unit mm)*
G04 Created by KiCad (PCBNEW (5.1.9)-1) date 2021-04-10 17:26:08*
%MOMM*%
%LPD*%
G01*
G04 APERTURE LIST*
%ADD10C,0.150000*%
%ADD11C,0.300000*%
%ADD12C,0.200000*%
%ADD13C,0.127000*%
%ADD14C,0.120000*%
%ADD15C,0.015000*%
G04 APERTURE END LIST*
D10*
X128630952Y-70675000D02*
X128535714Y-70627380D01*
X128392857Y-70627380D01*
X128250000Y-70675000D01*
X128154761Y-70770238D01*
X128107142Y-70865476D01*
X128059523Y-71055952D01*
X128059523Y-71198809D01*
X128107142Y-71389285D01*
X128154761Y-71484523D01*
X128250000Y-71579761D01*
X128392857Y-71627380D01*
X128488095Y-71627380D01*
X128630952Y-71579761D01*
X128678571Y-71532142D01*
X128678571Y-71198809D01*
X128488095Y-71198809D01*
X129250000Y-71627380D02*
X129154761Y-71579761D01*
X129107142Y-71484523D01*
X129107142Y-70627380D01*
X130011904Y-71579761D02*
X129916666Y-71627380D01*
X129726190Y-71627380D01*
X129630952Y-71579761D01*
X129583333Y-71484523D01*
X129583333Y-71103571D01*
X129630952Y-71008333D01*
X129726190Y-70960714D01*
X129916666Y-70960714D01*
X130011904Y-71008333D01*
X130059523Y-71103571D01*
X130059523Y-71198809D01*
X129583333Y-71294047D01*
X130488095Y-70960714D02*
X130488095Y-71627380D01*
X130488095Y-71055952D02*
X130535714Y-71008333D01*
X130630952Y-70960714D01*
X130773809Y-70960714D01*
X130869047Y-71008333D01*
X130916666Y-71103571D01*
X130916666Y-71627380D01*
X132107142Y-71579761D02*
X132250000Y-71627380D01*
X132488095Y-71627380D01*
X132583333Y-71579761D01*
X132630952Y-71532142D01*
X132678571Y-71436904D01*
X132678571Y-71341666D01*
X132630952Y-71246428D01*
X132583333Y-71198809D01*
X132488095Y-71151190D01*
X132297619Y-71103571D01*
X132202380Y-71055952D01*
X132154761Y-71008333D01*
X132107142Y-70913095D01*
X132107142Y-70817857D01*
X132154761Y-70722619D01*
X132202380Y-70675000D01*
X132297619Y-70627380D01*
X132535714Y-70627380D01*
X132678571Y-70675000D01*
X133107142Y-71627380D02*
X133107142Y-70960714D01*
X133107142Y-71055952D02*
X133154761Y-71008333D01*
X133250000Y-70960714D01*
X133392857Y-70960714D01*
X133488095Y-71008333D01*
X133535714Y-71103571D01*
X133535714Y-71627380D01*
X133535714Y-71103571D02*
X133583333Y-71008333D01*
X133678571Y-70960714D01*
X133821428Y-70960714D01*
X133916666Y-71008333D01*
X133964285Y-71103571D01*
X133964285Y-71627380D01*
X134821428Y-71579761D02*
X134726190Y-71627380D01*
X134535714Y-71627380D01*
X134440476Y-71579761D01*
X134392857Y-71484523D01*
X134392857Y-71103571D01*
X134440476Y-71008333D01*
X134535714Y-70960714D01*
X134726190Y-70960714D01*
X134821428Y-71008333D01*
X134869047Y-71103571D01*
X134869047Y-71198809D01*
X134392857Y-71294047D01*
X135154761Y-70960714D02*
X135535714Y-70960714D01*
X135297619Y-70627380D02*
X135297619Y-71484523D01*
X135345238Y-71579761D01*
X135440476Y-71627380D01*
X135535714Y-71627380D01*
X127321428Y-73277380D02*
X126845238Y-73277380D01*
X126845238Y-72277380D01*
X127654761Y-73277380D02*
X127654761Y-72610714D01*
X127654761Y-72277380D02*
X127607142Y-72325000D01*
X127654761Y-72372619D01*
X127702380Y-72325000D01*
X127654761Y-72277380D01*
X127654761Y-72372619D01*
X128083333Y-73229761D02*
X128178571Y-73277380D01*
X128369047Y-73277380D01*
X128464285Y-73229761D01*
X128511904Y-73134523D01*
X128511904Y-73086904D01*
X128464285Y-72991666D01*
X128369047Y-72944047D01*
X128226190Y-72944047D01*
X128130952Y-72896428D01*
X128083333Y-72801190D01*
X128083333Y-72753571D01*
X128130952Y-72658333D01*
X128226190Y-72610714D01*
X128369047Y-72610714D01*
X128464285Y-72658333D01*
X129369047Y-73277380D02*
X129369047Y-72753571D01*
X129321428Y-72658333D01*
X129226190Y-72610714D01*
X129035714Y-72610714D01*
X128940476Y-72658333D01*
X129369047Y-73229761D02*
X129273809Y-73277380D01*
X129035714Y-73277380D01*
X128940476Y-73229761D01*
X128892857Y-73134523D01*
X128892857Y-73039285D01*
X128940476Y-72944047D01*
X129035714Y-72896428D01*
X129273809Y-72896428D01*
X129369047Y-72848809D01*
X130607142Y-73277380D02*
X130607142Y-72277380D01*
X130845238Y-72277380D01*
X130988095Y-72325000D01*
X131083333Y-72420238D01*
X131130952Y-72515476D01*
X131178571Y-72705952D01*
X131178571Y-72848809D01*
X131130952Y-73039285D01*
X131083333Y-73134523D01*
X130988095Y-73229761D01*
X130845238Y-73277380D01*
X130607142Y-73277380D01*
X131988095Y-73229761D02*
X131892857Y-73277380D01*
X131702380Y-73277380D01*
X131607142Y-73229761D01*
X131559523Y-73134523D01*
X131559523Y-72753571D01*
X131607142Y-72658333D01*
X131702380Y-72610714D01*
X131892857Y-72610714D01*
X131988095Y-72658333D01*
X132035714Y-72753571D01*
X132035714Y-72848809D01*
X131559523Y-72944047D01*
X133083333Y-72277380D02*
X133416666Y-73277380D01*
X133750000Y-72277380D01*
X134511904Y-72610714D02*
X134511904Y-73277380D01*
X134083333Y-72610714D02*
X134083333Y-73134523D01*
X134130952Y-73229761D01*
X134226190Y-73277380D01*
X134369047Y-73277380D01*
X134464285Y-73229761D01*
X134511904Y-73182142D01*
X134892857Y-72610714D02*
X135130952Y-73277380D01*
X135369047Y-72610714D02*
X135130952Y-73277380D01*
X135035714Y-73515476D01*
X134988095Y-73563095D01*
X134892857Y-73610714D01*
X135702380Y-73229761D02*
X135797619Y-73277380D01*
X135988095Y-73277380D01*
X136083333Y-73229761D01*
X136130952Y-73134523D01*
X136130952Y-73086904D01*
X136083333Y-72991666D01*
X135988095Y-72944047D01*
X135845238Y-72944047D01*
X135750000Y-72896428D01*
X135702380Y-72801190D01*
X135702380Y-72753571D01*
X135750000Y-72658333D01*
X135845238Y-72610714D01*
X135988095Y-72610714D01*
X136083333Y-72658333D01*
X136416666Y-72610714D02*
X136797619Y-72610714D01*
X136559523Y-72277380D02*
X136559523Y-73134523D01*
X136607142Y-73229761D01*
X136702380Y-73277380D01*
X136797619Y-73277380D01*
D11*
X135607142Y-61392857D02*
X136107142Y-61392857D01*
X136321428Y-62178571D02*
X135607142Y-62178571D01*
X135607142Y-60678571D01*
X136321428Y-60678571D01*
X136892857Y-62107142D02*
X137107142Y-62178571D01*
X137464285Y-62178571D01*
X137607142Y-62107142D01*
X137678571Y-62035714D01*
X137750000Y-61892857D01*
X137750000Y-61750000D01*
X137678571Y-61607142D01*
X137607142Y-61535714D01*
X137464285Y-61464285D01*
X137178571Y-61392857D01*
X137035714Y-61321428D01*
X136964285Y-61250000D01*
X136892857Y-61107142D01*
X136892857Y-60964285D01*
X136964285Y-60821428D01*
X137035714Y-60750000D01*
X137178571Y-60678571D01*
X137535714Y-60678571D01*
X137750000Y-60750000D01*
X138392857Y-62178571D02*
X138392857Y-60678571D01*
X138964285Y-60678571D01*
X139107142Y-60750000D01*
X139178571Y-60821428D01*
X139250000Y-60964285D01*
X139250000Y-61178571D01*
X139178571Y-61321428D01*
X139107142Y-61392857D01*
X138964285Y-61464285D01*
X138392857Y-61464285D01*
X139892857Y-61607142D02*
X141035714Y-61607142D01*
X141607142Y-60678571D02*
X142535714Y-60678571D01*
X142035714Y-61250000D01*
X142250000Y-61250000D01*
X142392857Y-61321428D01*
X142464285Y-61392857D01*
X142535714Y-61535714D01*
X142535714Y-61892857D01*
X142464285Y-62035714D01*
X142392857Y-62107142D01*
X142250000Y-62178571D01*
X141821428Y-62178571D01*
X141678571Y-62107142D01*
X141607142Y-62035714D01*
X143107142Y-60821428D02*
X143178571Y-60750000D01*
X143321428Y-60678571D01*
X143678571Y-60678571D01*
X143821428Y-60750000D01*
X143892857Y-60821428D01*
X143964285Y-60964285D01*
X143964285Y-61107142D01*
X143892857Y-61321428D01*
X143035714Y-62178571D01*
X143964285Y-62178571D01*
X125607142Y-74428571D02*
X124892857Y-74428571D01*
X124821428Y-75142857D01*
X124892857Y-75071428D01*
X125035714Y-75000000D01*
X125392857Y-75000000D01*
X125535714Y-75071428D01*
X125607142Y-75142857D01*
X125678571Y-75285714D01*
X125678571Y-75642857D01*
X125607142Y-75785714D01*
X125535714Y-75857142D01*
X125392857Y-75928571D01*
X125035714Y-75928571D01*
X124892857Y-75857142D01*
X124821428Y-75785714D01*
X127107142Y-74500000D02*
X126964285Y-74428571D01*
X126750000Y-74428571D01*
X126535714Y-74500000D01*
X126392857Y-74642857D01*
X126321428Y-74785714D01*
X126250000Y-75071428D01*
X126250000Y-75285714D01*
X126321428Y-75571428D01*
X126392857Y-75714285D01*
X126535714Y-75857142D01*
X126750000Y-75928571D01*
X126892857Y-75928571D01*
X127107142Y-75857142D01*
X127178571Y-75785714D01*
X127178571Y-75285714D01*
X126892857Y-75285714D01*
X128964285Y-75142857D02*
X130107142Y-75142857D01*
X130107142Y-75571428D02*
X128964285Y-75571428D01*
X132821428Y-75785714D02*
X132750000Y-75857142D01*
X132535714Y-75928571D01*
X132392857Y-75928571D01*
X132178571Y-75857142D01*
X132035714Y-75714285D01*
X131964285Y-75571428D01*
X131892857Y-75285714D01*
X131892857Y-75071428D01*
X131964285Y-74785714D01*
X132035714Y-74642857D01*
X132178571Y-74500000D01*
X132392857Y-74428571D01*
X132535714Y-74428571D01*
X132750000Y-74500000D01*
X132821428Y-74571428D01*
X133678571Y-75928571D02*
X133535714Y-75857142D01*
X133464285Y-75785714D01*
X133392857Y-75642857D01*
X133392857Y-75214285D01*
X133464285Y-75071428D01*
X133535714Y-75000000D01*
X133678571Y-74928571D01*
X133892857Y-74928571D01*
X134035714Y-75000000D01*
X134107142Y-75071428D01*
X134178571Y-75214285D01*
X134178571Y-75642857D01*
X134107142Y-75785714D01*
X134035714Y-75857142D01*
X133892857Y-75928571D01*
X133678571Y-75928571D01*
X134821428Y-75928571D02*
X134821428Y-74928571D01*
X134821428Y-75214285D02*
X134892857Y-75071428D01*
X134964285Y-75000000D01*
X135107142Y-74928571D01*
X135250000Y-74928571D01*
X135964285Y-75928571D02*
X135821428Y-75857142D01*
X135750000Y-75785714D01*
X135678571Y-75642857D01*
X135678571Y-75214285D01*
X135750000Y-75071428D01*
X135821428Y-75000000D01*
X135964285Y-74928571D01*
X136178571Y-74928571D01*
X136321428Y-75000000D01*
X136392857Y-75071428D01*
X136464285Y-75214285D01*
X136464285Y-75642857D01*
X136392857Y-75785714D01*
X136321428Y-75857142D01*
X136178571Y-75928571D01*
X135964285Y-75928571D01*
X137107142Y-74928571D02*
X137107142Y-75928571D01*
X137107142Y-75071428D02*
X137178571Y-75000000D01*
X137321428Y-74928571D01*
X137535714Y-74928571D01*
X137678571Y-75000000D01*
X137750000Y-75142857D01*
X137750000Y-75928571D01*
X139107142Y-75928571D02*
X139107142Y-75142857D01*
X139035714Y-75000000D01*
X138892857Y-74928571D01*
X138607142Y-74928571D01*
X138464285Y-75000000D01*
X139107142Y-75857142D02*
X138964285Y-75928571D01*
X138607142Y-75928571D01*
X138464285Y-75857142D01*
X138392857Y-75714285D01*
X138392857Y-75571428D01*
X138464285Y-75428571D01*
X138607142Y-75357142D01*
X138964285Y-75357142D01*
X139107142Y-75285714D01*
X118964285Y-68678571D02*
X118107142Y-68678571D01*
X118535714Y-68678571D02*
X118535714Y-67178571D01*
X118392857Y-67392857D01*
X118250000Y-67535714D01*
X118107142Y-67607142D01*
X119464285Y-67178571D02*
X120392857Y-67178571D01*
X119892857Y-67750000D01*
X120107142Y-67750000D01*
X120250000Y-67821428D01*
X120321428Y-67892857D01*
X120392857Y-68035714D01*
X120392857Y-68392857D01*
X120321428Y-68535714D01*
X120250000Y-68607142D01*
X120107142Y-68678571D01*
X119678571Y-68678571D01*
X119535714Y-68607142D01*
X119464285Y-68535714D01*
X118964285Y-66178571D02*
X118107142Y-66178571D01*
X118535714Y-66178571D02*
X118535714Y-64678571D01*
X118392857Y-64892857D01*
X118250000Y-65035714D01*
X118107142Y-65107142D01*
X119535714Y-64821428D02*
X119607142Y-64750000D01*
X119750000Y-64678571D01*
X120107142Y-64678571D01*
X120250000Y-64750000D01*
X120321428Y-64821428D01*
X120392857Y-64964285D01*
X120392857Y-65107142D01*
X120321428Y-65321428D01*
X119464285Y-66178571D01*
X120392857Y-66178571D01*
X118964285Y-63678571D02*
X118107142Y-63678571D01*
X118535714Y-63678571D02*
X118535714Y-62178571D01*
X118392857Y-62392857D01*
X118250000Y-62535714D01*
X118107142Y-62607142D01*
X120250000Y-62678571D02*
X120250000Y-63678571D01*
X119892857Y-62107142D02*
X119535714Y-63178571D01*
X120464285Y-63178571D01*
X118107142Y-59821428D02*
X118178571Y-59750000D01*
X118321428Y-59678571D01*
X118678571Y-59678571D01*
X118821428Y-59750000D01*
X118892857Y-59821428D01*
X118964285Y-59964285D01*
X118964285Y-60107142D01*
X118892857Y-60321428D01*
X118035714Y-61178571D01*
X118964285Y-61178571D01*
X119464285Y-59678571D02*
X120464285Y-59678571D01*
X119821428Y-61178571D01*
X118107142Y-57071428D02*
X118178571Y-57000000D01*
X118321428Y-56928571D01*
X118678571Y-56928571D01*
X118821428Y-57000000D01*
X118892857Y-57071428D01*
X118964285Y-57214285D01*
X118964285Y-57357142D01*
X118892857Y-57571428D01*
X118035714Y-58428571D01*
X118964285Y-58428571D01*
X120250000Y-56928571D02*
X119964285Y-56928571D01*
X119821428Y-57000000D01*
X119750000Y-57071428D01*
X119607142Y-57285714D01*
X119535714Y-57571428D01*
X119535714Y-58142857D01*
X119607142Y-58285714D01*
X119678571Y-58357142D01*
X119821428Y-58428571D01*
X120107142Y-58428571D01*
X120250000Y-58357142D01*
X120321428Y-58285714D01*
X120392857Y-58142857D01*
X120392857Y-57785714D01*
X120321428Y-57642857D01*
X120250000Y-57571428D01*
X120107142Y-57500000D01*
X119821428Y-57500000D01*
X119678571Y-57571428D01*
X119607142Y-57642857D01*
X119535714Y-57785714D01*
X118107142Y-54571428D02*
X118178571Y-54500000D01*
X118321428Y-54428571D01*
X118678571Y-54428571D01*
X118821428Y-54500000D01*
X118892857Y-54571428D01*
X118964285Y-54714285D01*
X118964285Y-54857142D01*
X118892857Y-55071428D01*
X118035714Y-55928571D01*
X118964285Y-55928571D01*
X120321428Y-54428571D02*
X119607142Y-54428571D01*
X119535714Y-55142857D01*
X119607142Y-55071428D01*
X119750000Y-55000000D01*
X120107142Y-55000000D01*
X120250000Y-55071428D01*
X120321428Y-55142857D01*
X120392857Y-55285714D01*
X120392857Y-55642857D01*
X120321428Y-55785714D01*
X120250000Y-55857142D01*
X120107142Y-55928571D01*
X119750000Y-55928571D01*
X119607142Y-55857142D01*
X119535714Y-55785714D01*
X118035714Y-51928571D02*
X118964285Y-51928571D01*
X118464285Y-52500000D01*
X118678571Y-52500000D01*
X118821428Y-52571428D01*
X118892857Y-52642857D01*
X118964285Y-52785714D01*
X118964285Y-53142857D01*
X118892857Y-53285714D01*
X118821428Y-53357142D01*
X118678571Y-53428571D01*
X118250000Y-53428571D01*
X118107142Y-53357142D01*
X118035714Y-53285714D01*
X119464285Y-51928571D02*
X120392857Y-51928571D01*
X119892857Y-52500000D01*
X120107142Y-52500000D01*
X120250000Y-52571428D01*
X120321428Y-52642857D01*
X120392857Y-52785714D01*
X120392857Y-53142857D01*
X120321428Y-53285714D01*
X120250000Y-53357142D01*
X120107142Y-53428571D01*
X119678571Y-53428571D01*
X119535714Y-53357142D01*
X119464285Y-53285714D01*
X118035714Y-49428571D02*
X118964285Y-49428571D01*
X118464285Y-50000000D01*
X118678571Y-50000000D01*
X118821428Y-50071428D01*
X118892857Y-50142857D01*
X118964285Y-50285714D01*
X118964285Y-50642857D01*
X118892857Y-50785714D01*
X118821428Y-50857142D01*
X118678571Y-50928571D01*
X118250000Y-50928571D01*
X118107142Y-50857142D01*
X118035714Y-50785714D01*
X119535714Y-49571428D02*
X119607142Y-49500000D01*
X119750000Y-49428571D01*
X120107142Y-49428571D01*
X120250000Y-49500000D01*
X120321428Y-49571428D01*
X120392857Y-49714285D01*
X120392857Y-49857142D01*
X120321428Y-50071428D01*
X119464285Y-50928571D01*
X120392857Y-50928571D01*
X150357142Y-74000000D02*
X150214285Y-73928571D01*
X150000000Y-73928571D01*
X149785714Y-74000000D01*
X149642857Y-74142857D01*
X149571428Y-74285714D01*
X149500000Y-74571428D01*
X149500000Y-74785714D01*
X149571428Y-75071428D01*
X149642857Y-75214285D01*
X149785714Y-75357142D01*
X150000000Y-75428571D01*
X150142857Y-75428571D01*
X150357142Y-75357142D01*
X150428571Y-75285714D01*
X150428571Y-74785714D01*
X150142857Y-74785714D01*
X151071428Y-75428571D02*
X151071428Y-73928571D01*
X151928571Y-75428571D01*
X151928571Y-73928571D01*
X152642857Y-75428571D02*
X152642857Y-73928571D01*
X153000000Y-73928571D01*
X153214285Y-74000000D01*
X153357142Y-74142857D01*
X153428571Y-74285714D01*
X153500000Y-74571428D01*
X153500000Y-74785714D01*
X153428571Y-75071428D01*
X153357142Y-75214285D01*
X153214285Y-75357142D01*
X153000000Y-75428571D01*
X152642857Y-75428571D01*
X143714285Y-73928571D02*
X143000000Y-73928571D01*
X142928571Y-74642857D01*
X143000000Y-74571428D01*
X143142857Y-74500000D01*
X143500000Y-74500000D01*
X143642857Y-74571428D01*
X143714285Y-74642857D01*
X143785714Y-74785714D01*
X143785714Y-75142857D01*
X143714285Y-75285714D01*
X143642857Y-75357142D01*
X143500000Y-75428571D01*
X143142857Y-75428571D01*
X143000000Y-75357142D01*
X142928571Y-75285714D01*
X144214285Y-73928571D02*
X144714285Y-75428571D01*
X145214285Y-73928571D01*
X173928571Y-68607142D02*
X173928571Y-69321428D01*
X172428571Y-69321428D01*
X173142857Y-68107142D02*
X173142857Y-67607142D01*
X173928571Y-67392857D02*
X173928571Y-68107142D01*
X172428571Y-68107142D01*
X172428571Y-67392857D01*
X173928571Y-66750000D02*
X172428571Y-66750000D01*
X172428571Y-66392857D01*
X172500000Y-66178571D01*
X172642857Y-66035714D01*
X172785714Y-65964285D01*
X173071428Y-65892857D01*
X173285714Y-65892857D01*
X173571428Y-65964285D01*
X173714285Y-66035714D01*
X173857142Y-66178571D01*
X173928571Y-66392857D01*
X173928571Y-66750000D01*
X173142857Y-64750000D02*
X173214285Y-64535714D01*
X173285714Y-64464285D01*
X173428571Y-64392857D01*
X173642857Y-64392857D01*
X173785714Y-64464285D01*
X173857142Y-64535714D01*
X173928571Y-64678571D01*
X173928571Y-65250000D01*
X172428571Y-65250000D01*
X172428571Y-64750000D01*
X172500000Y-64607142D01*
X172571428Y-64535714D01*
X172714285Y-64464285D01*
X172857142Y-64464285D01*
X173000000Y-64535714D01*
X173071428Y-64607142D01*
X173142857Y-64750000D01*
X173142857Y-65250000D01*
X173500000Y-63821428D02*
X173500000Y-63107142D01*
X173928571Y-63964285D02*
X172428571Y-63464285D01*
X173928571Y-62964285D01*
X173928571Y-61607142D02*
X173214285Y-62107142D01*
X173928571Y-62464285D02*
X172428571Y-62464285D01*
X172428571Y-61892857D01*
X172500000Y-61750000D01*
X172571428Y-61678571D01*
X172714285Y-61607142D01*
X172928571Y-61607142D01*
X173071428Y-61678571D01*
X173142857Y-61750000D01*
X173214285Y-61892857D01*
X173214285Y-62464285D01*
X166042857Y-49178571D02*
X166971428Y-49178571D01*
X166471428Y-49750000D01*
X166685714Y-49750000D01*
X166828571Y-49821428D01*
X166900000Y-49892857D01*
X166971428Y-50035714D01*
X166971428Y-50392857D01*
X166900000Y-50535714D01*
X166828571Y-50607142D01*
X166685714Y-50678571D01*
X166257142Y-50678571D01*
X166114285Y-50607142D01*
X166042857Y-50535714D01*
X167400000Y-49178571D02*
X167900000Y-50678571D01*
X168400000Y-49178571D01*
X168757142Y-49178571D02*
X169685714Y-49178571D01*
X169185714Y-49750000D01*
X169400000Y-49750000D01*
X169542857Y-49821428D01*
X169614285Y-49892857D01*
X169685714Y-50035714D01*
X169685714Y-50392857D01*
X169614285Y-50535714D01*
X169542857Y-50607142D01*
X169400000Y-50678571D01*
X168971428Y-50678571D01*
X168828571Y-50607142D01*
X168757142Y-50535714D01*
X166950000Y-48178571D02*
X166450000Y-47464285D01*
X166092857Y-48178571D02*
X166092857Y-46678571D01*
X166664285Y-46678571D01*
X166807142Y-46750000D01*
X166878571Y-46821428D01*
X166950000Y-46964285D01*
X166950000Y-47178571D01*
X166878571Y-47321428D01*
X166807142Y-47392857D01*
X166664285Y-47464285D01*
X166092857Y-47464285D01*
X167450000Y-46678571D02*
X168450000Y-48178571D01*
X168450000Y-46678571D02*
X167450000Y-48178571D01*
X165957142Y-44078571D02*
X166814285Y-44078571D01*
X166385714Y-45578571D02*
X166385714Y-44078571D01*
X167171428Y-44078571D02*
X168171428Y-45578571D01*
X168171428Y-44078571D02*
X167171428Y-45578571D01*
X166757142Y-41350000D02*
X166614285Y-41278571D01*
X166400000Y-41278571D01*
X166185714Y-41350000D01*
X166042857Y-41492857D01*
X165971428Y-41635714D01*
X165900000Y-41921428D01*
X165900000Y-42135714D01*
X165971428Y-42421428D01*
X166042857Y-42564285D01*
X166185714Y-42707142D01*
X166400000Y-42778571D01*
X166542857Y-42778571D01*
X166757142Y-42707142D01*
X166828571Y-42635714D01*
X166828571Y-42135714D01*
X166542857Y-42135714D01*
X167471428Y-42778571D02*
X167471428Y-41278571D01*
X168328571Y-42778571D01*
X168328571Y-41278571D01*
X169042857Y-42778571D02*
X169042857Y-41278571D01*
X169400000Y-41278571D01*
X169614285Y-41350000D01*
X169757142Y-41492857D01*
X169828571Y-41635714D01*
X169900000Y-41921428D01*
X169900000Y-42135714D01*
X169828571Y-42421428D01*
X169757142Y-42564285D01*
X169614285Y-42707142D01*
X169400000Y-42778571D01*
X169042857Y-42778571D01*
D12*
X135302000Y-41170000D02*
G75*
G03*
X135302000Y-41170000I-100000J0D01*
G01*
D13*
X136202000Y-58520000D02*
X136202000Y-59170000D01*
X136202000Y-59170000D02*
X138652000Y-59170000D01*
X151752000Y-59170000D02*
X154202000Y-59170000D01*
X154202000Y-59170000D02*
X154202000Y-58520000D01*
X136202000Y-40170000D02*
X136202000Y-33670000D01*
X136202000Y-33670000D02*
X154202000Y-33670000D01*
X154202000Y-33670000D02*
X154202000Y-40170000D01*
D14*
X159922248Y-63108000D02*
X160444752Y-63108000D01*
X159922248Y-61638000D02*
X160444752Y-61638000D01*
X131549000Y-42317252D02*
X131549000Y-41794748D01*
X133019000Y-42317252D02*
X133019000Y-41794748D01*
X166020000Y-69005752D02*
X166020000Y-68483248D01*
X164550000Y-69005752D02*
X164550000Y-68483248D01*
X128501000Y-42338752D02*
X128501000Y-41816248D01*
X129971000Y-42338752D02*
X129971000Y-41816248D01*
X154433000Y-64392000D02*
X154433000Y-61532000D01*
X154433000Y-61532000D02*
X152513000Y-61532000D01*
X152513000Y-61532000D02*
X152513000Y-64392000D01*
X163530000Y-51260000D02*
X162200000Y-51260000D01*
X162200000Y-51260000D02*
X162200000Y-49930000D01*
X162200000Y-48660000D02*
X162200000Y-40980000D01*
X164860000Y-40980000D02*
X162200000Y-40980000D01*
X164860000Y-48660000D02*
X164860000Y-40980000D01*
X164860000Y-48660000D02*
X162200000Y-48660000D01*
X160310000Y-47102064D02*
X160310000Y-45897936D01*
X158490000Y-47102064D02*
X158490000Y-45897936D01*
X133160000Y-46147936D02*
X133160000Y-47352064D01*
X131340000Y-46147936D02*
X131340000Y-47352064D01*
X150023000Y-63703564D02*
X150023000Y-62499436D01*
X151843000Y-63703564D02*
X151843000Y-62499436D01*
X158114436Y-53888000D02*
X159318564Y-53888000D01*
X158114436Y-52068000D02*
X159318564Y-52068000D01*
X159314564Y-55290000D02*
X158110436Y-55290000D01*
X159314564Y-57110000D02*
X158110436Y-57110000D01*
D12*
X122150000Y-44250000D02*
G75*
G03*
X122150000Y-44250000I-100000J0D01*
G01*
X126850000Y-47100000D02*
X126850000Y-46350000D01*
X120650000Y-47100000D02*
X126850000Y-47100000D01*
X120650000Y-46450000D02*
X120650000Y-47100000D01*
X126850000Y-43400000D02*
X126850000Y-44150000D01*
X120650000Y-43400000D02*
X126850000Y-43400000D01*
X120650000Y-44150000D02*
X120650000Y-43400000D01*
X164100000Y-55300000D02*
X164100000Y-54550000D01*
X164100000Y-54550000D02*
X170300000Y-54550000D01*
X170300000Y-54550000D02*
X170300000Y-55300000D01*
X164100000Y-57600000D02*
X164100000Y-58250000D01*
X164100000Y-58250000D02*
X170300000Y-58250000D01*
X170300000Y-58250000D02*
X170300000Y-57500000D01*
X165600000Y-55400000D02*
G75*
G03*
X165600000Y-55400000I-100000J0D01*
G01*
D14*
X156795000Y-70531000D02*
X158055000Y-70531000D01*
X163615000Y-70531000D02*
X162355000Y-70531000D01*
X156795000Y-66771000D02*
X156795000Y-70531000D01*
X163615000Y-64521000D02*
X163615000Y-70531000D01*
D13*
X144502420Y-66601480D02*
X151497580Y-66601480D01*
X151497580Y-66601480D02*
X151497580Y-73398520D01*
X151497580Y-73398520D02*
X144502420Y-73398520D01*
X144502420Y-73398520D02*
X144502420Y-71905000D01*
X144502420Y-71905000D02*
X144502420Y-71427480D01*
X144502420Y-71427480D02*
X144502420Y-66601480D01*
X145937520Y-74127500D02*
X146255020Y-73649980D01*
X146255020Y-73649980D02*
X146572520Y-74127500D01*
X146572520Y-74127500D02*
X145937520Y-74127500D01*
X144502420Y-71905000D02*
X144190000Y-71905000D01*
X144190000Y-71905000D02*
X144190000Y-71427480D01*
X144190000Y-71427480D02*
X144502420Y-71427480D01*
X151497580Y-68095000D02*
X151810000Y-68095000D01*
X151810000Y-68095000D02*
X151810000Y-68572520D01*
X151810000Y-68572520D02*
X151497580Y-68572520D01*
D14*
X122750000Y-48930000D02*
X124080000Y-48930000D01*
X124080000Y-48930000D02*
X124080000Y-50260000D01*
X124080000Y-51530000D02*
X124080000Y-69370000D01*
X121420000Y-69370000D02*
X124080000Y-69370000D01*
X121420000Y-51530000D02*
X121420000Y-69370000D01*
X121420000Y-51530000D02*
X124080000Y-51530000D01*
D15*
X138115095Y-31987380D02*
X138115095Y-32796904D01*
X138162714Y-32892142D01*
X138210333Y-32939761D01*
X138305571Y-32987380D01*
X138496047Y-32987380D01*
X138591285Y-32939761D01*
X138638904Y-32892142D01*
X138686523Y-32796904D01*
X138686523Y-31987380D01*
X139067476Y-31987380D02*
X139686523Y-31987380D01*
X139353190Y-32368333D01*
X139496047Y-32368333D01*
X139591285Y-32415952D01*
X139638904Y-32463571D01*
X139686523Y-32558809D01*
X139686523Y-32796904D01*
X139638904Y-32892142D01*
X139591285Y-32939761D01*
X139496047Y-32987380D01*
X139210333Y-32987380D01*
X139115095Y-32939761D01*
X139067476Y-32892142D01*
D10*
X163083333Y-62857142D02*
X163035714Y-62904761D01*
X162892857Y-62952380D01*
X162797619Y-62952380D01*
X162654761Y-62904761D01*
X162559523Y-62809523D01*
X162511904Y-62714285D01*
X162464285Y-62523809D01*
X162464285Y-62380952D01*
X162511904Y-62190476D01*
X162559523Y-62095238D01*
X162654761Y-62000000D01*
X162797619Y-61952380D01*
X162892857Y-61952380D01*
X163035714Y-62000000D01*
X163083333Y-62047619D01*
X164035714Y-62952380D02*
X163464285Y-62952380D01*
X163750000Y-62952380D02*
X163750000Y-61952380D01*
X163654761Y-62095238D01*
X163559523Y-62190476D01*
X163464285Y-62238095D01*
X134607142Y-42666666D02*
X134654761Y-42714285D01*
X134702380Y-42857142D01*
X134702380Y-42952380D01*
X134654761Y-43095238D01*
X134559523Y-43190476D01*
X134464285Y-43238095D01*
X134273809Y-43285714D01*
X134130952Y-43285714D01*
X133940476Y-43238095D01*
X133845238Y-43190476D01*
X133750000Y-43095238D01*
X133702380Y-42952380D01*
X133702380Y-42857142D01*
X133750000Y-42714285D01*
X133797619Y-42666666D01*
X133797619Y-42285714D02*
X133750000Y-42238095D01*
X133702380Y-42142857D01*
X133702380Y-41904761D01*
X133750000Y-41809523D01*
X133797619Y-41761904D01*
X133892857Y-41714285D01*
X133988095Y-41714285D01*
X134130952Y-41761904D01*
X134702380Y-42333333D01*
X134702380Y-41714285D01*
X167607142Y-67916666D02*
X167654761Y-67964285D01*
X167702380Y-68107142D01*
X167702380Y-68202380D01*
X167654761Y-68345238D01*
X167559523Y-68440476D01*
X167464285Y-68488095D01*
X167273809Y-68535714D01*
X167130952Y-68535714D01*
X166940476Y-68488095D01*
X166845238Y-68440476D01*
X166750000Y-68345238D01*
X166702380Y-68202380D01*
X166702380Y-68107142D01*
X166750000Y-67964285D01*
X166797619Y-67916666D01*
X166702380Y-67583333D02*
X166702380Y-66964285D01*
X167083333Y-67297619D01*
X167083333Y-67154761D01*
X167130952Y-67059523D01*
X167178571Y-67011904D01*
X167273809Y-66964285D01*
X167511904Y-66964285D01*
X167607142Y-67011904D01*
X167654761Y-67059523D01*
X167702380Y-67154761D01*
X167702380Y-67440476D01*
X167654761Y-67535714D01*
X167607142Y-67583333D01*
X130107142Y-45166666D02*
X130154761Y-45214285D01*
X130202380Y-45357142D01*
X130202380Y-45452380D01*
X130154761Y-45595238D01*
X130059523Y-45690476D01*
X129964285Y-45738095D01*
X129773809Y-45785714D01*
X129630952Y-45785714D01*
X129440476Y-45738095D01*
X129345238Y-45690476D01*
X129250000Y-45595238D01*
X129202380Y-45452380D01*
X129202380Y-45357142D01*
X129250000Y-45214285D01*
X129297619Y-45166666D01*
X129535714Y-44309523D02*
X130202380Y-44309523D01*
X129154761Y-44547619D02*
X129869047Y-44785714D01*
X129869047Y-44166666D01*
X155952380Y-65738095D02*
X154952380Y-65738095D01*
X154952380Y-65500000D01*
X155000000Y-65357142D01*
X155095238Y-65261904D01*
X155190476Y-65214285D01*
X155380952Y-65166666D01*
X155523809Y-65166666D01*
X155714285Y-65214285D01*
X155809523Y-65261904D01*
X155904761Y-65357142D01*
X155952380Y-65500000D01*
X155952380Y-65738095D01*
X155952380Y-64214285D02*
X155952380Y-64785714D01*
X155952380Y-64500000D02*
X154952380Y-64500000D01*
X155095238Y-64595238D01*
X155190476Y-64690476D01*
X155238095Y-64785714D01*
X155952380Y-62142857D02*
X155952380Y-62619047D01*
X154952380Y-62619047D01*
X155428571Y-61809523D02*
X155428571Y-61476190D01*
X155952380Y-61333333D02*
X155952380Y-61809523D01*
X154952380Y-61809523D01*
X154952380Y-61333333D01*
X155952380Y-60904761D02*
X154952380Y-60904761D01*
X154952380Y-60666666D01*
X155000000Y-60523809D01*
X155095238Y-60428571D01*
X155190476Y-60380952D01*
X155380952Y-60333333D01*
X155523809Y-60333333D01*
X155714285Y-60380952D01*
X155809523Y-60428571D01*
X155904761Y-60523809D01*
X155952380Y-60666666D01*
X155952380Y-60904761D01*
X157952380Y-44916666D02*
X157476190Y-45250000D01*
X157952380Y-45488095D02*
X156952380Y-45488095D01*
X156952380Y-45107142D01*
X157000000Y-45011904D01*
X157047619Y-44964285D01*
X157142857Y-44916666D01*
X157285714Y-44916666D01*
X157380952Y-44964285D01*
X157428571Y-45011904D01*
X157476190Y-45107142D01*
X157476190Y-45488095D01*
X157952380Y-43964285D02*
X157952380Y-44535714D01*
X157952380Y-44250000D02*
X156952380Y-44250000D01*
X157095238Y-44345238D01*
X157190476Y-44440476D01*
X157238095Y-44535714D01*
X134702380Y-46166666D02*
X134226190Y-46500000D01*
X134702380Y-46738095D02*
X133702380Y-46738095D01*
X133702380Y-46357142D01*
X133750000Y-46261904D01*
X133797619Y-46214285D01*
X133892857Y-46166666D01*
X134035714Y-46166666D01*
X134130952Y-46214285D01*
X134178571Y-46261904D01*
X134226190Y-46357142D01*
X134226190Y-46738095D01*
X133797619Y-45785714D02*
X133750000Y-45738095D01*
X133702380Y-45642857D01*
X133702380Y-45404761D01*
X133750000Y-45309523D01*
X133797619Y-45261904D01*
X133892857Y-45214285D01*
X133988095Y-45214285D01*
X134130952Y-45261904D01*
X134702380Y-45833333D01*
X134702380Y-45214285D01*
X149565380Y-63166666D02*
X149089190Y-63500000D01*
X149565380Y-63738095D02*
X148565380Y-63738095D01*
X148565380Y-63357142D01*
X148613000Y-63261904D01*
X148660619Y-63214285D01*
X148755857Y-63166666D01*
X148898714Y-63166666D01*
X148993952Y-63214285D01*
X149041571Y-63261904D01*
X149089190Y-63357142D01*
X149089190Y-63738095D01*
X148565380Y-62833333D02*
X148565380Y-62214285D01*
X148946333Y-62547619D01*
X148946333Y-62404761D01*
X148993952Y-62309523D01*
X149041571Y-62261904D01*
X149136809Y-62214285D01*
X149374904Y-62214285D01*
X149470142Y-62261904D01*
X149517761Y-62309523D01*
X149565380Y-62404761D01*
X149565380Y-62690476D01*
X149517761Y-62785714D01*
X149470142Y-62833333D01*
X156833333Y-51552380D02*
X156500000Y-51076190D01*
X156261904Y-51552380D02*
X156261904Y-50552380D01*
X156642857Y-50552380D01*
X156738095Y-50600000D01*
X156785714Y-50647619D01*
X156833333Y-50742857D01*
X156833333Y-50885714D01*
X156785714Y-50980952D01*
X156738095Y-51028571D01*
X156642857Y-51076190D01*
X156261904Y-51076190D01*
X157690476Y-50885714D02*
X157690476Y-51552380D01*
X157452380Y-50504761D02*
X157214285Y-51219047D01*
X157833333Y-51219047D01*
X156933333Y-58552380D02*
X156600000Y-58076190D01*
X156361904Y-58552380D02*
X156361904Y-57552380D01*
X156742857Y-57552380D01*
X156838095Y-57600000D01*
X156885714Y-57647619D01*
X156933333Y-57742857D01*
X156933333Y-57885714D01*
X156885714Y-57980952D01*
X156838095Y-58028571D01*
X156742857Y-58076190D01*
X156361904Y-58076190D01*
X157838095Y-57552380D02*
X157361904Y-57552380D01*
X157314285Y-58028571D01*
X157361904Y-57980952D01*
X157457142Y-57933333D01*
X157695238Y-57933333D01*
X157790476Y-57980952D01*
X157838095Y-58028571D01*
X157885714Y-58123809D01*
X157885714Y-58361904D01*
X157838095Y-58457142D01*
X157790476Y-58504761D01*
X157695238Y-58552380D01*
X157457142Y-58552380D01*
X157361904Y-58504761D01*
X157314285Y-58457142D01*
X121630952Y-42904761D02*
X121773809Y-42952380D01*
X122011904Y-42952380D01*
X122107142Y-42904761D01*
X122154761Y-42857142D01*
X122202380Y-42761904D01*
X122202380Y-42666666D01*
X122154761Y-42571428D01*
X122107142Y-42523809D01*
X122011904Y-42476190D01*
X121821428Y-42428571D01*
X121726190Y-42380952D01*
X121678571Y-42333333D01*
X121630952Y-42238095D01*
X121630952Y-42142857D01*
X121678571Y-42047619D01*
X121726190Y-42000000D01*
X121821428Y-41952380D01*
X122059523Y-41952380D01*
X122202380Y-42000000D01*
X123154761Y-42952380D02*
X122583333Y-42952380D01*
X122869047Y-42952380D02*
X122869047Y-41952380D01*
X122773809Y-42095238D01*
X122678571Y-42190476D01*
X122583333Y-42238095D01*
X124345238Y-42428571D02*
X124678571Y-42428571D01*
X124821428Y-42952380D02*
X124345238Y-42952380D01*
X124345238Y-41952380D01*
X124821428Y-41952380D01*
X125250000Y-42952380D02*
X125250000Y-41952380D01*
X125821428Y-42952380D01*
X125821428Y-41952380D01*
X164178571Y-53904761D02*
X164321428Y-53952380D01*
X164559523Y-53952380D01*
X164654761Y-53904761D01*
X164702380Y-53857142D01*
X164750000Y-53761904D01*
X164750000Y-53666666D01*
X164702380Y-53571428D01*
X164654761Y-53523809D01*
X164559523Y-53476190D01*
X164369047Y-53428571D01*
X164273809Y-53380952D01*
X164226190Y-53333333D01*
X164178571Y-53238095D01*
X164178571Y-53142857D01*
X164226190Y-53047619D01*
X164273809Y-53000000D01*
X164369047Y-52952380D01*
X164607142Y-52952380D01*
X164750000Y-53000000D01*
X165130952Y-53047619D02*
X165178571Y-53000000D01*
X165273809Y-52952380D01*
X165511904Y-52952380D01*
X165607142Y-53000000D01*
X165654761Y-53047619D01*
X165702380Y-53142857D01*
X165702380Y-53238095D01*
X165654761Y-53380952D01*
X165083333Y-53952380D01*
X165702380Y-53952380D01*
X167226190Y-53428571D02*
X167369047Y-53476190D01*
X167416666Y-53523809D01*
X167464285Y-53619047D01*
X167464285Y-53761904D01*
X167416666Y-53857142D01*
X167369047Y-53904761D01*
X167273809Y-53952380D01*
X166892857Y-53952380D01*
X166892857Y-52952380D01*
X167226190Y-52952380D01*
X167321428Y-53000000D01*
X167369047Y-53047619D01*
X167416666Y-53142857D01*
X167416666Y-53238095D01*
X167369047Y-53333333D01*
X167321428Y-53380952D01*
X167226190Y-53428571D01*
X166892857Y-53428571D01*
X168083333Y-52952380D02*
X168273809Y-52952380D01*
X168369047Y-53000000D01*
X168464285Y-53095238D01*
X168511904Y-53285714D01*
X168511904Y-53619047D01*
X168464285Y-53809523D01*
X168369047Y-53904761D01*
X168273809Y-53952380D01*
X168083333Y-53952380D01*
X167988095Y-53904761D01*
X167892857Y-53809523D01*
X167845238Y-53619047D01*
X167845238Y-53285714D01*
X167892857Y-53095238D01*
X167988095Y-53000000D01*
X168083333Y-52952380D01*
X169130952Y-52952380D02*
X169321428Y-52952380D01*
X169416666Y-53000000D01*
X169511904Y-53095238D01*
X169559523Y-53285714D01*
X169559523Y-53619047D01*
X169511904Y-53809523D01*
X169416666Y-53904761D01*
X169321428Y-53952380D01*
X169130952Y-53952380D01*
X169035714Y-53904761D01*
X168940476Y-53809523D01*
X168892857Y-53619047D01*
X168892857Y-53285714D01*
X168940476Y-53095238D01*
X169035714Y-53000000D01*
X169130952Y-52952380D01*
X169845238Y-52952380D02*
X170416666Y-52952380D01*
X170130952Y-53952380D02*
X170130952Y-52952380D01*
X162988095Y-71452380D02*
X162988095Y-72261904D01*
X163035714Y-72357142D01*
X163083333Y-72404761D01*
X163178571Y-72452380D01*
X163369047Y-72452380D01*
X163464285Y-72404761D01*
X163511904Y-72357142D01*
X163559523Y-72261904D01*
X163559523Y-71452380D01*
X163988095Y-71547619D02*
X164035714Y-71500000D01*
X164130952Y-71452380D01*
X164369047Y-71452380D01*
X164464285Y-71500000D01*
X164511904Y-71547619D01*
X164559523Y-71642857D01*
X164559523Y-71738095D01*
X164511904Y-71880952D01*
X163940476Y-72452380D01*
X164559523Y-72452380D01*
M02*
