G04 #@! TF.GenerationSoftware,KiCad,Pcbnew,(5.1.9)-1*
G04 #@! TF.CreationDate,2021-04-10T17:31:22+02:00*
G04 #@! TF.ProjectId,StralingslocatiePCB,53747261-6c69-46e6-9773-6c6f63617469,rev?*
G04 #@! TF.SameCoordinates,Original*
G04 #@! TF.FileFunction,Legend,Bot*
G04 #@! TF.FilePolarity,Positive*
%FSLAX46Y46*%
G04 Gerber Fmt 4.6, Leading zero omitted, Abs format (unit mm)*
G04 Created by KiCad (PCBNEW (5.1.9)-1) date 2021-04-10 17:31:22*
%MOMM*%
%LPD*%
G01*
G04 APERTURE LIST*
%ADD10C,0.150000*%
%ADD11C,0.300000*%
G04 APERTURE END LIST*
D10*
X158369047Y-60425000D02*
X158464285Y-60377380D01*
X158607142Y-60377380D01*
X158750000Y-60425000D01*
X158845238Y-60520238D01*
X158892857Y-60615476D01*
X158940476Y-60805952D01*
X158940476Y-60948809D01*
X158892857Y-61139285D01*
X158845238Y-61234523D01*
X158750000Y-61329761D01*
X158607142Y-61377380D01*
X158511904Y-61377380D01*
X158369047Y-61329761D01*
X158321428Y-61282142D01*
X158321428Y-60948809D01*
X158511904Y-60948809D01*
X157750000Y-61377380D02*
X157845238Y-61329761D01*
X157892857Y-61234523D01*
X157892857Y-60377380D01*
X156988095Y-61329761D02*
X157083333Y-61377380D01*
X157273809Y-61377380D01*
X157369047Y-61329761D01*
X157416666Y-61234523D01*
X157416666Y-60853571D01*
X157369047Y-60758333D01*
X157273809Y-60710714D01*
X157083333Y-60710714D01*
X156988095Y-60758333D01*
X156940476Y-60853571D01*
X156940476Y-60948809D01*
X157416666Y-61044047D01*
X156511904Y-60710714D02*
X156511904Y-61377380D01*
X156511904Y-60805952D02*
X156464285Y-60758333D01*
X156369047Y-60710714D01*
X156226190Y-60710714D01*
X156130952Y-60758333D01*
X156083333Y-60853571D01*
X156083333Y-61377380D01*
X154892857Y-61329761D02*
X154750000Y-61377380D01*
X154511904Y-61377380D01*
X154416666Y-61329761D01*
X154369047Y-61282142D01*
X154321428Y-61186904D01*
X154321428Y-61091666D01*
X154369047Y-60996428D01*
X154416666Y-60948809D01*
X154511904Y-60901190D01*
X154702380Y-60853571D01*
X154797619Y-60805952D01*
X154845238Y-60758333D01*
X154892857Y-60663095D01*
X154892857Y-60567857D01*
X154845238Y-60472619D01*
X154797619Y-60425000D01*
X154702380Y-60377380D01*
X154464285Y-60377380D01*
X154321428Y-60425000D01*
X153892857Y-61377380D02*
X153892857Y-60710714D01*
X153892857Y-60805952D02*
X153845238Y-60758333D01*
X153750000Y-60710714D01*
X153607142Y-60710714D01*
X153511904Y-60758333D01*
X153464285Y-60853571D01*
X153464285Y-61377380D01*
X153464285Y-60853571D02*
X153416666Y-60758333D01*
X153321428Y-60710714D01*
X153178571Y-60710714D01*
X153083333Y-60758333D01*
X153035714Y-60853571D01*
X153035714Y-61377380D01*
X152178571Y-61329761D02*
X152273809Y-61377380D01*
X152464285Y-61377380D01*
X152559523Y-61329761D01*
X152607142Y-61234523D01*
X152607142Y-60853571D01*
X152559523Y-60758333D01*
X152464285Y-60710714D01*
X152273809Y-60710714D01*
X152178571Y-60758333D01*
X152130952Y-60853571D01*
X152130952Y-60948809D01*
X152607142Y-61044047D01*
X151845238Y-60710714D02*
X151464285Y-60710714D01*
X151702380Y-60377380D02*
X151702380Y-61234523D01*
X151654761Y-61329761D01*
X151559523Y-61377380D01*
X151464285Y-61377380D01*
X159678571Y-63027380D02*
X160154761Y-63027380D01*
X160154761Y-62027380D01*
X159345238Y-63027380D02*
X159345238Y-62360714D01*
X159345238Y-62027380D02*
X159392857Y-62075000D01*
X159345238Y-62122619D01*
X159297619Y-62075000D01*
X159345238Y-62027380D01*
X159345238Y-62122619D01*
X158916666Y-62979761D02*
X158821428Y-63027380D01*
X158630952Y-63027380D01*
X158535714Y-62979761D01*
X158488095Y-62884523D01*
X158488095Y-62836904D01*
X158535714Y-62741666D01*
X158630952Y-62694047D01*
X158773809Y-62694047D01*
X158869047Y-62646428D01*
X158916666Y-62551190D01*
X158916666Y-62503571D01*
X158869047Y-62408333D01*
X158773809Y-62360714D01*
X158630952Y-62360714D01*
X158535714Y-62408333D01*
X157630952Y-63027380D02*
X157630952Y-62503571D01*
X157678571Y-62408333D01*
X157773809Y-62360714D01*
X157964285Y-62360714D01*
X158059523Y-62408333D01*
X157630952Y-62979761D02*
X157726190Y-63027380D01*
X157964285Y-63027380D01*
X158059523Y-62979761D01*
X158107142Y-62884523D01*
X158107142Y-62789285D01*
X158059523Y-62694047D01*
X157964285Y-62646428D01*
X157726190Y-62646428D01*
X157630952Y-62598809D01*
X156392857Y-63027380D02*
X156392857Y-62027380D01*
X156154761Y-62027380D01*
X156011904Y-62075000D01*
X155916666Y-62170238D01*
X155869047Y-62265476D01*
X155821428Y-62455952D01*
X155821428Y-62598809D01*
X155869047Y-62789285D01*
X155916666Y-62884523D01*
X156011904Y-62979761D01*
X156154761Y-63027380D01*
X156392857Y-63027380D01*
X155011904Y-62979761D02*
X155107142Y-63027380D01*
X155297619Y-63027380D01*
X155392857Y-62979761D01*
X155440476Y-62884523D01*
X155440476Y-62503571D01*
X155392857Y-62408333D01*
X155297619Y-62360714D01*
X155107142Y-62360714D01*
X155011904Y-62408333D01*
X154964285Y-62503571D01*
X154964285Y-62598809D01*
X155440476Y-62694047D01*
X153916666Y-62027380D02*
X153583333Y-63027380D01*
X153250000Y-62027380D01*
X152488095Y-62360714D02*
X152488095Y-63027380D01*
X152916666Y-62360714D02*
X152916666Y-62884523D01*
X152869047Y-62979761D01*
X152773809Y-63027380D01*
X152630952Y-63027380D01*
X152535714Y-62979761D01*
X152488095Y-62932142D01*
X152107142Y-62360714D02*
X151869047Y-63027380D01*
X151630952Y-62360714D02*
X151869047Y-63027380D01*
X151964285Y-63265476D01*
X152011904Y-63313095D01*
X152107142Y-63360714D01*
X151297619Y-62979761D02*
X151202380Y-63027380D01*
X151011904Y-63027380D01*
X150916666Y-62979761D01*
X150869047Y-62884523D01*
X150869047Y-62836904D01*
X150916666Y-62741666D01*
X151011904Y-62694047D01*
X151154761Y-62694047D01*
X151250000Y-62646428D01*
X151297619Y-62551190D01*
X151297619Y-62503571D01*
X151250000Y-62408333D01*
X151154761Y-62360714D01*
X151011904Y-62360714D01*
X150916666Y-62408333D01*
X150583333Y-62360714D02*
X150202380Y-62360714D01*
X150440476Y-62027380D02*
X150440476Y-62884523D01*
X150392857Y-62979761D01*
X150297619Y-63027380D01*
X150202380Y-63027380D01*
D11*
X160892857Y-58428571D02*
X161607142Y-58428571D01*
X161678571Y-59142857D01*
X161607142Y-59071428D01*
X161464285Y-59000000D01*
X161107142Y-59000000D01*
X160964285Y-59071428D01*
X160892857Y-59142857D01*
X160821428Y-59285714D01*
X160821428Y-59642857D01*
X160892857Y-59785714D01*
X160964285Y-59857142D01*
X161107142Y-59928571D01*
X161464285Y-59928571D01*
X161607142Y-59857142D01*
X161678571Y-59785714D01*
X159392857Y-58500000D02*
X159535714Y-58428571D01*
X159750000Y-58428571D01*
X159964285Y-58500000D01*
X160107142Y-58642857D01*
X160178571Y-58785714D01*
X160250000Y-59071428D01*
X160250000Y-59285714D01*
X160178571Y-59571428D01*
X160107142Y-59714285D01*
X159964285Y-59857142D01*
X159750000Y-59928571D01*
X159607142Y-59928571D01*
X159392857Y-59857142D01*
X159321428Y-59785714D01*
X159321428Y-59285714D01*
X159607142Y-59285714D01*
X157535714Y-59142857D02*
X156392857Y-59142857D01*
X156392857Y-59571428D02*
X157535714Y-59571428D01*
X153678571Y-59785714D02*
X153750000Y-59857142D01*
X153964285Y-59928571D01*
X154107142Y-59928571D01*
X154321428Y-59857142D01*
X154464285Y-59714285D01*
X154535714Y-59571428D01*
X154607142Y-59285714D01*
X154607142Y-59071428D01*
X154535714Y-58785714D01*
X154464285Y-58642857D01*
X154321428Y-58500000D01*
X154107142Y-58428571D01*
X153964285Y-58428571D01*
X153750000Y-58500000D01*
X153678571Y-58571428D01*
X152821428Y-59928571D02*
X152964285Y-59857142D01*
X153035714Y-59785714D01*
X153107142Y-59642857D01*
X153107142Y-59214285D01*
X153035714Y-59071428D01*
X152964285Y-59000000D01*
X152821428Y-58928571D01*
X152607142Y-58928571D01*
X152464285Y-59000000D01*
X152392857Y-59071428D01*
X152321428Y-59214285D01*
X152321428Y-59642857D01*
X152392857Y-59785714D01*
X152464285Y-59857142D01*
X152607142Y-59928571D01*
X152821428Y-59928571D01*
X151678571Y-59928571D02*
X151678571Y-58928571D01*
X151678571Y-59214285D02*
X151607142Y-59071428D01*
X151535714Y-59000000D01*
X151392857Y-58928571D01*
X151250000Y-58928571D01*
X150535714Y-59928571D02*
X150678571Y-59857142D01*
X150750000Y-59785714D01*
X150821428Y-59642857D01*
X150821428Y-59214285D01*
X150750000Y-59071428D01*
X150678571Y-59000000D01*
X150535714Y-58928571D01*
X150321428Y-58928571D01*
X150178571Y-59000000D01*
X150107142Y-59071428D01*
X150035714Y-59214285D01*
X150035714Y-59642857D01*
X150107142Y-59785714D01*
X150178571Y-59857142D01*
X150321428Y-59928571D01*
X150535714Y-59928571D01*
X149392857Y-58928571D02*
X149392857Y-59928571D01*
X149392857Y-59071428D02*
X149321428Y-59000000D01*
X149178571Y-58928571D01*
X148964285Y-58928571D01*
X148821428Y-59000000D01*
X148750000Y-59142857D01*
X148750000Y-59928571D01*
X147392857Y-59928571D02*
X147392857Y-59142857D01*
X147464285Y-59000000D01*
X147607142Y-58928571D01*
X147892857Y-58928571D01*
X148035714Y-59000000D01*
X147392857Y-59857142D02*
X147535714Y-59928571D01*
X147892857Y-59928571D01*
X148035714Y-59857142D01*
X148107142Y-59714285D01*
X148107142Y-59571428D01*
X148035714Y-59428571D01*
X147892857Y-59357142D01*
X147535714Y-59357142D01*
X147392857Y-59285714D01*
X162785714Y-57857142D02*
X162571428Y-57928571D01*
X162214285Y-57928571D01*
X162071428Y-57857142D01*
X162000000Y-57785714D01*
X161928571Y-57642857D01*
X161928571Y-57500000D01*
X162000000Y-57357142D01*
X162071428Y-57285714D01*
X162214285Y-57214285D01*
X162500000Y-57142857D01*
X162642857Y-57071428D01*
X162714285Y-57000000D01*
X162785714Y-56857142D01*
X162785714Y-56714285D01*
X162714285Y-56571428D01*
X162642857Y-56500000D01*
X162500000Y-56428571D01*
X162142857Y-56428571D01*
X161928571Y-56500000D01*
X161500000Y-56928571D02*
X160928571Y-56928571D01*
X161285714Y-56428571D02*
X161285714Y-57714285D01*
X161214285Y-57857142D01*
X161071428Y-57928571D01*
X160928571Y-57928571D01*
X160428571Y-57928571D02*
X160428571Y-56928571D01*
X160428571Y-57214285D02*
X160357142Y-57071428D01*
X160285714Y-57000000D01*
X160142857Y-56928571D01*
X160000000Y-56928571D01*
X158857142Y-57928571D02*
X158857142Y-57142857D01*
X158928571Y-57000000D01*
X159071428Y-56928571D01*
X159357142Y-56928571D01*
X159500000Y-57000000D01*
X158857142Y-57857142D02*
X159000000Y-57928571D01*
X159357142Y-57928571D01*
X159500000Y-57857142D01*
X159571428Y-57714285D01*
X159571428Y-57571428D01*
X159500000Y-57428571D01*
X159357142Y-57357142D01*
X159000000Y-57357142D01*
X158857142Y-57285714D01*
X157928571Y-57928571D02*
X158071428Y-57857142D01*
X158142857Y-57714285D01*
X158142857Y-56428571D01*
X157357142Y-57928571D02*
X157357142Y-56928571D01*
X157357142Y-56428571D02*
X157428571Y-56500000D01*
X157357142Y-56571428D01*
X157285714Y-56500000D01*
X157357142Y-56428571D01*
X157357142Y-56571428D01*
X156642857Y-56928571D02*
X156642857Y-57928571D01*
X156642857Y-57071428D02*
X156571428Y-57000000D01*
X156428571Y-56928571D01*
X156214285Y-56928571D01*
X156071428Y-57000000D01*
X156000000Y-57142857D01*
X156000000Y-57928571D01*
X154642857Y-56928571D02*
X154642857Y-58142857D01*
X154714285Y-58285714D01*
X154785714Y-58357142D01*
X154928571Y-58428571D01*
X155142857Y-58428571D01*
X155285714Y-58357142D01*
X154642857Y-57857142D02*
X154785714Y-57928571D01*
X155071428Y-57928571D01*
X155214285Y-57857142D01*
X155285714Y-57785714D01*
X155357142Y-57642857D01*
X155357142Y-57214285D01*
X155285714Y-57071428D01*
X155214285Y-57000000D01*
X155071428Y-56928571D01*
X154785714Y-56928571D01*
X154642857Y-57000000D01*
X154000000Y-57857142D02*
X153857142Y-57928571D01*
X153571428Y-57928571D01*
X153428571Y-57857142D01*
X153357142Y-57714285D01*
X153357142Y-57642857D01*
X153428571Y-57500000D01*
X153571428Y-57428571D01*
X153785714Y-57428571D01*
X153928571Y-57357142D01*
X154000000Y-57214285D01*
X154000000Y-57142857D01*
X153928571Y-57000000D01*
X153785714Y-56928571D01*
X153571428Y-56928571D01*
X153428571Y-57000000D01*
X152500000Y-57928571D02*
X152642857Y-57857142D01*
X152714285Y-57714285D01*
X152714285Y-56428571D01*
X151714285Y-57928571D02*
X151857142Y-57857142D01*
X151928571Y-57785714D01*
X152000000Y-57642857D01*
X152000000Y-57214285D01*
X151928571Y-57071428D01*
X151857142Y-57000000D01*
X151714285Y-56928571D01*
X151500000Y-56928571D01*
X151357142Y-57000000D01*
X151285714Y-57071428D01*
X151214285Y-57214285D01*
X151214285Y-57642857D01*
X151285714Y-57785714D01*
X151357142Y-57857142D01*
X151500000Y-57928571D01*
X151714285Y-57928571D01*
X149928571Y-57857142D02*
X150071428Y-57928571D01*
X150357142Y-57928571D01*
X150500000Y-57857142D01*
X150571428Y-57785714D01*
X150642857Y-57642857D01*
X150642857Y-57214285D01*
X150571428Y-57071428D01*
X150500000Y-57000000D01*
X150357142Y-56928571D01*
X150071428Y-56928571D01*
X149928571Y-57000000D01*
X148642857Y-57928571D02*
X148642857Y-57142857D01*
X148714285Y-57000000D01*
X148857142Y-56928571D01*
X149142857Y-56928571D01*
X149285714Y-57000000D01*
X148642857Y-57857142D02*
X148785714Y-57928571D01*
X149142857Y-57928571D01*
X149285714Y-57857142D01*
X149357142Y-57714285D01*
X149357142Y-57571428D01*
X149285714Y-57428571D01*
X149142857Y-57357142D01*
X148785714Y-57357142D01*
X148642857Y-57285714D01*
X148142857Y-56928571D02*
X147571428Y-56928571D01*
X147928571Y-56428571D02*
X147928571Y-57714285D01*
X147857142Y-57857142D01*
X147714285Y-57928571D01*
X147571428Y-57928571D01*
X147071428Y-57928571D02*
X147071428Y-56928571D01*
X147071428Y-56428571D02*
X147142857Y-56500000D01*
X147071428Y-56571428D01*
X147000000Y-56500000D01*
X147071428Y-56428571D01*
X147071428Y-56571428D01*
X145785714Y-57857142D02*
X145928571Y-57928571D01*
X146214285Y-57928571D01*
X146357142Y-57857142D01*
X146428571Y-57714285D01*
X146428571Y-57142857D01*
X146357142Y-57000000D01*
X146214285Y-56928571D01*
X145928571Y-56928571D01*
X145785714Y-57000000D01*
X145714285Y-57142857D01*
X145714285Y-57285714D01*
X146428571Y-57428571D01*
X120035714Y-47428571D02*
X120750000Y-47428571D01*
X120821428Y-48142857D01*
X120750000Y-48071428D01*
X120607142Y-48000000D01*
X120250000Y-48000000D01*
X120107142Y-48071428D01*
X120035714Y-48142857D01*
X119964285Y-48285714D01*
X119964285Y-48642857D01*
X120035714Y-48785714D01*
X120107142Y-48857142D01*
X120250000Y-48928571D01*
X120607142Y-48928571D01*
X120750000Y-48857142D01*
X120821428Y-48785714D01*
X119535714Y-47428571D02*
X119035714Y-48928571D01*
X118535714Y-47428571D01*
X121142857Y-57500000D02*
X121285714Y-57428571D01*
X121500000Y-57428571D01*
X121714285Y-57500000D01*
X121857142Y-57642857D01*
X121928571Y-57785714D01*
X122000000Y-58071428D01*
X122000000Y-58285714D01*
X121928571Y-58571428D01*
X121857142Y-58714285D01*
X121714285Y-58857142D01*
X121500000Y-58928571D01*
X121357142Y-58928571D01*
X121142857Y-58857142D01*
X121071428Y-58785714D01*
X121071428Y-58285714D01*
X121357142Y-58285714D01*
X120428571Y-58928571D02*
X120428571Y-57428571D01*
X119571428Y-58928571D01*
X119571428Y-57428571D01*
X118857142Y-58928571D02*
X118857142Y-57428571D01*
X118500000Y-57428571D01*
X118285714Y-57500000D01*
X118142857Y-57642857D01*
X118071428Y-57785714D01*
X118000000Y-58071428D01*
X118000000Y-58285714D01*
X118071428Y-58571428D01*
X118142857Y-58714285D01*
X118285714Y-58857142D01*
X118500000Y-58928571D01*
X118857142Y-58928571D01*
M02*
