G04 #@! TF.GenerationSoftware,KiCad,Pcbnew,(5.1.9)-1*
G04 #@! TF.CreationDate,2021-04-08T22:43:58+02:00*
G04 #@! TF.ProjectId,autopcb,6175746f-7063-4622-9e6b-696361645f70,rev?*
G04 #@! TF.SameCoordinates,Original*
G04 #@! TF.FileFunction,Legend,Bot*
G04 #@! TF.FilePolarity,Positive*
%FSLAX46Y46*%
G04 Gerber Fmt 4.6, Leading zero omitted, Abs format (unit mm)*
G04 Created by KiCad (PCBNEW (5.1.9)-1) date 2021-04-08 22:43:58*
%MOMM*%
%LPD*%
G01*
G04 APERTURE LIST*
%ADD10C,0.150000*%
%ADD11C,0.400000*%
G04 APERTURE END LIST*
D10*
X141541452Y-101480928D02*
X140779547Y-101480928D01*
X141160500Y-101861880D02*
X141160500Y-101099976D01*
X134937452Y-101480928D02*
X134175547Y-101480928D01*
D11*
X155049928Y-60623761D02*
X156002309Y-60623761D01*
X156002309Y-58623761D01*
X154383261Y-60623761D02*
X154383261Y-58623761D01*
X153526119Y-60528523D02*
X153240404Y-60623761D01*
X152764214Y-60623761D01*
X152573738Y-60528523D01*
X152478500Y-60433285D01*
X152383261Y-60242809D01*
X152383261Y-60052333D01*
X152478500Y-59861857D01*
X152573738Y-59766619D01*
X152764214Y-59671380D01*
X153145166Y-59576142D01*
X153335642Y-59480904D01*
X153430880Y-59385666D01*
X153526119Y-59195190D01*
X153526119Y-59004714D01*
X153430880Y-58814238D01*
X153335642Y-58719000D01*
X153145166Y-58623761D01*
X152668976Y-58623761D01*
X152383261Y-58719000D01*
X151621357Y-60052333D02*
X150668976Y-60052333D01*
X151811833Y-60623761D02*
X151145166Y-58623761D01*
X150478500Y-60623761D01*
X148288023Y-60623761D02*
X148288023Y-58623761D01*
X147811833Y-58623761D01*
X147526119Y-58719000D01*
X147335642Y-58909476D01*
X147240404Y-59099952D01*
X147145166Y-59480904D01*
X147145166Y-59766619D01*
X147240404Y-60147571D01*
X147335642Y-60338047D01*
X147526119Y-60528523D01*
X147811833Y-60623761D01*
X148288023Y-60623761D01*
X146288023Y-59576142D02*
X145621357Y-59576142D01*
X145335642Y-60623761D02*
X146288023Y-60623761D01*
X146288023Y-58623761D01*
X145335642Y-58623761D01*
X143240404Y-58623761D02*
X142573738Y-60623761D01*
X141907071Y-58623761D01*
X141240404Y-58623761D02*
X141240404Y-60242809D01*
X141145166Y-60433285D01*
X141049928Y-60528523D01*
X140859452Y-60623761D01*
X140478500Y-60623761D01*
X140288023Y-60528523D01*
X140192785Y-60433285D01*
X140097547Y-60242809D01*
X140097547Y-58623761D01*
X138764214Y-59671380D02*
X138764214Y-60623761D01*
X139430880Y-58623761D02*
X138764214Y-59671380D01*
X138097547Y-58623761D01*
X137526119Y-60528523D02*
X137240404Y-60623761D01*
X136764214Y-60623761D01*
X136573738Y-60528523D01*
X136478500Y-60433285D01*
X136383261Y-60242809D01*
X136383261Y-60052333D01*
X136478500Y-59861857D01*
X136573738Y-59766619D01*
X136764214Y-59671380D01*
X137145166Y-59576142D01*
X137335642Y-59480904D01*
X137430880Y-59385666D01*
X137526119Y-59195190D01*
X137526119Y-59004714D01*
X137430880Y-58814238D01*
X137335642Y-58719000D01*
X137145166Y-58623761D01*
X136668976Y-58623761D01*
X136383261Y-58719000D01*
X135811833Y-58623761D02*
X134668976Y-58623761D01*
X135240404Y-60623761D02*
X135240404Y-58623761D01*
X152240404Y-62119000D02*
X152430880Y-62023761D01*
X152716595Y-62023761D01*
X153002309Y-62119000D01*
X153192785Y-62309476D01*
X153288023Y-62499952D01*
X153383261Y-62880904D01*
X153383261Y-63166619D01*
X153288023Y-63547571D01*
X153192785Y-63738047D01*
X153002309Y-63928523D01*
X152716595Y-64023761D01*
X152526119Y-64023761D01*
X152240404Y-63928523D01*
X152145166Y-63833285D01*
X152145166Y-63166619D01*
X152526119Y-63166619D01*
X150335642Y-64023761D02*
X151288023Y-64023761D01*
X151288023Y-62023761D01*
X149668976Y-62976142D02*
X149002309Y-62976142D01*
X148716595Y-64023761D02*
X149668976Y-64023761D01*
X149668976Y-62023761D01*
X148716595Y-62023761D01*
X147859452Y-64023761D02*
X147859452Y-62023761D01*
X146716595Y-64023761D01*
X146716595Y-62023761D01*
X144335642Y-63928523D02*
X144049928Y-64023761D01*
X143573738Y-64023761D01*
X143383261Y-63928523D01*
X143288023Y-63833285D01*
X143192785Y-63642809D01*
X143192785Y-63452333D01*
X143288023Y-63261857D01*
X143383261Y-63166619D01*
X143573738Y-63071380D01*
X143954690Y-62976142D01*
X144145166Y-62880904D01*
X144240404Y-62785666D01*
X144335642Y-62595190D01*
X144335642Y-62404714D01*
X144240404Y-62214238D01*
X144145166Y-62119000D01*
X143954690Y-62023761D01*
X143478500Y-62023761D01*
X143192785Y-62119000D01*
X142335642Y-64023761D02*
X142335642Y-62023761D01*
X141668976Y-63452333D01*
X141002309Y-62023761D01*
X141002309Y-64023761D01*
X140049928Y-62976142D02*
X139383261Y-62976142D01*
X139097547Y-64023761D02*
X140049928Y-64023761D01*
X140049928Y-62023761D01*
X139097547Y-62023761D01*
X138526119Y-62023761D02*
X137383261Y-62023761D01*
X137954690Y-64023761D02*
X137954690Y-62023761D01*
X153668976Y-65423761D02*
X154621357Y-65423761D01*
X154716595Y-66376142D01*
X154621357Y-66280904D01*
X154430880Y-66185666D01*
X153954690Y-66185666D01*
X153764214Y-66280904D01*
X153668976Y-66376142D01*
X153573738Y-66566619D01*
X153573738Y-67042809D01*
X153668976Y-67233285D01*
X153764214Y-67328523D01*
X153954690Y-67423761D01*
X154430880Y-67423761D01*
X154621357Y-67328523D01*
X154716595Y-67233285D01*
X151668976Y-65519000D02*
X151859452Y-65423761D01*
X152145166Y-65423761D01*
X152430880Y-65519000D01*
X152621357Y-65709476D01*
X152716595Y-65899952D01*
X152811833Y-66280904D01*
X152811833Y-66566619D01*
X152716595Y-66947571D01*
X152621357Y-67138047D01*
X152430880Y-67328523D01*
X152145166Y-67423761D01*
X151954690Y-67423761D01*
X151668976Y-67328523D01*
X151573738Y-67233285D01*
X151573738Y-66566619D01*
X151954690Y-66566619D01*
X149288023Y-67328523D02*
X149002309Y-67423761D01*
X148526119Y-67423761D01*
X148335642Y-67328523D01*
X148240404Y-67233285D01*
X148145166Y-67042809D01*
X148145166Y-66852333D01*
X148240404Y-66661857D01*
X148335642Y-66566619D01*
X148526119Y-66471380D01*
X148907071Y-66376142D01*
X149097547Y-66280904D01*
X149192785Y-66185666D01*
X149288023Y-65995190D01*
X149288023Y-65804714D01*
X149192785Y-65614238D01*
X149097547Y-65519000D01*
X148907071Y-65423761D01*
X148430880Y-65423761D01*
X148145166Y-65519000D01*
X147573738Y-65423761D02*
X146430880Y-65423761D01*
X147002309Y-67423761D02*
X147002309Y-65423761D01*
X144621357Y-67423761D02*
X145288023Y-66471380D01*
X145764214Y-67423761D02*
X145764214Y-65423761D01*
X145002309Y-65423761D01*
X144811833Y-65519000D01*
X144716595Y-65614238D01*
X144621357Y-65804714D01*
X144621357Y-66090428D01*
X144716595Y-66280904D01*
X144811833Y-66376142D01*
X145002309Y-66471380D01*
X145764214Y-66471380D01*
X143859452Y-66852333D02*
X142907071Y-66852333D01*
X144049928Y-67423761D02*
X143383261Y-65423761D01*
X142716595Y-67423761D01*
X141097547Y-67423761D02*
X142049928Y-67423761D01*
X142049928Y-65423761D01*
X140430880Y-67423761D02*
X140430880Y-65423761D01*
X139478500Y-67423761D02*
X139478500Y-65423761D01*
X138335642Y-67423761D01*
X138335642Y-65423761D01*
X136335642Y-65519000D02*
X136526119Y-65423761D01*
X136811833Y-65423761D01*
X137097547Y-65519000D01*
X137288023Y-65709476D01*
X137383261Y-65899952D01*
X137478500Y-66280904D01*
X137478500Y-66566619D01*
X137383261Y-66947571D01*
X137288023Y-67138047D01*
X137097547Y-67328523D01*
X136811833Y-67423761D01*
X136621357Y-67423761D01*
X136335642Y-67328523D01*
X136240404Y-67233285D01*
X136240404Y-66566619D01*
X136621357Y-66566619D01*
M02*
