M48
INCH,TZ
T1C0.0118
T2C0.0157
T3C0.0315
T4C0.0394
T5C0.0512
T6C0.0551
%
G90
G05
T1
X56050Y-19519
X56056Y-18796
X56416Y-18426
X56416Y-19876
X56776Y-18806
X56776Y-19516
X57126Y-18436
X57136Y-19886
X57506Y-18796
X57506Y-19516
T2
X46003Y-23997
X46200Y-21440
X47480Y-25700
X47769Y-23171
X47980Y-26300
X48160Y-27000
X48650Y-17000
X48985Y-27055
X49880Y-27060
X49907Y-16177
X50580Y-27340
X51140Y-26540
X51150Y-24270
X51180Y-25540
X54916Y-23964
X55575Y-25905
X58992Y-31922
X60475Y-32425
X61133Y-25673
X61995Y-16205
X62300Y-27940
X62350Y-18200
X64045Y-17705
X64307Y-19657
X64472Y-33648
X64977Y-27123
X65098Y-25158
X65407Y-38372
X66493Y-16657
X66539Y-23511
X67450Y-20700
X69240Y-23960
T3
X68007Y-32372
X68007Y-35372
X69007Y-32372
X69007Y-35372
T4
X46349Y-30869
X46356Y-38179
X47348Y-30873
X47357Y-38172
X47880Y-28140
X48880Y-28140
X49880Y-28140
X50552Y-30867
X50554Y-38168
X50880Y-28140
X51552Y-30873
X51552Y-38173
X51825Y-24300
X51825Y-25300
X51825Y-26300
X53257Y-29872
X53257Y-30872
X53257Y-31872
X54135Y-34565
X54360Y-27297
X54807Y-30922
X54807Y-31922
X55135Y-34565
X56207Y-30922
X56207Y-31922
X58777Y-29498
X59700Y-27940
X60700Y-27940
X63507Y-33648
X63507Y-38372
X65272Y-16657
X65272Y-17657
X65272Y-18657
X65272Y-19657
X68150Y-19700
X68150Y-20700
X69260Y-25080
X69260Y-26080
T5
X58685Y-38392
X58704Y-33648
X64275Y-36030
T6
X53467Y-37965
X55435Y-37965
T0
M30
