G04 #@! TF.GenerationSoftware,KiCad,Pcbnew,(5.1.9)-1*
G04 #@! TF.CreationDate,2021-04-08T22:43:58+02:00*
G04 #@! TF.ProjectId,autopcb,6175746f-7063-4622-9e6b-696361645f70,rev?*
G04 #@! TF.SameCoordinates,Original*
G04 #@! TF.FileFunction,Copper,L2,Bot*
G04 #@! TF.FilePolarity,Positive*
%FSLAX46Y46*%
G04 Gerber Fmt 4.6, Leading zero omitted, Abs format (unit mm)*
G04 Created by KiCad (PCBNEW (5.1.9)-1) date 2021-04-08 22:43:58*
%MOMM*%
%LPD*%
G01*
G04 APERTURE LIST*
G04 #@! TA.AperFunction,ComponentPad*
%ADD10C,0.400000*%
G04 #@! TD*
G04 #@! TA.AperFunction,ComponentPad*
%ADD11O,1.700000X1.700000*%
G04 #@! TD*
G04 #@! TA.AperFunction,ComponentPad*
%ADD12R,1.700000X1.700000*%
G04 #@! TD*
G04 #@! TA.AperFunction,ComponentPad*
%ADD13C,1.524000*%
G04 #@! TD*
G04 #@! TA.AperFunction,ComponentPad*
%ADD14C,2.500000*%
G04 #@! TD*
G04 #@! TA.AperFunction,ComponentPad*
%ADD15C,3.000000*%
G04 #@! TD*
G04 #@! TA.AperFunction,ComponentPad*
%ADD16R,1.600000X1.600000*%
G04 #@! TD*
G04 #@! TA.AperFunction,ComponentPad*
%ADD17O,1.600000X1.600000*%
G04 #@! TD*
G04 #@! TA.AperFunction,ComponentPad*
%ADD18O,2.098040X4.198620*%
G04 #@! TD*
G04 #@! TA.AperFunction,ViaPad*
%ADD19C,0.800000*%
G04 #@! TD*
G04 #@! TA.AperFunction,ViaPad*
%ADD20C,2.000000*%
G04 #@! TD*
G04 #@! TA.AperFunction,Conductor*
%ADD21C,0.762000*%
G04 #@! TD*
G04 #@! TA.AperFunction,Conductor*
%ADD22C,0.406400*%
G04 #@! TD*
G04 #@! TA.AperFunction,Conductor*
%ADD23C,0.900000*%
G04 #@! TD*
G04 #@! TA.AperFunction,Conductor*
%ADD24C,1.016000*%
G04 #@! TD*
G04 #@! TA.AperFunction,Conductor*
%ADD25C,0.254000*%
G04 #@! TD*
G04 #@! TA.AperFunction,Conductor*
%ADD26C,0.100000*%
G04 #@! TD*
G04 APERTURE END LIST*
D10*
X142367000Y-49577500D03*
X143297000Y-50484000D03*
X144211400Y-49569600D03*
X145125800Y-50509400D03*
X146065600Y-49569600D03*
X146065600Y-47740800D03*
X144211400Y-47766200D03*
X142382600Y-47740800D03*
X143297000Y-46801000D03*
X145100400Y-46826400D03*
D11*
X173101000Y-50038000D03*
D12*
X173101000Y-52578000D03*
D13*
X130943200Y-78418640D03*
X128403200Y-78403400D03*
X120265040Y-78418640D03*
X117727580Y-78408480D03*
X117745360Y-96975880D03*
X120287900Y-96958100D03*
X128408280Y-96947940D03*
X130943200Y-96960640D03*
D11*
X165792000Y-42310000D03*
X165792000Y-44850000D03*
X165792000Y-47390000D03*
D12*
X165792000Y-49930000D03*
X151638000Y-70967600D03*
D11*
X154178000Y-70967600D03*
D12*
X131635500Y-66802000D03*
D11*
X131635500Y-64262000D03*
X131635500Y-61722000D03*
D12*
X121615200Y-71475600D03*
D11*
X124155200Y-71475600D03*
X126695200Y-71475600D03*
X129235200Y-71475600D03*
D14*
X161308900Y-85466100D03*
D15*
X149108900Y-85466100D03*
X149058900Y-97516100D03*
D14*
X161308900Y-97466100D03*
D15*
X163258900Y-91516100D03*
D16*
X175278900Y-82226100D03*
D17*
X172738900Y-89846100D03*
X172738900Y-82226100D03*
X175278900Y-89846100D03*
D18*
X135806180Y-96431100D03*
X140804900Y-96431100D03*
D12*
X135273900Y-80956100D03*
D11*
X135273900Y-78416100D03*
X135273900Y-75876100D03*
X139210900Y-78543100D03*
D12*
X139210900Y-81083100D03*
X142766900Y-81083100D03*
D11*
X142766900Y-78543100D03*
D12*
X175920400Y-66243200D03*
D11*
X175920400Y-63703200D03*
D12*
X137502900Y-87795100D03*
D11*
X140042900Y-87795100D03*
D19*
X163758700Y-85466100D03*
X121869200Y-66802000D03*
X158242000Y-70967600D03*
X129895600Y-67411600D03*
X129997200Y-64871600D03*
X129921000Y-61645800D03*
X124420800Y-68720800D03*
X126695200Y-68732400D03*
X128473200Y-69443600D03*
D20*
X138074400Y-69335600D03*
D19*
X126764900Y-41090800D03*
X168891000Y-42310000D03*
X169008400Y-59718600D03*
X139487000Y-60868200D03*
X117348000Y-54457600D03*
X120599200Y-65278000D03*
X149840900Y-81083100D03*
X157468000Y-41160000D03*
X155277600Y-65209200D03*
X116847800Y-60952200D03*
D20*
X149294700Y-74925900D03*
D19*
X165042800Y-68891200D03*
X166134900Y-97466100D03*
X153606500Y-82359500D03*
X163341000Y-49930000D03*
X123571000Y-43180000D03*
X121332600Y-58855000D03*
X141160400Y-65798600D03*
X165347800Y-63900200D03*
X171323000Y-52578000D03*
X122326400Y-68580000D03*
X162675000Y-44970000D03*
X158369000Y-46228000D03*
X175869600Y-60858400D03*
D21*
X161308900Y-85466100D02*
X163758700Y-85466100D01*
D22*
X151638000Y-67373500D02*
X151638000Y-70967600D01*
X147193000Y-62928500D02*
X151638000Y-67373500D01*
X136558038Y-60007500D02*
X139479038Y-62928500D01*
X129603500Y-60007500D02*
X136558038Y-60007500D01*
X139479038Y-62928500D02*
X147193000Y-62928500D01*
X122809000Y-66802000D02*
X129603500Y-60007500D01*
X121869200Y-66802000D02*
X122809000Y-66802000D01*
D23*
X154178000Y-70967600D02*
X158242000Y-70967600D01*
D22*
X131025900Y-67411600D02*
X131635500Y-66802000D01*
X129895600Y-67411600D02*
X131025900Y-67411600D01*
X131025900Y-64871600D02*
X131635500Y-64262000D01*
X129997200Y-64871600D02*
X131025900Y-64871600D01*
X131559300Y-61645800D02*
X131635500Y-61722000D01*
X129921000Y-61645800D02*
X131559300Y-61645800D01*
X124420800Y-71210000D02*
X124155200Y-71475600D01*
X124420800Y-68720800D02*
X124420800Y-71210000D01*
X126695200Y-68732400D02*
X126695200Y-71475600D01*
X128498600Y-70739000D02*
X129235200Y-71475600D01*
X128498600Y-69469000D02*
X128473200Y-69443600D01*
X128498600Y-70739000D02*
X128498600Y-69469000D01*
D23*
X165792000Y-42310000D02*
X168891000Y-42310000D01*
D24*
X139083900Y-80956100D02*
X139210900Y-81083100D01*
X135273900Y-80956100D02*
X139083900Y-80956100D01*
X139210900Y-81083100D02*
X142766900Y-81083100D01*
X122802500Y-80956100D02*
X120265040Y-78418640D01*
X135273900Y-80956100D02*
X122802500Y-80956100D01*
X123570900Y-100241100D02*
X120287900Y-96958100D01*
X130695700Y-100241100D02*
X123570900Y-100241100D01*
X134505700Y-96431100D02*
X130695700Y-100241100D01*
X135806180Y-96431100D02*
X134505700Y-96431100D01*
X142766900Y-81083100D02*
X149840900Y-81083100D01*
D23*
X164642000Y-41160000D02*
X165792000Y-42310000D01*
X157468000Y-41160000D02*
X164642000Y-41160000D01*
D24*
X153924300Y-100850700D02*
X163258900Y-91516100D01*
X140195300Y-100850700D02*
X153924300Y-100850700D01*
X137154338Y-97809738D02*
X140195300Y-100850700D01*
X137154338Y-97779258D02*
X137154338Y-97809738D01*
X135806180Y-96431100D02*
X137154338Y-97779258D01*
D21*
X135271360Y-78418640D02*
X135273900Y-78416100D01*
X130943200Y-78418640D02*
X135271360Y-78418640D01*
D24*
X139083900Y-78416100D02*
X139210900Y-78543100D01*
X135273900Y-78416100D02*
X139083900Y-78416100D01*
X139210900Y-78543100D02*
X142766900Y-78543100D01*
X161308900Y-97466100D02*
X166134900Y-97466100D01*
X153606500Y-81038700D02*
X151110900Y-78543100D01*
X153606500Y-82359500D02*
X153606500Y-81038700D01*
X161347100Y-78543100D02*
X165042800Y-74847400D01*
X151110900Y-78543100D02*
X161347100Y-78543100D01*
X165042800Y-74847400D02*
X165042800Y-71240700D01*
X167646300Y-68891200D02*
X173272400Y-68891200D01*
X173272400Y-68891200D02*
X175920400Y-66243200D01*
X165042800Y-68891200D02*
X165042800Y-70542200D01*
X165042800Y-71240700D02*
X165042800Y-70542200D01*
D21*
X115316000Y-62484000D02*
X115316000Y-71247000D01*
X116847800Y-60952200D02*
X115316000Y-62484000D01*
X122472400Y-78403400D02*
X128403200Y-78403400D01*
X115316000Y-71247000D02*
X122472400Y-78403400D01*
D24*
X167646300Y-68891200D02*
X166490700Y-68891200D01*
X166490700Y-68891200D02*
X165042800Y-68891200D01*
X167062200Y-68891200D02*
X166490700Y-68891200D01*
X149294700Y-77400300D02*
X148151900Y-78543100D01*
X149294700Y-74925900D02*
X149294700Y-77400300D01*
X148151900Y-78543100D02*
X142766900Y-78543100D01*
X151110900Y-78543100D02*
X148151900Y-78543100D01*
D23*
X165792000Y-49930000D02*
X163341000Y-49930000D01*
X172993000Y-49930000D02*
X173101000Y-50038000D01*
X165792000Y-49930000D02*
X172993000Y-49930000D01*
D21*
X165347800Y-51936800D02*
X163341000Y-49930000D01*
X165347800Y-63900200D02*
X165347800Y-51936800D01*
X118808400Y-61379200D02*
X118757600Y-61379200D01*
X121332600Y-58855000D02*
X118808400Y-61379200D01*
X123399550Y-56788050D02*
X121332600Y-58855000D01*
X123571000Y-56616600D02*
X123399550Y-56788050D01*
X123571000Y-43180000D02*
X123571000Y-56616600D01*
X135273900Y-75876100D02*
X121469100Y-75876100D01*
X118808400Y-73215400D02*
X118808400Y-61379200D01*
X121469100Y-75876100D02*
X118808400Y-73215400D01*
X141160400Y-69989600D02*
X141160400Y-65798600D01*
X135273900Y-75876100D02*
X141160400Y-69989600D01*
D23*
X173101000Y-52578000D02*
X171323000Y-52578000D01*
D22*
X121615200Y-69291200D02*
X122326400Y-68580000D01*
X121615200Y-71475600D02*
X121615200Y-69291200D01*
D24*
X140804900Y-96431100D02*
X140804900Y-94805500D01*
X140804900Y-94805500D02*
X137502900Y-91503500D01*
X130943200Y-93999200D02*
X130943200Y-96960640D01*
X133438900Y-91503500D02*
X130943200Y-93999200D01*
X136639300Y-91503500D02*
X137502900Y-90639900D01*
X136334500Y-91503500D02*
X136639300Y-91503500D01*
X137502900Y-90639900D02*
X137502900Y-87795100D01*
X137502900Y-91503500D02*
X137502900Y-90639900D01*
X137502900Y-91503500D02*
X136334500Y-91503500D01*
X136334500Y-91503500D02*
X133438900Y-91503500D01*
D23*
X165672000Y-44970000D02*
X165792000Y-44850000D01*
X162675000Y-44970000D02*
X165672000Y-44970000D01*
X158369000Y-46228000D02*
X162306000Y-46228000D01*
X162306000Y-46228000D02*
X163468000Y-47390000D01*
X163468000Y-47390000D02*
X165792000Y-47390000D01*
D24*
X143027918Y-85466100D02*
X149108900Y-85466100D01*
X140042900Y-88451118D02*
X143027918Y-85466100D01*
X140042900Y-87795100D02*
X140042900Y-88451118D01*
D21*
X175869600Y-63652400D02*
X175920400Y-63703200D01*
X175869600Y-60858400D02*
X175869600Y-63652400D01*
D25*
X136349537Y-40673049D02*
X136611839Y-40760483D01*
X136636116Y-40766003D01*
X136652000Y-40767000D01*
X153924000Y-40767000D01*
X153948776Y-40764560D01*
X153980796Y-40753592D01*
X154132145Y-40677917D01*
X175327083Y-40683720D01*
X174944920Y-40939074D01*
X174543074Y-41340920D01*
X174227346Y-41813440D01*
X174009869Y-42338477D01*
X173899000Y-42895852D01*
X173899000Y-43464148D01*
X174009869Y-44021523D01*
X174227346Y-44546560D01*
X174543074Y-45019080D01*
X174944920Y-45420926D01*
X175417440Y-45736654D01*
X175942477Y-45954131D01*
X176499852Y-46065000D01*
X177068148Y-46065000D01*
X177625523Y-45954131D01*
X178150560Y-45736654D01*
X178623080Y-45420926D01*
X179024926Y-45019080D01*
X179318311Y-44579998D01*
X179357081Y-98203901D01*
X179277154Y-98010940D01*
X178961426Y-97538420D01*
X178559580Y-97136574D01*
X178087060Y-96820846D01*
X177562023Y-96603369D01*
X177004648Y-96492500D01*
X176436352Y-96492500D01*
X175878977Y-96603369D01*
X175353940Y-96820846D01*
X174881420Y-97136574D01*
X174479574Y-97538420D01*
X174163846Y-98010940D01*
X173946369Y-98535977D01*
X173835500Y-99093352D01*
X173835500Y-99661648D01*
X173946369Y-100219023D01*
X174163846Y-100744060D01*
X174479574Y-101216580D01*
X174881420Y-101618426D01*
X175353940Y-101934154D01*
X175878977Y-102151631D01*
X176369123Y-102249127D01*
X106221447Y-102261084D01*
X106217406Y-97251852D01*
X107922500Y-97251852D01*
X107922500Y-97820148D01*
X108033369Y-98377523D01*
X108250846Y-98902560D01*
X108566574Y-99375080D01*
X108968420Y-99776926D01*
X109440940Y-100092654D01*
X109965977Y-100310131D01*
X110523352Y-100421000D01*
X111091648Y-100421000D01*
X111649023Y-100310131D01*
X112174060Y-100092654D01*
X112646580Y-99776926D01*
X113048426Y-99375080D01*
X113364154Y-98902560D01*
X113581631Y-98377523D01*
X113692500Y-97820148D01*
X113692500Y-97251852D01*
X113604680Y-96810348D01*
X127011280Y-96810348D01*
X127011280Y-97085532D01*
X127064966Y-97355430D01*
X127170275Y-97609667D01*
X127323160Y-97838475D01*
X127517745Y-98033060D01*
X127746553Y-98185945D01*
X128000790Y-98291254D01*
X128270688Y-98344940D01*
X128545872Y-98344940D01*
X128815770Y-98291254D01*
X129070007Y-98185945D01*
X129298815Y-98033060D01*
X129493400Y-97838475D01*
X129646285Y-97609667D01*
X129673110Y-97544907D01*
X129705195Y-97622367D01*
X129858080Y-97851175D01*
X130052665Y-98045760D01*
X130281473Y-98198645D01*
X130535710Y-98303954D01*
X130805608Y-98357640D01*
X131080792Y-98357640D01*
X131350690Y-98303954D01*
X131604927Y-98198645D01*
X131833735Y-98045760D01*
X132028320Y-97851175D01*
X132181205Y-97622367D01*
X132286514Y-97368130D01*
X132340200Y-97098232D01*
X132340200Y-96823048D01*
X132286514Y-96553150D01*
X132181205Y-96298913D01*
X132086200Y-96156728D01*
X132086200Y-94472645D01*
X133912346Y-92646500D01*
X136583161Y-92646500D01*
X136639300Y-92652029D01*
X136695439Y-92646500D01*
X137029455Y-92646500D01*
X139212369Y-94829415D01*
X139145248Y-95050684D01*
X139120881Y-95298083D01*
X139120880Y-97564116D01*
X139145247Y-97811515D01*
X139241541Y-98128954D01*
X139397914Y-98421507D01*
X139608357Y-98677933D01*
X139864782Y-98888376D01*
X140157335Y-99044749D01*
X140474774Y-99141043D01*
X140804900Y-99173558D01*
X141135025Y-99141043D01*
X141452464Y-99044749D01*
X141745017Y-98888376D01*
X142001443Y-98677933D01*
X142211886Y-98421508D01*
X142368259Y-98128955D01*
X142464553Y-97811516D01*
X142488920Y-97564117D01*
X142488920Y-97305821D01*
X146923900Y-97305821D01*
X146923900Y-97726379D01*
X147005947Y-98138856D01*
X147166888Y-98527402D01*
X147400537Y-98877083D01*
X147697917Y-99174463D01*
X148047598Y-99408112D01*
X148436144Y-99569053D01*
X148848621Y-99651100D01*
X149269179Y-99651100D01*
X149681656Y-99569053D01*
X150070202Y-99408112D01*
X150419883Y-99174463D01*
X150717263Y-98877083D01*
X150950912Y-98527402D01*
X151111853Y-98138856D01*
X151193900Y-97726379D01*
X151193900Y-97305821D01*
X151188853Y-97280444D01*
X159423900Y-97280444D01*
X159423900Y-97651756D01*
X159496339Y-98015934D01*
X159638434Y-98358982D01*
X159844725Y-98667718D01*
X160107282Y-98930275D01*
X160416018Y-99136566D01*
X160759066Y-99278661D01*
X161123244Y-99351100D01*
X161494556Y-99351100D01*
X161858734Y-99278661D01*
X162201782Y-99136566D01*
X162510518Y-98930275D01*
X162773075Y-98667718D01*
X162812242Y-98609100D01*
X166191046Y-98609100D01*
X166358967Y-98592561D01*
X166574423Y-98527203D01*
X166772989Y-98421068D01*
X166947033Y-98278233D01*
X167089868Y-98104189D01*
X167196003Y-97905623D01*
X167261361Y-97690167D01*
X167283430Y-97466100D01*
X167261361Y-97242033D01*
X167196003Y-97026577D01*
X167089868Y-96828011D01*
X166947033Y-96653967D01*
X166772989Y-96511132D01*
X166574423Y-96404997D01*
X166358967Y-96339639D01*
X166191046Y-96323100D01*
X162812242Y-96323100D01*
X162773075Y-96264482D01*
X162510518Y-96001925D01*
X162201782Y-95795634D01*
X161858734Y-95653539D01*
X161494556Y-95581100D01*
X161123244Y-95581100D01*
X160759066Y-95653539D01*
X160416018Y-95795634D01*
X160107282Y-96001925D01*
X159844725Y-96264482D01*
X159638434Y-96573218D01*
X159496339Y-96916266D01*
X159423900Y-97280444D01*
X151188853Y-97280444D01*
X151111853Y-96893344D01*
X150950912Y-96504798D01*
X150717263Y-96155117D01*
X150419883Y-95857737D01*
X150070202Y-95624088D01*
X149681656Y-95463147D01*
X149269179Y-95381100D01*
X148848621Y-95381100D01*
X148436144Y-95463147D01*
X148047598Y-95624088D01*
X147697917Y-95857737D01*
X147400537Y-96155117D01*
X147166888Y-96504798D01*
X147005947Y-96893344D01*
X146923900Y-97305821D01*
X142488920Y-97305821D01*
X142488920Y-95298083D01*
X142464553Y-95050684D01*
X142368259Y-94733245D01*
X142211886Y-94440692D01*
X142001443Y-94184267D01*
X141745018Y-93973824D01*
X141452465Y-93817451D01*
X141424951Y-93809105D01*
X138645900Y-91030055D01*
X138645900Y-90696039D01*
X138651429Y-90639900D01*
X138645900Y-90583761D01*
X138645900Y-89704765D01*
X171303900Y-89704765D01*
X171303900Y-89987435D01*
X171359047Y-90264674D01*
X171467220Y-90525827D01*
X171624263Y-90760859D01*
X171824141Y-90960737D01*
X172059173Y-91117780D01*
X172320326Y-91225953D01*
X172597565Y-91281100D01*
X172880235Y-91281100D01*
X173157474Y-91225953D01*
X173418627Y-91117780D01*
X173653659Y-90960737D01*
X173853537Y-90760859D01*
X174008900Y-90528341D01*
X174164263Y-90760859D01*
X174364141Y-90960737D01*
X174599173Y-91117780D01*
X174860326Y-91225953D01*
X175137565Y-91281100D01*
X175420235Y-91281100D01*
X175697474Y-91225953D01*
X175958627Y-91117780D01*
X176193659Y-90960737D01*
X176393537Y-90760859D01*
X176550580Y-90525827D01*
X176658753Y-90264674D01*
X176713900Y-89987435D01*
X176713900Y-89704765D01*
X176658753Y-89427526D01*
X176550580Y-89166373D01*
X176393537Y-88931341D01*
X176193659Y-88731463D01*
X175958627Y-88574420D01*
X175697474Y-88466247D01*
X175420235Y-88411100D01*
X175137565Y-88411100D01*
X174860326Y-88466247D01*
X174599173Y-88574420D01*
X174364141Y-88731463D01*
X174164263Y-88931341D01*
X174008900Y-89163859D01*
X173853537Y-88931341D01*
X173653659Y-88731463D01*
X173418627Y-88574420D01*
X173157474Y-88466247D01*
X172880235Y-88411100D01*
X172597565Y-88411100D01*
X172320326Y-88466247D01*
X172059173Y-88574420D01*
X171824141Y-88731463D01*
X171624263Y-88931341D01*
X171467220Y-89166373D01*
X171359047Y-89427526D01*
X171303900Y-89704765D01*
X138645900Y-89704765D01*
X138645900Y-89208507D01*
X138707394Y-89175637D01*
X138804085Y-89096285D01*
X138883437Y-88999594D01*
X138942402Y-88889280D01*
X138961893Y-88825027D01*
X138981797Y-88890641D01*
X139087933Y-89089207D01*
X139151262Y-89166373D01*
X139230767Y-89263251D01*
X139274379Y-89299042D01*
X139404812Y-89406086D01*
X139603378Y-89512221D01*
X139753475Y-89557753D01*
X139818833Y-89577579D01*
X139831200Y-89578797D01*
X140042900Y-89599648D01*
X140266967Y-89577579D01*
X140482423Y-89512221D01*
X140680989Y-89406086D01*
X140855033Y-89263251D01*
X140890827Y-89219636D01*
X143501364Y-86609100D01*
X147304886Y-86609100D01*
X147450537Y-86827083D01*
X147747917Y-87124463D01*
X148097598Y-87358112D01*
X148486144Y-87519053D01*
X148898621Y-87601100D01*
X149319179Y-87601100D01*
X149731656Y-87519053D01*
X150120202Y-87358112D01*
X150469883Y-87124463D01*
X150767263Y-86827083D01*
X151000912Y-86477402D01*
X151161853Y-86088856D01*
X151243900Y-85676379D01*
X151243900Y-85280444D01*
X159423900Y-85280444D01*
X159423900Y-85651756D01*
X159496339Y-86015934D01*
X159638434Y-86358982D01*
X159844725Y-86667718D01*
X160107282Y-86930275D01*
X160416018Y-87136566D01*
X160759066Y-87278661D01*
X161123244Y-87351100D01*
X161494556Y-87351100D01*
X161858734Y-87278661D01*
X162201782Y-87136566D01*
X162510518Y-86930275D01*
X162773075Y-86667718D01*
X162897101Y-86482100D01*
X163561241Y-86482100D01*
X163656761Y-86501100D01*
X163860639Y-86501100D01*
X164060598Y-86461326D01*
X164248956Y-86383305D01*
X164418474Y-86270037D01*
X164562637Y-86125874D01*
X164675905Y-85956356D01*
X164753926Y-85767998D01*
X164793700Y-85568039D01*
X164793700Y-85364161D01*
X164753926Y-85164202D01*
X164675905Y-84975844D01*
X164562637Y-84806326D01*
X164418474Y-84662163D01*
X164248956Y-84548895D01*
X164060598Y-84470874D01*
X163860639Y-84431100D01*
X163656761Y-84431100D01*
X163561241Y-84450100D01*
X162897101Y-84450100D01*
X162773075Y-84264482D01*
X162510518Y-84001925D01*
X162201782Y-83795634D01*
X161858734Y-83653539D01*
X161494556Y-83581100D01*
X161123244Y-83581100D01*
X160759066Y-83653539D01*
X160416018Y-83795634D01*
X160107282Y-84001925D01*
X159844725Y-84264482D01*
X159638434Y-84573218D01*
X159496339Y-84916266D01*
X159423900Y-85280444D01*
X151243900Y-85280444D01*
X151243900Y-85255821D01*
X151161853Y-84843344D01*
X151000912Y-84454798D01*
X150767263Y-84105117D01*
X150469883Y-83807737D01*
X150120202Y-83574088D01*
X149731656Y-83413147D01*
X149319179Y-83331100D01*
X148898621Y-83331100D01*
X148486144Y-83413147D01*
X148097598Y-83574088D01*
X147747917Y-83807737D01*
X147450537Y-84105117D01*
X147304886Y-84323100D01*
X143084057Y-84323100D01*
X143027918Y-84317571D01*
X142971779Y-84323100D01*
X142971772Y-84323100D01*
X142824435Y-84337612D01*
X142803850Y-84339639D01*
X142738492Y-84359465D01*
X142588395Y-84404997D01*
X142389829Y-84511132D01*
X142215785Y-84653967D01*
X142179995Y-84697577D01*
X140500345Y-86377228D01*
X140476058Y-86367168D01*
X140189160Y-86310100D01*
X139896640Y-86310100D01*
X139609742Y-86367168D01*
X139339489Y-86479110D01*
X139096268Y-86641625D01*
X138964413Y-86773480D01*
X138942402Y-86700920D01*
X138883437Y-86590606D01*
X138804085Y-86493915D01*
X138707394Y-86414563D01*
X138597080Y-86355598D01*
X138477382Y-86319288D01*
X138352900Y-86307028D01*
X136652900Y-86307028D01*
X136528418Y-86319288D01*
X136408720Y-86355598D01*
X136298406Y-86414563D01*
X136201715Y-86493915D01*
X136122363Y-86590606D01*
X136063398Y-86700920D01*
X136027088Y-86820618D01*
X136014828Y-86945100D01*
X136014828Y-88645100D01*
X136027088Y-88769582D01*
X136063398Y-88889280D01*
X136122363Y-88999594D01*
X136201715Y-89096285D01*
X136298406Y-89175637D01*
X136359901Y-89208507D01*
X136359900Y-90166454D01*
X136165855Y-90360500D01*
X133495039Y-90360500D01*
X133438900Y-90354971D01*
X133382761Y-90360500D01*
X133382754Y-90360500D01*
X133235417Y-90375012D01*
X133214832Y-90377039D01*
X133149474Y-90396865D01*
X132999377Y-90442397D01*
X132800811Y-90548532D01*
X132626767Y-90691367D01*
X132590977Y-90734977D01*
X130174682Y-93151273D01*
X130131067Y-93187067D01*
X129988232Y-93361112D01*
X129882097Y-93559678D01*
X129816739Y-93775134D01*
X129800200Y-93943055D01*
X129800200Y-93943061D01*
X129794671Y-93999200D01*
X129800200Y-94055339D01*
X129800201Y-96156727D01*
X129705195Y-96298913D01*
X129678370Y-96363673D01*
X129646285Y-96286213D01*
X129493400Y-96057405D01*
X129298815Y-95862820D01*
X129070007Y-95709935D01*
X128815770Y-95604626D01*
X128545872Y-95550940D01*
X128270688Y-95550940D01*
X128000790Y-95604626D01*
X127746553Y-95709935D01*
X127517745Y-95862820D01*
X127323160Y-96057405D01*
X127170275Y-96286213D01*
X127064966Y-96540450D01*
X127011280Y-96810348D01*
X113604680Y-96810348D01*
X113581631Y-96694477D01*
X113364154Y-96169440D01*
X113048426Y-95696920D01*
X112646580Y-95295074D01*
X112174060Y-94979346D01*
X111649023Y-94761869D01*
X111091648Y-94651000D01*
X110523352Y-94651000D01*
X109965977Y-94761869D01*
X109440940Y-94979346D01*
X108968420Y-95295074D01*
X108566574Y-95696920D01*
X108250846Y-96169440D01*
X108033369Y-96694477D01*
X107922500Y-97251852D01*
X106217406Y-97251852D01*
X106189357Y-62484000D01*
X114295085Y-62484000D01*
X114300000Y-62533902D01*
X114300001Y-71197088D01*
X114295085Y-71247000D01*
X114314702Y-71446170D01*
X114350771Y-71565071D01*
X114372799Y-71637687D01*
X114467141Y-71814190D01*
X114594105Y-71968896D01*
X114632868Y-72000708D01*
X121718692Y-79086533D01*
X121750504Y-79125296D01*
X121905210Y-79252260D01*
X122016268Y-79311621D01*
X122081712Y-79346602D01*
X122273229Y-79404698D01*
X122472400Y-79424315D01*
X122522302Y-79419400D01*
X127443545Y-79419400D01*
X127512665Y-79488520D01*
X127741473Y-79641405D01*
X127995710Y-79746714D01*
X128265608Y-79800400D01*
X128540792Y-79800400D01*
X128810690Y-79746714D01*
X129064927Y-79641405D01*
X129293735Y-79488520D01*
X129488320Y-79293935D01*
X129641205Y-79065127D01*
X129670044Y-78995505D01*
X129705195Y-79080367D01*
X129858080Y-79309175D01*
X130052665Y-79503760D01*
X130281473Y-79656645D01*
X130535710Y-79761954D01*
X130805608Y-79815640D01*
X131080792Y-79815640D01*
X131350690Y-79761954D01*
X131604927Y-79656645D01*
X131833735Y-79503760D01*
X131902855Y-79434640D01*
X134192333Y-79434640D01*
X134327268Y-79569575D01*
X134570489Y-79732090D01*
X134840742Y-79844032D01*
X135127640Y-79901100D01*
X135420160Y-79901100D01*
X135707058Y-79844032D01*
X135977311Y-79732090D01*
X136220532Y-79569575D01*
X136231007Y-79559100D01*
X138126793Y-79559100D01*
X138264268Y-79696575D01*
X138507489Y-79859090D01*
X138777742Y-79971032D01*
X139064640Y-80028100D01*
X139357160Y-80028100D01*
X139644058Y-79971032D01*
X139914311Y-79859090D01*
X140157532Y-79696575D01*
X140168007Y-79686100D01*
X141809793Y-79686100D01*
X141820268Y-79696575D01*
X142063489Y-79859090D01*
X142333742Y-79971032D01*
X142620640Y-80028100D01*
X142913160Y-80028100D01*
X143200058Y-79971032D01*
X143470311Y-79859090D01*
X143713532Y-79696575D01*
X143724007Y-79686100D01*
X148095761Y-79686100D01*
X148151900Y-79691629D01*
X148208039Y-79686100D01*
X150637455Y-79686100D01*
X152463500Y-81512147D01*
X152463500Y-82415645D01*
X152480039Y-82583566D01*
X152545397Y-82799022D01*
X152651532Y-82997588D01*
X152794367Y-83171633D01*
X152968411Y-83314468D01*
X153166977Y-83420603D01*
X153382433Y-83485961D01*
X153606500Y-83508030D01*
X153830566Y-83485961D01*
X154046022Y-83420603D01*
X154244588Y-83314468D01*
X154418633Y-83171633D01*
X154561468Y-82997589D01*
X154667603Y-82799023D01*
X154732961Y-82583567D01*
X154749500Y-82415646D01*
X154749500Y-81426100D01*
X173840828Y-81426100D01*
X173840828Y-83026100D01*
X173853088Y-83150582D01*
X173889398Y-83270280D01*
X173948363Y-83380594D01*
X174027715Y-83477285D01*
X174124406Y-83556637D01*
X174234720Y-83615602D01*
X174354418Y-83651912D01*
X174478900Y-83664172D01*
X176078900Y-83664172D01*
X176203382Y-83651912D01*
X176323080Y-83615602D01*
X176433394Y-83556637D01*
X176530085Y-83477285D01*
X176609437Y-83380594D01*
X176668402Y-83270280D01*
X176704712Y-83150582D01*
X176716972Y-83026100D01*
X176716972Y-81426100D01*
X176704712Y-81301618D01*
X176668402Y-81181920D01*
X176609437Y-81071606D01*
X176530085Y-80974915D01*
X176433394Y-80895563D01*
X176323080Y-80836598D01*
X176203382Y-80800288D01*
X176078900Y-80788028D01*
X174478900Y-80788028D01*
X174354418Y-80800288D01*
X174234720Y-80836598D01*
X174124406Y-80895563D01*
X174027715Y-80974915D01*
X173948363Y-81071606D01*
X173889398Y-81181920D01*
X173853088Y-81301618D01*
X173840828Y-81426100D01*
X154749500Y-81426100D01*
X154749500Y-81094838D01*
X154755029Y-81038699D01*
X154749500Y-80982560D01*
X154749500Y-80982554D01*
X154732961Y-80814633D01*
X154728610Y-80800288D01*
X154713135Y-80749274D01*
X154667603Y-80599177D01*
X154561468Y-80400611D01*
X154545223Y-80380817D01*
X154454424Y-80270177D01*
X154454418Y-80270171D01*
X154418633Y-80226567D01*
X154375028Y-80190781D01*
X153870347Y-79686100D01*
X161290961Y-79686100D01*
X161347100Y-79691629D01*
X161403239Y-79686100D01*
X161403246Y-79686100D01*
X161571167Y-79669561D01*
X161786623Y-79604203D01*
X161985189Y-79498068D01*
X162159233Y-79355233D01*
X162195027Y-79311618D01*
X165811324Y-75695322D01*
X165854933Y-75659533D01*
X165997768Y-75485489D01*
X166103903Y-75286923D01*
X166149435Y-75136826D01*
X166169261Y-75071468D01*
X166182909Y-74932898D01*
X166185800Y-74903546D01*
X166185800Y-74903540D01*
X166191329Y-74847401D01*
X166185800Y-74791262D01*
X166185800Y-70034200D01*
X173216261Y-70034200D01*
X173272400Y-70039729D01*
X173328539Y-70034200D01*
X173328546Y-70034200D01*
X173496467Y-70017661D01*
X173711923Y-69952303D01*
X173910489Y-69846168D01*
X174084533Y-69703333D01*
X174120327Y-69659718D01*
X176048774Y-67731272D01*
X176770400Y-67731272D01*
X176894882Y-67719012D01*
X177014580Y-67682702D01*
X177124894Y-67623737D01*
X177221585Y-67544385D01*
X177300937Y-67447694D01*
X177359902Y-67337380D01*
X177396212Y-67217682D01*
X177408472Y-67093200D01*
X177408472Y-65393200D01*
X177396212Y-65268718D01*
X177359902Y-65149020D01*
X177300937Y-65038706D01*
X177221585Y-64942015D01*
X177124894Y-64862663D01*
X177014580Y-64803698D01*
X176942020Y-64781687D01*
X177073875Y-64649832D01*
X177236390Y-64406611D01*
X177348332Y-64136358D01*
X177405400Y-63849460D01*
X177405400Y-63556940D01*
X177348332Y-63270042D01*
X177236390Y-62999789D01*
X177073875Y-62756568D01*
X176885600Y-62568293D01*
X176885600Y-61055859D01*
X176904600Y-60960339D01*
X176904600Y-60756461D01*
X176864826Y-60556502D01*
X176786805Y-60368144D01*
X176673537Y-60198626D01*
X176529374Y-60054463D01*
X176359856Y-59941195D01*
X176171498Y-59863174D01*
X175971539Y-59823400D01*
X175767661Y-59823400D01*
X175567702Y-59863174D01*
X175379344Y-59941195D01*
X175209826Y-60054463D01*
X175065663Y-60198626D01*
X174952395Y-60368144D01*
X174874374Y-60556502D01*
X174834600Y-60756461D01*
X174834600Y-60960339D01*
X174853600Y-61055860D01*
X174853601Y-62669892D01*
X174766925Y-62756568D01*
X174604410Y-62999789D01*
X174492468Y-63270042D01*
X174435400Y-63556940D01*
X174435400Y-63849460D01*
X174492468Y-64136358D01*
X174604410Y-64406611D01*
X174766925Y-64649832D01*
X174898780Y-64781687D01*
X174826220Y-64803698D01*
X174715906Y-64862663D01*
X174619215Y-64942015D01*
X174539863Y-65038706D01*
X174480898Y-65149020D01*
X174444588Y-65268718D01*
X174432328Y-65393200D01*
X174432328Y-66114826D01*
X172798955Y-67748200D01*
X165098946Y-67748200D01*
X165042800Y-67742670D01*
X164986654Y-67748200D01*
X164818733Y-67764739D01*
X164603277Y-67830097D01*
X164404711Y-67936232D01*
X164230667Y-68079067D01*
X164087832Y-68253111D01*
X163981697Y-68451677D01*
X163916339Y-68667133D01*
X163894270Y-68891200D01*
X163899800Y-68947346D01*
X163899800Y-71296845D01*
X163899801Y-71296855D01*
X163899800Y-74373954D01*
X160873655Y-77400100D01*
X151167039Y-77400100D01*
X151110900Y-77394571D01*
X151054761Y-77400100D01*
X150443209Y-77400100D01*
X150437700Y-77344162D01*
X150437700Y-76095139D01*
X150564687Y-75968152D01*
X150743618Y-75700363D01*
X150866868Y-75402812D01*
X150929700Y-75086933D01*
X150929700Y-74764867D01*
X150866868Y-74448988D01*
X150743618Y-74151437D01*
X150564687Y-73883648D01*
X150336952Y-73655913D01*
X150069163Y-73476982D01*
X149771612Y-73353732D01*
X149455733Y-73290900D01*
X149133667Y-73290900D01*
X148817788Y-73353732D01*
X148520237Y-73476982D01*
X148252448Y-73655913D01*
X148024713Y-73883648D01*
X147845782Y-74151437D01*
X147722532Y-74448988D01*
X147659700Y-74764867D01*
X147659700Y-75086933D01*
X147722532Y-75402812D01*
X147845782Y-75700363D01*
X148024713Y-75968152D01*
X148151700Y-76095139D01*
X148151701Y-76926853D01*
X147678454Y-77400100D01*
X143724007Y-77400100D01*
X143713532Y-77389625D01*
X143470311Y-77227110D01*
X143200058Y-77115168D01*
X142913160Y-77058100D01*
X142620640Y-77058100D01*
X142333742Y-77115168D01*
X142063489Y-77227110D01*
X141820268Y-77389625D01*
X141809793Y-77400100D01*
X140168007Y-77400100D01*
X140157532Y-77389625D01*
X139914311Y-77227110D01*
X139644058Y-77115168D01*
X139357160Y-77058100D01*
X139064640Y-77058100D01*
X138777742Y-77115168D01*
X138507489Y-77227110D01*
X138438660Y-77273100D01*
X136231007Y-77273100D01*
X136220532Y-77262625D01*
X136046140Y-77146100D01*
X136220532Y-77029575D01*
X136427375Y-76822732D01*
X136589890Y-76579511D01*
X136701832Y-76309258D01*
X136758900Y-76022360D01*
X136758900Y-75827940D01*
X141843533Y-70743308D01*
X141882296Y-70711496D01*
X142009260Y-70556790D01*
X142103602Y-70380287D01*
X142161698Y-70188771D01*
X142176400Y-70039502D01*
X142176400Y-70039501D01*
X142181315Y-69989601D01*
X142176400Y-69939699D01*
X142176400Y-65996059D01*
X142195400Y-65900539D01*
X142195400Y-65696661D01*
X142155626Y-65496702D01*
X142077605Y-65308344D01*
X141964337Y-65138826D01*
X141820174Y-64994663D01*
X141650656Y-64881395D01*
X141462298Y-64803374D01*
X141262339Y-64763600D01*
X141058461Y-64763600D01*
X140858502Y-64803374D01*
X140670144Y-64881395D01*
X140500626Y-64994663D01*
X140356463Y-65138826D01*
X140243195Y-65308344D01*
X140165174Y-65496702D01*
X140125400Y-65696661D01*
X140125400Y-65900539D01*
X140144401Y-65996064D01*
X140144400Y-69568759D01*
X135322060Y-74391100D01*
X135127640Y-74391100D01*
X134840742Y-74448168D01*
X134570489Y-74560110D01*
X134327268Y-74722625D01*
X134189793Y-74860100D01*
X121889941Y-74860100D01*
X119824400Y-72794560D01*
X119824400Y-70625600D01*
X120127128Y-70625600D01*
X120127128Y-72325600D01*
X120139388Y-72450082D01*
X120175698Y-72569780D01*
X120234663Y-72680094D01*
X120314015Y-72776785D01*
X120410706Y-72856137D01*
X120521020Y-72915102D01*
X120640718Y-72951412D01*
X120765200Y-72963672D01*
X122465200Y-72963672D01*
X122589682Y-72951412D01*
X122709380Y-72915102D01*
X122819694Y-72856137D01*
X122916385Y-72776785D01*
X122995737Y-72680094D01*
X123054702Y-72569780D01*
X123076713Y-72497220D01*
X123208568Y-72629075D01*
X123451789Y-72791590D01*
X123722042Y-72903532D01*
X124008940Y-72960600D01*
X124301460Y-72960600D01*
X124588358Y-72903532D01*
X124858611Y-72791590D01*
X125101832Y-72629075D01*
X125308675Y-72422232D01*
X125425200Y-72247840D01*
X125541725Y-72422232D01*
X125748568Y-72629075D01*
X125991789Y-72791590D01*
X126262042Y-72903532D01*
X126548940Y-72960600D01*
X126841460Y-72960600D01*
X127128358Y-72903532D01*
X127398611Y-72791590D01*
X127641832Y-72629075D01*
X127848675Y-72422232D01*
X127965200Y-72247840D01*
X128081725Y-72422232D01*
X128288568Y-72629075D01*
X128531789Y-72791590D01*
X128802042Y-72903532D01*
X129088940Y-72960600D01*
X129381460Y-72960600D01*
X129668358Y-72903532D01*
X129938611Y-72791590D01*
X130181832Y-72629075D01*
X130388675Y-72422232D01*
X130551190Y-72179011D01*
X130663132Y-71908758D01*
X130720200Y-71621860D01*
X130720200Y-71329340D01*
X130663132Y-71042442D01*
X130551190Y-70772189D01*
X130388675Y-70528968D01*
X130181832Y-70322125D01*
X129938611Y-70159610D01*
X129668358Y-70047668D01*
X129381460Y-69990600D01*
X129352490Y-69990600D01*
X129390405Y-69933856D01*
X129468426Y-69745498D01*
X129508200Y-69545539D01*
X129508200Y-69341661D01*
X129468426Y-69141702D01*
X129390405Y-68953344D01*
X129277137Y-68783826D01*
X129132974Y-68639663D01*
X128963456Y-68526395D01*
X128775098Y-68448374D01*
X128575139Y-68408600D01*
X128371261Y-68408600D01*
X128171302Y-68448374D01*
X127982944Y-68526395D01*
X127813426Y-68639663D01*
X127730200Y-68722889D01*
X127730200Y-68630461D01*
X127690426Y-68430502D01*
X127612405Y-68242144D01*
X127499137Y-68072626D01*
X127354974Y-67928463D01*
X127185456Y-67815195D01*
X126997098Y-67737174D01*
X126797139Y-67697400D01*
X126593261Y-67697400D01*
X126393302Y-67737174D01*
X126204944Y-67815195D01*
X126035426Y-67928463D01*
X125891263Y-68072626D01*
X125777995Y-68242144D01*
X125699974Y-68430502D01*
X125660200Y-68630461D01*
X125660200Y-68834339D01*
X125699974Y-69034298D01*
X125777995Y-69222656D01*
X125857000Y-69340896D01*
X125857001Y-70249673D01*
X125748568Y-70322125D01*
X125541725Y-70528968D01*
X125425200Y-70703360D01*
X125308675Y-70528968D01*
X125259000Y-70479293D01*
X125259000Y-69329296D01*
X125338005Y-69211056D01*
X125416026Y-69022698D01*
X125455800Y-68822739D01*
X125455800Y-68618861D01*
X125416026Y-68418902D01*
X125338005Y-68230544D01*
X125224737Y-68061026D01*
X125080574Y-67916863D01*
X124911056Y-67803595D01*
X124722698Y-67725574D01*
X124522739Y-67685800D01*
X124318861Y-67685800D01*
X124118902Y-67725574D01*
X123930544Y-67803595D01*
X123761026Y-67916863D01*
X123616863Y-68061026D01*
X123503595Y-68230544D01*
X123425574Y-68418902D01*
X123385800Y-68618861D01*
X123385800Y-68822739D01*
X123425574Y-69022698D01*
X123503595Y-69211056D01*
X123582600Y-69329296D01*
X123582601Y-70105426D01*
X123451789Y-70159610D01*
X123208568Y-70322125D01*
X123076713Y-70453980D01*
X123054702Y-70381420D01*
X122995737Y-70271106D01*
X122916385Y-70174415D01*
X122819694Y-70095063D01*
X122709380Y-70036098D01*
X122589682Y-69999788D01*
X122465200Y-69987528D01*
X122453400Y-69987528D01*
X122453400Y-69638393D01*
X122488825Y-69602969D01*
X122628298Y-69575226D01*
X122816656Y-69497205D01*
X122986174Y-69383937D01*
X123130337Y-69239774D01*
X123243605Y-69070256D01*
X123321626Y-68881898D01*
X123361400Y-68681939D01*
X123361400Y-68478061D01*
X123321626Y-68278102D01*
X123243605Y-68089744D01*
X123130337Y-67920226D01*
X122986174Y-67776063D01*
X122816656Y-67662795D01*
X122762107Y-67640200D01*
X122767837Y-67640200D01*
X122809000Y-67644254D01*
X122850163Y-67640200D01*
X122850170Y-67640200D01*
X122973316Y-67628071D01*
X123131317Y-67580142D01*
X123276932Y-67502309D01*
X123404564Y-67397564D01*
X123430811Y-67365582D01*
X128912986Y-61883408D01*
X128925774Y-61947698D01*
X129003795Y-62136056D01*
X129117063Y-62305574D01*
X129261226Y-62449737D01*
X129430744Y-62563005D01*
X129619102Y-62641026D01*
X129819061Y-62680800D01*
X130022939Y-62680800D01*
X130222898Y-62641026D01*
X130411256Y-62563005D01*
X130411388Y-62562917D01*
X130482025Y-62668632D01*
X130688868Y-62875475D01*
X130863260Y-62992000D01*
X130688868Y-63108525D01*
X130482025Y-63315368D01*
X130319510Y-63558589D01*
X130207568Y-63828842D01*
X130201957Y-63857052D01*
X130099139Y-63836600D01*
X129895261Y-63836600D01*
X129695302Y-63876374D01*
X129506944Y-63954395D01*
X129337426Y-64067663D01*
X129193263Y-64211826D01*
X129079995Y-64381344D01*
X129001974Y-64569702D01*
X128962200Y-64769661D01*
X128962200Y-64973539D01*
X129001974Y-65173498D01*
X129079995Y-65361856D01*
X129193263Y-65531374D01*
X129337426Y-65675537D01*
X129506944Y-65788805D01*
X129695302Y-65866826D01*
X129895261Y-65906600D01*
X130099139Y-65906600D01*
X130152954Y-65895896D01*
X130147428Y-65952000D01*
X130147428Y-66406415D01*
X129997539Y-66376600D01*
X129793661Y-66376600D01*
X129593702Y-66416374D01*
X129405344Y-66494395D01*
X129235826Y-66607663D01*
X129091663Y-66751826D01*
X128978395Y-66921344D01*
X128900374Y-67109702D01*
X128860600Y-67309661D01*
X128860600Y-67513539D01*
X128900374Y-67713498D01*
X128978395Y-67901856D01*
X129091663Y-68071374D01*
X129235826Y-68215537D01*
X129405344Y-68328805D01*
X129593702Y-68406826D01*
X129793661Y-68446600D01*
X129997539Y-68446600D01*
X130197498Y-68406826D01*
X130385856Y-68328805D01*
X130504096Y-68249800D01*
X130568675Y-68249800D01*
X130661018Y-68277812D01*
X130785500Y-68290072D01*
X132485500Y-68290072D01*
X132609982Y-68277812D01*
X132729680Y-68241502D01*
X132839994Y-68182537D01*
X132936685Y-68103185D01*
X133016037Y-68006494D01*
X133075002Y-67896180D01*
X133111312Y-67776482D01*
X133123572Y-67652000D01*
X133123572Y-65952000D01*
X133111312Y-65827518D01*
X133075002Y-65707820D01*
X133016037Y-65597506D01*
X132936685Y-65500815D01*
X132839994Y-65421463D01*
X132729680Y-65362498D01*
X132657120Y-65340487D01*
X132788975Y-65208632D01*
X132951490Y-64965411D01*
X133063432Y-64695158D01*
X133120500Y-64408260D01*
X133120500Y-64115740D01*
X133063432Y-63828842D01*
X132951490Y-63558589D01*
X132788975Y-63315368D01*
X132582132Y-63108525D01*
X132407740Y-62992000D01*
X132582132Y-62875475D01*
X132788975Y-62668632D01*
X132951490Y-62425411D01*
X133063432Y-62155158D01*
X133120500Y-61868260D01*
X133120500Y-61575740D01*
X133063432Y-61288842D01*
X132951490Y-61018589D01*
X132835969Y-60845700D01*
X136210845Y-60845700D01*
X138857229Y-63492085D01*
X138883474Y-63524064D01*
X138915450Y-63550306D01*
X138915452Y-63550308D01*
X138973933Y-63598302D01*
X139011106Y-63628809D01*
X139156721Y-63706642D01*
X139314722Y-63754571D01*
X139437868Y-63766700D01*
X139437875Y-63766700D01*
X139479038Y-63770754D01*
X139520201Y-63766700D01*
X146845807Y-63766700D01*
X150799800Y-67720694D01*
X150799801Y-69479528D01*
X150788000Y-69479528D01*
X150663518Y-69491788D01*
X150543820Y-69528098D01*
X150433506Y-69587063D01*
X150336815Y-69666415D01*
X150257463Y-69763106D01*
X150198498Y-69873420D01*
X150162188Y-69993118D01*
X150149928Y-70117600D01*
X150149928Y-71817600D01*
X150162188Y-71942082D01*
X150198498Y-72061780D01*
X150257463Y-72172094D01*
X150336815Y-72268785D01*
X150433506Y-72348137D01*
X150543820Y-72407102D01*
X150663518Y-72443412D01*
X150788000Y-72455672D01*
X152488000Y-72455672D01*
X152612482Y-72443412D01*
X152732180Y-72407102D01*
X152842494Y-72348137D01*
X152939185Y-72268785D01*
X153018537Y-72172094D01*
X153077502Y-72061780D01*
X153099513Y-71989220D01*
X153231368Y-72121075D01*
X153474589Y-72283590D01*
X153744842Y-72395532D01*
X154031740Y-72452600D01*
X154324260Y-72452600D01*
X154611158Y-72395532D01*
X154881411Y-72283590D01*
X155124632Y-72121075D01*
X155193107Y-72052600D01*
X158295294Y-72052600D01*
X158454697Y-72036900D01*
X158659220Y-71974859D01*
X158847710Y-71874109D01*
X159012922Y-71738522D01*
X159148509Y-71573310D01*
X159249259Y-71384820D01*
X159311300Y-71180297D01*
X159332249Y-70967600D01*
X159311300Y-70754903D01*
X159249259Y-70550380D01*
X159148509Y-70361890D01*
X159012922Y-70196678D01*
X158847710Y-70061091D01*
X158659220Y-69960341D01*
X158454697Y-69898300D01*
X158295294Y-69882600D01*
X155193107Y-69882600D01*
X155124632Y-69814125D01*
X154881411Y-69651610D01*
X154611158Y-69539668D01*
X154324260Y-69482600D01*
X154031740Y-69482600D01*
X153744842Y-69539668D01*
X153474589Y-69651610D01*
X153231368Y-69814125D01*
X153099513Y-69945980D01*
X153077502Y-69873420D01*
X153018537Y-69763106D01*
X152939185Y-69666415D01*
X152842494Y-69587063D01*
X152732180Y-69528098D01*
X152612482Y-69491788D01*
X152488000Y-69479528D01*
X152476200Y-69479528D01*
X152476200Y-67414659D01*
X152480254Y-67373499D01*
X152476200Y-67332339D01*
X152476200Y-67332330D01*
X152464071Y-67209184D01*
X152416142Y-67051183D01*
X152338309Y-66905568D01*
X152318384Y-66881289D01*
X152259808Y-66809914D01*
X152259806Y-66809912D01*
X152233564Y-66777936D01*
X152201589Y-66751695D01*
X147814811Y-62364918D01*
X147788564Y-62332936D01*
X147660932Y-62228191D01*
X147515317Y-62150358D01*
X147357316Y-62102429D01*
X147234170Y-62090300D01*
X147234163Y-62090300D01*
X147193000Y-62086246D01*
X147151837Y-62090300D01*
X139826232Y-62090300D01*
X137179849Y-59443918D01*
X137153602Y-59411936D01*
X137025970Y-59307191D01*
X136880355Y-59229358D01*
X136722354Y-59181429D01*
X136599208Y-59169300D01*
X136599201Y-59169300D01*
X136558038Y-59165246D01*
X136516875Y-59169300D01*
X129644662Y-59169300D01*
X129603499Y-59165246D01*
X129562336Y-59169300D01*
X129562330Y-59169300D01*
X129439184Y-59181429D01*
X129281183Y-59229358D01*
X129135568Y-59307191D01*
X129007936Y-59411936D01*
X128981694Y-59443912D01*
X122468171Y-65957436D01*
X122359456Y-65884795D01*
X122171098Y-65806774D01*
X121971139Y-65767000D01*
X121767261Y-65767000D01*
X121567302Y-65806774D01*
X121378944Y-65884795D01*
X121209426Y-65998063D01*
X121065263Y-66142226D01*
X120951995Y-66311744D01*
X120873974Y-66500102D01*
X120834200Y-66700061D01*
X120834200Y-66903939D01*
X120873974Y-67103898D01*
X120951995Y-67292256D01*
X121065263Y-67461774D01*
X121209426Y-67605937D01*
X121378944Y-67719205D01*
X121567302Y-67797226D01*
X121632495Y-67810194D01*
X121522463Y-67920226D01*
X121409195Y-68089744D01*
X121331174Y-68278102D01*
X121303431Y-68417575D01*
X121051613Y-68669394D01*
X121019637Y-68695636D01*
X120993395Y-68727612D01*
X120993392Y-68727615D01*
X120914891Y-68823269D01*
X120837058Y-68968884D01*
X120789129Y-69126885D01*
X120772946Y-69291200D01*
X120777001Y-69332372D01*
X120777001Y-69987528D01*
X120765200Y-69987528D01*
X120640718Y-69999788D01*
X120521020Y-70036098D01*
X120410706Y-70095063D01*
X120314015Y-70174415D01*
X120234663Y-70271106D01*
X120175698Y-70381420D01*
X120139388Y-70501118D01*
X120127128Y-70625600D01*
X119824400Y-70625600D01*
X119824400Y-61800040D01*
X121911397Y-59713044D01*
X121992374Y-59658937D01*
X122136537Y-59514774D01*
X122190646Y-59433794D01*
X124153256Y-57471185D01*
X124153261Y-57471179D01*
X124254127Y-57370313D01*
X124292896Y-57338496D01*
X124419860Y-57183790D01*
X124514202Y-57007287D01*
X124572298Y-56815771D01*
X124587000Y-56666502D01*
X124591915Y-56616600D01*
X124587000Y-56566698D01*
X124587000Y-46228000D01*
X157278751Y-46228000D01*
X157299700Y-46440697D01*
X157361741Y-46645220D01*
X157462491Y-46833710D01*
X157598078Y-46998922D01*
X157763290Y-47134509D01*
X157951780Y-47235259D01*
X158156303Y-47297300D01*
X158315706Y-47313000D01*
X161856579Y-47313000D01*
X162663109Y-48119531D01*
X162697078Y-48160922D01*
X162738469Y-48194891D01*
X162738473Y-48194895D01*
X162791415Y-48238343D01*
X162862290Y-48296509D01*
X163050780Y-48397259D01*
X163193261Y-48440480D01*
X163255302Y-48459300D01*
X163275078Y-48461248D01*
X163414706Y-48475000D01*
X163414713Y-48475000D01*
X163467999Y-48480248D01*
X163521285Y-48475000D01*
X164748910Y-48475000D01*
X164697820Y-48490498D01*
X164587506Y-48549463D01*
X164490815Y-48628815D01*
X164411463Y-48725506D01*
X164352498Y-48835820D01*
X164349713Y-48845000D01*
X163287706Y-48845000D01*
X163128303Y-48860700D01*
X162923780Y-48922741D01*
X162735290Y-49023491D01*
X162570078Y-49159078D01*
X162434491Y-49324290D01*
X162333741Y-49512780D01*
X162271700Y-49717303D01*
X162250751Y-49930000D01*
X162271700Y-50142697D01*
X162333741Y-50347220D01*
X162434491Y-50535710D01*
X162570078Y-50700922D01*
X162735290Y-50836509D01*
X162897225Y-50923065D01*
X164331801Y-52357642D01*
X164331800Y-63702741D01*
X164312800Y-63798261D01*
X164312800Y-64002139D01*
X164352574Y-64202098D01*
X164430595Y-64390456D01*
X164543863Y-64559974D01*
X164688026Y-64704137D01*
X164857544Y-64817405D01*
X165045902Y-64895426D01*
X165245861Y-64935200D01*
X165449739Y-64935200D01*
X165649698Y-64895426D01*
X165838056Y-64817405D01*
X166007574Y-64704137D01*
X166151737Y-64559974D01*
X166265005Y-64390456D01*
X166343026Y-64202098D01*
X166382800Y-64002139D01*
X166382800Y-63798261D01*
X166363800Y-63702741D01*
X166363800Y-51986702D01*
X166368715Y-51936800D01*
X166349098Y-51737629D01*
X166291002Y-51546113D01*
X166278648Y-51523000D01*
X166222563Y-51418072D01*
X166642000Y-51418072D01*
X166766482Y-51405812D01*
X166886180Y-51369502D01*
X166996494Y-51310537D01*
X167093185Y-51231185D01*
X167172537Y-51134494D01*
X167231502Y-51024180D01*
X167234287Y-51015000D01*
X171977893Y-51015000D01*
X172079380Y-51116487D01*
X172006820Y-51138498D01*
X171896506Y-51197463D01*
X171799815Y-51276815D01*
X171720463Y-51373506D01*
X171661498Y-51483820D01*
X171658713Y-51493000D01*
X171269706Y-51493000D01*
X171110303Y-51508700D01*
X170905780Y-51570741D01*
X170717290Y-51671491D01*
X170552078Y-51807078D01*
X170416491Y-51972290D01*
X170315741Y-52160780D01*
X170253700Y-52365303D01*
X170232751Y-52578000D01*
X170253700Y-52790697D01*
X170315741Y-52995220D01*
X170416491Y-53183710D01*
X170552078Y-53348922D01*
X170717290Y-53484509D01*
X170905780Y-53585259D01*
X171110303Y-53647300D01*
X171269706Y-53663000D01*
X171658713Y-53663000D01*
X171661498Y-53672180D01*
X171720463Y-53782494D01*
X171799815Y-53879185D01*
X171896506Y-53958537D01*
X172006820Y-54017502D01*
X172126518Y-54053812D01*
X172251000Y-54066072D01*
X173951000Y-54066072D01*
X174075482Y-54053812D01*
X174195180Y-54017502D01*
X174305494Y-53958537D01*
X174402185Y-53879185D01*
X174481537Y-53782494D01*
X174540502Y-53672180D01*
X174576812Y-53552482D01*
X174589072Y-53428000D01*
X174589072Y-51728000D01*
X174576812Y-51603518D01*
X174540502Y-51483820D01*
X174481537Y-51373506D01*
X174402185Y-51276815D01*
X174305494Y-51197463D01*
X174195180Y-51138498D01*
X174122620Y-51116487D01*
X174254475Y-50984632D01*
X174416990Y-50741411D01*
X174528932Y-50471158D01*
X174586000Y-50184260D01*
X174586000Y-49891740D01*
X174528932Y-49604842D01*
X174416990Y-49334589D01*
X174254475Y-49091368D01*
X174047632Y-48884525D01*
X173804411Y-48722010D01*
X173534158Y-48610068D01*
X173247260Y-48553000D01*
X172954740Y-48553000D01*
X172667842Y-48610068D01*
X172397589Y-48722010D01*
X172213521Y-48845000D01*
X167234287Y-48845000D01*
X167231502Y-48835820D01*
X167172537Y-48725506D01*
X167093185Y-48628815D01*
X166996494Y-48549463D01*
X166886180Y-48490498D01*
X166813620Y-48468487D01*
X166945475Y-48336632D01*
X167107990Y-48093411D01*
X167219932Y-47823158D01*
X167277000Y-47536260D01*
X167277000Y-47243740D01*
X167219932Y-46956842D01*
X167107990Y-46686589D01*
X166945475Y-46443368D01*
X166738632Y-46236525D01*
X166564240Y-46120000D01*
X166738632Y-46003475D01*
X166945475Y-45796632D01*
X167107990Y-45553411D01*
X167219932Y-45283158D01*
X167277000Y-44996260D01*
X167277000Y-44703740D01*
X167219932Y-44416842D01*
X167107990Y-44146589D01*
X166945475Y-43903368D01*
X166738632Y-43696525D01*
X166495411Y-43534010D01*
X166225158Y-43422068D01*
X165938260Y-43365000D01*
X165645740Y-43365000D01*
X165358842Y-43422068D01*
X165088589Y-43534010D01*
X164845368Y-43696525D01*
X164656893Y-43885000D01*
X162621706Y-43885000D01*
X162462303Y-43900700D01*
X162257780Y-43962741D01*
X162069290Y-44063491D01*
X161904078Y-44199078D01*
X161768491Y-44364290D01*
X161667741Y-44552780D01*
X161605700Y-44757303D01*
X161584751Y-44970000D01*
X161601790Y-45143000D01*
X158315706Y-45143000D01*
X158156303Y-45158700D01*
X157951780Y-45220741D01*
X157763290Y-45321491D01*
X157598078Y-45457078D01*
X157462491Y-45622290D01*
X157361741Y-45810780D01*
X157299700Y-46015303D01*
X157278751Y-46228000D01*
X124587000Y-46228000D01*
X124587000Y-43377459D01*
X124606000Y-43281939D01*
X124606000Y-43078061D01*
X124566226Y-42878102D01*
X124488205Y-42689744D01*
X124374937Y-42520226D01*
X124230774Y-42376063D01*
X124061256Y-42262795D01*
X123872898Y-42184774D01*
X123672939Y-42145000D01*
X123469061Y-42145000D01*
X123269102Y-42184774D01*
X123080744Y-42262795D01*
X122911226Y-42376063D01*
X122767063Y-42520226D01*
X122653795Y-42689744D01*
X122575774Y-42878102D01*
X122536000Y-43078061D01*
X122536000Y-43281939D01*
X122555000Y-43377459D01*
X122555001Y-56195758D01*
X120753806Y-57996954D01*
X120672826Y-58051063D01*
X120528663Y-58195226D01*
X120474556Y-58276203D01*
X118254879Y-60495881D01*
X118190410Y-60530340D01*
X118035704Y-60657304D01*
X117908740Y-60812010D01*
X117882800Y-60860541D01*
X117882800Y-60850261D01*
X117843026Y-60650302D01*
X117765005Y-60461944D01*
X117651737Y-60292426D01*
X117507574Y-60148263D01*
X117338056Y-60034995D01*
X117149698Y-59956974D01*
X116949739Y-59917200D01*
X116745861Y-59917200D01*
X116545902Y-59956974D01*
X116357544Y-60034995D01*
X116188026Y-60148263D01*
X116043863Y-60292426D01*
X115989756Y-60373403D01*
X114632872Y-61730288D01*
X114594104Y-61762104D01*
X114467140Y-61916810D01*
X114372798Y-62093314D01*
X114327887Y-62241364D01*
X114314702Y-62284830D01*
X114295085Y-62484000D01*
X106189357Y-62484000D01*
X106175807Y-45689852D01*
X108951200Y-45689852D01*
X108951200Y-46258148D01*
X109062069Y-46815523D01*
X109279546Y-47340560D01*
X109595274Y-47813080D01*
X109997120Y-48214926D01*
X110469640Y-48530654D01*
X110994677Y-48748131D01*
X111552052Y-48859000D01*
X112120348Y-48859000D01*
X112677723Y-48748131D01*
X113202760Y-48530654D01*
X113675280Y-48214926D01*
X114077126Y-47813080D01*
X114392854Y-47340560D01*
X114610331Y-46815523D01*
X114721200Y-46258148D01*
X114721200Y-45689852D01*
X114610331Y-45132477D01*
X114392854Y-44607440D01*
X114077126Y-44134920D01*
X113675280Y-43733074D01*
X113202760Y-43417346D01*
X112677723Y-43199869D01*
X112120348Y-43089000D01*
X111552052Y-43089000D01*
X110994677Y-43199869D01*
X110469640Y-43417346D01*
X109997120Y-43733074D01*
X109595274Y-44134920D01*
X109279546Y-44607440D01*
X109062069Y-45132477D01*
X108951200Y-45689852D01*
X106175807Y-45689852D01*
X106171752Y-40664787D01*
X136349537Y-40673049D01*
G04 #@! TA.AperFunction,Conductor*
D26*
G36*
X136349537Y-40673049D02*
G01*
X136611839Y-40760483D01*
X136636116Y-40766003D01*
X136652000Y-40767000D01*
X153924000Y-40767000D01*
X153948776Y-40764560D01*
X153980796Y-40753592D01*
X154132145Y-40677917D01*
X175327083Y-40683720D01*
X174944920Y-40939074D01*
X174543074Y-41340920D01*
X174227346Y-41813440D01*
X174009869Y-42338477D01*
X173899000Y-42895852D01*
X173899000Y-43464148D01*
X174009869Y-44021523D01*
X174227346Y-44546560D01*
X174543074Y-45019080D01*
X174944920Y-45420926D01*
X175417440Y-45736654D01*
X175942477Y-45954131D01*
X176499852Y-46065000D01*
X177068148Y-46065000D01*
X177625523Y-45954131D01*
X178150560Y-45736654D01*
X178623080Y-45420926D01*
X179024926Y-45019080D01*
X179318311Y-44579998D01*
X179357081Y-98203901D01*
X179277154Y-98010940D01*
X178961426Y-97538420D01*
X178559580Y-97136574D01*
X178087060Y-96820846D01*
X177562023Y-96603369D01*
X177004648Y-96492500D01*
X176436352Y-96492500D01*
X175878977Y-96603369D01*
X175353940Y-96820846D01*
X174881420Y-97136574D01*
X174479574Y-97538420D01*
X174163846Y-98010940D01*
X173946369Y-98535977D01*
X173835500Y-99093352D01*
X173835500Y-99661648D01*
X173946369Y-100219023D01*
X174163846Y-100744060D01*
X174479574Y-101216580D01*
X174881420Y-101618426D01*
X175353940Y-101934154D01*
X175878977Y-102151631D01*
X176369123Y-102249127D01*
X106221447Y-102261084D01*
X106217406Y-97251852D01*
X107922500Y-97251852D01*
X107922500Y-97820148D01*
X108033369Y-98377523D01*
X108250846Y-98902560D01*
X108566574Y-99375080D01*
X108968420Y-99776926D01*
X109440940Y-100092654D01*
X109965977Y-100310131D01*
X110523352Y-100421000D01*
X111091648Y-100421000D01*
X111649023Y-100310131D01*
X112174060Y-100092654D01*
X112646580Y-99776926D01*
X113048426Y-99375080D01*
X113364154Y-98902560D01*
X113581631Y-98377523D01*
X113692500Y-97820148D01*
X113692500Y-97251852D01*
X113604680Y-96810348D01*
X127011280Y-96810348D01*
X127011280Y-97085532D01*
X127064966Y-97355430D01*
X127170275Y-97609667D01*
X127323160Y-97838475D01*
X127517745Y-98033060D01*
X127746553Y-98185945D01*
X128000790Y-98291254D01*
X128270688Y-98344940D01*
X128545872Y-98344940D01*
X128815770Y-98291254D01*
X129070007Y-98185945D01*
X129298815Y-98033060D01*
X129493400Y-97838475D01*
X129646285Y-97609667D01*
X129673110Y-97544907D01*
X129705195Y-97622367D01*
X129858080Y-97851175D01*
X130052665Y-98045760D01*
X130281473Y-98198645D01*
X130535710Y-98303954D01*
X130805608Y-98357640D01*
X131080792Y-98357640D01*
X131350690Y-98303954D01*
X131604927Y-98198645D01*
X131833735Y-98045760D01*
X132028320Y-97851175D01*
X132181205Y-97622367D01*
X132286514Y-97368130D01*
X132340200Y-97098232D01*
X132340200Y-96823048D01*
X132286514Y-96553150D01*
X132181205Y-96298913D01*
X132086200Y-96156728D01*
X132086200Y-94472645D01*
X133912346Y-92646500D01*
X136583161Y-92646500D01*
X136639300Y-92652029D01*
X136695439Y-92646500D01*
X137029455Y-92646500D01*
X139212369Y-94829415D01*
X139145248Y-95050684D01*
X139120881Y-95298083D01*
X139120880Y-97564116D01*
X139145247Y-97811515D01*
X139241541Y-98128954D01*
X139397914Y-98421507D01*
X139608357Y-98677933D01*
X139864782Y-98888376D01*
X140157335Y-99044749D01*
X140474774Y-99141043D01*
X140804900Y-99173558D01*
X141135025Y-99141043D01*
X141452464Y-99044749D01*
X141745017Y-98888376D01*
X142001443Y-98677933D01*
X142211886Y-98421508D01*
X142368259Y-98128955D01*
X142464553Y-97811516D01*
X142488920Y-97564117D01*
X142488920Y-97305821D01*
X146923900Y-97305821D01*
X146923900Y-97726379D01*
X147005947Y-98138856D01*
X147166888Y-98527402D01*
X147400537Y-98877083D01*
X147697917Y-99174463D01*
X148047598Y-99408112D01*
X148436144Y-99569053D01*
X148848621Y-99651100D01*
X149269179Y-99651100D01*
X149681656Y-99569053D01*
X150070202Y-99408112D01*
X150419883Y-99174463D01*
X150717263Y-98877083D01*
X150950912Y-98527402D01*
X151111853Y-98138856D01*
X151193900Y-97726379D01*
X151193900Y-97305821D01*
X151188853Y-97280444D01*
X159423900Y-97280444D01*
X159423900Y-97651756D01*
X159496339Y-98015934D01*
X159638434Y-98358982D01*
X159844725Y-98667718D01*
X160107282Y-98930275D01*
X160416018Y-99136566D01*
X160759066Y-99278661D01*
X161123244Y-99351100D01*
X161494556Y-99351100D01*
X161858734Y-99278661D01*
X162201782Y-99136566D01*
X162510518Y-98930275D01*
X162773075Y-98667718D01*
X162812242Y-98609100D01*
X166191046Y-98609100D01*
X166358967Y-98592561D01*
X166574423Y-98527203D01*
X166772989Y-98421068D01*
X166947033Y-98278233D01*
X167089868Y-98104189D01*
X167196003Y-97905623D01*
X167261361Y-97690167D01*
X167283430Y-97466100D01*
X167261361Y-97242033D01*
X167196003Y-97026577D01*
X167089868Y-96828011D01*
X166947033Y-96653967D01*
X166772989Y-96511132D01*
X166574423Y-96404997D01*
X166358967Y-96339639D01*
X166191046Y-96323100D01*
X162812242Y-96323100D01*
X162773075Y-96264482D01*
X162510518Y-96001925D01*
X162201782Y-95795634D01*
X161858734Y-95653539D01*
X161494556Y-95581100D01*
X161123244Y-95581100D01*
X160759066Y-95653539D01*
X160416018Y-95795634D01*
X160107282Y-96001925D01*
X159844725Y-96264482D01*
X159638434Y-96573218D01*
X159496339Y-96916266D01*
X159423900Y-97280444D01*
X151188853Y-97280444D01*
X151111853Y-96893344D01*
X150950912Y-96504798D01*
X150717263Y-96155117D01*
X150419883Y-95857737D01*
X150070202Y-95624088D01*
X149681656Y-95463147D01*
X149269179Y-95381100D01*
X148848621Y-95381100D01*
X148436144Y-95463147D01*
X148047598Y-95624088D01*
X147697917Y-95857737D01*
X147400537Y-96155117D01*
X147166888Y-96504798D01*
X147005947Y-96893344D01*
X146923900Y-97305821D01*
X142488920Y-97305821D01*
X142488920Y-95298083D01*
X142464553Y-95050684D01*
X142368259Y-94733245D01*
X142211886Y-94440692D01*
X142001443Y-94184267D01*
X141745018Y-93973824D01*
X141452465Y-93817451D01*
X141424951Y-93809105D01*
X138645900Y-91030055D01*
X138645900Y-90696039D01*
X138651429Y-90639900D01*
X138645900Y-90583761D01*
X138645900Y-89704765D01*
X171303900Y-89704765D01*
X171303900Y-89987435D01*
X171359047Y-90264674D01*
X171467220Y-90525827D01*
X171624263Y-90760859D01*
X171824141Y-90960737D01*
X172059173Y-91117780D01*
X172320326Y-91225953D01*
X172597565Y-91281100D01*
X172880235Y-91281100D01*
X173157474Y-91225953D01*
X173418627Y-91117780D01*
X173653659Y-90960737D01*
X173853537Y-90760859D01*
X174008900Y-90528341D01*
X174164263Y-90760859D01*
X174364141Y-90960737D01*
X174599173Y-91117780D01*
X174860326Y-91225953D01*
X175137565Y-91281100D01*
X175420235Y-91281100D01*
X175697474Y-91225953D01*
X175958627Y-91117780D01*
X176193659Y-90960737D01*
X176393537Y-90760859D01*
X176550580Y-90525827D01*
X176658753Y-90264674D01*
X176713900Y-89987435D01*
X176713900Y-89704765D01*
X176658753Y-89427526D01*
X176550580Y-89166373D01*
X176393537Y-88931341D01*
X176193659Y-88731463D01*
X175958627Y-88574420D01*
X175697474Y-88466247D01*
X175420235Y-88411100D01*
X175137565Y-88411100D01*
X174860326Y-88466247D01*
X174599173Y-88574420D01*
X174364141Y-88731463D01*
X174164263Y-88931341D01*
X174008900Y-89163859D01*
X173853537Y-88931341D01*
X173653659Y-88731463D01*
X173418627Y-88574420D01*
X173157474Y-88466247D01*
X172880235Y-88411100D01*
X172597565Y-88411100D01*
X172320326Y-88466247D01*
X172059173Y-88574420D01*
X171824141Y-88731463D01*
X171624263Y-88931341D01*
X171467220Y-89166373D01*
X171359047Y-89427526D01*
X171303900Y-89704765D01*
X138645900Y-89704765D01*
X138645900Y-89208507D01*
X138707394Y-89175637D01*
X138804085Y-89096285D01*
X138883437Y-88999594D01*
X138942402Y-88889280D01*
X138961893Y-88825027D01*
X138981797Y-88890641D01*
X139087933Y-89089207D01*
X139151262Y-89166373D01*
X139230767Y-89263251D01*
X139274379Y-89299042D01*
X139404812Y-89406086D01*
X139603378Y-89512221D01*
X139753475Y-89557753D01*
X139818833Y-89577579D01*
X139831200Y-89578797D01*
X140042900Y-89599648D01*
X140266967Y-89577579D01*
X140482423Y-89512221D01*
X140680989Y-89406086D01*
X140855033Y-89263251D01*
X140890827Y-89219636D01*
X143501364Y-86609100D01*
X147304886Y-86609100D01*
X147450537Y-86827083D01*
X147747917Y-87124463D01*
X148097598Y-87358112D01*
X148486144Y-87519053D01*
X148898621Y-87601100D01*
X149319179Y-87601100D01*
X149731656Y-87519053D01*
X150120202Y-87358112D01*
X150469883Y-87124463D01*
X150767263Y-86827083D01*
X151000912Y-86477402D01*
X151161853Y-86088856D01*
X151243900Y-85676379D01*
X151243900Y-85280444D01*
X159423900Y-85280444D01*
X159423900Y-85651756D01*
X159496339Y-86015934D01*
X159638434Y-86358982D01*
X159844725Y-86667718D01*
X160107282Y-86930275D01*
X160416018Y-87136566D01*
X160759066Y-87278661D01*
X161123244Y-87351100D01*
X161494556Y-87351100D01*
X161858734Y-87278661D01*
X162201782Y-87136566D01*
X162510518Y-86930275D01*
X162773075Y-86667718D01*
X162897101Y-86482100D01*
X163561241Y-86482100D01*
X163656761Y-86501100D01*
X163860639Y-86501100D01*
X164060598Y-86461326D01*
X164248956Y-86383305D01*
X164418474Y-86270037D01*
X164562637Y-86125874D01*
X164675905Y-85956356D01*
X164753926Y-85767998D01*
X164793700Y-85568039D01*
X164793700Y-85364161D01*
X164753926Y-85164202D01*
X164675905Y-84975844D01*
X164562637Y-84806326D01*
X164418474Y-84662163D01*
X164248956Y-84548895D01*
X164060598Y-84470874D01*
X163860639Y-84431100D01*
X163656761Y-84431100D01*
X163561241Y-84450100D01*
X162897101Y-84450100D01*
X162773075Y-84264482D01*
X162510518Y-84001925D01*
X162201782Y-83795634D01*
X161858734Y-83653539D01*
X161494556Y-83581100D01*
X161123244Y-83581100D01*
X160759066Y-83653539D01*
X160416018Y-83795634D01*
X160107282Y-84001925D01*
X159844725Y-84264482D01*
X159638434Y-84573218D01*
X159496339Y-84916266D01*
X159423900Y-85280444D01*
X151243900Y-85280444D01*
X151243900Y-85255821D01*
X151161853Y-84843344D01*
X151000912Y-84454798D01*
X150767263Y-84105117D01*
X150469883Y-83807737D01*
X150120202Y-83574088D01*
X149731656Y-83413147D01*
X149319179Y-83331100D01*
X148898621Y-83331100D01*
X148486144Y-83413147D01*
X148097598Y-83574088D01*
X147747917Y-83807737D01*
X147450537Y-84105117D01*
X147304886Y-84323100D01*
X143084057Y-84323100D01*
X143027918Y-84317571D01*
X142971779Y-84323100D01*
X142971772Y-84323100D01*
X142824435Y-84337612D01*
X142803850Y-84339639D01*
X142738492Y-84359465D01*
X142588395Y-84404997D01*
X142389829Y-84511132D01*
X142215785Y-84653967D01*
X142179995Y-84697577D01*
X140500345Y-86377228D01*
X140476058Y-86367168D01*
X140189160Y-86310100D01*
X139896640Y-86310100D01*
X139609742Y-86367168D01*
X139339489Y-86479110D01*
X139096268Y-86641625D01*
X138964413Y-86773480D01*
X138942402Y-86700920D01*
X138883437Y-86590606D01*
X138804085Y-86493915D01*
X138707394Y-86414563D01*
X138597080Y-86355598D01*
X138477382Y-86319288D01*
X138352900Y-86307028D01*
X136652900Y-86307028D01*
X136528418Y-86319288D01*
X136408720Y-86355598D01*
X136298406Y-86414563D01*
X136201715Y-86493915D01*
X136122363Y-86590606D01*
X136063398Y-86700920D01*
X136027088Y-86820618D01*
X136014828Y-86945100D01*
X136014828Y-88645100D01*
X136027088Y-88769582D01*
X136063398Y-88889280D01*
X136122363Y-88999594D01*
X136201715Y-89096285D01*
X136298406Y-89175637D01*
X136359901Y-89208507D01*
X136359900Y-90166454D01*
X136165855Y-90360500D01*
X133495039Y-90360500D01*
X133438900Y-90354971D01*
X133382761Y-90360500D01*
X133382754Y-90360500D01*
X133235417Y-90375012D01*
X133214832Y-90377039D01*
X133149474Y-90396865D01*
X132999377Y-90442397D01*
X132800811Y-90548532D01*
X132626767Y-90691367D01*
X132590977Y-90734977D01*
X130174682Y-93151273D01*
X130131067Y-93187067D01*
X129988232Y-93361112D01*
X129882097Y-93559678D01*
X129816739Y-93775134D01*
X129800200Y-93943055D01*
X129800200Y-93943061D01*
X129794671Y-93999200D01*
X129800200Y-94055339D01*
X129800201Y-96156727D01*
X129705195Y-96298913D01*
X129678370Y-96363673D01*
X129646285Y-96286213D01*
X129493400Y-96057405D01*
X129298815Y-95862820D01*
X129070007Y-95709935D01*
X128815770Y-95604626D01*
X128545872Y-95550940D01*
X128270688Y-95550940D01*
X128000790Y-95604626D01*
X127746553Y-95709935D01*
X127517745Y-95862820D01*
X127323160Y-96057405D01*
X127170275Y-96286213D01*
X127064966Y-96540450D01*
X127011280Y-96810348D01*
X113604680Y-96810348D01*
X113581631Y-96694477D01*
X113364154Y-96169440D01*
X113048426Y-95696920D01*
X112646580Y-95295074D01*
X112174060Y-94979346D01*
X111649023Y-94761869D01*
X111091648Y-94651000D01*
X110523352Y-94651000D01*
X109965977Y-94761869D01*
X109440940Y-94979346D01*
X108968420Y-95295074D01*
X108566574Y-95696920D01*
X108250846Y-96169440D01*
X108033369Y-96694477D01*
X107922500Y-97251852D01*
X106217406Y-97251852D01*
X106189357Y-62484000D01*
X114295085Y-62484000D01*
X114300000Y-62533902D01*
X114300001Y-71197088D01*
X114295085Y-71247000D01*
X114314702Y-71446170D01*
X114350771Y-71565071D01*
X114372799Y-71637687D01*
X114467141Y-71814190D01*
X114594105Y-71968896D01*
X114632868Y-72000708D01*
X121718692Y-79086533D01*
X121750504Y-79125296D01*
X121905210Y-79252260D01*
X122016268Y-79311621D01*
X122081712Y-79346602D01*
X122273229Y-79404698D01*
X122472400Y-79424315D01*
X122522302Y-79419400D01*
X127443545Y-79419400D01*
X127512665Y-79488520D01*
X127741473Y-79641405D01*
X127995710Y-79746714D01*
X128265608Y-79800400D01*
X128540792Y-79800400D01*
X128810690Y-79746714D01*
X129064927Y-79641405D01*
X129293735Y-79488520D01*
X129488320Y-79293935D01*
X129641205Y-79065127D01*
X129670044Y-78995505D01*
X129705195Y-79080367D01*
X129858080Y-79309175D01*
X130052665Y-79503760D01*
X130281473Y-79656645D01*
X130535710Y-79761954D01*
X130805608Y-79815640D01*
X131080792Y-79815640D01*
X131350690Y-79761954D01*
X131604927Y-79656645D01*
X131833735Y-79503760D01*
X131902855Y-79434640D01*
X134192333Y-79434640D01*
X134327268Y-79569575D01*
X134570489Y-79732090D01*
X134840742Y-79844032D01*
X135127640Y-79901100D01*
X135420160Y-79901100D01*
X135707058Y-79844032D01*
X135977311Y-79732090D01*
X136220532Y-79569575D01*
X136231007Y-79559100D01*
X138126793Y-79559100D01*
X138264268Y-79696575D01*
X138507489Y-79859090D01*
X138777742Y-79971032D01*
X139064640Y-80028100D01*
X139357160Y-80028100D01*
X139644058Y-79971032D01*
X139914311Y-79859090D01*
X140157532Y-79696575D01*
X140168007Y-79686100D01*
X141809793Y-79686100D01*
X141820268Y-79696575D01*
X142063489Y-79859090D01*
X142333742Y-79971032D01*
X142620640Y-80028100D01*
X142913160Y-80028100D01*
X143200058Y-79971032D01*
X143470311Y-79859090D01*
X143713532Y-79696575D01*
X143724007Y-79686100D01*
X148095761Y-79686100D01*
X148151900Y-79691629D01*
X148208039Y-79686100D01*
X150637455Y-79686100D01*
X152463500Y-81512147D01*
X152463500Y-82415645D01*
X152480039Y-82583566D01*
X152545397Y-82799022D01*
X152651532Y-82997588D01*
X152794367Y-83171633D01*
X152968411Y-83314468D01*
X153166977Y-83420603D01*
X153382433Y-83485961D01*
X153606500Y-83508030D01*
X153830566Y-83485961D01*
X154046022Y-83420603D01*
X154244588Y-83314468D01*
X154418633Y-83171633D01*
X154561468Y-82997589D01*
X154667603Y-82799023D01*
X154732961Y-82583567D01*
X154749500Y-82415646D01*
X154749500Y-81426100D01*
X173840828Y-81426100D01*
X173840828Y-83026100D01*
X173853088Y-83150582D01*
X173889398Y-83270280D01*
X173948363Y-83380594D01*
X174027715Y-83477285D01*
X174124406Y-83556637D01*
X174234720Y-83615602D01*
X174354418Y-83651912D01*
X174478900Y-83664172D01*
X176078900Y-83664172D01*
X176203382Y-83651912D01*
X176323080Y-83615602D01*
X176433394Y-83556637D01*
X176530085Y-83477285D01*
X176609437Y-83380594D01*
X176668402Y-83270280D01*
X176704712Y-83150582D01*
X176716972Y-83026100D01*
X176716972Y-81426100D01*
X176704712Y-81301618D01*
X176668402Y-81181920D01*
X176609437Y-81071606D01*
X176530085Y-80974915D01*
X176433394Y-80895563D01*
X176323080Y-80836598D01*
X176203382Y-80800288D01*
X176078900Y-80788028D01*
X174478900Y-80788028D01*
X174354418Y-80800288D01*
X174234720Y-80836598D01*
X174124406Y-80895563D01*
X174027715Y-80974915D01*
X173948363Y-81071606D01*
X173889398Y-81181920D01*
X173853088Y-81301618D01*
X173840828Y-81426100D01*
X154749500Y-81426100D01*
X154749500Y-81094838D01*
X154755029Y-81038699D01*
X154749500Y-80982560D01*
X154749500Y-80982554D01*
X154732961Y-80814633D01*
X154728610Y-80800288D01*
X154713135Y-80749274D01*
X154667603Y-80599177D01*
X154561468Y-80400611D01*
X154545223Y-80380817D01*
X154454424Y-80270177D01*
X154454418Y-80270171D01*
X154418633Y-80226567D01*
X154375028Y-80190781D01*
X153870347Y-79686100D01*
X161290961Y-79686100D01*
X161347100Y-79691629D01*
X161403239Y-79686100D01*
X161403246Y-79686100D01*
X161571167Y-79669561D01*
X161786623Y-79604203D01*
X161985189Y-79498068D01*
X162159233Y-79355233D01*
X162195027Y-79311618D01*
X165811324Y-75695322D01*
X165854933Y-75659533D01*
X165997768Y-75485489D01*
X166103903Y-75286923D01*
X166149435Y-75136826D01*
X166169261Y-75071468D01*
X166182909Y-74932898D01*
X166185800Y-74903546D01*
X166185800Y-74903540D01*
X166191329Y-74847401D01*
X166185800Y-74791262D01*
X166185800Y-70034200D01*
X173216261Y-70034200D01*
X173272400Y-70039729D01*
X173328539Y-70034200D01*
X173328546Y-70034200D01*
X173496467Y-70017661D01*
X173711923Y-69952303D01*
X173910489Y-69846168D01*
X174084533Y-69703333D01*
X174120327Y-69659718D01*
X176048774Y-67731272D01*
X176770400Y-67731272D01*
X176894882Y-67719012D01*
X177014580Y-67682702D01*
X177124894Y-67623737D01*
X177221585Y-67544385D01*
X177300937Y-67447694D01*
X177359902Y-67337380D01*
X177396212Y-67217682D01*
X177408472Y-67093200D01*
X177408472Y-65393200D01*
X177396212Y-65268718D01*
X177359902Y-65149020D01*
X177300937Y-65038706D01*
X177221585Y-64942015D01*
X177124894Y-64862663D01*
X177014580Y-64803698D01*
X176942020Y-64781687D01*
X177073875Y-64649832D01*
X177236390Y-64406611D01*
X177348332Y-64136358D01*
X177405400Y-63849460D01*
X177405400Y-63556940D01*
X177348332Y-63270042D01*
X177236390Y-62999789D01*
X177073875Y-62756568D01*
X176885600Y-62568293D01*
X176885600Y-61055859D01*
X176904600Y-60960339D01*
X176904600Y-60756461D01*
X176864826Y-60556502D01*
X176786805Y-60368144D01*
X176673537Y-60198626D01*
X176529374Y-60054463D01*
X176359856Y-59941195D01*
X176171498Y-59863174D01*
X175971539Y-59823400D01*
X175767661Y-59823400D01*
X175567702Y-59863174D01*
X175379344Y-59941195D01*
X175209826Y-60054463D01*
X175065663Y-60198626D01*
X174952395Y-60368144D01*
X174874374Y-60556502D01*
X174834600Y-60756461D01*
X174834600Y-60960339D01*
X174853600Y-61055860D01*
X174853601Y-62669892D01*
X174766925Y-62756568D01*
X174604410Y-62999789D01*
X174492468Y-63270042D01*
X174435400Y-63556940D01*
X174435400Y-63849460D01*
X174492468Y-64136358D01*
X174604410Y-64406611D01*
X174766925Y-64649832D01*
X174898780Y-64781687D01*
X174826220Y-64803698D01*
X174715906Y-64862663D01*
X174619215Y-64942015D01*
X174539863Y-65038706D01*
X174480898Y-65149020D01*
X174444588Y-65268718D01*
X174432328Y-65393200D01*
X174432328Y-66114826D01*
X172798955Y-67748200D01*
X165098946Y-67748200D01*
X165042800Y-67742670D01*
X164986654Y-67748200D01*
X164818733Y-67764739D01*
X164603277Y-67830097D01*
X164404711Y-67936232D01*
X164230667Y-68079067D01*
X164087832Y-68253111D01*
X163981697Y-68451677D01*
X163916339Y-68667133D01*
X163894270Y-68891200D01*
X163899800Y-68947346D01*
X163899800Y-71296845D01*
X163899801Y-71296855D01*
X163899800Y-74373954D01*
X160873655Y-77400100D01*
X151167039Y-77400100D01*
X151110900Y-77394571D01*
X151054761Y-77400100D01*
X150443209Y-77400100D01*
X150437700Y-77344162D01*
X150437700Y-76095139D01*
X150564687Y-75968152D01*
X150743618Y-75700363D01*
X150866868Y-75402812D01*
X150929700Y-75086933D01*
X150929700Y-74764867D01*
X150866868Y-74448988D01*
X150743618Y-74151437D01*
X150564687Y-73883648D01*
X150336952Y-73655913D01*
X150069163Y-73476982D01*
X149771612Y-73353732D01*
X149455733Y-73290900D01*
X149133667Y-73290900D01*
X148817788Y-73353732D01*
X148520237Y-73476982D01*
X148252448Y-73655913D01*
X148024713Y-73883648D01*
X147845782Y-74151437D01*
X147722532Y-74448988D01*
X147659700Y-74764867D01*
X147659700Y-75086933D01*
X147722532Y-75402812D01*
X147845782Y-75700363D01*
X148024713Y-75968152D01*
X148151700Y-76095139D01*
X148151701Y-76926853D01*
X147678454Y-77400100D01*
X143724007Y-77400100D01*
X143713532Y-77389625D01*
X143470311Y-77227110D01*
X143200058Y-77115168D01*
X142913160Y-77058100D01*
X142620640Y-77058100D01*
X142333742Y-77115168D01*
X142063489Y-77227110D01*
X141820268Y-77389625D01*
X141809793Y-77400100D01*
X140168007Y-77400100D01*
X140157532Y-77389625D01*
X139914311Y-77227110D01*
X139644058Y-77115168D01*
X139357160Y-77058100D01*
X139064640Y-77058100D01*
X138777742Y-77115168D01*
X138507489Y-77227110D01*
X138438660Y-77273100D01*
X136231007Y-77273100D01*
X136220532Y-77262625D01*
X136046140Y-77146100D01*
X136220532Y-77029575D01*
X136427375Y-76822732D01*
X136589890Y-76579511D01*
X136701832Y-76309258D01*
X136758900Y-76022360D01*
X136758900Y-75827940D01*
X141843533Y-70743308D01*
X141882296Y-70711496D01*
X142009260Y-70556790D01*
X142103602Y-70380287D01*
X142161698Y-70188771D01*
X142176400Y-70039502D01*
X142176400Y-70039501D01*
X142181315Y-69989601D01*
X142176400Y-69939699D01*
X142176400Y-65996059D01*
X142195400Y-65900539D01*
X142195400Y-65696661D01*
X142155626Y-65496702D01*
X142077605Y-65308344D01*
X141964337Y-65138826D01*
X141820174Y-64994663D01*
X141650656Y-64881395D01*
X141462298Y-64803374D01*
X141262339Y-64763600D01*
X141058461Y-64763600D01*
X140858502Y-64803374D01*
X140670144Y-64881395D01*
X140500626Y-64994663D01*
X140356463Y-65138826D01*
X140243195Y-65308344D01*
X140165174Y-65496702D01*
X140125400Y-65696661D01*
X140125400Y-65900539D01*
X140144401Y-65996064D01*
X140144400Y-69568759D01*
X135322060Y-74391100D01*
X135127640Y-74391100D01*
X134840742Y-74448168D01*
X134570489Y-74560110D01*
X134327268Y-74722625D01*
X134189793Y-74860100D01*
X121889941Y-74860100D01*
X119824400Y-72794560D01*
X119824400Y-70625600D01*
X120127128Y-70625600D01*
X120127128Y-72325600D01*
X120139388Y-72450082D01*
X120175698Y-72569780D01*
X120234663Y-72680094D01*
X120314015Y-72776785D01*
X120410706Y-72856137D01*
X120521020Y-72915102D01*
X120640718Y-72951412D01*
X120765200Y-72963672D01*
X122465200Y-72963672D01*
X122589682Y-72951412D01*
X122709380Y-72915102D01*
X122819694Y-72856137D01*
X122916385Y-72776785D01*
X122995737Y-72680094D01*
X123054702Y-72569780D01*
X123076713Y-72497220D01*
X123208568Y-72629075D01*
X123451789Y-72791590D01*
X123722042Y-72903532D01*
X124008940Y-72960600D01*
X124301460Y-72960600D01*
X124588358Y-72903532D01*
X124858611Y-72791590D01*
X125101832Y-72629075D01*
X125308675Y-72422232D01*
X125425200Y-72247840D01*
X125541725Y-72422232D01*
X125748568Y-72629075D01*
X125991789Y-72791590D01*
X126262042Y-72903532D01*
X126548940Y-72960600D01*
X126841460Y-72960600D01*
X127128358Y-72903532D01*
X127398611Y-72791590D01*
X127641832Y-72629075D01*
X127848675Y-72422232D01*
X127965200Y-72247840D01*
X128081725Y-72422232D01*
X128288568Y-72629075D01*
X128531789Y-72791590D01*
X128802042Y-72903532D01*
X129088940Y-72960600D01*
X129381460Y-72960600D01*
X129668358Y-72903532D01*
X129938611Y-72791590D01*
X130181832Y-72629075D01*
X130388675Y-72422232D01*
X130551190Y-72179011D01*
X130663132Y-71908758D01*
X130720200Y-71621860D01*
X130720200Y-71329340D01*
X130663132Y-71042442D01*
X130551190Y-70772189D01*
X130388675Y-70528968D01*
X130181832Y-70322125D01*
X129938611Y-70159610D01*
X129668358Y-70047668D01*
X129381460Y-69990600D01*
X129352490Y-69990600D01*
X129390405Y-69933856D01*
X129468426Y-69745498D01*
X129508200Y-69545539D01*
X129508200Y-69341661D01*
X129468426Y-69141702D01*
X129390405Y-68953344D01*
X129277137Y-68783826D01*
X129132974Y-68639663D01*
X128963456Y-68526395D01*
X128775098Y-68448374D01*
X128575139Y-68408600D01*
X128371261Y-68408600D01*
X128171302Y-68448374D01*
X127982944Y-68526395D01*
X127813426Y-68639663D01*
X127730200Y-68722889D01*
X127730200Y-68630461D01*
X127690426Y-68430502D01*
X127612405Y-68242144D01*
X127499137Y-68072626D01*
X127354974Y-67928463D01*
X127185456Y-67815195D01*
X126997098Y-67737174D01*
X126797139Y-67697400D01*
X126593261Y-67697400D01*
X126393302Y-67737174D01*
X126204944Y-67815195D01*
X126035426Y-67928463D01*
X125891263Y-68072626D01*
X125777995Y-68242144D01*
X125699974Y-68430502D01*
X125660200Y-68630461D01*
X125660200Y-68834339D01*
X125699974Y-69034298D01*
X125777995Y-69222656D01*
X125857000Y-69340896D01*
X125857001Y-70249673D01*
X125748568Y-70322125D01*
X125541725Y-70528968D01*
X125425200Y-70703360D01*
X125308675Y-70528968D01*
X125259000Y-70479293D01*
X125259000Y-69329296D01*
X125338005Y-69211056D01*
X125416026Y-69022698D01*
X125455800Y-68822739D01*
X125455800Y-68618861D01*
X125416026Y-68418902D01*
X125338005Y-68230544D01*
X125224737Y-68061026D01*
X125080574Y-67916863D01*
X124911056Y-67803595D01*
X124722698Y-67725574D01*
X124522739Y-67685800D01*
X124318861Y-67685800D01*
X124118902Y-67725574D01*
X123930544Y-67803595D01*
X123761026Y-67916863D01*
X123616863Y-68061026D01*
X123503595Y-68230544D01*
X123425574Y-68418902D01*
X123385800Y-68618861D01*
X123385800Y-68822739D01*
X123425574Y-69022698D01*
X123503595Y-69211056D01*
X123582600Y-69329296D01*
X123582601Y-70105426D01*
X123451789Y-70159610D01*
X123208568Y-70322125D01*
X123076713Y-70453980D01*
X123054702Y-70381420D01*
X122995737Y-70271106D01*
X122916385Y-70174415D01*
X122819694Y-70095063D01*
X122709380Y-70036098D01*
X122589682Y-69999788D01*
X122465200Y-69987528D01*
X122453400Y-69987528D01*
X122453400Y-69638393D01*
X122488825Y-69602969D01*
X122628298Y-69575226D01*
X122816656Y-69497205D01*
X122986174Y-69383937D01*
X123130337Y-69239774D01*
X123243605Y-69070256D01*
X123321626Y-68881898D01*
X123361400Y-68681939D01*
X123361400Y-68478061D01*
X123321626Y-68278102D01*
X123243605Y-68089744D01*
X123130337Y-67920226D01*
X122986174Y-67776063D01*
X122816656Y-67662795D01*
X122762107Y-67640200D01*
X122767837Y-67640200D01*
X122809000Y-67644254D01*
X122850163Y-67640200D01*
X122850170Y-67640200D01*
X122973316Y-67628071D01*
X123131317Y-67580142D01*
X123276932Y-67502309D01*
X123404564Y-67397564D01*
X123430811Y-67365582D01*
X128912986Y-61883408D01*
X128925774Y-61947698D01*
X129003795Y-62136056D01*
X129117063Y-62305574D01*
X129261226Y-62449737D01*
X129430744Y-62563005D01*
X129619102Y-62641026D01*
X129819061Y-62680800D01*
X130022939Y-62680800D01*
X130222898Y-62641026D01*
X130411256Y-62563005D01*
X130411388Y-62562917D01*
X130482025Y-62668632D01*
X130688868Y-62875475D01*
X130863260Y-62992000D01*
X130688868Y-63108525D01*
X130482025Y-63315368D01*
X130319510Y-63558589D01*
X130207568Y-63828842D01*
X130201957Y-63857052D01*
X130099139Y-63836600D01*
X129895261Y-63836600D01*
X129695302Y-63876374D01*
X129506944Y-63954395D01*
X129337426Y-64067663D01*
X129193263Y-64211826D01*
X129079995Y-64381344D01*
X129001974Y-64569702D01*
X128962200Y-64769661D01*
X128962200Y-64973539D01*
X129001974Y-65173498D01*
X129079995Y-65361856D01*
X129193263Y-65531374D01*
X129337426Y-65675537D01*
X129506944Y-65788805D01*
X129695302Y-65866826D01*
X129895261Y-65906600D01*
X130099139Y-65906600D01*
X130152954Y-65895896D01*
X130147428Y-65952000D01*
X130147428Y-66406415D01*
X129997539Y-66376600D01*
X129793661Y-66376600D01*
X129593702Y-66416374D01*
X129405344Y-66494395D01*
X129235826Y-66607663D01*
X129091663Y-66751826D01*
X128978395Y-66921344D01*
X128900374Y-67109702D01*
X128860600Y-67309661D01*
X128860600Y-67513539D01*
X128900374Y-67713498D01*
X128978395Y-67901856D01*
X129091663Y-68071374D01*
X129235826Y-68215537D01*
X129405344Y-68328805D01*
X129593702Y-68406826D01*
X129793661Y-68446600D01*
X129997539Y-68446600D01*
X130197498Y-68406826D01*
X130385856Y-68328805D01*
X130504096Y-68249800D01*
X130568675Y-68249800D01*
X130661018Y-68277812D01*
X130785500Y-68290072D01*
X132485500Y-68290072D01*
X132609982Y-68277812D01*
X132729680Y-68241502D01*
X132839994Y-68182537D01*
X132936685Y-68103185D01*
X133016037Y-68006494D01*
X133075002Y-67896180D01*
X133111312Y-67776482D01*
X133123572Y-67652000D01*
X133123572Y-65952000D01*
X133111312Y-65827518D01*
X133075002Y-65707820D01*
X133016037Y-65597506D01*
X132936685Y-65500815D01*
X132839994Y-65421463D01*
X132729680Y-65362498D01*
X132657120Y-65340487D01*
X132788975Y-65208632D01*
X132951490Y-64965411D01*
X133063432Y-64695158D01*
X133120500Y-64408260D01*
X133120500Y-64115740D01*
X133063432Y-63828842D01*
X132951490Y-63558589D01*
X132788975Y-63315368D01*
X132582132Y-63108525D01*
X132407740Y-62992000D01*
X132582132Y-62875475D01*
X132788975Y-62668632D01*
X132951490Y-62425411D01*
X133063432Y-62155158D01*
X133120500Y-61868260D01*
X133120500Y-61575740D01*
X133063432Y-61288842D01*
X132951490Y-61018589D01*
X132835969Y-60845700D01*
X136210845Y-60845700D01*
X138857229Y-63492085D01*
X138883474Y-63524064D01*
X138915450Y-63550306D01*
X138915452Y-63550308D01*
X138973933Y-63598302D01*
X139011106Y-63628809D01*
X139156721Y-63706642D01*
X139314722Y-63754571D01*
X139437868Y-63766700D01*
X139437875Y-63766700D01*
X139479038Y-63770754D01*
X139520201Y-63766700D01*
X146845807Y-63766700D01*
X150799800Y-67720694D01*
X150799801Y-69479528D01*
X150788000Y-69479528D01*
X150663518Y-69491788D01*
X150543820Y-69528098D01*
X150433506Y-69587063D01*
X150336815Y-69666415D01*
X150257463Y-69763106D01*
X150198498Y-69873420D01*
X150162188Y-69993118D01*
X150149928Y-70117600D01*
X150149928Y-71817600D01*
X150162188Y-71942082D01*
X150198498Y-72061780D01*
X150257463Y-72172094D01*
X150336815Y-72268785D01*
X150433506Y-72348137D01*
X150543820Y-72407102D01*
X150663518Y-72443412D01*
X150788000Y-72455672D01*
X152488000Y-72455672D01*
X152612482Y-72443412D01*
X152732180Y-72407102D01*
X152842494Y-72348137D01*
X152939185Y-72268785D01*
X153018537Y-72172094D01*
X153077502Y-72061780D01*
X153099513Y-71989220D01*
X153231368Y-72121075D01*
X153474589Y-72283590D01*
X153744842Y-72395532D01*
X154031740Y-72452600D01*
X154324260Y-72452600D01*
X154611158Y-72395532D01*
X154881411Y-72283590D01*
X155124632Y-72121075D01*
X155193107Y-72052600D01*
X158295294Y-72052600D01*
X158454697Y-72036900D01*
X158659220Y-71974859D01*
X158847710Y-71874109D01*
X159012922Y-71738522D01*
X159148509Y-71573310D01*
X159249259Y-71384820D01*
X159311300Y-71180297D01*
X159332249Y-70967600D01*
X159311300Y-70754903D01*
X159249259Y-70550380D01*
X159148509Y-70361890D01*
X159012922Y-70196678D01*
X158847710Y-70061091D01*
X158659220Y-69960341D01*
X158454697Y-69898300D01*
X158295294Y-69882600D01*
X155193107Y-69882600D01*
X155124632Y-69814125D01*
X154881411Y-69651610D01*
X154611158Y-69539668D01*
X154324260Y-69482600D01*
X154031740Y-69482600D01*
X153744842Y-69539668D01*
X153474589Y-69651610D01*
X153231368Y-69814125D01*
X153099513Y-69945980D01*
X153077502Y-69873420D01*
X153018537Y-69763106D01*
X152939185Y-69666415D01*
X152842494Y-69587063D01*
X152732180Y-69528098D01*
X152612482Y-69491788D01*
X152488000Y-69479528D01*
X152476200Y-69479528D01*
X152476200Y-67414659D01*
X152480254Y-67373499D01*
X152476200Y-67332339D01*
X152476200Y-67332330D01*
X152464071Y-67209184D01*
X152416142Y-67051183D01*
X152338309Y-66905568D01*
X152318384Y-66881289D01*
X152259808Y-66809914D01*
X152259806Y-66809912D01*
X152233564Y-66777936D01*
X152201589Y-66751695D01*
X147814811Y-62364918D01*
X147788564Y-62332936D01*
X147660932Y-62228191D01*
X147515317Y-62150358D01*
X147357316Y-62102429D01*
X147234170Y-62090300D01*
X147234163Y-62090300D01*
X147193000Y-62086246D01*
X147151837Y-62090300D01*
X139826232Y-62090300D01*
X137179849Y-59443918D01*
X137153602Y-59411936D01*
X137025970Y-59307191D01*
X136880355Y-59229358D01*
X136722354Y-59181429D01*
X136599208Y-59169300D01*
X136599201Y-59169300D01*
X136558038Y-59165246D01*
X136516875Y-59169300D01*
X129644662Y-59169300D01*
X129603499Y-59165246D01*
X129562336Y-59169300D01*
X129562330Y-59169300D01*
X129439184Y-59181429D01*
X129281183Y-59229358D01*
X129135568Y-59307191D01*
X129007936Y-59411936D01*
X128981694Y-59443912D01*
X122468171Y-65957436D01*
X122359456Y-65884795D01*
X122171098Y-65806774D01*
X121971139Y-65767000D01*
X121767261Y-65767000D01*
X121567302Y-65806774D01*
X121378944Y-65884795D01*
X121209426Y-65998063D01*
X121065263Y-66142226D01*
X120951995Y-66311744D01*
X120873974Y-66500102D01*
X120834200Y-66700061D01*
X120834200Y-66903939D01*
X120873974Y-67103898D01*
X120951995Y-67292256D01*
X121065263Y-67461774D01*
X121209426Y-67605937D01*
X121378944Y-67719205D01*
X121567302Y-67797226D01*
X121632495Y-67810194D01*
X121522463Y-67920226D01*
X121409195Y-68089744D01*
X121331174Y-68278102D01*
X121303431Y-68417575D01*
X121051613Y-68669394D01*
X121019637Y-68695636D01*
X120993395Y-68727612D01*
X120993392Y-68727615D01*
X120914891Y-68823269D01*
X120837058Y-68968884D01*
X120789129Y-69126885D01*
X120772946Y-69291200D01*
X120777001Y-69332372D01*
X120777001Y-69987528D01*
X120765200Y-69987528D01*
X120640718Y-69999788D01*
X120521020Y-70036098D01*
X120410706Y-70095063D01*
X120314015Y-70174415D01*
X120234663Y-70271106D01*
X120175698Y-70381420D01*
X120139388Y-70501118D01*
X120127128Y-70625600D01*
X119824400Y-70625600D01*
X119824400Y-61800040D01*
X121911397Y-59713044D01*
X121992374Y-59658937D01*
X122136537Y-59514774D01*
X122190646Y-59433794D01*
X124153256Y-57471185D01*
X124153261Y-57471179D01*
X124254127Y-57370313D01*
X124292896Y-57338496D01*
X124419860Y-57183790D01*
X124514202Y-57007287D01*
X124572298Y-56815771D01*
X124587000Y-56666502D01*
X124591915Y-56616600D01*
X124587000Y-56566698D01*
X124587000Y-46228000D01*
X157278751Y-46228000D01*
X157299700Y-46440697D01*
X157361741Y-46645220D01*
X157462491Y-46833710D01*
X157598078Y-46998922D01*
X157763290Y-47134509D01*
X157951780Y-47235259D01*
X158156303Y-47297300D01*
X158315706Y-47313000D01*
X161856579Y-47313000D01*
X162663109Y-48119531D01*
X162697078Y-48160922D01*
X162738469Y-48194891D01*
X162738473Y-48194895D01*
X162791415Y-48238343D01*
X162862290Y-48296509D01*
X163050780Y-48397259D01*
X163193261Y-48440480D01*
X163255302Y-48459300D01*
X163275078Y-48461248D01*
X163414706Y-48475000D01*
X163414713Y-48475000D01*
X163467999Y-48480248D01*
X163521285Y-48475000D01*
X164748910Y-48475000D01*
X164697820Y-48490498D01*
X164587506Y-48549463D01*
X164490815Y-48628815D01*
X164411463Y-48725506D01*
X164352498Y-48835820D01*
X164349713Y-48845000D01*
X163287706Y-48845000D01*
X163128303Y-48860700D01*
X162923780Y-48922741D01*
X162735290Y-49023491D01*
X162570078Y-49159078D01*
X162434491Y-49324290D01*
X162333741Y-49512780D01*
X162271700Y-49717303D01*
X162250751Y-49930000D01*
X162271700Y-50142697D01*
X162333741Y-50347220D01*
X162434491Y-50535710D01*
X162570078Y-50700922D01*
X162735290Y-50836509D01*
X162897225Y-50923065D01*
X164331801Y-52357642D01*
X164331800Y-63702741D01*
X164312800Y-63798261D01*
X164312800Y-64002139D01*
X164352574Y-64202098D01*
X164430595Y-64390456D01*
X164543863Y-64559974D01*
X164688026Y-64704137D01*
X164857544Y-64817405D01*
X165045902Y-64895426D01*
X165245861Y-64935200D01*
X165449739Y-64935200D01*
X165649698Y-64895426D01*
X165838056Y-64817405D01*
X166007574Y-64704137D01*
X166151737Y-64559974D01*
X166265005Y-64390456D01*
X166343026Y-64202098D01*
X166382800Y-64002139D01*
X166382800Y-63798261D01*
X166363800Y-63702741D01*
X166363800Y-51986702D01*
X166368715Y-51936800D01*
X166349098Y-51737629D01*
X166291002Y-51546113D01*
X166278648Y-51523000D01*
X166222563Y-51418072D01*
X166642000Y-51418072D01*
X166766482Y-51405812D01*
X166886180Y-51369502D01*
X166996494Y-51310537D01*
X167093185Y-51231185D01*
X167172537Y-51134494D01*
X167231502Y-51024180D01*
X167234287Y-51015000D01*
X171977893Y-51015000D01*
X172079380Y-51116487D01*
X172006820Y-51138498D01*
X171896506Y-51197463D01*
X171799815Y-51276815D01*
X171720463Y-51373506D01*
X171661498Y-51483820D01*
X171658713Y-51493000D01*
X171269706Y-51493000D01*
X171110303Y-51508700D01*
X170905780Y-51570741D01*
X170717290Y-51671491D01*
X170552078Y-51807078D01*
X170416491Y-51972290D01*
X170315741Y-52160780D01*
X170253700Y-52365303D01*
X170232751Y-52578000D01*
X170253700Y-52790697D01*
X170315741Y-52995220D01*
X170416491Y-53183710D01*
X170552078Y-53348922D01*
X170717290Y-53484509D01*
X170905780Y-53585259D01*
X171110303Y-53647300D01*
X171269706Y-53663000D01*
X171658713Y-53663000D01*
X171661498Y-53672180D01*
X171720463Y-53782494D01*
X171799815Y-53879185D01*
X171896506Y-53958537D01*
X172006820Y-54017502D01*
X172126518Y-54053812D01*
X172251000Y-54066072D01*
X173951000Y-54066072D01*
X174075482Y-54053812D01*
X174195180Y-54017502D01*
X174305494Y-53958537D01*
X174402185Y-53879185D01*
X174481537Y-53782494D01*
X174540502Y-53672180D01*
X174576812Y-53552482D01*
X174589072Y-53428000D01*
X174589072Y-51728000D01*
X174576812Y-51603518D01*
X174540502Y-51483820D01*
X174481537Y-51373506D01*
X174402185Y-51276815D01*
X174305494Y-51197463D01*
X174195180Y-51138498D01*
X174122620Y-51116487D01*
X174254475Y-50984632D01*
X174416990Y-50741411D01*
X174528932Y-50471158D01*
X174586000Y-50184260D01*
X174586000Y-49891740D01*
X174528932Y-49604842D01*
X174416990Y-49334589D01*
X174254475Y-49091368D01*
X174047632Y-48884525D01*
X173804411Y-48722010D01*
X173534158Y-48610068D01*
X173247260Y-48553000D01*
X172954740Y-48553000D01*
X172667842Y-48610068D01*
X172397589Y-48722010D01*
X172213521Y-48845000D01*
X167234287Y-48845000D01*
X167231502Y-48835820D01*
X167172537Y-48725506D01*
X167093185Y-48628815D01*
X166996494Y-48549463D01*
X166886180Y-48490498D01*
X166813620Y-48468487D01*
X166945475Y-48336632D01*
X167107990Y-48093411D01*
X167219932Y-47823158D01*
X167277000Y-47536260D01*
X167277000Y-47243740D01*
X167219932Y-46956842D01*
X167107990Y-46686589D01*
X166945475Y-46443368D01*
X166738632Y-46236525D01*
X166564240Y-46120000D01*
X166738632Y-46003475D01*
X166945475Y-45796632D01*
X167107990Y-45553411D01*
X167219932Y-45283158D01*
X167277000Y-44996260D01*
X167277000Y-44703740D01*
X167219932Y-44416842D01*
X167107990Y-44146589D01*
X166945475Y-43903368D01*
X166738632Y-43696525D01*
X166495411Y-43534010D01*
X166225158Y-43422068D01*
X165938260Y-43365000D01*
X165645740Y-43365000D01*
X165358842Y-43422068D01*
X165088589Y-43534010D01*
X164845368Y-43696525D01*
X164656893Y-43885000D01*
X162621706Y-43885000D01*
X162462303Y-43900700D01*
X162257780Y-43962741D01*
X162069290Y-44063491D01*
X161904078Y-44199078D01*
X161768491Y-44364290D01*
X161667741Y-44552780D01*
X161605700Y-44757303D01*
X161584751Y-44970000D01*
X161601790Y-45143000D01*
X158315706Y-45143000D01*
X158156303Y-45158700D01*
X157951780Y-45220741D01*
X157763290Y-45321491D01*
X157598078Y-45457078D01*
X157462491Y-45622290D01*
X157361741Y-45810780D01*
X157299700Y-46015303D01*
X157278751Y-46228000D01*
X124587000Y-46228000D01*
X124587000Y-43377459D01*
X124606000Y-43281939D01*
X124606000Y-43078061D01*
X124566226Y-42878102D01*
X124488205Y-42689744D01*
X124374937Y-42520226D01*
X124230774Y-42376063D01*
X124061256Y-42262795D01*
X123872898Y-42184774D01*
X123672939Y-42145000D01*
X123469061Y-42145000D01*
X123269102Y-42184774D01*
X123080744Y-42262795D01*
X122911226Y-42376063D01*
X122767063Y-42520226D01*
X122653795Y-42689744D01*
X122575774Y-42878102D01*
X122536000Y-43078061D01*
X122536000Y-43281939D01*
X122555000Y-43377459D01*
X122555001Y-56195758D01*
X120753806Y-57996954D01*
X120672826Y-58051063D01*
X120528663Y-58195226D01*
X120474556Y-58276203D01*
X118254879Y-60495881D01*
X118190410Y-60530340D01*
X118035704Y-60657304D01*
X117908740Y-60812010D01*
X117882800Y-60860541D01*
X117882800Y-60850261D01*
X117843026Y-60650302D01*
X117765005Y-60461944D01*
X117651737Y-60292426D01*
X117507574Y-60148263D01*
X117338056Y-60034995D01*
X117149698Y-59956974D01*
X116949739Y-59917200D01*
X116745861Y-59917200D01*
X116545902Y-59956974D01*
X116357544Y-60034995D01*
X116188026Y-60148263D01*
X116043863Y-60292426D01*
X115989756Y-60373403D01*
X114632872Y-61730288D01*
X114594104Y-61762104D01*
X114467140Y-61916810D01*
X114372798Y-62093314D01*
X114327887Y-62241364D01*
X114314702Y-62284830D01*
X114295085Y-62484000D01*
X106189357Y-62484000D01*
X106175807Y-45689852D01*
X108951200Y-45689852D01*
X108951200Y-46258148D01*
X109062069Y-46815523D01*
X109279546Y-47340560D01*
X109595274Y-47813080D01*
X109997120Y-48214926D01*
X110469640Y-48530654D01*
X110994677Y-48748131D01*
X111552052Y-48859000D01*
X112120348Y-48859000D01*
X112677723Y-48748131D01*
X113202760Y-48530654D01*
X113675280Y-48214926D01*
X114077126Y-47813080D01*
X114392854Y-47340560D01*
X114610331Y-46815523D01*
X114721200Y-46258148D01*
X114721200Y-45689852D01*
X114610331Y-45132477D01*
X114392854Y-44607440D01*
X114077126Y-44134920D01*
X113675280Y-43733074D01*
X113202760Y-43417346D01*
X112677723Y-43199869D01*
X112120348Y-43089000D01*
X111552052Y-43089000D01*
X110994677Y-43199869D01*
X110469640Y-43417346D01*
X109997120Y-43733074D01*
X109595274Y-44134920D01*
X109279546Y-44607440D01*
X109062069Y-45132477D01*
X108951200Y-45689852D01*
X106175807Y-45689852D01*
X106171752Y-40664787D01*
X136349537Y-40673049D01*
G37*
G04 #@! TD.AperFunction*
M02*
