G04 #@! TF.GenerationSoftware,KiCad,Pcbnew,(5.1.9)-1*
G04 #@! TF.CreationDate,2021-04-08T22:29:13+02:00*
G04 #@! TF.ProjectId,MotorPCBZonderLevelShifter,4d6f746f-7250-4434-925a-6f6e6465724c,rev?*
G04 #@! TF.SameCoordinates,Original*
G04 #@! TF.FileFunction,Legend,Top*
G04 #@! TF.FilePolarity,Positive*
%FSLAX46Y46*%
G04 Gerber Fmt 4.6, Leading zero omitted, Abs format (unit mm)*
G04 Created by KiCad (PCBNEW (5.1.9)-1) date 2021-04-08 22:29:13*
%MOMM*%
%LPD*%
G01*
G04 APERTURE LIST*
%ADD10C,0.300000*%
%ADD11C,0.120000*%
%ADD12C,0.127000*%
G04 APERTURE END LIST*
D10*
X136908000Y-86859428D02*
X136836571Y-87002285D01*
X136836571Y-87216571D01*
X136908000Y-87430857D01*
X137050857Y-87573714D01*
X137193714Y-87645142D01*
X137479428Y-87716571D01*
X137693714Y-87716571D01*
X137979428Y-87645142D01*
X138122285Y-87573714D01*
X138265142Y-87430857D01*
X138336571Y-87216571D01*
X138336571Y-87073714D01*
X138265142Y-86859428D01*
X138193714Y-86788000D01*
X137693714Y-86788000D01*
X137693714Y-87073714D01*
X138336571Y-85430857D02*
X138336571Y-86145142D01*
X136836571Y-86145142D01*
X137550857Y-84930857D02*
X137550857Y-84430857D01*
X138336571Y-84216571D02*
X138336571Y-84930857D01*
X136836571Y-84930857D01*
X136836571Y-84216571D01*
X138336571Y-83573714D02*
X136836571Y-83573714D01*
X138336571Y-82716571D01*
X136836571Y-82716571D01*
X138265142Y-80930857D02*
X138336571Y-80716571D01*
X138336571Y-80359428D01*
X138265142Y-80216571D01*
X138193714Y-80145142D01*
X138050857Y-80073714D01*
X137908000Y-80073714D01*
X137765142Y-80145142D01*
X137693714Y-80216571D01*
X137622285Y-80359428D01*
X137550857Y-80645142D01*
X137479428Y-80788000D01*
X137408000Y-80859428D01*
X137265142Y-80930857D01*
X137122285Y-80930857D01*
X136979428Y-80859428D01*
X136908000Y-80788000D01*
X136836571Y-80645142D01*
X136836571Y-80288000D01*
X136908000Y-80073714D01*
X138336571Y-79430857D02*
X136836571Y-79430857D01*
X137908000Y-78930857D01*
X136836571Y-78430857D01*
X138336571Y-78430857D01*
X137550857Y-77716571D02*
X137550857Y-77216571D01*
X138336571Y-77002285D02*
X138336571Y-77716571D01*
X136836571Y-77716571D01*
X136836571Y-77002285D01*
X136836571Y-76573714D02*
X136836571Y-75716571D01*
X138336571Y-76145142D02*
X136836571Y-76145142D01*
X140886571Y-88966571D02*
X140886571Y-89680857D01*
X139386571Y-89680857D01*
X140886571Y-88466571D02*
X139386571Y-88466571D01*
X140815142Y-87823714D02*
X140886571Y-87609428D01*
X140886571Y-87252285D01*
X140815142Y-87109428D01*
X140743714Y-87038000D01*
X140600857Y-86966571D01*
X140458000Y-86966571D01*
X140315142Y-87038000D01*
X140243714Y-87109428D01*
X140172285Y-87252285D01*
X140100857Y-87538000D01*
X140029428Y-87680857D01*
X139958000Y-87752285D01*
X139815142Y-87823714D01*
X139672285Y-87823714D01*
X139529428Y-87752285D01*
X139458000Y-87680857D01*
X139386571Y-87538000D01*
X139386571Y-87180857D01*
X139458000Y-86966571D01*
X140458000Y-86395142D02*
X140458000Y-85680857D01*
X140886571Y-86538000D02*
X139386571Y-86038000D01*
X140886571Y-85538000D01*
X140886571Y-83895142D02*
X139386571Y-83895142D01*
X139386571Y-83538000D01*
X139458000Y-83323714D01*
X139600857Y-83180857D01*
X139743714Y-83109428D01*
X140029428Y-83038000D01*
X140243714Y-83038000D01*
X140529428Y-83109428D01*
X140672285Y-83180857D01*
X140815142Y-83323714D01*
X140886571Y-83538000D01*
X140886571Y-83895142D01*
X140100857Y-82395142D02*
X140100857Y-81895142D01*
X140886571Y-81680857D02*
X140886571Y-82395142D01*
X139386571Y-82395142D01*
X139386571Y-81680857D01*
X139386571Y-80109428D02*
X140886571Y-79609428D01*
X139386571Y-79109428D01*
X139386571Y-78609428D02*
X140600857Y-78609428D01*
X140743714Y-78538000D01*
X140815142Y-78466571D01*
X140886571Y-78323714D01*
X140886571Y-78038000D01*
X140815142Y-77895142D01*
X140743714Y-77823714D01*
X140600857Y-77752285D01*
X139386571Y-77752285D01*
X140172285Y-76752285D02*
X140886571Y-76752285D01*
X139386571Y-77252285D02*
X140172285Y-76752285D01*
X139386571Y-76252285D01*
X140815142Y-75823714D02*
X140886571Y-75609428D01*
X140886571Y-75252285D01*
X140815142Y-75109428D01*
X140743714Y-75038000D01*
X140600857Y-74966571D01*
X140458000Y-74966571D01*
X140315142Y-75038000D01*
X140243714Y-75109428D01*
X140172285Y-75252285D01*
X140100857Y-75538000D01*
X140029428Y-75680857D01*
X139958000Y-75752285D01*
X139815142Y-75823714D01*
X139672285Y-75823714D01*
X139529428Y-75752285D01*
X139458000Y-75680857D01*
X139386571Y-75538000D01*
X139386571Y-75180857D01*
X139458000Y-74966571D01*
X139386571Y-74538000D02*
X139386571Y-73680857D01*
X140886571Y-74109428D02*
X139386571Y-74109428D01*
X141936571Y-87930857D02*
X141936571Y-88645142D01*
X142650857Y-88716571D01*
X142579428Y-88645142D01*
X142508000Y-88502285D01*
X142508000Y-88145142D01*
X142579428Y-88002285D01*
X142650857Y-87930857D01*
X142793714Y-87859428D01*
X143150857Y-87859428D01*
X143293714Y-87930857D01*
X143365142Y-88002285D01*
X143436571Y-88145142D01*
X143436571Y-88502285D01*
X143365142Y-88645142D01*
X143293714Y-88716571D01*
X142008000Y-86430857D02*
X141936571Y-86573714D01*
X141936571Y-86788000D01*
X142008000Y-87002285D01*
X142150857Y-87145142D01*
X142293714Y-87216571D01*
X142579428Y-87288000D01*
X142793714Y-87288000D01*
X143079428Y-87216571D01*
X143222285Y-87145142D01*
X143365142Y-87002285D01*
X143436571Y-86788000D01*
X143436571Y-86645142D01*
X143365142Y-86430857D01*
X143293714Y-86359428D01*
X142793714Y-86359428D01*
X142793714Y-86645142D01*
X143365142Y-84645142D02*
X143436571Y-84430857D01*
X143436571Y-84073714D01*
X143365142Y-83930857D01*
X143293714Y-83859428D01*
X143150857Y-83788000D01*
X143008000Y-83788000D01*
X142865142Y-83859428D01*
X142793714Y-83930857D01*
X142722285Y-84073714D01*
X142650857Y-84359428D01*
X142579428Y-84502285D01*
X142508000Y-84573714D01*
X142365142Y-84645142D01*
X142222285Y-84645142D01*
X142079428Y-84573714D01*
X142008000Y-84502285D01*
X141936571Y-84359428D01*
X141936571Y-84002285D01*
X142008000Y-83788000D01*
X141936571Y-83359428D02*
X141936571Y-82502285D01*
X143436571Y-82930857D02*
X141936571Y-82930857D01*
X143436571Y-81145142D02*
X142722285Y-81645142D01*
X143436571Y-82002285D02*
X141936571Y-82002285D01*
X141936571Y-81430857D01*
X142008000Y-81288000D01*
X142079428Y-81216571D01*
X142222285Y-81145142D01*
X142436571Y-81145142D01*
X142579428Y-81216571D01*
X142650857Y-81288000D01*
X142722285Y-81430857D01*
X142722285Y-82002285D01*
X143008000Y-80573714D02*
X143008000Y-79859428D01*
X143436571Y-80716571D02*
X141936571Y-80216571D01*
X143436571Y-79716571D01*
X143436571Y-78502285D02*
X143436571Y-79216571D01*
X141936571Y-79216571D01*
X143436571Y-78002285D02*
X141936571Y-78002285D01*
X143436571Y-77288000D02*
X141936571Y-77288000D01*
X143436571Y-76430857D01*
X141936571Y-76430857D01*
X142008000Y-74930857D02*
X141936571Y-75073714D01*
X141936571Y-75288000D01*
X142008000Y-75502285D01*
X142150857Y-75645142D01*
X142293714Y-75716571D01*
X142579428Y-75788000D01*
X142793714Y-75788000D01*
X143079428Y-75716571D01*
X143222285Y-75645142D01*
X143365142Y-75502285D01*
X143436571Y-75288000D01*
X143436571Y-75145142D01*
X143365142Y-74930857D01*
X143293714Y-74859428D01*
X142793714Y-74859428D01*
X142793714Y-75145142D01*
X146490571Y-67583714D02*
X147704857Y-67583714D01*
X147847714Y-67655142D01*
X147919142Y-67726571D01*
X147990571Y-67869428D01*
X147990571Y-68083714D01*
X147919142Y-68226571D01*
X147419142Y-67583714D02*
X147490571Y-67726571D01*
X147490571Y-68012285D01*
X147419142Y-68155142D01*
X147347714Y-68226571D01*
X147204857Y-68298000D01*
X146776285Y-68298000D01*
X146633428Y-68226571D01*
X146562000Y-68155142D01*
X146490571Y-68012285D01*
X146490571Y-67726571D01*
X146562000Y-67583714D01*
X146490571Y-66869428D02*
X147490571Y-66869428D01*
X146633428Y-66869428D02*
X146562000Y-66798000D01*
X146490571Y-66655142D01*
X146490571Y-66440857D01*
X146562000Y-66298000D01*
X146704857Y-66226571D01*
X147490571Y-66226571D01*
X147490571Y-64869428D02*
X145990571Y-64869428D01*
X147419142Y-64869428D02*
X147490571Y-65012285D01*
X147490571Y-65298000D01*
X147419142Y-65440857D01*
X147347714Y-65512285D01*
X147204857Y-65583714D01*
X146776285Y-65583714D01*
X146633428Y-65512285D01*
X146562000Y-65440857D01*
X146490571Y-65298000D01*
X146490571Y-65012285D01*
X146562000Y-64869428D01*
X139870571Y-72719142D02*
X138370571Y-72719142D01*
X138370571Y-72147714D01*
X138442000Y-72004857D01*
X138513428Y-71933428D01*
X138656285Y-71862000D01*
X138870571Y-71862000D01*
X139013428Y-71933428D01*
X139084857Y-72004857D01*
X139156285Y-72147714D01*
X139156285Y-72719142D01*
X138370571Y-71362000D02*
X139870571Y-71004857D01*
X138799142Y-70719142D01*
X139870571Y-70433428D01*
X138370571Y-70076285D01*
X139870571Y-69504857D02*
X138370571Y-69504857D01*
X139442000Y-69004857D01*
X138370571Y-68504857D01*
X139870571Y-68504857D01*
X137096571Y-99675142D02*
X138239428Y-99675142D01*
X137668000Y-100246571D02*
X137668000Y-99103714D01*
X144335428Y-99675142D02*
X143192571Y-99675142D01*
D11*
X132825001Y-84995001D02*
X134155001Y-84995001D01*
X134155001Y-84995001D02*
X134155001Y-86325001D01*
X134155001Y-87595001D02*
X134155001Y-97815001D01*
X131495001Y-97815001D02*
X134155001Y-97815001D01*
X131495001Y-87595001D02*
X131495001Y-97815001D01*
X131495001Y-87595001D02*
X134155001Y-87595001D01*
X131470000Y-72185000D02*
X134130000Y-72185000D01*
X131470000Y-72185000D02*
X131470000Y-82405000D01*
X131470000Y-82405000D02*
X134130000Y-82405000D01*
X134130000Y-72185000D02*
X134130000Y-82405000D01*
X134130000Y-69585000D02*
X134130000Y-70915000D01*
X132800000Y-69585000D02*
X134130000Y-69585000D01*
X149000000Y-69510000D02*
X150330000Y-69510000D01*
X150330000Y-69510000D02*
X150330000Y-70840000D01*
X150330000Y-72110000D02*
X150330000Y-82330000D01*
X147670000Y-82330000D02*
X150330000Y-82330000D01*
X147670000Y-72110000D02*
X147670000Y-82330000D01*
X147670000Y-72110000D02*
X150330000Y-72110000D01*
X147670000Y-87770000D02*
X150330000Y-87770000D01*
X147670000Y-87770000D02*
X147670000Y-97990000D01*
X147670000Y-97990000D02*
X150330000Y-97990000D01*
X150330000Y-87770000D02*
X150330000Y-97990000D01*
X150330000Y-85170000D02*
X150330000Y-86500000D01*
X149000000Y-85170000D02*
X150330000Y-85170000D01*
X145830000Y-66500000D02*
X145830000Y-67830000D01*
X145830000Y-67830000D02*
X144500000Y-67830000D01*
X143230000Y-67830000D02*
X135550000Y-67830000D01*
X135550000Y-65170000D02*
X135550000Y-67830000D01*
X143230000Y-65170000D02*
X135550000Y-65170000D01*
X143230000Y-65170000D02*
X143230000Y-67830000D01*
D12*
X136001280Y-90501660D02*
X145998720Y-90501660D01*
X145998720Y-90501660D02*
X145998720Y-98098800D01*
X145998720Y-98098800D02*
X136001280Y-98098800D01*
X136001280Y-98098800D02*
X136001280Y-92500640D01*
X136001280Y-92500640D02*
X136001280Y-92000260D01*
X136001280Y-92000260D02*
X136001280Y-90501660D01*
X136001280Y-92500640D02*
X135500900Y-92500640D01*
X135500900Y-92500640D02*
X135500900Y-92000260D01*
X135500900Y-92000260D02*
X136001280Y-92000260D01*
X138188220Y-98825240D02*
X138505720Y-98350260D01*
X138505720Y-98350260D02*
X138823220Y-98825240D01*
X138823220Y-98825240D02*
X138188220Y-98825240D01*
M02*
