G04 #@! TF.GenerationSoftware,KiCad,Pcbnew,(5.1.9)-1*
G04 #@! TF.CreationDate,2021-04-08T22:29:13+02:00*
G04 #@! TF.ProjectId,MotorPCBZonderLevelShifter,4d6f746f-7250-4434-925a-6f6e6465724c,rev?*
G04 #@! TF.SameCoordinates,Original*
G04 #@! TF.FileFunction,Copper,L1,Top*
G04 #@! TF.FilePolarity,Positive*
%FSLAX46Y46*%
G04 Gerber Fmt 4.6, Leading zero omitted, Abs format (unit mm)*
G04 Created by KiCad (PCBNEW (5.1.9)-1) date 2021-04-08 22:29:13*
%MOMM*%
%LPD*%
G01*
G04 APERTURE LIST*
G04 #@! TA.AperFunction,ComponentPad*
%ADD10R,1.700000X1.700000*%
G04 #@! TD*
G04 #@! TA.AperFunction,ComponentPad*
%ADD11O,1.700000X1.700000*%
G04 #@! TD*
G04 #@! TA.AperFunction,ComponentPad*
%ADD12O,2.098040X4.198620*%
G04 #@! TD*
G04 #@! TA.AperFunction,ViaPad*
%ADD13C,0.800000*%
G04 #@! TD*
G04 #@! TA.AperFunction,Conductor*
%ADD14C,1.016000*%
G04 #@! TD*
G04 #@! TA.AperFunction,Conductor*
%ADD15C,0.254000*%
G04 #@! TD*
G04 #@! TA.AperFunction,Conductor*
%ADD16C,0.100000*%
G04 #@! TD*
G04 APERTURE END LIST*
D10*
X132825001Y-86325001D03*
D11*
X132825001Y-88865001D03*
X132825001Y-91405001D03*
X132825001Y-93945001D03*
X132825001Y-96485001D03*
X132800000Y-81075000D03*
X132800000Y-78535000D03*
X132800000Y-75995000D03*
X132800000Y-73455000D03*
D10*
X132800000Y-70915000D03*
X149000000Y-70840000D03*
D11*
X149000000Y-73380000D03*
X149000000Y-75920000D03*
X149000000Y-78460000D03*
X149000000Y-81000000D03*
X149000000Y-96660000D03*
X149000000Y-94120000D03*
X149000000Y-91580000D03*
X149000000Y-89040000D03*
D10*
X149000000Y-86500000D03*
X144500000Y-66500000D03*
D11*
X141960000Y-66500000D03*
X139420000Y-66500000D03*
X136880000Y-66500000D03*
D12*
X138500640Y-95000000D03*
X143499360Y-95000000D03*
D13*
X144780000Y-71120000D03*
X140716000Y-81280000D03*
X140716000Y-86360000D03*
D14*
X132800000Y-86300000D02*
X132825001Y-86325001D01*
X148825001Y-86325001D02*
X149000000Y-86500000D01*
X140716000Y-75184000D02*
X144780000Y-71120000D01*
X140716000Y-81280000D02*
X140716000Y-75184000D01*
D15*
X150560920Y-63291074D02*
X150159074Y-63692920D01*
X149843346Y-64165440D01*
X149625869Y-64690477D01*
X149515000Y-65247852D01*
X149515000Y-65816148D01*
X149625869Y-66373523D01*
X149843346Y-66898560D01*
X150159074Y-67371080D01*
X150560920Y-67772926D01*
X151033440Y-68088654D01*
X151558477Y-68306131D01*
X152115852Y-68417000D01*
X152684148Y-68417000D01*
X153241523Y-68306131D01*
X153766560Y-68088654D01*
X154239080Y-67772926D01*
X154640926Y-67371080D01*
X154815000Y-67110560D01*
X154815001Y-98497441D01*
X154640926Y-98236920D01*
X154239080Y-97835074D01*
X153766560Y-97519346D01*
X153241523Y-97301869D01*
X152684148Y-97191000D01*
X152115852Y-97191000D01*
X151558477Y-97301869D01*
X151033440Y-97519346D01*
X150560920Y-97835074D01*
X150159074Y-98236920D01*
X149843346Y-98709440D01*
X149625869Y-99234477D01*
X149515000Y-99791852D01*
X149515000Y-100360148D01*
X149625869Y-100917523D01*
X149843346Y-101442560D01*
X150159074Y-101915080D01*
X150558994Y-102315000D01*
X131381006Y-102315000D01*
X131780926Y-101915080D01*
X132096654Y-101442560D01*
X132314131Y-100917523D01*
X132425000Y-100360148D01*
X132425000Y-99791852D01*
X132314131Y-99234477D01*
X132096654Y-98709440D01*
X131780926Y-98236920D01*
X131379080Y-97835074D01*
X130906560Y-97519346D01*
X130381523Y-97301869D01*
X129824148Y-97191000D01*
X129255852Y-97191000D01*
X128698477Y-97301869D01*
X128173440Y-97519346D01*
X127700920Y-97835074D01*
X127299074Y-98236920D01*
X127185000Y-98407644D01*
X127185000Y-88718741D01*
X131340001Y-88718741D01*
X131340001Y-89011261D01*
X131397069Y-89298159D01*
X131509011Y-89568412D01*
X131671526Y-89811633D01*
X131878369Y-90018476D01*
X132052761Y-90135001D01*
X131878369Y-90251526D01*
X131671526Y-90458369D01*
X131509011Y-90701590D01*
X131397069Y-90971843D01*
X131340001Y-91258741D01*
X131340001Y-91551261D01*
X131397069Y-91838159D01*
X131509011Y-92108412D01*
X131671526Y-92351633D01*
X131878369Y-92558476D01*
X132052761Y-92675001D01*
X131878369Y-92791526D01*
X131671526Y-92998369D01*
X131509011Y-93241590D01*
X131397069Y-93511843D01*
X131340001Y-93798741D01*
X131340001Y-94091261D01*
X131397069Y-94378159D01*
X131509011Y-94648412D01*
X131671526Y-94891633D01*
X131878369Y-95098476D01*
X132052761Y-95215001D01*
X131878369Y-95331526D01*
X131671526Y-95538369D01*
X131509011Y-95781590D01*
X131397069Y-96051843D01*
X131340001Y-96338741D01*
X131340001Y-96631261D01*
X131397069Y-96918159D01*
X131509011Y-97188412D01*
X131671526Y-97431633D01*
X131878369Y-97638476D01*
X132121590Y-97800991D01*
X132391843Y-97912933D01*
X132678741Y-97970001D01*
X132971261Y-97970001D01*
X133258159Y-97912933D01*
X133528412Y-97800991D01*
X133771633Y-97638476D01*
X133978476Y-97431633D01*
X134140991Y-97188412D01*
X134252933Y-96918159D01*
X134310001Y-96631261D01*
X134310001Y-96338741D01*
X134269080Y-96133016D01*
X136816620Y-96133016D01*
X136840987Y-96380415D01*
X136937281Y-96697854D01*
X137093654Y-96990407D01*
X137304097Y-97246833D01*
X137560522Y-97457276D01*
X137853075Y-97613649D01*
X138170514Y-97709943D01*
X138500640Y-97742458D01*
X138830765Y-97709943D01*
X139148204Y-97613649D01*
X139440757Y-97457276D01*
X139697183Y-97246833D01*
X139907626Y-96990408D01*
X140063999Y-96697855D01*
X140160293Y-96380416D01*
X140184660Y-96133017D01*
X140184660Y-93866983D01*
X140160293Y-93619584D01*
X140063999Y-93302145D01*
X139907626Y-93009592D01*
X139697183Y-92753167D01*
X139440758Y-92542724D01*
X139148205Y-92386351D01*
X138830766Y-92290057D01*
X138500640Y-92257542D01*
X138170515Y-92290057D01*
X137853076Y-92386351D01*
X137560523Y-92542724D01*
X137304098Y-92753167D01*
X137093655Y-93009592D01*
X136937282Y-93302145D01*
X136840988Y-93619584D01*
X136816621Y-93866983D01*
X136816620Y-96133016D01*
X134269080Y-96133016D01*
X134252933Y-96051843D01*
X134140991Y-95781590D01*
X133978476Y-95538369D01*
X133771633Y-95331526D01*
X133597241Y-95215001D01*
X133771633Y-95098476D01*
X133978476Y-94891633D01*
X134140991Y-94648412D01*
X134252933Y-94378159D01*
X134310001Y-94091261D01*
X134310001Y-93798741D01*
X134252933Y-93511843D01*
X134140991Y-93241590D01*
X133978476Y-92998369D01*
X133771633Y-92791526D01*
X133597241Y-92675001D01*
X133771633Y-92558476D01*
X133978476Y-92351633D01*
X134140991Y-92108412D01*
X134252933Y-91838159D01*
X134310001Y-91551261D01*
X134310001Y-91258741D01*
X134252933Y-90971843D01*
X134140991Y-90701590D01*
X133978476Y-90458369D01*
X133771633Y-90251526D01*
X133597241Y-90135001D01*
X133771633Y-90018476D01*
X133978476Y-89811633D01*
X134140991Y-89568412D01*
X134252933Y-89298159D01*
X134310001Y-89011261D01*
X134310001Y-88893740D01*
X147515000Y-88893740D01*
X147515000Y-89186260D01*
X147572068Y-89473158D01*
X147684010Y-89743411D01*
X147846525Y-89986632D01*
X148053368Y-90193475D01*
X148227760Y-90310000D01*
X148053368Y-90426525D01*
X147846525Y-90633368D01*
X147684010Y-90876589D01*
X147572068Y-91146842D01*
X147515000Y-91433740D01*
X147515000Y-91726260D01*
X147572068Y-92013158D01*
X147684010Y-92283411D01*
X147846525Y-92526632D01*
X148053368Y-92733475D01*
X148227760Y-92850000D01*
X148053368Y-92966525D01*
X147846525Y-93173368D01*
X147684010Y-93416589D01*
X147572068Y-93686842D01*
X147515000Y-93973740D01*
X147515000Y-94266260D01*
X147572068Y-94553158D01*
X147684010Y-94823411D01*
X147846525Y-95066632D01*
X148053368Y-95273475D01*
X148227760Y-95390000D01*
X148053368Y-95506525D01*
X147846525Y-95713368D01*
X147684010Y-95956589D01*
X147572068Y-96226842D01*
X147515000Y-96513740D01*
X147515000Y-96806260D01*
X147572068Y-97093158D01*
X147684010Y-97363411D01*
X147846525Y-97606632D01*
X148053368Y-97813475D01*
X148296589Y-97975990D01*
X148566842Y-98087932D01*
X148853740Y-98145000D01*
X149146260Y-98145000D01*
X149433158Y-98087932D01*
X149703411Y-97975990D01*
X149946632Y-97813475D01*
X150153475Y-97606632D01*
X150315990Y-97363411D01*
X150427932Y-97093158D01*
X150485000Y-96806260D01*
X150485000Y-96513740D01*
X150427932Y-96226842D01*
X150315990Y-95956589D01*
X150153475Y-95713368D01*
X149946632Y-95506525D01*
X149772240Y-95390000D01*
X149946632Y-95273475D01*
X150153475Y-95066632D01*
X150315990Y-94823411D01*
X150427932Y-94553158D01*
X150485000Y-94266260D01*
X150485000Y-93973740D01*
X150427932Y-93686842D01*
X150315990Y-93416589D01*
X150153475Y-93173368D01*
X149946632Y-92966525D01*
X149772240Y-92850000D01*
X149946632Y-92733475D01*
X150153475Y-92526632D01*
X150315990Y-92283411D01*
X150427932Y-92013158D01*
X150485000Y-91726260D01*
X150485000Y-91433740D01*
X150427932Y-91146842D01*
X150315990Y-90876589D01*
X150153475Y-90633368D01*
X149946632Y-90426525D01*
X149772240Y-90310000D01*
X149946632Y-90193475D01*
X150153475Y-89986632D01*
X150315990Y-89743411D01*
X150427932Y-89473158D01*
X150485000Y-89186260D01*
X150485000Y-88893740D01*
X150427932Y-88606842D01*
X150315990Y-88336589D01*
X150153475Y-88093368D01*
X149946632Y-87886525D01*
X149703411Y-87724010D01*
X149433158Y-87612068D01*
X149146260Y-87555000D01*
X148853740Y-87555000D01*
X148566842Y-87612068D01*
X148296589Y-87724010D01*
X148053368Y-87886525D01*
X147846525Y-88093368D01*
X147684010Y-88336589D01*
X147572068Y-88606842D01*
X147515000Y-88893740D01*
X134310001Y-88893740D01*
X134310001Y-88718741D01*
X134252933Y-88431843D01*
X134140991Y-88161590D01*
X133978476Y-87918369D01*
X133771633Y-87711526D01*
X133528412Y-87549011D01*
X133258159Y-87437069D01*
X132971261Y-87380001D01*
X132678741Y-87380001D01*
X132391843Y-87437069D01*
X132121590Y-87549011D01*
X131878369Y-87711526D01*
X131671526Y-87918369D01*
X131509011Y-88161590D01*
X131397069Y-88431843D01*
X131340001Y-88718741D01*
X127185000Y-88718741D01*
X127185000Y-70065000D01*
X131311928Y-70065000D01*
X131311928Y-71765000D01*
X131324188Y-71889482D01*
X131360498Y-72009180D01*
X131419463Y-72119494D01*
X131498815Y-72216185D01*
X131595506Y-72295537D01*
X131705820Y-72354502D01*
X131778380Y-72376513D01*
X131646525Y-72508368D01*
X131484010Y-72751589D01*
X131372068Y-73021842D01*
X131315000Y-73308740D01*
X131315000Y-73601260D01*
X131372068Y-73888158D01*
X131484010Y-74158411D01*
X131646525Y-74401632D01*
X131853368Y-74608475D01*
X132027760Y-74725000D01*
X131853368Y-74841525D01*
X131646525Y-75048368D01*
X131484010Y-75291589D01*
X131372068Y-75561842D01*
X131315000Y-75848740D01*
X131315000Y-76141260D01*
X131372068Y-76428158D01*
X131484010Y-76698411D01*
X131646525Y-76941632D01*
X131853368Y-77148475D01*
X132027760Y-77265000D01*
X131853368Y-77381525D01*
X131646525Y-77588368D01*
X131484010Y-77831589D01*
X131372068Y-78101842D01*
X131315000Y-78388740D01*
X131315000Y-78681260D01*
X131372068Y-78968158D01*
X131484010Y-79238411D01*
X131646525Y-79481632D01*
X131853368Y-79688475D01*
X132096589Y-79850990D01*
X132366842Y-79962932D01*
X132653740Y-80020000D01*
X132946260Y-80020000D01*
X133233158Y-79962932D01*
X133503411Y-79850990D01*
X133746632Y-79688475D01*
X133953475Y-79481632D01*
X134115990Y-79238411D01*
X134227932Y-78968158D01*
X134285000Y-78681260D01*
X134285000Y-78388740D01*
X134227932Y-78101842D01*
X134115990Y-77831589D01*
X133953475Y-77588368D01*
X133746632Y-77381525D01*
X133572240Y-77265000D01*
X133746632Y-77148475D01*
X133953475Y-76941632D01*
X134115990Y-76698411D01*
X134227932Y-76428158D01*
X134285000Y-76141260D01*
X134285000Y-75848740D01*
X134227932Y-75561842D01*
X134115990Y-75291589D01*
X133953475Y-75048368D01*
X133746632Y-74841525D01*
X133572240Y-74725000D01*
X133746632Y-74608475D01*
X133953475Y-74401632D01*
X134115990Y-74158411D01*
X134227932Y-73888158D01*
X134285000Y-73601260D01*
X134285000Y-73308740D01*
X134227932Y-73021842D01*
X134115990Y-72751589D01*
X133953475Y-72508368D01*
X133821620Y-72376513D01*
X133894180Y-72354502D01*
X134004494Y-72295537D01*
X134101185Y-72216185D01*
X134180537Y-72119494D01*
X134239502Y-72009180D01*
X134275812Y-71889482D01*
X134288072Y-71765000D01*
X134288072Y-70065000D01*
X134280686Y-69990000D01*
X147511928Y-69990000D01*
X147511928Y-71690000D01*
X147524188Y-71814482D01*
X147560498Y-71934180D01*
X147619463Y-72044494D01*
X147698815Y-72141185D01*
X147795506Y-72220537D01*
X147905820Y-72279502D01*
X147978380Y-72301513D01*
X147846525Y-72433368D01*
X147684010Y-72676589D01*
X147572068Y-72946842D01*
X147515000Y-73233740D01*
X147515000Y-73526260D01*
X147572068Y-73813158D01*
X147684010Y-74083411D01*
X147846525Y-74326632D01*
X148053368Y-74533475D01*
X148227760Y-74650000D01*
X148053368Y-74766525D01*
X147846525Y-74973368D01*
X147684010Y-75216589D01*
X147572068Y-75486842D01*
X147515000Y-75773740D01*
X147515000Y-76066260D01*
X147572068Y-76353158D01*
X147684010Y-76623411D01*
X147846525Y-76866632D01*
X148053368Y-77073475D01*
X148227760Y-77190000D01*
X148053368Y-77306525D01*
X147846525Y-77513368D01*
X147684010Y-77756589D01*
X147572068Y-78026842D01*
X147515000Y-78313740D01*
X147515000Y-78606260D01*
X147572068Y-78893158D01*
X147684010Y-79163411D01*
X147846525Y-79406632D01*
X148053368Y-79613475D01*
X148296589Y-79775990D01*
X148566842Y-79887932D01*
X148853740Y-79945000D01*
X149146260Y-79945000D01*
X149433158Y-79887932D01*
X149703411Y-79775990D01*
X149946632Y-79613475D01*
X150153475Y-79406632D01*
X150315990Y-79163411D01*
X150427932Y-78893158D01*
X150485000Y-78606260D01*
X150485000Y-78313740D01*
X150427932Y-78026842D01*
X150315990Y-77756589D01*
X150153475Y-77513368D01*
X149946632Y-77306525D01*
X149772240Y-77190000D01*
X149946632Y-77073475D01*
X150153475Y-76866632D01*
X150315990Y-76623411D01*
X150427932Y-76353158D01*
X150485000Y-76066260D01*
X150485000Y-75773740D01*
X150427932Y-75486842D01*
X150315990Y-75216589D01*
X150153475Y-74973368D01*
X149946632Y-74766525D01*
X149772240Y-74650000D01*
X149946632Y-74533475D01*
X150153475Y-74326632D01*
X150315990Y-74083411D01*
X150427932Y-73813158D01*
X150485000Y-73526260D01*
X150485000Y-73233740D01*
X150427932Y-72946842D01*
X150315990Y-72676589D01*
X150153475Y-72433368D01*
X150021620Y-72301513D01*
X150094180Y-72279502D01*
X150204494Y-72220537D01*
X150301185Y-72141185D01*
X150380537Y-72044494D01*
X150439502Y-71934180D01*
X150475812Y-71814482D01*
X150488072Y-71690000D01*
X150488072Y-69990000D01*
X150475812Y-69865518D01*
X150439502Y-69745820D01*
X150380537Y-69635506D01*
X150301185Y-69538815D01*
X150204494Y-69459463D01*
X150094180Y-69400498D01*
X149974482Y-69364188D01*
X149850000Y-69351928D01*
X148150000Y-69351928D01*
X148025518Y-69364188D01*
X147905820Y-69400498D01*
X147795506Y-69459463D01*
X147698815Y-69538815D01*
X147619463Y-69635506D01*
X147560498Y-69745820D01*
X147524188Y-69865518D01*
X147511928Y-69990000D01*
X134280686Y-69990000D01*
X134275812Y-69940518D01*
X134239502Y-69820820D01*
X134180537Y-69710506D01*
X134101185Y-69613815D01*
X134004494Y-69534463D01*
X133894180Y-69475498D01*
X133774482Y-69439188D01*
X133650000Y-69426928D01*
X131950000Y-69426928D01*
X131825518Y-69439188D01*
X131705820Y-69475498D01*
X131595506Y-69534463D01*
X131498815Y-69613815D01*
X131419463Y-69710506D01*
X131360498Y-69820820D01*
X131324188Y-69940518D01*
X131311928Y-70065000D01*
X127185000Y-70065000D01*
X127185000Y-67200356D01*
X127299074Y-67371080D01*
X127700920Y-67772926D01*
X128173440Y-68088654D01*
X128698477Y-68306131D01*
X129255852Y-68417000D01*
X129824148Y-68417000D01*
X130381523Y-68306131D01*
X130906560Y-68088654D01*
X131379080Y-67772926D01*
X131780926Y-67371080D01*
X132096654Y-66898560D01*
X132314131Y-66373523D01*
X132318066Y-66353740D01*
X135395000Y-66353740D01*
X135395000Y-66646260D01*
X135452068Y-66933158D01*
X135564010Y-67203411D01*
X135726525Y-67446632D01*
X135933368Y-67653475D01*
X136176589Y-67815990D01*
X136446842Y-67927932D01*
X136733740Y-67985000D01*
X137026260Y-67985000D01*
X137313158Y-67927932D01*
X137583411Y-67815990D01*
X137826632Y-67653475D01*
X138033475Y-67446632D01*
X138150000Y-67272240D01*
X138266525Y-67446632D01*
X138473368Y-67653475D01*
X138716589Y-67815990D01*
X138986842Y-67927932D01*
X139273740Y-67985000D01*
X139566260Y-67985000D01*
X139853158Y-67927932D01*
X140123411Y-67815990D01*
X140366632Y-67653475D01*
X140573475Y-67446632D01*
X140690000Y-67272240D01*
X140806525Y-67446632D01*
X141013368Y-67653475D01*
X141256589Y-67815990D01*
X141526842Y-67927932D01*
X141813740Y-67985000D01*
X142106260Y-67985000D01*
X142393158Y-67927932D01*
X142663411Y-67815990D01*
X142906632Y-67653475D01*
X143113475Y-67446632D01*
X143275990Y-67203411D01*
X143387932Y-66933158D01*
X143445000Y-66646260D01*
X143445000Y-66353740D01*
X143387932Y-66066842D01*
X143275990Y-65796589D01*
X143113475Y-65553368D01*
X142906632Y-65346525D01*
X142663411Y-65184010D01*
X142393158Y-65072068D01*
X142106260Y-65015000D01*
X141813740Y-65015000D01*
X141526842Y-65072068D01*
X141256589Y-65184010D01*
X141013368Y-65346525D01*
X140806525Y-65553368D01*
X140690000Y-65727760D01*
X140573475Y-65553368D01*
X140366632Y-65346525D01*
X140123411Y-65184010D01*
X139853158Y-65072068D01*
X139566260Y-65015000D01*
X139273740Y-65015000D01*
X138986842Y-65072068D01*
X138716589Y-65184010D01*
X138473368Y-65346525D01*
X138266525Y-65553368D01*
X138150000Y-65727760D01*
X138033475Y-65553368D01*
X137826632Y-65346525D01*
X137583411Y-65184010D01*
X137313158Y-65072068D01*
X137026260Y-65015000D01*
X136733740Y-65015000D01*
X136446842Y-65072068D01*
X136176589Y-65184010D01*
X135933368Y-65346525D01*
X135726525Y-65553368D01*
X135564010Y-65796589D01*
X135452068Y-66066842D01*
X135395000Y-66353740D01*
X132318066Y-66353740D01*
X132425000Y-65816148D01*
X132425000Y-65247852D01*
X132314131Y-64690477D01*
X132096654Y-64165440D01*
X131780926Y-63692920D01*
X131379080Y-63291074D01*
X131220329Y-63185000D01*
X150719671Y-63185000D01*
X150560920Y-63291074D01*
G04 #@! TA.AperFunction,Conductor*
D16*
G36*
X150560920Y-63291074D02*
G01*
X150159074Y-63692920D01*
X149843346Y-64165440D01*
X149625869Y-64690477D01*
X149515000Y-65247852D01*
X149515000Y-65816148D01*
X149625869Y-66373523D01*
X149843346Y-66898560D01*
X150159074Y-67371080D01*
X150560920Y-67772926D01*
X151033440Y-68088654D01*
X151558477Y-68306131D01*
X152115852Y-68417000D01*
X152684148Y-68417000D01*
X153241523Y-68306131D01*
X153766560Y-68088654D01*
X154239080Y-67772926D01*
X154640926Y-67371080D01*
X154815000Y-67110560D01*
X154815001Y-98497441D01*
X154640926Y-98236920D01*
X154239080Y-97835074D01*
X153766560Y-97519346D01*
X153241523Y-97301869D01*
X152684148Y-97191000D01*
X152115852Y-97191000D01*
X151558477Y-97301869D01*
X151033440Y-97519346D01*
X150560920Y-97835074D01*
X150159074Y-98236920D01*
X149843346Y-98709440D01*
X149625869Y-99234477D01*
X149515000Y-99791852D01*
X149515000Y-100360148D01*
X149625869Y-100917523D01*
X149843346Y-101442560D01*
X150159074Y-101915080D01*
X150558994Y-102315000D01*
X131381006Y-102315000D01*
X131780926Y-101915080D01*
X132096654Y-101442560D01*
X132314131Y-100917523D01*
X132425000Y-100360148D01*
X132425000Y-99791852D01*
X132314131Y-99234477D01*
X132096654Y-98709440D01*
X131780926Y-98236920D01*
X131379080Y-97835074D01*
X130906560Y-97519346D01*
X130381523Y-97301869D01*
X129824148Y-97191000D01*
X129255852Y-97191000D01*
X128698477Y-97301869D01*
X128173440Y-97519346D01*
X127700920Y-97835074D01*
X127299074Y-98236920D01*
X127185000Y-98407644D01*
X127185000Y-88718741D01*
X131340001Y-88718741D01*
X131340001Y-89011261D01*
X131397069Y-89298159D01*
X131509011Y-89568412D01*
X131671526Y-89811633D01*
X131878369Y-90018476D01*
X132052761Y-90135001D01*
X131878369Y-90251526D01*
X131671526Y-90458369D01*
X131509011Y-90701590D01*
X131397069Y-90971843D01*
X131340001Y-91258741D01*
X131340001Y-91551261D01*
X131397069Y-91838159D01*
X131509011Y-92108412D01*
X131671526Y-92351633D01*
X131878369Y-92558476D01*
X132052761Y-92675001D01*
X131878369Y-92791526D01*
X131671526Y-92998369D01*
X131509011Y-93241590D01*
X131397069Y-93511843D01*
X131340001Y-93798741D01*
X131340001Y-94091261D01*
X131397069Y-94378159D01*
X131509011Y-94648412D01*
X131671526Y-94891633D01*
X131878369Y-95098476D01*
X132052761Y-95215001D01*
X131878369Y-95331526D01*
X131671526Y-95538369D01*
X131509011Y-95781590D01*
X131397069Y-96051843D01*
X131340001Y-96338741D01*
X131340001Y-96631261D01*
X131397069Y-96918159D01*
X131509011Y-97188412D01*
X131671526Y-97431633D01*
X131878369Y-97638476D01*
X132121590Y-97800991D01*
X132391843Y-97912933D01*
X132678741Y-97970001D01*
X132971261Y-97970001D01*
X133258159Y-97912933D01*
X133528412Y-97800991D01*
X133771633Y-97638476D01*
X133978476Y-97431633D01*
X134140991Y-97188412D01*
X134252933Y-96918159D01*
X134310001Y-96631261D01*
X134310001Y-96338741D01*
X134269080Y-96133016D01*
X136816620Y-96133016D01*
X136840987Y-96380415D01*
X136937281Y-96697854D01*
X137093654Y-96990407D01*
X137304097Y-97246833D01*
X137560522Y-97457276D01*
X137853075Y-97613649D01*
X138170514Y-97709943D01*
X138500640Y-97742458D01*
X138830765Y-97709943D01*
X139148204Y-97613649D01*
X139440757Y-97457276D01*
X139697183Y-97246833D01*
X139907626Y-96990408D01*
X140063999Y-96697855D01*
X140160293Y-96380416D01*
X140184660Y-96133017D01*
X140184660Y-93866983D01*
X140160293Y-93619584D01*
X140063999Y-93302145D01*
X139907626Y-93009592D01*
X139697183Y-92753167D01*
X139440758Y-92542724D01*
X139148205Y-92386351D01*
X138830766Y-92290057D01*
X138500640Y-92257542D01*
X138170515Y-92290057D01*
X137853076Y-92386351D01*
X137560523Y-92542724D01*
X137304098Y-92753167D01*
X137093655Y-93009592D01*
X136937282Y-93302145D01*
X136840988Y-93619584D01*
X136816621Y-93866983D01*
X136816620Y-96133016D01*
X134269080Y-96133016D01*
X134252933Y-96051843D01*
X134140991Y-95781590D01*
X133978476Y-95538369D01*
X133771633Y-95331526D01*
X133597241Y-95215001D01*
X133771633Y-95098476D01*
X133978476Y-94891633D01*
X134140991Y-94648412D01*
X134252933Y-94378159D01*
X134310001Y-94091261D01*
X134310001Y-93798741D01*
X134252933Y-93511843D01*
X134140991Y-93241590D01*
X133978476Y-92998369D01*
X133771633Y-92791526D01*
X133597241Y-92675001D01*
X133771633Y-92558476D01*
X133978476Y-92351633D01*
X134140991Y-92108412D01*
X134252933Y-91838159D01*
X134310001Y-91551261D01*
X134310001Y-91258741D01*
X134252933Y-90971843D01*
X134140991Y-90701590D01*
X133978476Y-90458369D01*
X133771633Y-90251526D01*
X133597241Y-90135001D01*
X133771633Y-90018476D01*
X133978476Y-89811633D01*
X134140991Y-89568412D01*
X134252933Y-89298159D01*
X134310001Y-89011261D01*
X134310001Y-88893740D01*
X147515000Y-88893740D01*
X147515000Y-89186260D01*
X147572068Y-89473158D01*
X147684010Y-89743411D01*
X147846525Y-89986632D01*
X148053368Y-90193475D01*
X148227760Y-90310000D01*
X148053368Y-90426525D01*
X147846525Y-90633368D01*
X147684010Y-90876589D01*
X147572068Y-91146842D01*
X147515000Y-91433740D01*
X147515000Y-91726260D01*
X147572068Y-92013158D01*
X147684010Y-92283411D01*
X147846525Y-92526632D01*
X148053368Y-92733475D01*
X148227760Y-92850000D01*
X148053368Y-92966525D01*
X147846525Y-93173368D01*
X147684010Y-93416589D01*
X147572068Y-93686842D01*
X147515000Y-93973740D01*
X147515000Y-94266260D01*
X147572068Y-94553158D01*
X147684010Y-94823411D01*
X147846525Y-95066632D01*
X148053368Y-95273475D01*
X148227760Y-95390000D01*
X148053368Y-95506525D01*
X147846525Y-95713368D01*
X147684010Y-95956589D01*
X147572068Y-96226842D01*
X147515000Y-96513740D01*
X147515000Y-96806260D01*
X147572068Y-97093158D01*
X147684010Y-97363411D01*
X147846525Y-97606632D01*
X148053368Y-97813475D01*
X148296589Y-97975990D01*
X148566842Y-98087932D01*
X148853740Y-98145000D01*
X149146260Y-98145000D01*
X149433158Y-98087932D01*
X149703411Y-97975990D01*
X149946632Y-97813475D01*
X150153475Y-97606632D01*
X150315990Y-97363411D01*
X150427932Y-97093158D01*
X150485000Y-96806260D01*
X150485000Y-96513740D01*
X150427932Y-96226842D01*
X150315990Y-95956589D01*
X150153475Y-95713368D01*
X149946632Y-95506525D01*
X149772240Y-95390000D01*
X149946632Y-95273475D01*
X150153475Y-95066632D01*
X150315990Y-94823411D01*
X150427932Y-94553158D01*
X150485000Y-94266260D01*
X150485000Y-93973740D01*
X150427932Y-93686842D01*
X150315990Y-93416589D01*
X150153475Y-93173368D01*
X149946632Y-92966525D01*
X149772240Y-92850000D01*
X149946632Y-92733475D01*
X150153475Y-92526632D01*
X150315990Y-92283411D01*
X150427932Y-92013158D01*
X150485000Y-91726260D01*
X150485000Y-91433740D01*
X150427932Y-91146842D01*
X150315990Y-90876589D01*
X150153475Y-90633368D01*
X149946632Y-90426525D01*
X149772240Y-90310000D01*
X149946632Y-90193475D01*
X150153475Y-89986632D01*
X150315990Y-89743411D01*
X150427932Y-89473158D01*
X150485000Y-89186260D01*
X150485000Y-88893740D01*
X150427932Y-88606842D01*
X150315990Y-88336589D01*
X150153475Y-88093368D01*
X149946632Y-87886525D01*
X149703411Y-87724010D01*
X149433158Y-87612068D01*
X149146260Y-87555000D01*
X148853740Y-87555000D01*
X148566842Y-87612068D01*
X148296589Y-87724010D01*
X148053368Y-87886525D01*
X147846525Y-88093368D01*
X147684010Y-88336589D01*
X147572068Y-88606842D01*
X147515000Y-88893740D01*
X134310001Y-88893740D01*
X134310001Y-88718741D01*
X134252933Y-88431843D01*
X134140991Y-88161590D01*
X133978476Y-87918369D01*
X133771633Y-87711526D01*
X133528412Y-87549011D01*
X133258159Y-87437069D01*
X132971261Y-87380001D01*
X132678741Y-87380001D01*
X132391843Y-87437069D01*
X132121590Y-87549011D01*
X131878369Y-87711526D01*
X131671526Y-87918369D01*
X131509011Y-88161590D01*
X131397069Y-88431843D01*
X131340001Y-88718741D01*
X127185000Y-88718741D01*
X127185000Y-70065000D01*
X131311928Y-70065000D01*
X131311928Y-71765000D01*
X131324188Y-71889482D01*
X131360498Y-72009180D01*
X131419463Y-72119494D01*
X131498815Y-72216185D01*
X131595506Y-72295537D01*
X131705820Y-72354502D01*
X131778380Y-72376513D01*
X131646525Y-72508368D01*
X131484010Y-72751589D01*
X131372068Y-73021842D01*
X131315000Y-73308740D01*
X131315000Y-73601260D01*
X131372068Y-73888158D01*
X131484010Y-74158411D01*
X131646525Y-74401632D01*
X131853368Y-74608475D01*
X132027760Y-74725000D01*
X131853368Y-74841525D01*
X131646525Y-75048368D01*
X131484010Y-75291589D01*
X131372068Y-75561842D01*
X131315000Y-75848740D01*
X131315000Y-76141260D01*
X131372068Y-76428158D01*
X131484010Y-76698411D01*
X131646525Y-76941632D01*
X131853368Y-77148475D01*
X132027760Y-77265000D01*
X131853368Y-77381525D01*
X131646525Y-77588368D01*
X131484010Y-77831589D01*
X131372068Y-78101842D01*
X131315000Y-78388740D01*
X131315000Y-78681260D01*
X131372068Y-78968158D01*
X131484010Y-79238411D01*
X131646525Y-79481632D01*
X131853368Y-79688475D01*
X132096589Y-79850990D01*
X132366842Y-79962932D01*
X132653740Y-80020000D01*
X132946260Y-80020000D01*
X133233158Y-79962932D01*
X133503411Y-79850990D01*
X133746632Y-79688475D01*
X133953475Y-79481632D01*
X134115990Y-79238411D01*
X134227932Y-78968158D01*
X134285000Y-78681260D01*
X134285000Y-78388740D01*
X134227932Y-78101842D01*
X134115990Y-77831589D01*
X133953475Y-77588368D01*
X133746632Y-77381525D01*
X133572240Y-77265000D01*
X133746632Y-77148475D01*
X133953475Y-76941632D01*
X134115990Y-76698411D01*
X134227932Y-76428158D01*
X134285000Y-76141260D01*
X134285000Y-75848740D01*
X134227932Y-75561842D01*
X134115990Y-75291589D01*
X133953475Y-75048368D01*
X133746632Y-74841525D01*
X133572240Y-74725000D01*
X133746632Y-74608475D01*
X133953475Y-74401632D01*
X134115990Y-74158411D01*
X134227932Y-73888158D01*
X134285000Y-73601260D01*
X134285000Y-73308740D01*
X134227932Y-73021842D01*
X134115990Y-72751589D01*
X133953475Y-72508368D01*
X133821620Y-72376513D01*
X133894180Y-72354502D01*
X134004494Y-72295537D01*
X134101185Y-72216185D01*
X134180537Y-72119494D01*
X134239502Y-72009180D01*
X134275812Y-71889482D01*
X134288072Y-71765000D01*
X134288072Y-70065000D01*
X134280686Y-69990000D01*
X147511928Y-69990000D01*
X147511928Y-71690000D01*
X147524188Y-71814482D01*
X147560498Y-71934180D01*
X147619463Y-72044494D01*
X147698815Y-72141185D01*
X147795506Y-72220537D01*
X147905820Y-72279502D01*
X147978380Y-72301513D01*
X147846525Y-72433368D01*
X147684010Y-72676589D01*
X147572068Y-72946842D01*
X147515000Y-73233740D01*
X147515000Y-73526260D01*
X147572068Y-73813158D01*
X147684010Y-74083411D01*
X147846525Y-74326632D01*
X148053368Y-74533475D01*
X148227760Y-74650000D01*
X148053368Y-74766525D01*
X147846525Y-74973368D01*
X147684010Y-75216589D01*
X147572068Y-75486842D01*
X147515000Y-75773740D01*
X147515000Y-76066260D01*
X147572068Y-76353158D01*
X147684010Y-76623411D01*
X147846525Y-76866632D01*
X148053368Y-77073475D01*
X148227760Y-77190000D01*
X148053368Y-77306525D01*
X147846525Y-77513368D01*
X147684010Y-77756589D01*
X147572068Y-78026842D01*
X147515000Y-78313740D01*
X147515000Y-78606260D01*
X147572068Y-78893158D01*
X147684010Y-79163411D01*
X147846525Y-79406632D01*
X148053368Y-79613475D01*
X148296589Y-79775990D01*
X148566842Y-79887932D01*
X148853740Y-79945000D01*
X149146260Y-79945000D01*
X149433158Y-79887932D01*
X149703411Y-79775990D01*
X149946632Y-79613475D01*
X150153475Y-79406632D01*
X150315990Y-79163411D01*
X150427932Y-78893158D01*
X150485000Y-78606260D01*
X150485000Y-78313740D01*
X150427932Y-78026842D01*
X150315990Y-77756589D01*
X150153475Y-77513368D01*
X149946632Y-77306525D01*
X149772240Y-77190000D01*
X149946632Y-77073475D01*
X150153475Y-76866632D01*
X150315990Y-76623411D01*
X150427932Y-76353158D01*
X150485000Y-76066260D01*
X150485000Y-75773740D01*
X150427932Y-75486842D01*
X150315990Y-75216589D01*
X150153475Y-74973368D01*
X149946632Y-74766525D01*
X149772240Y-74650000D01*
X149946632Y-74533475D01*
X150153475Y-74326632D01*
X150315990Y-74083411D01*
X150427932Y-73813158D01*
X150485000Y-73526260D01*
X150485000Y-73233740D01*
X150427932Y-72946842D01*
X150315990Y-72676589D01*
X150153475Y-72433368D01*
X150021620Y-72301513D01*
X150094180Y-72279502D01*
X150204494Y-72220537D01*
X150301185Y-72141185D01*
X150380537Y-72044494D01*
X150439502Y-71934180D01*
X150475812Y-71814482D01*
X150488072Y-71690000D01*
X150488072Y-69990000D01*
X150475812Y-69865518D01*
X150439502Y-69745820D01*
X150380537Y-69635506D01*
X150301185Y-69538815D01*
X150204494Y-69459463D01*
X150094180Y-69400498D01*
X149974482Y-69364188D01*
X149850000Y-69351928D01*
X148150000Y-69351928D01*
X148025518Y-69364188D01*
X147905820Y-69400498D01*
X147795506Y-69459463D01*
X147698815Y-69538815D01*
X147619463Y-69635506D01*
X147560498Y-69745820D01*
X147524188Y-69865518D01*
X147511928Y-69990000D01*
X134280686Y-69990000D01*
X134275812Y-69940518D01*
X134239502Y-69820820D01*
X134180537Y-69710506D01*
X134101185Y-69613815D01*
X134004494Y-69534463D01*
X133894180Y-69475498D01*
X133774482Y-69439188D01*
X133650000Y-69426928D01*
X131950000Y-69426928D01*
X131825518Y-69439188D01*
X131705820Y-69475498D01*
X131595506Y-69534463D01*
X131498815Y-69613815D01*
X131419463Y-69710506D01*
X131360498Y-69820820D01*
X131324188Y-69940518D01*
X131311928Y-70065000D01*
X127185000Y-70065000D01*
X127185000Y-67200356D01*
X127299074Y-67371080D01*
X127700920Y-67772926D01*
X128173440Y-68088654D01*
X128698477Y-68306131D01*
X129255852Y-68417000D01*
X129824148Y-68417000D01*
X130381523Y-68306131D01*
X130906560Y-68088654D01*
X131379080Y-67772926D01*
X131780926Y-67371080D01*
X132096654Y-66898560D01*
X132314131Y-66373523D01*
X132318066Y-66353740D01*
X135395000Y-66353740D01*
X135395000Y-66646260D01*
X135452068Y-66933158D01*
X135564010Y-67203411D01*
X135726525Y-67446632D01*
X135933368Y-67653475D01*
X136176589Y-67815990D01*
X136446842Y-67927932D01*
X136733740Y-67985000D01*
X137026260Y-67985000D01*
X137313158Y-67927932D01*
X137583411Y-67815990D01*
X137826632Y-67653475D01*
X138033475Y-67446632D01*
X138150000Y-67272240D01*
X138266525Y-67446632D01*
X138473368Y-67653475D01*
X138716589Y-67815990D01*
X138986842Y-67927932D01*
X139273740Y-67985000D01*
X139566260Y-67985000D01*
X139853158Y-67927932D01*
X140123411Y-67815990D01*
X140366632Y-67653475D01*
X140573475Y-67446632D01*
X140690000Y-67272240D01*
X140806525Y-67446632D01*
X141013368Y-67653475D01*
X141256589Y-67815990D01*
X141526842Y-67927932D01*
X141813740Y-67985000D01*
X142106260Y-67985000D01*
X142393158Y-67927932D01*
X142663411Y-67815990D01*
X142906632Y-67653475D01*
X143113475Y-67446632D01*
X143275990Y-67203411D01*
X143387932Y-66933158D01*
X143445000Y-66646260D01*
X143445000Y-66353740D01*
X143387932Y-66066842D01*
X143275990Y-65796589D01*
X143113475Y-65553368D01*
X142906632Y-65346525D01*
X142663411Y-65184010D01*
X142393158Y-65072068D01*
X142106260Y-65015000D01*
X141813740Y-65015000D01*
X141526842Y-65072068D01*
X141256589Y-65184010D01*
X141013368Y-65346525D01*
X140806525Y-65553368D01*
X140690000Y-65727760D01*
X140573475Y-65553368D01*
X140366632Y-65346525D01*
X140123411Y-65184010D01*
X139853158Y-65072068D01*
X139566260Y-65015000D01*
X139273740Y-65015000D01*
X138986842Y-65072068D01*
X138716589Y-65184010D01*
X138473368Y-65346525D01*
X138266525Y-65553368D01*
X138150000Y-65727760D01*
X138033475Y-65553368D01*
X137826632Y-65346525D01*
X137583411Y-65184010D01*
X137313158Y-65072068D01*
X137026260Y-65015000D01*
X136733740Y-65015000D01*
X136446842Y-65072068D01*
X136176589Y-65184010D01*
X135933368Y-65346525D01*
X135726525Y-65553368D01*
X135564010Y-65796589D01*
X135452068Y-66066842D01*
X135395000Y-66353740D01*
X132318066Y-66353740D01*
X132425000Y-65816148D01*
X132425000Y-65247852D01*
X132314131Y-64690477D01*
X132096654Y-64165440D01*
X131780926Y-63692920D01*
X131379080Y-63291074D01*
X131220329Y-63185000D01*
X150719671Y-63185000D01*
X150560920Y-63291074D01*
G37*
G04 #@! TD.AperFunction*
M02*
