G04 #@! TF.GenerationSoftware,KiCad,Pcbnew,(5.1.9)-1*
G04 #@! TF.CreationDate,2021-04-08T22:29:13+02:00*
G04 #@! TF.ProjectId,MotorPCBZonderLevelShifter,4d6f746f-7250-4434-925a-6f6e6465724c,rev?*
G04 #@! TF.SameCoordinates,Original*
G04 #@! TF.FileFunction,Copper,L2,Bot*
G04 #@! TF.FilePolarity,Positive*
%FSLAX46Y46*%
G04 Gerber Fmt 4.6, Leading zero omitted, Abs format (unit mm)*
G04 Created by KiCad (PCBNEW (5.1.9)-1) date 2021-04-08 22:29:13*
%MOMM*%
%LPD*%
G01*
G04 APERTURE LIST*
G04 #@! TA.AperFunction,NonConductor*
%ADD10C,0.300000*%
G04 #@! TD*
G04 #@! TA.AperFunction,ComponentPad*
%ADD11R,1.700000X1.700000*%
G04 #@! TD*
G04 #@! TA.AperFunction,ComponentPad*
%ADD12O,1.700000X1.700000*%
G04 #@! TD*
G04 #@! TA.AperFunction,ComponentPad*
%ADD13O,2.098040X4.198620*%
G04 #@! TD*
G04 #@! TA.AperFunction,ViaPad*
%ADD14C,0.800000*%
G04 #@! TD*
G04 #@! TA.AperFunction,Conductor*
%ADD15C,0.250000*%
G04 #@! TD*
G04 #@! TA.AperFunction,Conductor*
%ADD16C,0.406400*%
G04 #@! TD*
G04 #@! TA.AperFunction,Conductor*
%ADD17C,1.016000*%
G04 #@! TD*
G04 #@! TA.AperFunction,Conductor*
%ADD18C,0.254000*%
G04 #@! TD*
G04 #@! TA.AperFunction,Conductor*
%ADD19C,0.100000*%
G04 #@! TD*
G04 APERTURE END LIST*
D10*
X146071428Y-92607142D02*
X144928571Y-92607142D01*
X137071428Y-92607142D02*
X135928571Y-92607142D01*
X136500000Y-93178571D02*
X136500000Y-92035714D01*
D11*
X132825001Y-86325001D03*
D12*
X132825001Y-88865001D03*
X132825001Y-91405001D03*
X132825001Y-93945001D03*
X132825001Y-96485001D03*
X132800000Y-81075000D03*
X132800000Y-78535000D03*
X132800000Y-75995000D03*
X132800000Y-73455000D03*
D11*
X132800000Y-70915000D03*
X149000000Y-70840000D03*
D12*
X149000000Y-73380000D03*
X149000000Y-75920000D03*
X149000000Y-78460000D03*
X149000000Y-81000000D03*
X149000000Y-96660000D03*
X149000000Y-94120000D03*
X149000000Y-91580000D03*
X149000000Y-89040000D03*
D11*
X149000000Y-86500000D03*
X144500000Y-66500000D03*
D12*
X141960000Y-66500000D03*
X139420000Y-66500000D03*
X136880000Y-66500000D03*
D13*
X138500640Y-95000000D03*
X143499360Y-95000000D03*
D14*
X144780000Y-71120000D03*
X140716000Y-81280000D03*
X140716000Y-86360000D03*
D15*
X133000000Y-86150002D02*
X132825001Y-86325001D01*
D16*
X132800000Y-86300000D02*
X132825001Y-86325001D01*
X148925000Y-81075000D02*
X149000000Y-81000000D01*
D17*
X140681001Y-86325001D02*
X140716000Y-86360000D01*
X132825001Y-86325001D02*
X140681001Y-86325001D01*
X148860000Y-86360000D02*
X149000000Y-86500000D01*
X140716000Y-86360000D02*
X148860000Y-86360000D01*
X143499360Y-89143360D02*
X140716000Y-86360000D01*
X143499360Y-95000000D02*
X143499360Y-89143360D01*
X140716000Y-86360000D02*
X140716000Y-81280000D01*
X133005000Y-81280000D02*
X132800000Y-81075000D01*
X140716000Y-81280000D02*
X133005000Y-81280000D01*
X148720000Y-81280000D02*
X149000000Y-81000000D01*
X140716000Y-81280000D02*
X148720000Y-81280000D01*
X144780000Y-66780000D02*
X144500000Y-66500000D01*
X144780000Y-71120000D02*
X144780000Y-66780000D01*
D16*
X148925000Y-78535000D02*
X149000000Y-78460000D01*
D17*
X132800000Y-78535000D02*
X148925000Y-78535000D01*
X132825001Y-88865001D02*
X135865001Y-88865001D01*
X138500640Y-91500640D02*
X138500640Y-95000000D01*
X135865001Y-88865001D02*
X138500640Y-91500640D01*
X149960000Y-78460000D02*
X149000000Y-78460000D01*
X151000000Y-79500000D02*
X149960000Y-78460000D01*
X151000000Y-88500000D02*
X151000000Y-79500000D01*
X150460000Y-89040000D02*
X151000000Y-88500000D01*
X149000000Y-89040000D02*
X150460000Y-89040000D01*
X132800000Y-78535000D02*
X131965000Y-78535000D01*
X131965000Y-78535000D02*
X131000000Y-79500000D01*
X131622920Y-88865001D02*
X132825001Y-88865001D01*
X131000000Y-88242081D02*
X131622920Y-88865001D01*
X131000000Y-79500000D02*
X131000000Y-88242081D01*
D16*
X148925000Y-75995000D02*
X149000000Y-75920000D01*
D17*
X139420000Y-74570000D02*
X137995000Y-75995000D01*
X139420000Y-66500000D02*
X139420000Y-74570000D01*
X137995000Y-75995000D02*
X148925000Y-75995000D01*
X132800000Y-75995000D02*
X137995000Y-75995000D01*
X152500000Y-89500000D02*
X152500000Y-78000000D01*
X150420000Y-75920000D02*
X149000000Y-75920000D01*
X150420000Y-91580000D02*
X152500000Y-89500000D01*
X152500000Y-78000000D02*
X150420000Y-75920000D01*
X149000000Y-91580000D02*
X150420000Y-91580000D01*
X131505000Y-75995000D02*
X132800000Y-75995000D01*
X129500000Y-78000000D02*
X131505000Y-75995000D01*
X129500000Y-89500000D02*
X129500000Y-78000000D01*
X131405001Y-91405001D02*
X129500000Y-89500000D01*
X132825001Y-91405001D02*
X131405001Y-91405001D01*
X128000000Y-90322081D02*
X131622920Y-93945001D01*
X128000000Y-77000000D02*
X128000000Y-90322081D01*
X131545000Y-73455000D02*
X128000000Y-77000000D01*
X131622920Y-93945001D02*
X132825001Y-93945001D01*
X132800000Y-73455000D02*
X131545000Y-73455000D01*
X133652000Y-66500000D02*
X128000000Y-72152000D01*
X128000000Y-72152000D02*
X128000000Y-77000000D01*
X136880000Y-66500000D02*
X133652000Y-66500000D01*
X141960000Y-66500000D02*
X141960000Y-72460000D01*
X142880000Y-73380000D02*
X149000000Y-73380000D01*
X141960000Y-72460000D02*
X142880000Y-73380000D01*
X150380000Y-73380000D02*
X149000000Y-73380000D01*
X154000000Y-77000000D02*
X150380000Y-73380000D01*
X154000000Y-90500000D02*
X154000000Y-77000000D01*
X150380000Y-94120000D02*
X154000000Y-90500000D01*
X149000000Y-94120000D02*
X150380000Y-94120000D01*
D18*
X148296589Y-79775990D02*
X148566842Y-79887932D01*
X148853740Y-79945000D01*
X149146260Y-79945000D01*
X149433158Y-79887932D01*
X149672393Y-79788838D01*
X149857001Y-79973447D01*
X149857000Y-87826635D01*
X149703411Y-87724010D01*
X149433158Y-87612068D01*
X149146260Y-87555000D01*
X148853740Y-87555000D01*
X148566842Y-87612068D01*
X148296589Y-87724010D01*
X148053368Y-87886525D01*
X147846525Y-88093368D01*
X147684010Y-88336589D01*
X147572068Y-88606842D01*
X147515000Y-88893740D01*
X147515000Y-89186260D01*
X147572068Y-89473158D01*
X147684010Y-89743411D01*
X147846525Y-89986632D01*
X148053368Y-90193475D01*
X148227760Y-90310000D01*
X148053368Y-90426525D01*
X147846525Y-90633368D01*
X147684010Y-90876589D01*
X147572068Y-91146842D01*
X147515000Y-91433740D01*
X147515000Y-91726260D01*
X147572068Y-92013158D01*
X147684010Y-92283411D01*
X147846525Y-92526632D01*
X148053368Y-92733475D01*
X148227760Y-92850000D01*
X148053368Y-92966525D01*
X147846525Y-93173368D01*
X147684010Y-93416589D01*
X147572068Y-93686842D01*
X147515000Y-93973740D01*
X147515000Y-94266260D01*
X147572068Y-94553158D01*
X147684010Y-94823411D01*
X147846525Y-95066632D01*
X148053368Y-95273475D01*
X148227760Y-95390000D01*
X148053368Y-95506525D01*
X147846525Y-95713368D01*
X147684010Y-95956589D01*
X147572068Y-96226842D01*
X147515000Y-96513740D01*
X147515000Y-96806260D01*
X147572068Y-97093158D01*
X147684010Y-97363411D01*
X147846525Y-97606632D01*
X148053368Y-97813475D01*
X148296589Y-97975990D01*
X148566842Y-98087932D01*
X148853740Y-98145000D01*
X149146260Y-98145000D01*
X149433158Y-98087932D01*
X149703411Y-97975990D01*
X149946632Y-97813475D01*
X150153475Y-97606632D01*
X150315990Y-97363411D01*
X150427932Y-97093158D01*
X150485000Y-96806260D01*
X150485000Y-96513740D01*
X150427932Y-96226842D01*
X150315990Y-95956589D01*
X150153475Y-95713368D01*
X149946632Y-95506525D01*
X149772240Y-95390000D01*
X149946632Y-95273475D01*
X149957107Y-95263000D01*
X150323861Y-95263000D01*
X150380000Y-95268529D01*
X150436139Y-95263000D01*
X150436146Y-95263000D01*
X150604067Y-95246461D01*
X150819523Y-95181103D01*
X151018089Y-95074968D01*
X151192133Y-94932133D01*
X151227927Y-94888518D01*
X154768524Y-91347922D01*
X154812133Y-91312133D01*
X154815001Y-91308639D01*
X154815001Y-98497441D01*
X154640926Y-98236920D01*
X154239080Y-97835074D01*
X153766560Y-97519346D01*
X153241523Y-97301869D01*
X152684148Y-97191000D01*
X152115852Y-97191000D01*
X151558477Y-97301869D01*
X151033440Y-97519346D01*
X150560920Y-97835074D01*
X150159074Y-98236920D01*
X149843346Y-98709440D01*
X149625869Y-99234477D01*
X149515000Y-99791852D01*
X149515000Y-100360148D01*
X149625869Y-100917523D01*
X149843346Y-101442560D01*
X150159074Y-101915080D01*
X150558994Y-102315000D01*
X131381006Y-102315000D01*
X131780926Y-101915080D01*
X132096654Y-101442560D01*
X132314131Y-100917523D01*
X132425000Y-100360148D01*
X132425000Y-99791852D01*
X132314131Y-99234477D01*
X132096654Y-98709440D01*
X131780926Y-98236920D01*
X131379080Y-97835074D01*
X130906560Y-97519346D01*
X130381523Y-97301869D01*
X129824148Y-97191000D01*
X129255852Y-97191000D01*
X128698477Y-97301869D01*
X128173440Y-97519346D01*
X127700920Y-97835074D01*
X127299074Y-98236920D01*
X127185000Y-98407644D01*
X127185000Y-91130719D01*
X127187868Y-91134214D01*
X127231478Y-91170004D01*
X130774997Y-94713524D01*
X130810787Y-94757134D01*
X130984831Y-94899969D01*
X131111967Y-94967924D01*
X131183396Y-95006104D01*
X131398852Y-95071462D01*
X131419437Y-95073489D01*
X131566774Y-95088001D01*
X131566781Y-95088001D01*
X131622920Y-95093530D01*
X131679059Y-95088001D01*
X131867894Y-95088001D01*
X131878369Y-95098476D01*
X132052761Y-95215001D01*
X131878369Y-95331526D01*
X131671526Y-95538369D01*
X131509011Y-95781590D01*
X131397069Y-96051843D01*
X131340001Y-96338741D01*
X131340001Y-96631261D01*
X131397069Y-96918159D01*
X131509011Y-97188412D01*
X131671526Y-97431633D01*
X131878369Y-97638476D01*
X132121590Y-97800991D01*
X132391843Y-97912933D01*
X132678741Y-97970001D01*
X132971261Y-97970001D01*
X133258159Y-97912933D01*
X133528412Y-97800991D01*
X133771633Y-97638476D01*
X133978476Y-97431633D01*
X134140991Y-97188412D01*
X134252933Y-96918159D01*
X134310001Y-96631261D01*
X134310001Y-96338741D01*
X134252933Y-96051843D01*
X134140991Y-95781590D01*
X133978476Y-95538369D01*
X133771633Y-95331526D01*
X133597241Y-95215001D01*
X133771633Y-95098476D01*
X133978476Y-94891633D01*
X134140991Y-94648412D01*
X134252933Y-94378159D01*
X134310001Y-94091261D01*
X134310001Y-93798741D01*
X134252933Y-93511843D01*
X134140991Y-93241590D01*
X133978476Y-92998369D01*
X133771633Y-92791526D01*
X133597241Y-92675001D01*
X133771633Y-92558476D01*
X133978476Y-92351633D01*
X134140991Y-92108412D01*
X134252933Y-91838159D01*
X134310001Y-91551261D01*
X134310001Y-91258741D01*
X134252933Y-90971843D01*
X134140991Y-90701590D01*
X133978476Y-90458369D01*
X133771633Y-90251526D01*
X133597241Y-90135001D01*
X133771633Y-90018476D01*
X133782108Y-90008001D01*
X135391556Y-90008001D01*
X136093555Y-90710000D01*
X134786429Y-90710000D01*
X134786429Y-94530000D01*
X136816621Y-94530000D01*
X136816620Y-96133016D01*
X136840987Y-96380415D01*
X136937281Y-96697854D01*
X137093654Y-96990407D01*
X137304097Y-97246833D01*
X137560522Y-97457276D01*
X137853075Y-97613649D01*
X138170514Y-97709943D01*
X138500640Y-97742458D01*
X138830765Y-97709943D01*
X139148204Y-97613649D01*
X139440757Y-97457276D01*
X139697183Y-97246833D01*
X139907626Y-96990408D01*
X140063999Y-96697855D01*
X140160293Y-96380416D01*
X140184660Y-96133017D01*
X140184660Y-93866983D01*
X140160293Y-93619584D01*
X140063999Y-93302145D01*
X139907626Y-93009592D01*
X139697183Y-92753167D01*
X139643640Y-92709225D01*
X139643640Y-91556778D01*
X139649169Y-91500639D01*
X139643640Y-91444500D01*
X139643640Y-91444494D01*
X139627101Y-91276573D01*
X139561743Y-91061117D01*
X139455608Y-90862551D01*
X139330412Y-90710000D01*
X143786429Y-90710000D01*
X143786429Y-94530000D01*
X147213572Y-94530000D01*
X147213572Y-90710000D01*
X143786429Y-90710000D01*
X139330412Y-90710000D01*
X139312773Y-90688507D01*
X139269164Y-90652718D01*
X136712928Y-88096483D01*
X136677134Y-88052868D01*
X136503090Y-87910033D01*
X136304524Y-87803898D01*
X136089068Y-87738540D01*
X135921147Y-87722001D01*
X135921140Y-87722001D01*
X135865001Y-87716472D01*
X135808862Y-87722001D01*
X133782108Y-87722001D01*
X133771633Y-87711526D01*
X133528412Y-87549011D01*
X133258159Y-87437069D01*
X132971261Y-87380001D01*
X132678741Y-87380001D01*
X132391843Y-87437069D01*
X132143000Y-87540143D01*
X132143000Y-79973445D01*
X132215996Y-79900450D01*
X132366842Y-79962932D01*
X132653740Y-80020000D01*
X132946260Y-80020000D01*
X133233158Y-79962932D01*
X133503411Y-79850990D01*
X133746632Y-79688475D01*
X133757107Y-79678000D01*
X148149937Y-79678000D01*
X148296589Y-79775990D01*
G04 #@! TA.AperFunction,Conductor*
D19*
G36*
X148296589Y-79775990D02*
G01*
X148566842Y-79887932D01*
X148853740Y-79945000D01*
X149146260Y-79945000D01*
X149433158Y-79887932D01*
X149672393Y-79788838D01*
X149857001Y-79973447D01*
X149857000Y-87826635D01*
X149703411Y-87724010D01*
X149433158Y-87612068D01*
X149146260Y-87555000D01*
X148853740Y-87555000D01*
X148566842Y-87612068D01*
X148296589Y-87724010D01*
X148053368Y-87886525D01*
X147846525Y-88093368D01*
X147684010Y-88336589D01*
X147572068Y-88606842D01*
X147515000Y-88893740D01*
X147515000Y-89186260D01*
X147572068Y-89473158D01*
X147684010Y-89743411D01*
X147846525Y-89986632D01*
X148053368Y-90193475D01*
X148227760Y-90310000D01*
X148053368Y-90426525D01*
X147846525Y-90633368D01*
X147684010Y-90876589D01*
X147572068Y-91146842D01*
X147515000Y-91433740D01*
X147515000Y-91726260D01*
X147572068Y-92013158D01*
X147684010Y-92283411D01*
X147846525Y-92526632D01*
X148053368Y-92733475D01*
X148227760Y-92850000D01*
X148053368Y-92966525D01*
X147846525Y-93173368D01*
X147684010Y-93416589D01*
X147572068Y-93686842D01*
X147515000Y-93973740D01*
X147515000Y-94266260D01*
X147572068Y-94553158D01*
X147684010Y-94823411D01*
X147846525Y-95066632D01*
X148053368Y-95273475D01*
X148227760Y-95390000D01*
X148053368Y-95506525D01*
X147846525Y-95713368D01*
X147684010Y-95956589D01*
X147572068Y-96226842D01*
X147515000Y-96513740D01*
X147515000Y-96806260D01*
X147572068Y-97093158D01*
X147684010Y-97363411D01*
X147846525Y-97606632D01*
X148053368Y-97813475D01*
X148296589Y-97975990D01*
X148566842Y-98087932D01*
X148853740Y-98145000D01*
X149146260Y-98145000D01*
X149433158Y-98087932D01*
X149703411Y-97975990D01*
X149946632Y-97813475D01*
X150153475Y-97606632D01*
X150315990Y-97363411D01*
X150427932Y-97093158D01*
X150485000Y-96806260D01*
X150485000Y-96513740D01*
X150427932Y-96226842D01*
X150315990Y-95956589D01*
X150153475Y-95713368D01*
X149946632Y-95506525D01*
X149772240Y-95390000D01*
X149946632Y-95273475D01*
X149957107Y-95263000D01*
X150323861Y-95263000D01*
X150380000Y-95268529D01*
X150436139Y-95263000D01*
X150436146Y-95263000D01*
X150604067Y-95246461D01*
X150819523Y-95181103D01*
X151018089Y-95074968D01*
X151192133Y-94932133D01*
X151227927Y-94888518D01*
X154768524Y-91347922D01*
X154812133Y-91312133D01*
X154815001Y-91308639D01*
X154815001Y-98497441D01*
X154640926Y-98236920D01*
X154239080Y-97835074D01*
X153766560Y-97519346D01*
X153241523Y-97301869D01*
X152684148Y-97191000D01*
X152115852Y-97191000D01*
X151558477Y-97301869D01*
X151033440Y-97519346D01*
X150560920Y-97835074D01*
X150159074Y-98236920D01*
X149843346Y-98709440D01*
X149625869Y-99234477D01*
X149515000Y-99791852D01*
X149515000Y-100360148D01*
X149625869Y-100917523D01*
X149843346Y-101442560D01*
X150159074Y-101915080D01*
X150558994Y-102315000D01*
X131381006Y-102315000D01*
X131780926Y-101915080D01*
X132096654Y-101442560D01*
X132314131Y-100917523D01*
X132425000Y-100360148D01*
X132425000Y-99791852D01*
X132314131Y-99234477D01*
X132096654Y-98709440D01*
X131780926Y-98236920D01*
X131379080Y-97835074D01*
X130906560Y-97519346D01*
X130381523Y-97301869D01*
X129824148Y-97191000D01*
X129255852Y-97191000D01*
X128698477Y-97301869D01*
X128173440Y-97519346D01*
X127700920Y-97835074D01*
X127299074Y-98236920D01*
X127185000Y-98407644D01*
X127185000Y-91130719D01*
X127187868Y-91134214D01*
X127231478Y-91170004D01*
X130774997Y-94713524D01*
X130810787Y-94757134D01*
X130984831Y-94899969D01*
X131111967Y-94967924D01*
X131183396Y-95006104D01*
X131398852Y-95071462D01*
X131419437Y-95073489D01*
X131566774Y-95088001D01*
X131566781Y-95088001D01*
X131622920Y-95093530D01*
X131679059Y-95088001D01*
X131867894Y-95088001D01*
X131878369Y-95098476D01*
X132052761Y-95215001D01*
X131878369Y-95331526D01*
X131671526Y-95538369D01*
X131509011Y-95781590D01*
X131397069Y-96051843D01*
X131340001Y-96338741D01*
X131340001Y-96631261D01*
X131397069Y-96918159D01*
X131509011Y-97188412D01*
X131671526Y-97431633D01*
X131878369Y-97638476D01*
X132121590Y-97800991D01*
X132391843Y-97912933D01*
X132678741Y-97970001D01*
X132971261Y-97970001D01*
X133258159Y-97912933D01*
X133528412Y-97800991D01*
X133771633Y-97638476D01*
X133978476Y-97431633D01*
X134140991Y-97188412D01*
X134252933Y-96918159D01*
X134310001Y-96631261D01*
X134310001Y-96338741D01*
X134252933Y-96051843D01*
X134140991Y-95781590D01*
X133978476Y-95538369D01*
X133771633Y-95331526D01*
X133597241Y-95215001D01*
X133771633Y-95098476D01*
X133978476Y-94891633D01*
X134140991Y-94648412D01*
X134252933Y-94378159D01*
X134310001Y-94091261D01*
X134310001Y-93798741D01*
X134252933Y-93511843D01*
X134140991Y-93241590D01*
X133978476Y-92998369D01*
X133771633Y-92791526D01*
X133597241Y-92675001D01*
X133771633Y-92558476D01*
X133978476Y-92351633D01*
X134140991Y-92108412D01*
X134252933Y-91838159D01*
X134310001Y-91551261D01*
X134310001Y-91258741D01*
X134252933Y-90971843D01*
X134140991Y-90701590D01*
X133978476Y-90458369D01*
X133771633Y-90251526D01*
X133597241Y-90135001D01*
X133771633Y-90018476D01*
X133782108Y-90008001D01*
X135391556Y-90008001D01*
X136093555Y-90710000D01*
X134786429Y-90710000D01*
X134786429Y-94530000D01*
X136816621Y-94530000D01*
X136816620Y-96133016D01*
X136840987Y-96380415D01*
X136937281Y-96697854D01*
X137093654Y-96990407D01*
X137304097Y-97246833D01*
X137560522Y-97457276D01*
X137853075Y-97613649D01*
X138170514Y-97709943D01*
X138500640Y-97742458D01*
X138830765Y-97709943D01*
X139148204Y-97613649D01*
X139440757Y-97457276D01*
X139697183Y-97246833D01*
X139907626Y-96990408D01*
X140063999Y-96697855D01*
X140160293Y-96380416D01*
X140184660Y-96133017D01*
X140184660Y-93866983D01*
X140160293Y-93619584D01*
X140063999Y-93302145D01*
X139907626Y-93009592D01*
X139697183Y-92753167D01*
X139643640Y-92709225D01*
X139643640Y-91556778D01*
X139649169Y-91500639D01*
X139643640Y-91444500D01*
X139643640Y-91444494D01*
X139627101Y-91276573D01*
X139561743Y-91061117D01*
X139455608Y-90862551D01*
X139330412Y-90710000D01*
X143786429Y-90710000D01*
X143786429Y-94530000D01*
X147213572Y-94530000D01*
X147213572Y-90710000D01*
X143786429Y-90710000D01*
X139330412Y-90710000D01*
X139312773Y-90688507D01*
X139269164Y-90652718D01*
X136712928Y-88096483D01*
X136677134Y-88052868D01*
X136503090Y-87910033D01*
X136304524Y-87803898D01*
X136089068Y-87738540D01*
X135921147Y-87722001D01*
X135921140Y-87722001D01*
X135865001Y-87716472D01*
X135808862Y-87722001D01*
X133782108Y-87722001D01*
X133771633Y-87711526D01*
X133528412Y-87549011D01*
X133258159Y-87437069D01*
X132971261Y-87380001D01*
X132678741Y-87380001D01*
X132391843Y-87437069D01*
X132143000Y-87540143D01*
X132143000Y-79973445D01*
X132215996Y-79900450D01*
X132366842Y-79962932D01*
X132653740Y-80020000D01*
X132946260Y-80020000D01*
X133233158Y-79962932D01*
X133503411Y-79850990D01*
X133746632Y-79688475D01*
X133757107Y-79678000D01*
X148149937Y-79678000D01*
X148296589Y-79775990D01*
G37*
G04 #@! TD.AperFunction*
D18*
X150560920Y-63291074D02*
X150159074Y-63692920D01*
X149843346Y-64165440D01*
X149625869Y-64690477D01*
X149515000Y-65247852D01*
X149515000Y-65816148D01*
X149625869Y-66373523D01*
X149843346Y-66898560D01*
X150159074Y-67371080D01*
X150560920Y-67772926D01*
X151033440Y-68088654D01*
X151558477Y-68306131D01*
X152115852Y-68417000D01*
X152684148Y-68417000D01*
X153241523Y-68306131D01*
X153766560Y-68088654D01*
X154239080Y-67772926D01*
X154640926Y-67371080D01*
X154815000Y-67110560D01*
X154815000Y-76191361D01*
X154812133Y-76187867D01*
X154768523Y-76152077D01*
X151227927Y-72611482D01*
X151192133Y-72567867D01*
X151018089Y-72425032D01*
X150819523Y-72318897D01*
X150604067Y-72253539D01*
X150436146Y-72237000D01*
X150436139Y-72237000D01*
X150380000Y-72231471D01*
X150323861Y-72237000D01*
X150173694Y-72237000D01*
X150204494Y-72220537D01*
X150301185Y-72141185D01*
X150380537Y-72044494D01*
X150439502Y-71934180D01*
X150475812Y-71814482D01*
X150488072Y-71690000D01*
X150488072Y-69990000D01*
X150475812Y-69865518D01*
X150439502Y-69745820D01*
X150380537Y-69635506D01*
X150301185Y-69538815D01*
X150204494Y-69459463D01*
X150094180Y-69400498D01*
X149974482Y-69364188D01*
X149850000Y-69351928D01*
X148150000Y-69351928D01*
X148025518Y-69364188D01*
X147905820Y-69400498D01*
X147795506Y-69459463D01*
X147698815Y-69538815D01*
X147619463Y-69635506D01*
X147560498Y-69745820D01*
X147524188Y-69865518D01*
X147511928Y-69990000D01*
X147511928Y-71690000D01*
X147524188Y-71814482D01*
X147560498Y-71934180D01*
X147619463Y-72044494D01*
X147698815Y-72141185D01*
X147795506Y-72220537D01*
X147826306Y-72237000D01*
X143353446Y-72237000D01*
X143103000Y-71986555D01*
X143103000Y-67457107D01*
X143113475Y-67446632D01*
X143275990Y-67203411D01*
X143387932Y-66933158D01*
X143445000Y-66646260D01*
X143445000Y-66353740D01*
X143387932Y-66066842D01*
X143275990Y-65796589D01*
X143113475Y-65553368D01*
X142906632Y-65346525D01*
X142663411Y-65184010D01*
X142393158Y-65072068D01*
X142106260Y-65015000D01*
X141813740Y-65015000D01*
X141526842Y-65072068D01*
X141256589Y-65184010D01*
X141013368Y-65346525D01*
X140806525Y-65553368D01*
X140690000Y-65727760D01*
X140573475Y-65553368D01*
X140366632Y-65346525D01*
X140123411Y-65184010D01*
X139853158Y-65072068D01*
X139566260Y-65015000D01*
X139273740Y-65015000D01*
X138986842Y-65072068D01*
X138716589Y-65184010D01*
X138473368Y-65346525D01*
X138266525Y-65553368D01*
X138150000Y-65727760D01*
X138033475Y-65553368D01*
X137826632Y-65346525D01*
X137583411Y-65184010D01*
X137313158Y-65072068D01*
X137026260Y-65015000D01*
X136733740Y-65015000D01*
X136446842Y-65072068D01*
X136176589Y-65184010D01*
X135933368Y-65346525D01*
X135922893Y-65357000D01*
X133708138Y-65357000D01*
X133651999Y-65351471D01*
X133595860Y-65357000D01*
X133595854Y-65357000D01*
X133450600Y-65371306D01*
X133427932Y-65373539D01*
X133362574Y-65393365D01*
X133212477Y-65438897D01*
X133013911Y-65545032D01*
X132839867Y-65687867D01*
X132804077Y-65731477D01*
X132351898Y-66183656D01*
X132425000Y-65816148D01*
X132425000Y-65247852D01*
X132314131Y-64690477D01*
X132096654Y-64165440D01*
X131780926Y-63692920D01*
X131379080Y-63291074D01*
X131220329Y-63185000D01*
X150719671Y-63185000D01*
X150560920Y-63291074D01*
G04 #@! TA.AperFunction,Conductor*
D19*
G36*
X150560920Y-63291074D02*
G01*
X150159074Y-63692920D01*
X149843346Y-64165440D01*
X149625869Y-64690477D01*
X149515000Y-65247852D01*
X149515000Y-65816148D01*
X149625869Y-66373523D01*
X149843346Y-66898560D01*
X150159074Y-67371080D01*
X150560920Y-67772926D01*
X151033440Y-68088654D01*
X151558477Y-68306131D01*
X152115852Y-68417000D01*
X152684148Y-68417000D01*
X153241523Y-68306131D01*
X153766560Y-68088654D01*
X154239080Y-67772926D01*
X154640926Y-67371080D01*
X154815000Y-67110560D01*
X154815000Y-76191361D01*
X154812133Y-76187867D01*
X154768523Y-76152077D01*
X151227927Y-72611482D01*
X151192133Y-72567867D01*
X151018089Y-72425032D01*
X150819523Y-72318897D01*
X150604067Y-72253539D01*
X150436146Y-72237000D01*
X150436139Y-72237000D01*
X150380000Y-72231471D01*
X150323861Y-72237000D01*
X150173694Y-72237000D01*
X150204494Y-72220537D01*
X150301185Y-72141185D01*
X150380537Y-72044494D01*
X150439502Y-71934180D01*
X150475812Y-71814482D01*
X150488072Y-71690000D01*
X150488072Y-69990000D01*
X150475812Y-69865518D01*
X150439502Y-69745820D01*
X150380537Y-69635506D01*
X150301185Y-69538815D01*
X150204494Y-69459463D01*
X150094180Y-69400498D01*
X149974482Y-69364188D01*
X149850000Y-69351928D01*
X148150000Y-69351928D01*
X148025518Y-69364188D01*
X147905820Y-69400498D01*
X147795506Y-69459463D01*
X147698815Y-69538815D01*
X147619463Y-69635506D01*
X147560498Y-69745820D01*
X147524188Y-69865518D01*
X147511928Y-69990000D01*
X147511928Y-71690000D01*
X147524188Y-71814482D01*
X147560498Y-71934180D01*
X147619463Y-72044494D01*
X147698815Y-72141185D01*
X147795506Y-72220537D01*
X147826306Y-72237000D01*
X143353446Y-72237000D01*
X143103000Y-71986555D01*
X143103000Y-67457107D01*
X143113475Y-67446632D01*
X143275990Y-67203411D01*
X143387932Y-66933158D01*
X143445000Y-66646260D01*
X143445000Y-66353740D01*
X143387932Y-66066842D01*
X143275990Y-65796589D01*
X143113475Y-65553368D01*
X142906632Y-65346525D01*
X142663411Y-65184010D01*
X142393158Y-65072068D01*
X142106260Y-65015000D01*
X141813740Y-65015000D01*
X141526842Y-65072068D01*
X141256589Y-65184010D01*
X141013368Y-65346525D01*
X140806525Y-65553368D01*
X140690000Y-65727760D01*
X140573475Y-65553368D01*
X140366632Y-65346525D01*
X140123411Y-65184010D01*
X139853158Y-65072068D01*
X139566260Y-65015000D01*
X139273740Y-65015000D01*
X138986842Y-65072068D01*
X138716589Y-65184010D01*
X138473368Y-65346525D01*
X138266525Y-65553368D01*
X138150000Y-65727760D01*
X138033475Y-65553368D01*
X137826632Y-65346525D01*
X137583411Y-65184010D01*
X137313158Y-65072068D01*
X137026260Y-65015000D01*
X136733740Y-65015000D01*
X136446842Y-65072068D01*
X136176589Y-65184010D01*
X135933368Y-65346525D01*
X135922893Y-65357000D01*
X133708138Y-65357000D01*
X133651999Y-65351471D01*
X133595860Y-65357000D01*
X133595854Y-65357000D01*
X133450600Y-65371306D01*
X133427932Y-65373539D01*
X133362574Y-65393365D01*
X133212477Y-65438897D01*
X133013911Y-65545032D01*
X132839867Y-65687867D01*
X132804077Y-65731477D01*
X132351898Y-66183656D01*
X132425000Y-65816148D01*
X132425000Y-65247852D01*
X132314131Y-64690477D01*
X132096654Y-64165440D01*
X131780926Y-63692920D01*
X131379080Y-63291074D01*
X131220329Y-63185000D01*
X150719671Y-63185000D01*
X150560920Y-63291074D01*
G37*
G04 #@! TD.AperFunction*
M02*
