M48
INCH,TZ
T1C0.0157
T2C0.0394
T3C0.0551
%
G90
G05
T1
X55400Y-32000
X55400Y-34000
X57000Y-28000
T2
X52283Y-27919
X52283Y-28919
X52283Y-29919
X52283Y-30919
X52283Y-31919
X52293Y-33986
X52293Y-34986
X52293Y-35986
X52293Y-36986
X52293Y-37986
X53890Y-26181
X54890Y-26181
X55890Y-26181
X56890Y-26181
X58661Y-27890
X58661Y-28890
X58661Y-29890
X58661Y-30890
X58661Y-31890
X58661Y-34055
X58661Y-35055
X58661Y-36055
X58661Y-37055
X58661Y-38055
T3
X54528Y-37402
X56496Y-37402
T0
M30
