<?xml version="1.0" encoding="UTF-8" standalone="no"?>
<svg
   xmlns:dc="http://purl.org/dc/elements/1.1/"
   xmlns:cc="http://creativecommons.org/ns#"
   xmlns:rdf="http://www.w3.org/1999/02/22-rdf-syntax-ns#"
   xmlns:svg="http://www.w3.org/2000/svg"
   xmlns="http://www.w3.org/2000/svg"
   xmlns:sodipodi="http://sodipodi.sourceforge.net/DTD/sodipodi-0.dtd"
   xmlns:inkscape="http://www.inkscape.org/namespaces/inkscape"
   inkscape:version="1.0 (4035a4f, 2020-05-01)"
   sodipodi:docname="behuizing_ledbar.svg"
   id="svg981"
   preserveAspectRatio="xMidYMid meet"
   version="1.1"
   viewBox="0 0 436 143"
   height="143mm"
   width="436mm">
  <metadata
     id="metadata987">
    <rdf:RDF>
      <cc:Work
         rdf:about="">
        <dc:format>image/svg+xml</dc:format>
        <dc:type
           rdf:resource="http://purl.org/dc/dcmitype/StillImage" />
        <dc:title></dc:title>
      </cc:Work>
    </rdf:RDF>
  </metadata>
  <defs
     id="defs985" />
  <sodipodi:namedview
     inkscape:current-layer="svg981"
     inkscape:window-maximized="0"
     inkscape:window-y="25"
     inkscape:window-x="0"
     inkscape:cy="351.63433"
     inkscape:cx="749.28596"
     inkscape:zoom="0.51731393"
     showgrid="false"
     id="namedview983"
     inkscape:window-height="798"
     inkscape:window-width="1440"
     inkscape:pageshadow="2"
     inkscape:pageopacity="0"
     guidetolerance="10"
     gridtolerance="10"
     objecttolerance="10"
     borderopacity="1"
     bordercolor="#666666"
     pagecolor="#ffffff"
     inkscape:document-rotation="0" />
  <g
     style="stroke:#f40000;stroke-width:0.25mm;fill:none;stroke-opacity:1"
     fill="none"
     stroke-width="0.25mm"
     stroke="#000"
     font-size="9pt"
     fill-rule="evenodd"
     stroke-linecap="round"
     id="svgGroup">
    <path
       vector-effect="non-scaling-stroke"
       style="stroke:#f40000;stroke-width:0.1;stroke-opacity:1"
       stroke-width="0.1"
       stroke="#FF0000"
       id="left_outsideCutPath"
       d="M 187 93 L 187 107.75 L 183 107.75 L 183 128.25 L 187 128.25 L 187 143 L 207.75 143 L 207.75 139 L 228.25 139 L 228.25 143 L 248.75 143 L 249 143 L 249 128.25 L 253 128.25 L 253 107.75 L 249 107.75 L 249 93 L 228.25 93 L 228.25 97 L 207.75 97 L 207.75 93 L 187.25 93 L 187 93 Z" />
    <path
       vector-effect="non-scaling-stroke"
       style="stroke:#f40000;stroke-width:0.1;stroke-opacity:1"
       stroke-width="0.1"
       stroke="#FF0000"
       id="top_outsideCutPath"
       d="M 260 77 L 260 97.75 L 256 97.75 L 256 118.25 L 260 118.25 L 260 138.75 L 260 139 L 274.25 139 L 274.25 143 L 294.75 143 L 294.75 139 L 315.25 139 L 315.25 143 L 335.75 143 L 335.75 139 L 356.25 139 L 356.25 143 L 376.75 143 L 376.75 139 L 397.25 139 L 397.25 143 L 417.75 143 L 417.75 139 L 432 139 L 432 118.25 L 436 118.25 L 436 97.75 L 432 97.75 L 432 77.25 L 432 77 L 417.75 77 L 417.75 73 L 397.25 73 L 397.25 77 L 376.75 77 L 376.75 73 L 356.25 73 L 356.25 77 L 335.75 77 L 335.75 73 L 315.25 73 L 315.25 77 L 294.75 77 L 294.75 73 L 274.25 73 L 274.25 77 L 260 77 Z" />
    <path
       vector-effect="non-scaling-stroke"
       style="stroke:#f40000;stroke-width:0.1;stroke-opacity:1"
       stroke-width="0.1"
       stroke="#FF0000"
       id="back_outsideCutPath"
       d="M 0 40 L 0 54.75 L 4 54.75 L 4 75.25 L 0 75.25 L 0 90 L 18.25 90 L 18.25 86 L 38.75 86 L 38.75 90 L 59.25 90 L 59.25 86 L 79.75 86 L 79.75 90 L 100.25 90 L 100.25 86 L 120.75 86 L 120.75 90 L 141.25 90 L 141.25 86 L 161.75 86 L 161.75 90 L 180 90 L 180 75.25 L 176 75.25 L 176 54.75 L 180 54.75 L 180 40 L 161.75 40 L 161.75 44 L 141.25 44 L 141.25 40 L 120.75 40 L 120.75 44 L 100.25 44 L 100.25 40 L 79.75 40 L 79.75 44 L 59.25 44 L 59.25 40 L 38.75 40 L 38.75 44 L 18.25 44 L 18.25 40 L 0 40 Z" />
    <path
       vector-effect="non-scaling-stroke"
       style="stroke:#f40000;stroke-width:0.1;stroke-opacity:1"
       stroke-width="0.1"
       stroke="#FF0000"
       id="right_outsideCutPath"
       d="M 187 40 L 187 54.75 L 183 54.75 L 183 75.25 L 187 75.25 L 187 90 L 207.75 90 L 207.75 86 L 228.25 86 L 228.25 90 L 248.75 90 L 249 90 L 249 75.25 L 253 75.25 L 253 54.75 L 249 54.75 L 249 40 L 228.25 40 L 228.25 44 L 207.75 44 L 207.75 40 L 187.25 40 L 187 40 Z" />
    <path
       vector-effect="non-scaling-stroke"
       style="stroke:#f40000;stroke-width:0.1;stroke-opacity:1"
       stroke-width="0.1"
       stroke="#FF0000"
       id="bottom_outsideCutPath"
       d="M 260 4 L 260 24.75 L 256 24.75 L 256 45.25 L 260 45.25 L 260 65.75 L 260 66 L 274.25 66 L 274.25 70 L 294.75 70 L 294.75 66 L 315.25 66 L 315.25 70 L 335.75 70 L 335.75 66 L 356.25 66 L 356.25 70 L 376.75 70 L 376.75 66 L 397.25 66 L 397.25 70 L 417.75 70 L 417.75 66 L 432 66 L 432 45.25 L 436 45.25 L 436 24.75 L 432 24.75 L 432 4.25 L 432 4 L 417.75 4 L 417.75 0 L 397.25 0 L 397.25 4 L 376.75 4 L 376.75 0 L 356.25 0 L 356.25 4 L 335.75 4 L 335.75 0 L 315.25 0 L 315.25 4 L 294.75 4 L 294.75 0 L 274.25 0 L 274.25 4 L 260 4 Z" />
  </g>
  <path
     vector-effect="non-scaling-stroke"
     style="fill:none;stroke:#f40000;stroke-width:0.1;stroke-opacity:1"
     stroke-width="0.1"
     stroke="#FF0000"
     id="front_outsideCutPath"
     d="m 0,93 v 14.75 h 4 v 20.5 H 0 V 143 h 18.25 v -4 h 20.5 v 4 h 20.5 v -4 h 20.5 v 4 h 20.5 v -4 h 20.5 v 4 h 20.5 v -4 h 20.5 v 4 H 180 v -14.75 h -4 v -20.5 h 4 V 93 h -18.25 v 4 h -20.5 v -4 h -20.5 v 4 h -20.5 v -4 h -20.5 v 4 h -20.5 v -4 h -20.5 v 4 h -20.5 v -4 z" />
  <path
     sodipodi:nodetypes="ssssssscccccccccssssssccccccsccsscsssscccccccccsssscssccccscsccssssssssssscssscscs"
     id="path1145"
     d="m 59.361905,130.87702 c -0.17557,-0.17552 -0.224558,-0.36226 -0.224558,-0.856 0,-0.86102 0.141663,-0.97103 1.250407,-0.97103 0.808498,0 0.852547,0.0121 0.955001,0.26312 0.16683,0.40868 0.130162,1.3022 -0.06404,1.56043 -0.149018,0.19815 -0.27092,0.22797 -0.93185,0.22797 -0.640415,0 -0.795838,-0.0354 -0.984962,-0.22449 z m 1.625685,-0.82691 0.03303,-0.58981 h -0.666301 -0.666301 v 0.62057 0.62058 l 0.633271,-0.0308 0.633272,-0.0308 z m 1.415781,0.86382 c -0.153046,-0.15751 -0.182267,-0.44165 -0.182267,-1.77226 0,-1.99767 0.02298,-2.04062 1.090513,-2.04062 1.10693,0 1.112162,0.01 1.112162,2.02663 0,1.98493 0.0062,1.97383 -1.092138,1.97383 -0.582843,0 -0.785867,-0.041 -0.92827,-0.18758 z m 1.555212,-1.78701 -0.03041,-1.56428 h -0.605732 -0.605739 l -0.03078,1.43113 c -0.01692,0.78711 -0.0062,1.49104 0.0241,1.56428 0.0359,0.0871 0.266768,0.13316 0.666928,0.13316 h 0.612063 z m 1.41841,1.78701 c -0.159424,-0.16407 -0.18227,-0.51055 -0.18227,-2.76374 0,-2.54584 0.0031,-2.57803 0.24477,-2.73583 0.282427,-0.18424 1.413034,-0.2189 1.744881,-0.0535 0.202368,0.10087 0.213027,0.24188 0.213027,2.81723 0,3.12571 0.07834,2.92342 -1.132093,2.92342 -0.544137,0 -0.747842,-0.043 -0.888315,-0.18759 z m 1.634939,-2.73583 v -2.46183 l -0.633268,-0.0308 -0.633273,-0.0308 v 2.52335 2.52335 l 0.633273,-0.0308 0.633268,-0.0308 z m 1.530836,2.84491 c -0.340357,-0.21166 -0.374424,-0.56117 -0.374424,-3.84111 0,-3.97306 -0.06056,-3.77359 1.14558,-3.77359 1.243495,0 1.167233,-0.25314 1.167233,3.87451 v 3.49933 l -0.244771,0.15968 c -0.25521,0.16649 -1.463327,0.2244 -1.693618,0.0812 z m 1.442785,-3.7681 v -3.385 H 69.32475 68.663948 l -0.02304,3.25927 c -0.01268,1.79261 0.0056,3.32953 0.04127,3.41539 0.04926,0.11956 0.209399,0.149 0.683855,0.12573 l 0.619537,-0.0304 z M 59.385148,125.8022 c -0.246225,-0.0925 -0.145897,-0.39727 0.247802,-0.75267 0.212009,-0.19138 0.38547,-0.37606 0.38547,-0.41038 0,-0.0343 -0.175514,-0.24088 -0.39003,-0.459 -0.216471,-0.22011 -0.363496,-0.46099 -0.330402,-0.54132 0.03279,-0.0796 0.05963,-0.16402 0.05963,-0.18762 0,-0.15271 0.344345,0.012 0.660805,0.31612 0.205487,0.19746 0.423751,0.35902 0.485031,0.35902 0.06128,0 0.295865,-0.16775 0.521297,-0.37277 0.260426,-0.23685 0.472946,-0.35023 0.582848,-0.31095 0.277265,0.0991 0.202052,0.37243 -0.223092,0.81072 l -0.396062,0.40831 0.396062,0.37777 c 0.217834,0.20777 0.39606,0.4566 0.39606,0.55295 0,0.30205 -0.477914,0.20357 -0.878057,-0.18094 l -0.370599,-0.35612 -0.474552,0.40741 c -0.261003,0.22407 -0.488049,0.40376 -0.504546,0.39931 -0.0165,-0.005 -0.09194,-0.0314 -0.167663,-0.0598 z"
     style="fill:#000000;fill-opacity:1;stroke:none;stroke-width:0.026572mm;stroke-opacity:1" />
  <g
     style="fill:#000000;stroke:none;stroke-width:0.25mm;stroke-opacity:1;fill-opacity:1"
     transform="translate(16.937548,-2.6714752)"
     id="g2040">
    <path
       sodipodi:nodetypes="csssssscscccccccscsssscsccccsccsccssssccsccccccsscscsscccsscsccsss"
       id="path1145-9"
       d="m 64.502886,133.53698 c -0.17557,-0.17552 -0.224558,-0.36226 -0.224558,-0.856 0,-0.86102 0.141663,-0.97103 1.250407,-0.97103 0.808498,0 0.852547,0.0121 0.955001,0.26312 0.16683,0.40868 0.130162,1.3022 -0.06404,1.56043 -0.149018,0.19815 -0.27092,0.22797 -0.93185,0.22797 -0.640415,0 -0.795838,-0.0354 -0.984962,-0.22449 z m 1.625685,-0.82691 0.03303,-0.58981 H 65.4953 64.828999 v 0.62057 0.62058 l 0.633271,-0.0308 0.633272,-0.0308 z m 1.415781,0.86382 c -0.153046,-0.15751 -0.182267,-0.44165 -0.182267,-1.77226 0,-1.99767 0.02298,-2.04062 1.090513,-2.04062 1.10693,0 1.112162,0.01 1.112162,2.02663 0,1.98493 0.0062,1.97383 -1.092138,1.97383 -0.582843,0 -0.785867,-0.041 -0.92827,-0.18758 z m 1.555212,-1.78701 -0.03041,-1.56428 h -0.605732 -0.605739 l -0.03078,1.43113 c -0.01692,0.78711 -0.0062,1.49104 0.0241,1.56428 0.0359,0.0871 0.266768,0.13316 0.666928,0.13316 h 0.612063 z m 1.41841,1.78701 c -0.159424,-0.16407 -0.18227,-0.51055 -0.18227,-2.76374 0,-2.54584 0.0031,-2.57803 0.24477,-2.73583 0.282427,-0.18424 1.413034,-0.2189 1.744881,-0.0535 0.202368,0.10087 0.213027,0.24188 0.213027,2.81723 0,3.12571 0.07834,2.92342 -1.132093,2.92342 -0.544137,0 -0.747842,-0.043 -0.888315,-0.18759 z m 1.634939,-2.73583 v -2.46183 l -0.633268,-0.0308 -0.633273,-0.0308 v 2.52335 2.52335 l 0.633273,-0.0308 0.633268,-0.0308 z m 1.530836,2.84491 c -0.340357,-0.21166 -0.374424,-0.56117 -0.374424,-3.84111 0,-3.97306 -0.06056,-3.77359 1.14558,-3.77359 1.243495,0 1.167233,-0.25314 1.167233,3.87451 v 3.49933 l -0.244771,0.15968 c -0.25521,0.16649 -1.463327,0.2244 -1.693618,0.0812 z m 1.442785,-3.7681 v -3.385 h -0.660803 -0.660802 l -0.02304,3.25927 c -0.01268,1.79261 0.0056,3.32953 0.04127,3.41539 0.04926,0.11956 0.209399,0.149 0.683855,0.12573 l 0.619537,-0.0304 z"
       style="fill:#000000;fill-opacity:1;stroke:none;stroke-width:0.0265721mm;stroke-opacity:1" />
    <rect
       style="fill:#000000;fill-opacity:1;stroke:none;stroke-width:0.16166;stroke-opacity:1"
       id="rect2036"
       width="1.2665429"
       height="1.1795501"
       x="64.828995"
       y="132.12025"
       ry="0" />
  </g>
  <g
     style="fill:#000000;stroke:none;stroke-width:0.25mm;stroke-opacity:1;fill-opacity:1"
     transform="translate(12.784482,-2.1163052)"
     id="g2049">
    <path
       sodipodi:nodetypes="csssssscscccccccscsssscsccccsccsccssssccsccccccsscscsscccsscsccsss"
       id="path1145-5"
       d="m 90.734481,132.98181 c -0.17557,-0.17552 -0.224558,-0.36226 -0.224558,-0.856 0,-0.86102 0.141663,-0.97103 1.250407,-0.97103 0.808498,0 0.852547,0.0121 0.955001,0.26312 0.16683,0.40868 0.130162,1.3022 -0.06404,1.56043 -0.149018,0.19815 -0.27092,0.22797 -0.93185,0.22797 -0.640415,0 -0.795838,-0.0354 -0.984962,-0.22449 z m 1.625685,-0.82691 0.03303,-0.58981 h -0.666301 -0.666301 v 0.62057 0.62058 l 0.633271,-0.0308 0.633272,-0.0308 z m 1.415776,0.86382 c -0.153041,-0.15751 -0.182262,-0.44165 -0.182262,-1.77226 0,-1.99767 0.02298,-2.04062 1.090512,-2.04062 1.10693,0 1.11216,0.01 1.11216,2.02663 0,1.98493 0.006,1.97383 -1.09214,1.97383 -0.58284,0 -0.78586,-0.041 -0.92827,-0.18758 z m 1.55522,-1.78701 -0.0304,-1.56428 h -0.60574 -0.60573 l -0.0308,1.43113 c -0.0169,0.78711 -0.006,1.49104 0.0241,1.56428 0.0359,0.0871 0.26676,0.13316 0.66692,0.13316 h 0.61207 z m 1.41841,1.78701 c -0.15943,-0.16407 -0.18227,-0.51055 -0.18227,-2.76374 0,-2.54584 0.003,-2.57803 0.24477,-2.73583 0.28242,-0.18424 1.41303,-0.2189 1.74488,-0.0535 0.20237,0.10087 0.21302,0.24188 0.21302,2.81723 0,3.12571 0.0783,2.92342 -1.13209,2.92342 -0.54414,0 -0.74784,-0.043 -0.88831,-0.18759 z m 1.63494,-2.73583 v -2.46183 l -0.63327,-0.0308 -0.63328,-0.0308 v 2.52335 2.52335 l 0.63328,-0.0308 0.63327,-0.0308 z m 1.53083,2.84491 c -0.34036,-0.21166 -0.37442,-0.56117 -0.37442,-3.84111 0,-3.97306 -0.0606,-3.77359 1.145578,-3.77359 1.24349,0 1.16723,-0.25314 1.16723,3.87451 v 3.49933 l -0.24477,0.15968 c -0.25521,0.16649 -1.46333,0.2244 -1.693618,0.0812 z m 1.442788,-3.7681 v -3.385 h -0.66081 -0.6608 l -0.023,3.25927 c -0.0127,1.79261 0.006,3.32953 0.0413,3.41539 0.0493,0.11956 0.2094,0.149 0.68386,0.12573 l 0.61953,-0.0304 z"
       style="fill:#000000;fill-opacity:1;stroke:none;stroke-width:0.0265721mm;stroke-opacity:1" />
    <rect
       style="fill:#000000;fill-opacity:1;stroke:none;stroke-width:0.16166;stroke-opacity:1"
       id="rect2042"
       width="1.576408"
       height="1.4863275"
       x="90.891174"
       y="131.41237" />
    <rect
       style="fill:#000000;fill-opacity:1;stroke:none;stroke-width:0.16166;stroke-opacity:1"
       id="rect2044"
       width="1.576408"
       height="3.2879367"
       x="93.953918"
       y="129.52068" />
  </g>
  <g
     style="fill:#000000;stroke:none;stroke-width:0.25mm;stroke-opacity:1;fill-opacity:1"
     transform="translate(10.990872,-2.3938952)"
     id="g2061">
    <path
       sodipodi:nodetypes="csssssscscccccccscsssscsccccsccsccssssccsccccccsscscsscccsscsccsss"
       id="path1145-7"
       d="m 114.60662,133.2594 c -0.17557,-0.17552 -0.22456,-0.36226 -0.22456,-0.856 0,-0.86102 0.14166,-0.97103 1.25041,-0.97103 0.80849,0 0.85254,0.0121 0.955,0.26312 0.16683,0.40868 0.13016,1.3022 -0.064,1.56043 -0.14902,0.19815 -0.27092,0.22797 -0.93185,0.22797 -0.64042,0 -0.79584,-0.0354 -0.98496,-0.22449 z m 1.62568,-0.82691 0.033,-0.58981 h -0.6663 -0.6663 v 0.62057 0.62058 l 0.63327,-0.0308 0.63327,-0.0308 z m 1.41578,0.86382 c -0.15304,-0.15751 -0.18226,-0.44165 -0.18226,-1.77226 0,-1.99767 0.023,-2.04062 1.09051,-2.04062 1.10693,0 1.11216,0.01 1.11216,2.02663 0,1.98493 0.006,1.97383 -1.09214,1.97383 -0.58284,0 -0.78586,-0.041 -0.92827,-0.18758 z m 1.55522,-1.78701 -0.0304,-1.56428 h -0.60574 -0.60574 l -0.0308,1.43113 c -0.0169,0.78711 -0.006,1.49104 0.0241,1.56428 0.0359,0.0871 0.26676,0.13316 0.66692,0.13316 h 0.61207 z m 1.41841,1.78701 c -0.15943,-0.16407 -0.18227,-0.51055 -0.18227,-2.76374 0,-2.54584 0.003,-2.57803 0.24477,-2.73583 0.28242,-0.18424 1.41303,-0.2189 1.74488,-0.0535 0.20236,0.10087 0.21302,0.24188 0.21302,2.81723 0,3.12571 0.0783,2.92342 -1.13209,2.92342 -0.54414,0 -0.74784,-0.043 -0.88831,-0.18759 z m 1.63493,-2.73583 v -2.46183 l -0.63326,-0.0308 -0.63328,-0.0308 v 2.52335 2.52335 l 0.63328,-0.0308 0.63326,-0.0308 z m 1.53084,2.84491 c -0.34036,-0.21166 -0.37442,-0.56117 -0.37442,-3.84111 0,-3.97306 -0.0606,-3.77359 1.14558,-3.77359 1.24349,0 1.16723,-0.25314 1.16723,3.87451 v 3.49933 l -0.24477,0.15968 c -0.25521,0.16649 -1.46333,0.2244 -1.69362,0.0812 z m 1.44279,-3.7681 v -3.385 h -0.66081 -0.6608 l -0.023,3.25927 c -0.0127,1.79261 0.006,3.32953 0.0413,3.41539 0.0493,0.11956 0.2094,0.149 0.68386,0.12573 l 0.61953,-0.0304 z"
       style="fill:#000000;fill-opacity:1;stroke:none;stroke-width:0.0265721mm;stroke-opacity:1" />
    <rect
       style="fill:#000000;fill-opacity:1;stroke:none;stroke-width:0.16166;stroke-opacity:1"
       id="rect2051"
       width="1.2665401"
       height="1.1795501"
       x="114.9327"
       y="131.84268" />
    <rect
       style="fill:#000000;fill-opacity:1;stroke:none;stroke-width:0.16166;stroke-opacity:1"
       id="rect2053"
       width="1.27229"
       height="3.1285701"
       x="117.96143"
       y="129.94502" />
    <rect
       style="fill:#000000;fill-opacity:1;stroke:none;stroke-width:0.16166;stroke-opacity:1"
       id="rect2055"
       width="1.2665401"
       height="4.9850998"
       x="120.9901"
       y="128.03705" />
  </g>
  <g
     style="fill:#000000;stroke:none;stroke-width:0.25mm;stroke-opacity:1;fill-opacity:1"
     transform="translate(13.916171,-1.283561)"
     id="g2076">
    <path
       sodipodi:nodetypes="csssssscscccccccscsssscsccccsccsccssssccsccccccsscscsscccsscsccsss"
       id="path1145-2"
       d="m 133.75985,132.14907 c -0.17557,-0.17552 -0.22456,-0.36226 -0.22456,-0.856 0,-0.86102 0.14166,-0.97103 1.25041,-0.97103 0.80849,0 0.85254,0.0121 0.955,0.26312 0.16683,0.40868 0.13016,1.3022 -0.064,1.56043 -0.14902,0.19815 -0.27092,0.22797 -0.93185,0.22797 -0.64042,0 -0.79584,-0.0354 -0.98496,-0.22449 z m 1.62568,-0.82691 0.033,-0.58981 h -0.6663 -0.6663 v 0.62057 0.62058 l 0.63327,-0.0308 0.63327,-0.0308 z m 1.41578,0.86382 c -0.15304,-0.15751 -0.18226,-0.44165 -0.18226,-1.77226 0,-1.99767 0.023,-2.04062 1.09051,-2.04062 1.10693,0 1.11216,0.01 1.11216,2.02663 0,1.98493 0.006,1.97383 -1.09214,1.97383 -0.58284,0 -0.78586,-0.041 -0.92827,-0.18758 z m 1.55522,-1.78701 -0.0304,-1.56428 h -0.60574 -0.60574 l -0.0308,1.43113 c -0.0169,0.78711 -0.006,1.49104 0.0241,1.56428 0.0359,0.0871 0.26676,0.13316 0.66692,0.13316 h 0.61207 z m 1.41841,1.78701 c -0.15943,-0.16407 -0.18227,-0.51055 -0.18227,-2.76374 0,-2.54584 0.003,-2.57803 0.24477,-2.73583 0.28242,-0.18424 1.41303,-0.2189 1.74488,-0.0535 0.20236,0.10087 0.21302,0.24188 0.21302,2.81723 0,3.12571 0.0783,2.92342 -1.13209,2.92342 -0.54414,0 -0.74784,-0.043 -0.88831,-0.18759 z m 1.63493,-2.73583 v -2.46183 l -0.63326,-0.0308 -0.63328,-0.0308 v 2.52335 2.52335 l 0.63328,-0.0308 0.63326,-0.0308 z m 1.53084,2.84491 c -0.34036,-0.21166 -0.37442,-0.56117 -0.37442,-3.84111 0,-3.97306 -0.0606,-3.77359 1.14558,-3.77359 1.24349,0 1.16723,-0.25314 1.16723,3.87451 v 3.49933 l -0.24477,0.15968 c -0.25521,0.16649 -1.46333,0.2244 -1.69362,0.0812 z m 1.44279,-3.7681 v -3.385 h -0.66081 -0.6608 l -0.023,3.25927 c -0.0127,1.79261 0.006,3.32953 0.0413,3.41539 0.0493,0.11956 0.2094,0.149 0.68386,0.12573 l 0.61953,-0.0304 z"
       style="fill:#000000;fill-opacity:1;stroke:none;stroke-width:0.0265721mm;stroke-opacity:1" />
    <rect
       style="fill:#000000;fill-opacity:1;stroke:none;stroke-width:0.16166;stroke-opacity:1"
       id="rect2063"
       width="1.2665401"
       height="1.1795501"
       x="134.08594"
       y="130.73235" />
    <rect
       style="fill:#000000;fill-opacity:1;stroke:none;stroke-width:0.16166;stroke-opacity:1"
       id="rect2065"
       width="1.27229"
       height="3.1285701"
       x="137.11465"
       y="128.83469" />
    <rect
       style="fill:#000000;fill-opacity:1;stroke:none;stroke-width:0.16166;stroke-opacity:1"
       id="rect2067"
       width="1.2665401"
       height="4.9850998"
       x="140.14333"
       y="126.92672" />
    <rect
       style="fill:#000000;fill-opacity:1;stroke:none;stroke-width:0.14895;stroke-opacity:1"
       id="rect2069"
       width="1.5438856"
       height="6.9069676"
       x="142.9507"
       y="125.1446" />
  </g>
  <path
     id="path2260"
     d="m 13.681653,134.09626 c 0.02113,-0.13624 9.148937,-28.33815 9.344755,-28.8722 0.0255,-0.0696 0.231187,-0.0879 0.274873,-0.0245 0.05622,0.0815 9.375805,28.81308 9.384917,28.93291 0.0061,0.0814 -0.02426,0.13177 -0.08663,0.14343 -0.115428,0.0215 -0.0066,0.33019 -1.354899,-3.83973 -0.571551,-1.76752 -1.080456,-3.25195 -1.130901,-3.29872 -0.109646,-0.10168 -6.89002,-4.32804 -6.940237,-4.32602 -0.03184,0.001 -6.906391,4.28144 -6.974075,4.34213 -0.01617,0.0145 -0.542871,1.60695 -1.170433,3.53874 -0.62756,1.93181 -1.153864,3.53101 -1.169563,3.55378 -0.01571,0.0228 -0.06879,0.0415 -0.118005,0.0415 -0.07074,0 -0.08325,-0.04 -0.0598,-0.1913 z m 5.977008,-9.37327 c 1.801875,-1.12224 3.276347,-2.05191 3.276607,-2.06593 5.67e-4,-0.0305 -4.386374,-2.76423 -4.402545,-2.74348 -0.0061,0.007 -0.505284,1.54088 -1.109162,3.40661 -0.603877,1.86572 -1.110933,3.41242 -1.126789,3.4371 -0.01585,0.0248 -0.003,0.0362 0.02846,0.0255 0.0315,-0.0101 1.531552,-0.93756 3.333428,-2.05979 z m 9.281107,-1.37578 c -0.609187,-1.87577 -1.114129,-3.41635 -1.122091,-3.42349 -0.03177,-0.0285 -4.337663,2.68378 -4.337663,2.73229 0,0.0485 6.520917,4.14336 6.552785,4.11478 0.008,-0.007 -0.483844,-1.54781 -1.093031,-3.42358 z m -3.503707,-2.2287 c 1.176908,-0.73284 2.160733,-1.34908 2.186274,-1.36945 0.03364,-0.0268 -3.762778,-2.29657 -4.382804,-2.62034 -0.04194,-0.0219 -0.965759,0.4874 -2.313385,1.27535 l -2.243562,1.3118 1.147197,0.71528 c 0.630958,0.39341 1.633582,1.02002 2.228052,1.39246 0.594472,0.37246 1.116304,0.66596 1.159626,0.65225 0.04332,-0.0144 1.041693,-0.62451 2.218602,-1.35735 z m -4.470118,-3.00144 c 1.081288,-0.63127 1.945466,-1.16654 1.920397,-1.18951 -0.02508,-0.0229 -0.669725,-0.40658 -1.43257,-0.85249 -1.172574,-0.6854 -1.393618,-0.79723 -1.429866,-0.72339 -0.02359,0.0481 -0.32498,0.95961 -0.669774,2.02574 -0.344796,1.06612 -0.639305,1.96948 -0.654466,2.00744 -0.01903,0.0477 0.02325,0.0397 0.136374,-0.0255 0.09016,-0.052 1.048624,-0.61103 2.129911,-1.2423 z m 6.041629,-0.7169 c -0.358934,-1.10556 -0.664773,-2.03854 -0.679643,-2.07329 -0.0289,-0.0675 -2.884013,1.55973 -2.860442,1.63031 0.01304,0.0392 4.153453,2.47828 4.178993,2.46189 0.0075,-0.006 -0.279976,-0.91334 -0.638908,-2.01891 z m -2.326654,-1.45622 c 0.794393,-0.46578 1.44316,-0.86175 1.441702,-0.87995 -0.005,-0.0619 -2.85727,-1.76748 -2.951125,-1.76461 -0.09733,0.003 -2.985391,1.75349 -2.948123,1.78692 0.0758,0.068 2.918348,1.70449 2.960614,1.70449 0.02893,0 0.70254,-0.3811 1.496932,-0.84685 z m -1.812128,-2.79488 c 0.05622,-0.0478 -0.118979,-0.17694 -0.822816,-0.60634 -0.491832,-0.30004 -0.911614,-0.52866 -0.932851,-0.50801 -0.03297,0.032 -0.904125,2.66898 -0.904125,2.73671 0,0.0269 2.547921,-1.52715 2.659792,-1.62236 z m 2.843302,0.26224 c -0.248434,-0.76453 -0.459916,-1.39783 -0.469962,-1.40736 -0.01006,-0.0101 -0.429289,0.23425 -0.931654,0.54171 l -0.913389,0.55901 1.378313,0.84724 c 0.758073,0.46598 1.38058,0.84773 1.383352,0.84834 0.0027,6.2e-4 -0.198227,-0.62442 -0.44666,-1.38894 z m -1.598859,-1.00922 c 0.465217,-0.28586 0.875939,-0.54585 0.912715,-0.57781 0.0506,-0.0439 -0.108625,-0.17225 -0.654204,-0.52722 -0.396587,-0.25802 -0.827003,-0.53932 -0.956481,-0.6251 l -0.235413,-0.15595 -0.930775,0.61299 c -0.511926,0.33714 -0.936541,0.62992 -0.943586,0.65061 -0.019,0.0557 1.822404,1.18203 1.897547,1.16058 0.03539,-0.0101 0.444979,-0.25225 0.910197,-0.5381 z m -1.270391,-2.09238 c -0.0563,-0.0478 -0.299101,-0.21587 -0.539556,-0.37331 -0.367385,-0.24057 -0.441978,-0.27209 -0.467135,-0.19744 -0.145817,0.43266 -0.546295,1.68889 -0.546295,1.7136 0,0.0173 0.372453,-0.21319 0.827674,-0.51217 0.788684,-0.518 0.822851,-0.54771 0.725312,-0.63068 z m 1.954866,0.28326 c -0.159256,-0.49099 -0.309215,-0.89271 -0.333244,-0.89271 -0.02402,0 -0.275643,0.15209 -0.559147,0.33798 l -0.515459,0.33798 0.839383,0.55471 c 0.46166,0.3051 0.843574,0.55471 0.848702,0.55471 0.0052,0 -0.120975,-0.4017 -0.280235,-0.89267 z m -1.045479,-0.72361 c 0.288313,-0.18756 0.537006,-0.35071 0.55265,-0.36254 0.02833,-0.0215 -0.436013,-0.41527 -0.896055,-0.75997 l -0.241851,-0.18123 -0.497682,0.39822 c -0.273726,0.21901 -0.531599,0.4252 -0.573051,0.45818 -0.06028,0.048 0.03633,0.13292 0.482543,0.42417 0.30685,0.2003 0.57846,0.36419 0.603576,0.36419 0.02511,0 0.281557,-0.15346 0.56987,-0.34102 z m -1.170745,-1.12892 0.409876,-0.32853 -0.267658,-0.21881 c -0.147216,-0.12039 -0.284027,-0.20347 -0.304034,-0.18474 -0.02,0.0187 -0.102622,0.24314 -0.183578,0.49868 -0.08097,0.25555 -0.164939,0.50608 -0.186618,0.55673 -0.05531,0.12918 0.03856,0.0723 0.532012,-0.32333 z m 1.547521,-0.20605 -0.181718,-0.56551 -0.210664,0.14961 c -0.375342,0.26658 -0.377212,0.27556 -0.103565,0.49868 0.46308,0.37758 0.643328,0.51352 0.660481,0.49814 0.0094,-0.009 -0.06458,-0.26989 -0.164534,-0.58092 z m -0.316485,-0.77562 c 0.02643,-0.0204 -0.100359,-0.49789 -0.281756,-1.06094 -0.181406,-0.56305 -0.343834,-1.01119 -0.360952,-0.99587 -0.01711,0.0153 -0.176654,0.46786 -0.354526,1.00562 l -0.323406,0.97776 0.345674,0.29354 0.345676,0.29354 0.290609,-0.23822 c 0.159836,-0.13105 0.312242,-0.25497 0.338681,-0.27543 z m -4.511027,-1.34236 c -0.151239,-0.35669 -0.196161,-0.62452 -0.197868,-1.1796 -0.0015,-0.50011 0.02231,-0.68215 0.130325,-0.99471 0.369485,-1.06929 1.14051,-1.88228 2.208425,-2.32864 0.562972,-0.2353 1.073576,-0.3314 1.750872,-0.32952 1.129746,0.003 2.060517,0.34667 2.845405,1.05027 0.791076,0.70915 1.158927,1.44718 1.210037,2.42772 0.02634,0.50531 -0.0064,0.76732 -0.16057,1.28437 -0.04134,0.13868 -0.08773,0.19129 -0.168614,0.19129 -0.06136,0 -0.111579,-0.007 -0.111579,-0.0174 0,-0.0101 0.05121,-0.19684 0.113778,-0.41624 0.232521,-0.81524 0.112003,-1.73986 -0.324458,-2.48936 -0.293929,-0.50472 -1.03826,-1.17431 -1.581263,-1.42247 -1.014232,-0.46351 -1.990472,-0.54354 -3.043467,-0.2495 -0.54623,0.15254 -1.05427,0.44037 -1.541448,0.87334 -0.529766,0.47079 -0.91427,1.11253 -1.048183,1.7494 -0.128879,0.61295 -0.104901,0.96386 0.126962,1.85741 0.0415,0.15994 -0.140177,0.15435 -0.208342,-0.006 z m 1.866022,-0.55631 c -0.116717,-0.19557 -0.129177,-0.8038 -0.02318,-1.13076 0.39883,-1.23022 1.983714,-1.77655 3.171303,-1.09319 0.702901,0.40447 1.081958,1.15718 0.950721,1.8879 -0.06587,0.36678 -0.140428,0.48324 -0.254853,0.39808 -0.05584,-0.0416 -0.06009,-0.09 -0.0168,-0.19192 0.03184,-0.075 0.05698,-0.3038 0.05581,-0.5085 -0.0028,-0.50508 -0.195444,-0.89143 -0.616442,-1.23645 -0.941136,-0.7713 -2.409973,-0.49637 -2.98682,0.55905 -0.09956,0.18217 -0.127716,0.32298 -0.128266,0.64149 -3.97e-4,0.22445 0.01983,0.47978 0.04491,0.5674 0.05778,0.20184 -0.09129,0.28298 -0.196385,0.10685 z"
     style="fill:#000000;fill-opacity:1;stroke:none;stroke-width:0.0134673mm;stroke-opacity:1" />
  <text
     transform="scale(0.97118306,1.029672)"
     id="text2264"
     y="112.63589"
     x="34.49292"
     style="font-style:normal;font-variant:normal;font-weight:normal;font-stretch:normal;font-size:14.11110000000000042px;line-height:1.25;font-family:'Avenir Next';-inkscape-font-specification:'Avenir Next, Normal';font-variant-ligatures:normal;font-variant-caps:normal;font-variant-numeric:normal;font-variant-east-asian:normal;fill:#000000;fill-opacity:1;stroke:none;stroke-width:0.0830891mm;stroke-opacity:1;"
     xml:space="preserve"><tspan
       style="font-style:normal;font-variant:normal;font-weight:normal;font-stretch:normal;font-size:14.11110000000000042px;font-family:'Avenir Next';-inkscape-font-specification:'Avenir Next, Normal';font-variant-ligatures:normal;font-variant-caps:normal;font-variant-numeric:normal;font-variant-east-asian:normal;fill:#000000;fill-opacity:1;stroke:none;stroke-width:0.0830891mm;stroke-opacity:1;"
       y="112.63589"
       x="34.49292"
       id="tspan2262"
       sodipodi:role="line">5G</tspan></text>
  <circle
     style="fill:none;stroke:#f40000;stroke-width:0.0857284;stroke-miterlimit:4;stroke-dasharray:none;stroke-opacity:1"
     id="path905"
     cx="72.753227"
     cy="116.22911"
     r="2.4571357" />
  <circle
     r="2.4571357"
     cy="116.22911"
     cx="93.753227"
     id="path905-48"
     style="fill:none;stroke:#f40000;stroke-width:0.0857284;stroke-miterlimit:4;stroke-dasharray:none;stroke-opacity:1" />
  <circle
     r="2.4571357"
     cy="116.22911"
     cx="104.25323"
     id="path905-6"
     style="fill:none;stroke:#f40000;stroke-width:0.0857284;stroke-miterlimit:4;stroke-dasharray:none;stroke-opacity:1" />
  <circle
     r="2.4571357"
     cy="-116.22911"
     cx="83.253227"
     id="path905-9"
     style="fill:none;stroke:#f40000;stroke-width:0.0857284;stroke-miterlimit:4;stroke-dasharray:none;stroke-opacity:1"
     transform="scale(1,-1)" />
  <circle
     style="fill:none;stroke:#f40000;stroke-width:0.0857284;stroke-miterlimit:4;stroke-dasharray:none;stroke-opacity:1"
     id="path905-6-4"
     cx="114.75323"
     cy="116.22911"
     r="2.4571357" />
  <circle
     style="fill:none;stroke:#f40000;stroke-width:0.0857284;stroke-miterlimit:4;stroke-dasharray:none;stroke-opacity:1"
     id="path905-6-7"
     cx="125.25323"
     cy="116.22911"
     r="2.4571357" />
  <circle
     style="fill:none;stroke:#f40000;stroke-width:0.0857284;stroke-miterlimit:4;stroke-dasharray:none;stroke-opacity:1"
     id="path905-6-70"
     cx="135.75322"
     cy="116.22911"
     r="2.4571357" />
  <circle
     style="fill:none;stroke:#f40000;stroke-width:0.0857284;stroke-miterlimit:4;stroke-dasharray:none;stroke-opacity:1"
     id="path905-6-6"
     cx="146.25322"
     cy="116.22911"
     r="2.4571357" />
</svg>
