<?xml version="1.0" encoding="UTF-8" standalone="no"?>
<svg
   xmlns:dc="http://purl.org/dc/elements/1.1/"
   xmlns:cc="http://creativecommons.org/ns#"
   xmlns:rdf="http://www.w3.org/1999/02/22-rdf-syntax-ns#"
   xmlns:svg="http://www.w3.org/2000/svg"
   xmlns="http://www.w3.org/2000/svg"
   xmlns:sodipodi="http://sodipodi.sourceforge.net/DTD/sodipodi-0.dtd"
   xmlns:inkscape="http://www.inkscape.org/namespaces/inkscape"
   inkscape:export-ydpi="95.400002"
   inkscape:export-xdpi="95.400002"
   inkscape:export-filename="/Users/lisadevuyst/bitmap.png"
   width="210mm"
   height="297mm"
   viewBox="0 0 210 297"
   version="1.1"
   id="svg8"
   inkscape:version="1.0 (4035a4f, 2020-05-01)"
   sodipodi:docname="plattegrond.svg">
  <defs
     id="defs2" />
  <sodipodi:namedview
     id="base"
     pagecolor="#ffffff"
     bordercolor="#666666"
     borderopacity="1.0"
     inkscape:pageopacity="0.0"
     inkscape:pageshadow="2"
     inkscape:zoom="0.83484994"
     inkscape:cx="440.75327"
     inkscape:cy="329.88523"
     inkscape:document-units="mm"
     inkscape:current-layer="g842"
     inkscape:document-rotation="0"
     showgrid="false"
     inkscape:window-width="1440"
     inkscape:window-height="798"
     inkscape:window-x="0"
     inkscape:window-y="25"
     inkscape:window-maximized="0" />
  <metadata
     id="metadata5">
    <rdf:RDF>
      <cc:Work
         rdf:about="">
        <dc:format>image/svg+xml</dc:format>
        <dc:type
           rdf:resource="http://purl.org/dc/dcmitype/StillImage" />
        <dc:title />
      </cc:Work>
    </rdf:RDF>
  </metadata>
  <g
     inkscape:label="Layer 1"
     inkscape:groupmode="layer"
     id="layer1">
    <g
       id="g842">
      <path
         id="rect10"
         style="fill:none;fill-opacity:1;stroke:#000000;stroke-width:1;stroke-miterlimit:4;stroke-dasharray:none;stroke-opacity:1"
         d="M 111.07686,116.62112 H 67.975908 20.209205 l 0.21596,-95.537076 H 190.63488 l -0.21596,95.537076"
         sodipodi:nodetypes="cccccc" />
      <path
         id="rect835"
         style="fill:none;fill-opacity:1;stroke:#000000;stroke-width:1;stroke-miterlimit:4;stroke-dasharray:none;stroke-opacity:1"
         d="m 190.63489,116.62112 v 36.45782 h -28.81485 m -46.07743,-36.45782 v 36.45782 h 26.09618 l 18.99626,-9.97374 -18.99626,9.97374"
         sodipodi:nodetypes="cccccc" />
      <rect
         y="57.515163"
         x="111.10375"
         height="95.563789"
         width="4.6388526"
         id="rect837"
         style="fill:#000000;fill-opacity:0.19838056;stroke:#000000;stroke-width:0.973282;stroke-miterlimit:4;stroke-dasharray:none;stroke-opacity:1" />
      <path
         style="fill:none;stroke:#000000;stroke-width:0.264583px;stroke-linecap:butt;stroke-linejoin:miter;stroke-opacity:1"
         d="M 20.304692,97.789263 H 89.153935 Z"
         id="path852" />
      <path
         style="fill:none;stroke:#000000;stroke-width:0.264583px;stroke-linecap:butt;stroke-linejoin:miter;stroke-opacity:1"
         d="M 89.153933,97.789261 89.027683,57.589316 Z"
         id="path854"
         sodipodi:nodetypes="ccc" />
      <path
         style="fill:none;stroke:#000000;stroke-width:0.264583px;stroke-linecap:butt;stroke-linejoin:miter;stroke-opacity:1"
         d="m 89.027683,57.589316 22.076067,-0.07415 z"
         id="path856"
         sodipodi:nodetypes="ccc" />
      <path
         style="fill:none;stroke:#ff6f00;stroke-width:0.5;stroke-linecap:butt;stroke-linejoin:miter;stroke-miterlimit:4;stroke-dasharray:none;stroke-opacity:1"
         d="M 9.1726814,69.304703 H 202.05379 Z"
         id="path858" />
      <path
         id="path858-7"
         d="m 116.0599,116.69689 h 86.37609 z"
         style="fill:none;stroke:#ff6f00;stroke-width:0.5;stroke-linecap:butt;stroke-linejoin:miter;stroke-miterlimit:4;stroke-dasharray:none;stroke-opacity:1" />
      <path
         style="fill:none;stroke:#ff6f00;stroke-width:0.5;stroke-linecap:butt;stroke-linejoin:miter;stroke-opacity:1;stroke-miterlimit:4;stroke-dasharray:none"
         d="m 113.38168,57.479106 -0.0684,-42.651232 z"
         id="path875" />
      <path
         id="path875-9"
         d="M 64.481705,127.20008 64.413207,14.146069 Z"
         style="fill:none;stroke:#ff6f00;stroke-width:0.5;stroke-linecap:butt;stroke-linejoin:miter;stroke-miterlimit:4;stroke-dasharray:none;stroke-opacity:1" />
      <path
         style="fill:none;stroke:#ff6f00;stroke-width:0.582336;stroke-linecap:butt;stroke-linejoin:miter;stroke-miterlimit:4;stroke-dasharray:none;stroke-opacity:1"
         d="M 152.86306,165.92019 152.79456,12.566258 Z"
         id="path875-9-6" />
      <text
         xml:space="preserve"
         style="font-style:normal;font-weight:normal;font-size:10.5833px;line-height:1.25;font-family:sans-serif;fill:#ff6f00;fill-opacity:1;stroke:none;stroke-width:0.264583"
         x="153.30255"
         y="77.930916"
         id="text909"><tspan
           sodipodi:role="line"
           id="tspan907"
           x="153.30255"
           y="77.930916"
           style="fill:#ff6f00;fill-opacity:1;stroke-width:0.264583">0</tspan></text>
      <text
         id="text909-4"
         y="30.637197"
         x="66.438881"
         style="font-style:normal;font-weight:normal;font-size:10.5833px;line-height:1.25;font-family:sans-serif;fill:#ff6f00;fill-opacity:1;stroke:none;stroke-width:0.264583"
         xml:space="preserve"><tspan
           style="fill:#ff6f00;fill-opacity:1;stroke-width:0.264583"
           y="30.637197"
           x="66.438881"
           id="tspan907-7"
           sodipodi:role="line">1</tspan></text>
      <text
         id="text909-8"
         y="126.15673"
         x="117.09298"
         style="font-style:normal;font-weight:normal;font-size:10.5833px;line-height:1.25;font-family:sans-serif;fill:#ff6f00;fill-opacity:1;stroke:none;stroke-width:0.264583"
         xml:space="preserve"><tspan
           style="fill:#ff6f00;fill-opacity:1;stroke-width:0.264583"
           y="126.15673"
           x="117.09298"
           id="tspan907-78"
           sodipodi:role="line">2</tspan></text>
      <text
         id="text909-45"
         y="78.445183"
         x="21.615482"
         style="font-style:normal;font-weight:normal;font-size:10.5833px;line-height:1.25;font-family:sans-serif;fill:#ff6f00;fill-opacity:1;stroke:none;stroke-width:0.264583"
         xml:space="preserve"><tspan
           style="fill:#ff6f00;fill-opacity:1;stroke-width:0.264583"
           y="78.445183"
           x="21.615482"
           id="tspan907-0"
           sodipodi:role="line">3</tspan></text>
      <text
         id="text909-2"
         y="78.185539"
         x="65.207436"
         style="font-style:normal;font-weight:normal;font-size:10.5833px;line-height:1.25;font-family:sans-serif;fill:#ff6f00;fill-opacity:1;stroke:none;stroke-width:0.264583"
         xml:space="preserve"><tspan
           style="fill:#ff6f00;fill-opacity:1;stroke-width:0.264583"
           y="78.185539"
           x="65.207436"
           id="tspan907-8"
           sodipodi:role="line">4</tspan></text>
      <text
         id="text909-6"
         y="30.112978"
         x="153.40764"
         style="font-style:normal;font-weight:normal;font-size:10.5833px;line-height:1.25;font-family:sans-serif;fill:#ff6f00;fill-opacity:1;stroke:none;stroke-width:0.264583"
         xml:space="preserve"><tspan
           style="fill:#ff6f00;fill-opacity:1;stroke-width:0.264583"
           y="30.112978"
           x="153.40764"
           id="tspan907-5"
           sodipodi:role="line">5</tspan></text>
      <text
         id="text909-9"
         y="125.7141"
         x="153.1752"
         style="font-style:normal;font-weight:normal;font-size:10.5833px;line-height:1.25;font-family:sans-serif;fill:#ff6f00;fill-opacity:1;stroke:none;stroke-width:0.264583"
         xml:space="preserve"><tspan
           style="fill:#ff6f00;fill-opacity:1;stroke-width:0.264583"
           y="125.7141"
           x="153.1752"
           id="tspan907-2"
           sodipodi:role="line">6</tspan></text>
      <text
         id="text909-1"
         y="78.272087"
         x="116.5168"
         style="font-style:normal;font-weight:normal;font-size:10.5833px;line-height:1.25;font-family:sans-serif;fill:#ff6f00;fill-opacity:1;stroke:none;stroke-width:0.264583"
         xml:space="preserve"><tspan
           style="fill:#ff6f00;fill-opacity:1;stroke-width:0.264583"
           y="78.272087"
           x="116.5168"
           id="tspan907-04"
           sodipodi:role="line">7</tspan></text>
      <text
         id="text909-11"
         y="30.825127"
         x="21.573404"
         style="font-style:normal;font-weight:normal;font-size:10.5833px;line-height:1.25;font-family:sans-serif;fill:#ff6f00;fill-opacity:1;stroke:none;stroke-width:0.264583"
         xml:space="preserve"><tspan
           style="fill:#ff6f00;fill-opacity:1;stroke-width:0.264583"
           y="30.825127"
           x="21.573404"
           id="tspan907-9"
           sodipodi:role="line">8</tspan></text>
      <text
         id="text909-5"
         y="29.766794"
         x="113.87838"
         style="font-style:normal;font-weight:normal;font-size:10.5833px;line-height:1.25;font-family:sans-serif;fill:#ff6f00;fill-opacity:1;stroke:none;stroke-width:0.264583"
         xml:space="preserve"><tspan
           style="fill:#ff6f00;fill-opacity:1;stroke-width:0.264583"
           y="29.766794"
           x="113.87838"
           id="tspan907-74"
           sodipodi:role="line">9</tspan></text>
      <path
         id="path2260"
         d="m 4.7563278,154.70003 c 0.016212,-0.10855 7.0196512,-22.581 7.1698952,-23.00655 0.01957,-0.0555 0.177382,-0.07 0.210901,-0.0195 0.04313,0.065 7.19372,22.95946 7.200711,23.05494 0.0047,0.0649 -0.01861,0.105 -0.06647,0.11429 -0.08856,0.0171 -0.0051,0.26311 -1.039565,-3.05966 -0.438531,-1.40843 -0.828996,-2.59129 -0.8677,-2.62856 -0.08413,-0.081 -5.286467,-3.44876 -5.324996,-3.44715 -0.02443,8e-4 -5.2990266,3.41163 -5.3509581,3.45999 -0.012407,0.0116 -0.4165255,1.28049 -0.8980313,2.81981 -0.4815043,1.53935 -0.8853185,2.81366 -0.8973638,2.8318 -0.012054,0.0182 -0.05278,0.0331 -0.090541,0.0331 -0.054276,0 -0.063875,-0.0319 -0.045882,-0.15243 z m 4.5859444,-7.46901 c 1.3825138,-0.89424 2.5138238,-1.63504 2.5140228,-1.64621 4.27e-4,-0.0243 -3.3655078,-2.20266 -3.3779148,-2.18612 -0.0047,0.006 -0.387686,1.22784 -0.85102,2.71453 -0.4633335,1.48668 -0.8523795,2.71915 -0.8645452,2.73882 -0.012161,0.0198 -0.0023,0.0288 0.021836,0.0203 0.024169,-0.008 1.1751062,-0.74709 2.5576212,-1.64133 z m 7.1210618,-1.09627 c -0.467408,-1.49469 -0.854832,-2.72229 -0.860941,-2.72798 -0.02438,-0.0227 -3.328134,2.13854 -3.328134,2.1772 0,0.0386 5.003267,3.3016 5.027718,3.27882 0.0061,-0.006 -0.371236,-1.23335 -0.838643,-2.72804 z m -2.688269,-1.77592 c 0.902999,-0.58396 1.657853,-1.07501 1.677449,-1.09124 0.02581,-0.0213 -2.887044,-1.83 -3.362769,-2.08799 -0.03218,-0.0174 -0.740992,0.38838 -1.774977,1.01625 l -1.7214048,1.0453 0.880203,0.56996 c 0.484112,0.31349 1.2533888,0.81279 1.7095048,1.10957 0.456117,0.29679 0.8565,0.53066 0.889739,0.51974 0.03324,-0.0115 0.799255,-0.49764 1.702255,-1.08159 z m -3.429763,-2.39167 c 0.829634,-0.50303 1.492687,-0.92955 1.473452,-0.94785 -0.01924,-0.0182 -0.513856,-0.32398 -1.099159,-0.6793 -0.8996738,-0.54616 -1.0692728,-0.63527 -1.0970848,-0.57643 -0.0181,0.0383 -0.249346,0.76466 -0.513894,1.61419 -0.26455,0.84953 -0.490516,1.56937 -0.502148,1.59961 -0.0146,0.038 0.01784,0.0316 0.104635,-0.0203 0.06918,-0.0414 0.804571,-0.48689 1.6342038,-0.98991 z m 4.635527,-0.57126 c -0.275397,-0.88095 -0.510057,-1.62439 -0.521466,-1.65208 -0.02217,-0.0538 -2.212801,1.24286 -2.194715,1.2991 0.01,0.0312 3.186796,1.97479 3.206392,1.96173 0.0058,-0.005 -0.214816,-0.72779 -0.490211,-1.60875 z m -1.785158,-1.16037 c 0.609509,-0.37116 1.107284,-0.68668 1.106166,-0.70119 -0.0038,-0.0493 -2.192282,-1.4084 -2.264293,-1.40611 -0.07468,0.002 -2.2905838,1.39725 -2.2619898,1.42389 0.05816,0.0542 2.2391438,1.35821 2.2715728,1.35821 0.0222,0 0.539035,-0.30368 1.148544,-0.6748 z m -1.390382,-2.22708 c 0.04314,-0.0381 -0.09129,-0.14099 -0.631317,-0.48316 -0.377365,-0.23908 -0.699449,-0.42125 -0.715744,-0.4048 -0.0253,0.0255 -0.6937018,2.12675 -0.6937018,2.18072 0,0.0214 1.9549278,-1.21689 2.0407628,-1.29276 z m 2.181564,0.20896 c -0.190614,-0.60921 -0.352877,-1.11384 -0.360585,-1.12144 -0.0077,-0.008 -0.329378,0.18666 -0.714824,0.43166 l -0.700812,0.44544 1.057531,0.67512 c 0.581642,0.37131 1.05927,0.6755 1.061397,0.67599 0.0021,4.8e-4 -0.152093,-0.49757 -0.342707,-1.10677 z m -1.226747,-0.80418 c 0.356944,-0.22779 0.672077,-0.43496 0.700294,-0.46043 0.03882,-0.035 -0.08334,-0.13725 -0.501948,-0.42011 -0.304287,-0.2056 -0.63453,-0.42975 -0.733874,-0.4981 l -0.180624,-0.12427 -0.71415,0.48846 c -0.392783,0.26864 -0.718575,0.50194 -0.72398,0.51843 -0.01458,0.0444 1.398265,0.94189 1.45592,0.9248 0.02715,-0.008 0.341417,-0.20101 0.698362,-0.42878 z m -0.974726,-1.6673 c -0.0432,-0.0381 -0.22949,-0.17201 -0.413982,-0.29747 -0.281881,-0.19169 -0.339114,-0.21681 -0.358416,-0.15733 -0.11188,0.34477 -0.419153,1.34578 -0.419153,1.36547 0,0.0138 0.28577,-0.16988 0.635045,-0.40812 0.605129,-0.41276 0.631344,-0.43643 0.556506,-0.50255 z m 1.499899,0.22572 c -0.122191,-0.39125 -0.237249,-0.71135 -0.255686,-0.71135 -0.01843,0 -0.211491,0.12119 -0.429013,0.26931 l -0.395494,0.26932 0.644029,0.44202 c 0.354215,0.24311 0.647244,0.44201 0.651179,0.44201 0.004,0 -0.09282,-0.32009 -0.215015,-0.71131 z m -0.802158,-0.57661 c 0.221212,-0.14945 0.412025,-0.27946 0.424028,-0.28888 0.02174,-0.0171 -0.334537,-0.33091 -0.687511,-0.60558 l -0.185564,-0.14441 -0.381854,0.31732 c -0.21002,0.17451 -0.407876,0.33881 -0.439681,0.36509 -0.04625,0.0383 0.02787,0.10592 0.370238,0.338 0.235435,0.15961 0.443831,0.2902 0.463102,0.2902 0.01927,0 0.216029,-0.12228 0.437242,-0.27174 z m -0.898272,-0.89957 0.314483,-0.26178 -0.205364,-0.17436 c -0.112954,-0.0959 -0.217924,-0.16213 -0.233274,-0.14721 -0.01535,0.0149 -0.07874,0.19375 -0.140853,0.39737 -0.06213,0.20363 -0.126552,0.40327 -0.143186,0.44363 -0.04244,0.10293 0.02959,0.0576 0.408194,-0.25765 z m 1.187358,-0.16419 -0.139425,-0.45062 -0.161635,0.11922 c -0.287987,0.21242 -0.289422,0.21958 -0.07946,0.39737 0.355306,0.30087 0.493604,0.40919 0.506764,0.39693 0.0072,-0.007 -0.04955,-0.21505 -0.126241,-0.4629 z m -0.242827,-0.61804 c 0.02028,-0.0163 -0.077,-0.39674 -0.216182,-0.8454 -0.139187,-0.44866 -0.263812,-0.80576 -0.276946,-0.79355 -0.01313,0.0122 -0.13554,0.37281 -0.272015,0.80132 l -0.248138,0.77912 0.265224,0.2339 0.265224,0.23391 0.222974,-0.18983 c 0.122637,-0.10442 0.239573,-0.20317 0.259859,-0.21947 z m -3.4611498,-1.06965 c -0.116041,-0.28422 -0.150508,-0.49764 -0.151817,-0.93995 -0.0012,-0.39851 0.01712,-0.54357 0.09999,-0.79263 0.283493,-0.85205 0.875073,-1.49988 1.6944458,-1.85555 0.431948,-0.1875 0.823716,-0.26408 1.343381,-0.26258 0.866814,0.002 1.580962,0.27624 2.183178,0.8369 0.606964,0.56508 0.889203,1.15317 0.928418,1.93451 0.02021,0.40265 -0.0049,0.61143 -0.123199,1.02343 -0.03172,0.11051 -0.06731,0.15243 -0.129372,0.15243 -0.04708,0 -0.08561,-0.006 -0.08561,-0.0139 0,-0.008 0.03929,-0.15685 0.0873,-0.33168 0.178405,-0.64962 0.08594,-1.38639 -0.248945,-1.98362 -0.225521,-0.40219 -0.796619,-0.93575 -1.213246,-1.13349 -0.778184,-0.36935 -1.527219,-0.43312 -2.335144,-0.19882 -0.419103,0.12155 -0.808904,0.35091 -1.1826978,0.69592 -0.40647,0.37514 -0.701487,0.88651 -0.804233,1.39399 -0.09888,0.48842 -0.08049,0.76804 0.09741,1.48006 0.03184,0.12745 -0.107553,0.12299 -0.159853,-0.005 z m 1.4317308,-0.44329 c -0.08955,-0.15584 -0.09911,-0.6405 -0.01778,-0.90104 0.306008,-0.98029 1.522033,-1.41562 2.433228,-0.87109 0.539311,0.32229 0.830148,0.92208 0.729454,1.50435 -0.05054,0.29227 -0.107745,0.38507 -0.195539,0.31721 -0.04284,-0.0332 -0.04611,-0.0717 -0.01289,-0.15293 0.02443,-0.0598 0.04372,-0.24208 0.04282,-0.4052 -0.0021,-0.40246 -0.149957,-0.71032 -0.472974,-0.98525 -0.722101,-0.6146 -1.849087,-0.39553 -2.291681,0.44547 -0.07639,0.14517 -0.09799,0.25737 -0.09841,0.51117 -3.04e-4,0.17885 0.01521,0.38231 0.03446,0.45213 0.04433,0.16083 -0.07004,0.22549 -0.150679,0.0851 z"
         style="fill:#ff6f00;fill-opacity:1;stroke:none;stroke-width:0.0105303mm;stroke-opacity:1" />
    </g>
  </g>
</svg>
